<svg id="Layer_1" data-name="Layer 1" xmlns="http://www.w3.org/2000/svg" width="290" height="109" viewBox="0 0 290 109"><defs><style>.cls-1{fill:#1d4354;}.cls-1,.cls-2,.cls-3,.cls-4,.cls-5{fill-rule:evenodd;}.cls-2{fill:#2b5468;}.cls-3{fill:#336278;}.cls-4{fill:#6fda44;}.cls-5{fill:#fff;}</style></defs><title>illo-design-small</title><g id="Page-1"><g id="Padding-Group-10-Copy"><g id="Stacked-Group"><g id="illo-design-small"><polygon id="Fill-1" class="cls-1" points="0 109 290 109 290 0 0 0 0 109"/><polygon id="Fill-2" class="cls-2" points="0.6 10.7 165.3 10.7 165.3 10.6 0.6 10.6 0.6 10.7"/><polygon id="Fill-3" class="cls-2" points="0.6 28.4 165.3 28.4 165.3 28.3 0.6 28.3 0.6 28.4"/><polygon id="Fill-4" class="cls-2" points="0.6 46.1 165.3 46.1 165.3 46 0.6 46 0.6 46.1"/><polygon id="Fill-5" class="cls-2" points="0.6 63.8 165.3 63.8 165.3 63.7 0.6 63.7 0.6 63.8"/><polygon id="Fill-6" class="cls-2" points="0.6 81.5 165.3 81.5 165.3 81.4 0.6 81.4 0.6 81.5"/><polygon id="Fill-7" class="cls-2" points="0.6 99.2 165.3 99.2 165.3 99.1 0.6 99.1 0.6 99.2"/><polygon id="Fill-8" class="cls-2" points="6.1 108.6 6.2 108.6 6.2 0.3 6.1 0.3 6.1 108.6"/><polygon id="Fill-9" class="cls-2" points="23.8 108.6 23.9 108.6 23.9 0.3 23.8 0.3 23.8 108.6"/><polygon id="Fill-10" class="cls-2" points="41.5 108.6 41.6 108.6 41.6 0.3 41.5 0.3 41.5 108.6"/><polygon id="Fill-11" class="cls-2" points="59.2 108.6 59.3 108.6 59.3 0.3 59.2 0.3 59.2 108.6"/><polygon id="Fill-12" class="cls-2" points="76.9 108.6 77 108.6 77 0.3 76.9 0.3 76.9 108.6"/><polygon id="Fill-13" class="cls-2" points="94.6 108.6 94.7 108.6 94.7 0.3 94.6 0.3 94.6 108.6"/><polygon id="Fill-14" class="cls-2" points="112.3 108.6 112.4 108.6 112.4 0.3 112.3 0.3 112.3 108.6"/><polygon id="Fill-15" class="cls-2" points="130 108.6 130.1 108.6 130.1 0.3 130 0.3 130 108.6"/><polygon id="Fill-16" class="cls-2" points="147.7 108.6 147.8 108.6 147.8 0.3 147.7 0.3 147.7 108.6"/><polygon id="Fill-17" class="cls-2" points="165.4 108.6 165.5 108.6 165.5 0.3 165.4 0.3 165.4 108.6"/><g id="Group-191"><path id="Fill-18" class="cls-2" d="M7.1,10.65a.94.94,0,0,1-1,1,.94.94,0,0,1-1-1,.94.94,0,0,1,1-1,.94.94,0,0,1,1,1"/><path id="Fill-20" class="cls-2" d="M24.8,10.65a1,1,0,1,1-2,0,1,1,0,0,1,2,0"/><path id="Fill-22" class="cls-2" d="M42.5,10.65a1,1,0,0,1-2,0,1,1,0,1,1,2,0"/><path id="Fill-24" class="cls-2" d="M60.2,10.65a1,1,0,1,1-2,0,1,1,0,0,1,2,0"/><path id="Fill-26" class="cls-2" d="M77.9,10.65a1,1,0,1,1-2,0,1,1,0,0,1,2,0"/><path id="Fill-28" class="cls-2" d="M95.6,10.65a1,1,0,1,1-2,0,1,1,0,0,1,2,0"/><path id="Fill-30" class="cls-2" d="M113.3,10.65a1,1,0,1,1-2,0,1,1,0,0,1,2,0"/><path id="Fill-32" class="cls-2" d="M131,10.65a1,1,0,1,1-2,0,1,1,0,0,1,2,0"/><path id="Fill-34" class="cls-2" d="M148.7,10.65a1,1,0,1,1-2,0,1,1,0,0,1,2,0"/><path id="Fill-36" class="cls-2" d="M166.4,10.65a1,1,0,1,1-2,0,1,1,0,0,1,2,0"/><path id="Fill-38" class="cls-2" d="M7.1,28.35a.94.94,0,0,1-1,1,1,1,0,0,1,0-2,.94.94,0,0,1,1,1"/><path id="Fill-40" class="cls-2" d="M24.8,28.35a1,1,0,1,1-1-1,.94.94,0,0,1,1,1"/><path id="Fill-42" class="cls-2" d="M42.5,28.35a1,1,0,1,1-1-1,.94.94,0,0,1,1,1"/><path id="Fill-44" class="cls-2" d="M60.2,28.35a1,1,0,1,1-1-1,.94.94,0,0,1,1,1"/><path id="Fill-46" class="cls-2" d="M77.9,28.35a1,1,0,1,1-1-1,.94.94,0,0,1,1,1"/><path id="Fill-48" class="cls-2" d="M95.6,28.35a1,1,0,1,1-1-1,.94.94,0,0,1,1,1"/><path id="Fill-50" class="cls-2" d="M113.3,28.35a1,1,0,1,1-1-1,.94.94,0,0,1,1,1"/><path id="Fill-52" class="cls-2" d="M131,28.35a1,1,0,1,1-1-1,.94.94,0,0,1,1,1"/><path id="Fill-54" class="cls-2" d="M148.7,28.35a1,1,0,1,1-1-1,.94.94,0,0,1,1,1"/><path id="Fill-56" class="cls-2" d="M166.4,28.35a1,1,0,1,1-1-1,.94.94,0,0,1,1,1"/><path id="Fill-58" class="cls-2" d="M7.1,46.05a.94.94,0,0,1-1,1,1,1,0,0,1,0-2,.94.94,0,0,1,1,1"/><path id="Fill-60" class="cls-2" d="M24.8,46.05a1,1,0,1,1-1-1,.94.94,0,0,1,1,1"/><path id="Fill-62" class="cls-2" d="M42.5,46.05a1,1,0,1,1-1-1,.94.94,0,0,1,1,1"/><path id="Fill-64" class="cls-2" d="M60.2,46.05a1,1,0,1,1-1-1,.94.94,0,0,1,1,1"/><path id="Fill-66" class="cls-2" d="M77.9,46.05a1,1,0,1,1-1-1,.94.94,0,0,1,1,1"/><path id="Fill-68" class="cls-2" d="M95.6,46.05a1,1,0,1,1-1-1,.94.94,0,0,1,1,1"/><path id="Fill-70" class="cls-2" d="M113.3,46.05a1,1,0,1,1-1-1,.94.94,0,0,1,1,1"/><path id="Fill-72" class="cls-2" d="M131,46.05a1,1,0,1,1-1-1,.94.94,0,0,1,1,1"/><path id="Fill-74" class="cls-2" d="M148.7,46.05a1,1,0,1,1-1-1,.94.94,0,0,1,1,1"/><path id="Fill-76" class="cls-2" d="M166.4,46.05a1,1,0,1,1-1-1,.94.94,0,0,1,1,1"/><path id="Fill-78" class="cls-2" d="M7.1,63.75a.94.94,0,0,1-1,1,1,1,0,1,1,0-2,.94.94,0,0,1,1,1"/><path id="Fill-80" class="cls-2" d="M24.8,63.75a1,1,0,1,1-1-1,.94.94,0,0,1,1,1"/><path id="Fill-82" class="cls-2" d="M42.5,63.75a1,1,0,1,1-1-1,.94.94,0,0,1,1,1"/><path id="Fill-84" class="cls-2" d="M60.2,63.75a1,1,0,1,1-1-1,.94.94,0,0,1,1,1"/><path id="Fill-86" class="cls-2" d="M77.9,63.75a1,1,0,1,1-1-1,.94.94,0,0,1,1,1"/><path id="Fill-88" class="cls-2" d="M95.6,63.75a1,1,0,1,1-1-1,.94.94,0,0,1,1,1"/><path id="Fill-90" class="cls-2" d="M113.3,63.75a1,1,0,1,1-1-1,.94.94,0,0,1,1,1"/><path id="Fill-92" class="cls-2" d="M131,63.75a1,1,0,1,1-1-1,.94.94,0,0,1,1,1"/><path id="Fill-94" class="cls-2" d="M148.7,63.75a1,1,0,1,1-1-1,.94.94,0,0,1,1,1"/><path id="Fill-96" class="cls-2" d="M166.4,63.75a1,1,0,1,1-1-1,.94.94,0,0,1,1,1"/><path id="Fill-98" class="cls-2" d="M7.1,81.45a.94.94,0,0,1-1,1,1,1,0,1,1,0-2,.94.94,0,0,1,1,1"/><path id="Fill-100" class="cls-2" d="M24.8,81.45a1,1,0,1,1-1-1,.94.94,0,0,1,1,1"/><path id="Fill-102" class="cls-2" d="M42.5,81.45a1,1,0,1,1-1-1,.94.94,0,0,1,1,1"/><path id="Fill-104" class="cls-2" d="M60.2,81.45a1,1,0,1,1-1-1,.94.94,0,0,1,1,1"/><path id="Fill-106" class="cls-2" d="M77.9,81.45a1,1,0,1,1-1-1,.94.94,0,0,1,1,1"/><path id="Fill-108" class="cls-2" d="M95.6,81.45a1,1,0,1,1-1-1,.94.94,0,0,1,1,1"/><path id="Fill-110" class="cls-2" d="M113.3,81.45a1,1,0,1,1-1-1,.94.94,0,0,1,1,1"/><path id="Fill-112" class="cls-2" d="M131,81.45a1,1,0,1,1-1-1,.94.94,0,0,1,1,1"/><path id="Fill-114" class="cls-2" d="M148.7,81.45a1,1,0,1,1-1-1,.94.94,0,0,1,1,1"/><path id="Fill-116" class="cls-2" d="M166.4,81.45a1,1,0,1,1-1-1,.94.94,0,0,1,1,1"/><path id="Fill-118" class="cls-2" d="M7.1,99.15a.94.94,0,0,1-1,1,1,1,0,1,1,0-2,.94.94,0,0,1,1,1"/><path id="Fill-120" class="cls-2" d="M24.8,99.15a1,1,0,1,1-1-1,.94.94,0,0,1,1,1"/><path id="Fill-122" class="cls-2" d="M42.5,99.15a1,1,0,1,1-1-1,.94.94,0,0,1,1,1"/><path id="Fill-124" class="cls-2" d="M60.2,99.15a1,1,0,1,1-1-1,.94.94,0,0,1,1,1"/><path id="Fill-126" class="cls-2" d="M77.9,99.15a1,1,0,1,1-1-1,.94.94,0,0,1,1,1"/><path id="Fill-128" class="cls-2" d="M95.6,99.15a1,1,0,1,1-1-1,.94.94,0,0,1,1,1"/><path id="Fill-130" class="cls-2" d="M113.3,99.15a1,1,0,1,1-1-1,.94.94,0,0,1,1,1"/><path id="Fill-132" class="cls-2" d="M131,99.15a1,1,0,1,1-1-1,.94.94,0,0,1,1,1"/><path id="Fill-134" class="cls-2" d="M148.7,99.15a1,1,0,1,1-1-1,.94.94,0,0,1,1,1"/><path id="Fill-136" class="cls-2" d="M166.4,99.15a1,1,0,1,1-1-1,.94.94,0,0,1,1,1"/><polygon id="Fill-138" class="cls-2" points="165.5 10.65 289.4 10.65 289.4 10.55 165.5 10.55 165.5 10.65"/><polygon id="Fill-140" class="cls-2" points="165.5 28.35 289.4 28.35 289.4 28.25 165.5 28.25 165.5 28.35"/><polygon id="Fill-141" class="cls-2" points="165.5 46.05 289.4 46.05 289.4 45.95 165.5 45.95 165.5 46.05"/><polygon id="Fill-142" class="cls-2" points="165.5 63.75 289.4 63.75 289.4 63.65 165.5 63.65 165.5 63.75"/><polygon id="Fill-143" class="cls-2" points="165.5 81.45 289.4 81.45 289.4 81.35 165.5 81.35 165.5 81.45"/><polygon id="Fill-144" class="cls-2" points="165.5 99.15 289.4 99.15 289.4 99.05 165.5 99.05 165.5 99.15"/><polygon id="Fill-145" class="cls-2" points="183.6 108.55 183.8 108.55 183.8 0.35 183.6 0.35 183.6 108.55"/><polygon id="Fill-146" class="cls-2" points="201.3 108.55 201.5 108.55 201.5 0.35 201.3 0.35 201.3 108.55"/><polygon id="Fill-147" class="cls-2" points="219 108.55 219.2 108.55 219.2 0.35 219 0.35 219 108.55"/><polygon id="Fill-148" class="cls-2" points="236.7 108.55 236.9 108.55 236.9 0.35 236.7 0.35 236.7 108.55"/><polygon id="Fill-149" class="cls-2" points="254.4 108.55 254.6 108.55 254.6 0.35 254.4 0.35 254.4 108.55"/><polygon id="Fill-150" class="cls-2" points="272.1 108.55 272.3 108.55 272.3 0.35 272.1 0.35 272.1 108.55"/><path id="Fill-151" class="cls-2" d="M184.7,10.65a1,1,0,1,1-2,0,.94.94,0,0,1,1-1,1,1,0,0,1,1,1"/><path id="Fill-152" class="cls-2" d="M202.4,10.65a1,1,0,1,1-2,0,.94.94,0,0,1,1-1,1,1,0,0,1,1,1"/><path id="Fill-153" class="cls-2" d="M220.1,10.65a1,1,0,1,1-2,0,1,1,0,0,1,2,0"/><path id="Fill-154" class="cls-2" d="M237.8,10.65a1,1,0,1,1-2,0,.94.94,0,0,1,1-1,1,1,0,0,1,1,1"/><path id="Fill-155" class="cls-2" d="M255.5,10.65a1,1,0,0,1-2,0,.94.94,0,0,1,1-1,1,1,0,0,1,1,1"/><path id="Fill-156" class="cls-2" d="M273.2,10.65a1,1,0,0,1-2,0,.94.94,0,0,1,1-1,1,1,0,0,1,1,1"/><path id="Fill-157" class="cls-2" d="M184.7,28.35a1,1,0,1,1-1-1,1,1,0,0,1,1,1"/><path id="Fill-158" class="cls-2" d="M202.4,28.35a1,1,0,1,1-1-1,1,1,0,0,1,1,1"/><path id="Fill-159" class="cls-2" d="M220.1,28.35a1,1,0,1,1-1-1,.94.94,0,0,1,1,1"/><path id="Fill-160" class="cls-2" d="M237.8,28.35a1,1,0,1,1-1-1,1,1,0,0,1,1,1"/><path id="Fill-161" class="cls-2" d="M255.5,28.35a1,1,0,1,1-1-1,1,1,0,0,1,1,1"/><path id="Fill-162" class="cls-2" d="M273.2,28.35a1,1,0,1,1-1-1,1,1,0,0,1,1,1"/><path id="Fill-163" class="cls-2" d="M184.7,46.05a1,1,0,1,1-1-1,1,1,0,0,1,1,1"/><path id="Fill-164" class="cls-2" d="M202.4,46.05a1,1,0,1,1-1-1,1,1,0,0,1,1,1"/><path id="Fill-165" class="cls-2" d="M220.1,46.05a1,1,0,1,1-1-1,.94.94,0,0,1,1,1"/><path id="Fill-166" class="cls-2" d="M237.8,46.05a1,1,0,1,1-1-1,1,1,0,0,1,1,1"/><path id="Fill-167" class="cls-2" d="M255.5,46.05a1,1,0,1,1-1-1,1,1,0,0,1,1,1"/><path id="Fill-168" class="cls-2" d="M273.2,46.05a1,1,0,1,1-1-1,1,1,0,0,1,1,1"/><path id="Fill-169" class="cls-2" d="M184.7,63.75a1,1,0,1,1-1-1,1,1,0,0,1,1,1"/><path id="Fill-170" class="cls-2" d="M202.4,63.75a1,1,0,1,1-1-1,1,1,0,0,1,1,1"/><path id="Fill-171" class="cls-2" d="M220.1,63.75a1,1,0,1,1-1-1,.94.94,0,0,1,1,1"/><path id="Fill-172" class="cls-2" d="M237.8,63.75a1,1,0,1,1-1-1,1,1,0,0,1,1,1"/><path id="Fill-173" class="cls-2" d="M255.5,63.75a1,1,0,1,1-1-1,1,1,0,0,1,1,1"/><path id="Fill-174" class="cls-2" d="M273.2,63.75a1,1,0,1,1-1-1,1,1,0,0,1,1,1"/><path id="Fill-175" class="cls-2" d="M184.7,81.45a1,1,0,1,1-1-1,1,1,0,0,1,1,1"/><path id="Fill-176" class="cls-2" d="M202.4,81.45a1,1,0,1,1-1-1,1,1,0,0,1,1,1"/><path id="Fill-177" class="cls-2" d="M220.1,81.45a1,1,0,1,1-1-1,.94.94,0,0,1,1,1"/><path id="Fill-178" class="cls-2" d="M237.8,81.45a1,1,0,1,1-1-1,1,1,0,0,1,1,1"/><path id="Fill-179" class="cls-2" d="M255.5,81.45a1,1,0,1,1-1-1,1,1,0,0,1,1,1"/><path id="Fill-180" class="cls-2" d="M273.2,81.45a1,1,0,1,1-1-1,1,1,0,0,1,1,1"/><path id="Fill-181" class="cls-2" d="M184.7,99.15a1,1,0,1,1-1-1,1,1,0,0,1,1,1"/><path id="Fill-182" class="cls-2" d="M202.4,99.15a1,1,0,1,1-1-1,1,1,0,0,1,1,1"/><path id="Fill-183" class="cls-2" d="M220.1,99.15a1,1,0,1,1-1-1,.94.94,0,0,1,1,1"/><path id="Fill-184" class="cls-2" d="M237.8,99.15a1,1,0,1,1-1-1,1,1,0,0,1,1,1"/><path id="Fill-185" class="cls-2" d="M255.5,99.15a1,1,0,1,1-1-1,1,1,0,0,1,1,1"/><path id="Fill-186" class="cls-2" d="M273.2,99.15a1,1,0,1,1-1-1,1,1,0,0,1,1,1"/><path id="Fill-187" class="cls-3" d="M167.4,45A23.72,23.72,0,0,0,141,21.35a24.11,24.11,0,0,0-21,21.1A23.63,23.63,0,0,0,132.6,66a2.57,2.57,0,0,1,1.1,1.7l1.6,6.6a2,2,0,0,0,1.9,1.6H150a2,2,0,0,0,1.9-1.6l1.6-6.6a2,2,0,0,1,1.1-1.7,23.53,23.53,0,0,0,12.8-21"/><polygon id="Fill-188" class="cls-4" points="136.1 82.65 151.2 82.65 151.2 79.15 136.1 79.15 136.1 82.65"/><polygon id="Fill-189" class="cls-4" points="136.1 87.85 151.2 87.85 151.2 84.35 136.1 84.35 136.1 87.85"/><path id="Fill-190" class="cls-5" d="M144.6,49.05a5.19,5.19,0,0,1-6.1-6.1,5.24,5.24,0,0,1,4.1-4.1,5.19,5.19,0,0,1,6.1,6.1,5.11,5.11,0,0,1-4.1,4.1Zm12.1-8.4a.89.89,0,0,0-1-.8l-1.9.2c-.1-.1-.2-.1-.3-.2a7.68,7.68,0,0,0-1-1.8.3.3,0,0,1,0-.4l1-1.2a1,1,0,0,0,0-1.4l-3-2.5a.94.94,0,0,0-1.3.1L148.1,34c-.1.1-.3.2-.4.1a7,7,0,0,0-1.9-.6.32.32,0,0,1-.3-.3l-.1-1.7a.85.85,0,0,0-1-.8l-3.9.4a.85.85,0,0,0-.8,1l.2,1.7a.52.52,0,0,1-.2.4l-1.8.9a.3.3,0,0,1-.4,0l-1.2-1a1,1,0,0,0-1.4,0l-2.5,3a.93.93,0,0,0,.1,1.3l1.3,1.1c.1.1.2.3.1.4a7.27,7.27,0,0,0-.6,2.1l-.1.1-1.9.2c-.6.1-1,.5-.9,1l.4,4a.89.89,0,0,0,1,.8l1.8-.2c.1,0,.3.1.3.2l.9,1.8a.3.3,0,0,1,0,.4l-1.1,1.3a.94.94,0,0,0,.1,1.3l3,2.5a.94.94,0,0,0,1.3-.1l1.1-1.3c.1-.1.3-.2.4-.1a7,7,0,0,0,1.9.6.32.32,0,0,1,.3.3l.2,1.7a.85.85,0,0,0,1,.8l3.9-.4a.85.85,0,0,0,.8-1l-.2-1.7a.52.52,0,0,1,.2-.4l1.8-.9a.3.3,0,0,1,.4,0l1.2,1a1,1,0,0,0,1.4,0l2.5-3a.94.94,0,0,0-.1-1.3l-1.3-1.1c-.1-.1-.2-.3-.1-.4a6.64,6.64,0,0,0,.6-2,.1.1,0,0,0,.1-.1l2-.2a.89.89,0,0,0,.8-1Z"/></g></g></g></g></g></svg>