<svg id="Layer_1" data-name="Layer 1" xmlns="http://www.w3.org/2000/svg" xmlns:xlink="http://www.w3.org/1999/xlink" width="262" height="165" viewBox="0 0 262 165"><defs><style>.cls-1{fill:#fff;}.cls-1,.cls-2,.cls-3,.cls-5,.cls-6,.cls-7,.cls-8{fill-rule:evenodd;}.cls-2{fill:#1d4354;}.cls-3{fill:#2b5468;}.cls-4{mask:url(#mask);}.cls-5{fill:#336278;}.cls-6{fill:#6fda44;}.cls-7{fill:#e0e0e0;}.cls-8{fill:#34ba08;}</style><mask id="mask" x="0" y="0" width="262" height="165" maskUnits="userSpaceOnUse"><g id="mask-2"><polygon id="path-1" class="cls-1" points="0 165 262 165 262 0 0 0 0 165"/></g></mask></defs><title>illo-writing</title><g id="Page-1"><g id="Group"><g id="Tile-Copy-4"><g id="Stacked-Group"><g id="illo-writing"><polygon id="Fill-1" class="cls-2" points="0 165 262 165 262 0 0 0 0 165"/><polygon id="Fill-2" class="cls-3" points="1.1 16.51 261.63 16.51 261.63 16.3 1.1 16.3 1.1 16.51"/><polygon id="Fill-3" class="cls-3" points="1.1 43.33 261.63 43.33 261.63 43.12 1.1 43.12 1.1 43.33"/><polygon id="Fill-4" class="cls-3" points="1.1 70.15 261.63 70.15 261.63 69.94 1.1 69.94 1.1 70.15"/><polygon id="Fill-5" class="cls-3" points="1.1 96.97 261.63 96.97 261.63 96.76 1.1 96.76 1.1 96.97"/><polygon id="Fill-6" class="cls-3" points="1.1 123.8 261.63 123.8 261.63 123.58 1.1 123.58 1.1 123.8"/><polygon id="Fill-7" class="cls-3" points="1.1 150.62 261.63 150.62 261.63 150.41 1.1 150.41 1.1 150.62"/><polygon id="Fill-8" class="cls-3" points="9.36 164.84 9.58 164.84 9.58 0.82 9.36 0.82 9.36 164.84"/><polygon id="Fill-9" class="cls-3" points="36.19 164.84 36.4 164.84 36.4 0.82 36.19 0.82 36.19 164.84"/><polygon id="Fill-10" class="cls-3" points="63.01 164.84 63.22 164.84 63.22 0.82 63.01 0.82 63.01 164.84"/><polygon id="Fill-11" class="cls-3" points="89.83 164.84 90.04 164.84 90.04 0.82 89.83 0.82 89.83 164.84"/><polygon id="Fill-12" class="cls-3" points="116.65 164.84 116.86 164.84 116.86 0.82 116.65 0.82 116.65 164.84"/><polygon id="Fill-13" class="cls-3" points="143.47 164.84 143.68 164.84 143.68 0.82 143.47 0.82 143.47 164.84"/><polygon id="Fill-14" class="cls-3" points="170.29 164.84 170.5 164.84 170.5 0.82 170.29 0.82 170.29 164.84"/><polygon id="Fill-15" class="cls-3" points="197.12 164.84 197.33 164.84 197.33 0.82 197.12 0.82 197.12 164.84"/><polygon id="Fill-16" class="cls-3" points="223.94 164.84 224.15 164.84 224.15 0.82 223.94 0.82 223.94 164.84"/><polygon id="Fill-17" class="cls-3" points="250.76 164.84 250.97 164.84 250.97 0.82 250.76 0.82 250.76 164.84"/><g id="Group-161"><path id="Fill-18" class="cls-3" d="M11,16.4a1.51,1.51,0,1,1-1.51-1.51A1.52,1.52,0,0,1,11,16.4"/><path id="Fill-20" class="cls-3" d="M37.8,16.4a1.51,1.51,0,1,1-1.51-1.51A1.51,1.51,0,0,1,37.8,16.4"/><path id="Fill-22" class="cls-3" d="M64.63,16.4a1.52,1.52,0,1,1-1.52-1.51,1.52,1.52,0,0,1,1.52,1.51"/><path id="Fill-24" class="cls-3" d="M91.45,16.4a1.52,1.52,0,1,1-1.52-1.51,1.52,1.52,0,0,1,1.52,1.51"/><path id="Fill-26" class="cls-3" d="M118.27,16.4a1.52,1.52,0,1,1-1.51-1.51,1.52,1.52,0,0,1,1.51,1.51"/><path id="Fill-28" class="cls-3" d="M145.09,16.4a1.52,1.52,0,1,1-1.51-1.51,1.52,1.52,0,0,1,1.51,1.51"/><path id="Fill-30" class="cls-3" d="M171.91,16.4a1.51,1.51,0,1,1-1.51-1.51,1.52,1.52,0,0,1,1.51,1.51"/><path id="Fill-32" class="cls-3" d="M198.73,16.4a1.51,1.51,0,1,1-1.51-1.51,1.51,1.51,0,0,1,1.51,1.51"/><path id="Fill-34" class="cls-3" d="M225.55,16.4A1.51,1.51,0,1,1,224,14.89a1.51,1.51,0,0,1,1.51,1.51"/><path id="Fill-36" class="cls-3" d="M252.38,16.4a1.52,1.52,0,1,1-1.52-1.51,1.52,1.52,0,0,1,1.52,1.51"/><path id="Fill-38" class="cls-3" d="M11,43.22a1.51,1.51,0,1,1-1.51-1.51A1.52,1.52,0,0,1,11,43.22"/><path id="Fill-40" class="cls-3" d="M37.8,43.22a1.51,1.51,0,1,1-1.51-1.51,1.51,1.51,0,0,1,1.51,1.51"/><path id="Fill-42" class="cls-3" d="M64.63,43.22a1.52,1.52,0,1,1-1.52-1.51,1.52,1.52,0,0,1,1.52,1.51"/><path id="Fill-44" class="cls-3" d="M91.45,43.22a1.52,1.52,0,1,1-1.52-1.51,1.52,1.52,0,0,1,1.52,1.51"/><path id="Fill-46" class="cls-3" d="M118.27,43.22a1.52,1.52,0,1,1-1.51-1.51,1.52,1.52,0,0,1,1.51,1.51"/><path id="Fill-48" class="cls-3" d="M145.09,43.22a1.52,1.52,0,1,1-1.51-1.51,1.52,1.52,0,0,1,1.51,1.51"/><path id="Fill-50" class="cls-3" d="M171.91,43.22a1.51,1.51,0,1,1-1.51-1.51,1.52,1.52,0,0,1,1.51,1.51"/><path id="Fill-52" class="cls-3" d="M198.73,43.22a1.51,1.51,0,1,1-1.51-1.51,1.51,1.51,0,0,1,1.51,1.51"/><path id="Fill-54" class="cls-3" d="M225.55,43.22A1.51,1.51,0,1,1,224,41.71a1.51,1.51,0,0,1,1.51,1.51"/><path id="Fill-56" class="cls-3" d="M252.38,43.22a1.52,1.52,0,1,1-1.52-1.51,1.52,1.52,0,0,1,1.52,1.51"/><path id="Fill-58" class="cls-3" d="M11,70.05a1.51,1.51,0,1,1-1.51-1.52A1.52,1.52,0,0,1,11,70.05"/><path id="Fill-60" class="cls-3" d="M37.8,70.05a1.51,1.51,0,1,1-1.51-1.52,1.51,1.51,0,0,1,1.51,1.52"/><path id="Fill-62" class="cls-3" d="M64.63,70.05a1.52,1.52,0,1,1-1.52-1.52,1.52,1.52,0,0,1,1.52,1.52"/><path id="Fill-64" class="cls-3" d="M91.45,70.05a1.52,1.52,0,1,1-1.52-1.52,1.52,1.52,0,0,1,1.52,1.52"/><path id="Fill-66" class="cls-3" d="M118.27,70.05a1.52,1.52,0,1,1-1.51-1.52,1.52,1.52,0,0,1,1.51,1.52"/><path id="Fill-68" class="cls-3" d="M145.09,70.05a1.52,1.52,0,1,1-1.51-1.52,1.52,1.52,0,0,1,1.51,1.52"/><path id="Fill-70" class="cls-3" d="M171.91,70.05a1.51,1.51,0,1,1-1.51-1.52,1.52,1.52,0,0,1,1.51,1.52"/><path id="Fill-72" class="cls-3" d="M198.73,70.05a1.51,1.51,0,1,1-1.51-1.52,1.51,1.51,0,0,1,1.51,1.52"/><path id="Fill-74" class="cls-3" d="M225.55,70.05A1.51,1.51,0,1,1,224,68.53a1.51,1.51,0,0,1,1.51,1.52"/><path id="Fill-76" class="cls-3" d="M252.38,70.05a1.52,1.52,0,1,1-1.52-1.52,1.52,1.52,0,0,1,1.52,1.52"/><path id="Fill-78" class="cls-3" d="M11,96.87a1.51,1.51,0,1,1-1.51-1.52A1.52,1.52,0,0,1,11,96.87"/><path id="Fill-80" class="cls-3" d="M37.8,96.87a1.51,1.51,0,1,1-1.51-1.52,1.51,1.51,0,0,1,1.51,1.52"/><path id="Fill-82" class="cls-3" d="M64.63,96.87a1.52,1.52,0,1,1-1.52-1.52,1.52,1.52,0,0,1,1.52,1.52"/><path id="Fill-84" class="cls-3" d="M91.45,96.87a1.52,1.52,0,1,1-1.52-1.52,1.52,1.52,0,0,1,1.52,1.52"/><path id="Fill-86" class="cls-3" d="M118.27,96.87a1.52,1.52,0,1,1-1.51-1.52,1.52,1.52,0,0,1,1.51,1.52"/><path id="Fill-88" class="cls-3" d="M145.09,96.87a1.52,1.52,0,1,1-1.51-1.52,1.52,1.52,0,0,1,1.51,1.52"/><path id="Fill-90" class="cls-3" d="M171.91,96.87a1.51,1.51,0,1,1-1.51-1.52,1.52,1.52,0,0,1,1.51,1.52"/><path id="Fill-92" class="cls-3" d="M198.73,96.87a1.51,1.51,0,1,1-1.51-1.52,1.51,1.51,0,0,1,1.51,1.52"/><path id="Fill-94" class="cls-3" d="M225.55,96.87A1.51,1.51,0,1,1,224,95.35a1.51,1.51,0,0,1,1.51,1.52"/><path id="Fill-96" class="cls-3" d="M252.38,96.87a1.52,1.52,0,1,1-1.52-1.52,1.52,1.52,0,0,1,1.52,1.52"/><path id="Fill-98" class="cls-3" d="M11,123.69a1.51,1.51,0,1,1-1.51-1.51A1.51,1.51,0,0,1,11,123.69"/><path id="Fill-100" class="cls-3" d="M37.8,123.69a1.51,1.51,0,1,1-1.51-1.51,1.5,1.5,0,0,1,1.51,1.51"/><path id="Fill-102" class="cls-3" d="M64.63,123.69a1.52,1.52,0,1,1-1.52-1.51,1.51,1.51,0,0,1,1.52,1.51"/><path id="Fill-104" class="cls-3" d="M91.45,123.69a1.52,1.52,0,1,1-1.52-1.51,1.51,1.51,0,0,1,1.52,1.51"/><path id="Fill-106" class="cls-3" d="M118.27,123.69a1.52,1.52,0,1,1-1.51-1.51,1.51,1.51,0,0,1,1.51,1.51"/><path id="Fill-108" class="cls-3" d="M145.09,123.69a1.52,1.52,0,1,1-1.51-1.51,1.51,1.51,0,0,1,1.51,1.51"/><path id="Fill-110" class="cls-3" d="M171.91,123.69a1.51,1.51,0,1,1-1.51-1.51,1.51,1.51,0,0,1,1.51,1.51"/><path id="Fill-112" class="cls-3" d="M198.73,123.69a1.51,1.51,0,1,1-1.51-1.51,1.5,1.5,0,0,1,1.51,1.51"/><path id="Fill-114" class="cls-3" d="M225.55,123.69a1.51,1.51,0,1,1-1.51-1.51,1.5,1.5,0,0,1,1.51,1.51"/><path id="Fill-116" class="cls-3" d="M252.38,123.69a1.52,1.52,0,1,1-1.52-1.51,1.51,1.51,0,0,1,1.52,1.51"/><path id="Fill-118" class="cls-3" d="M11,150.51A1.51,1.51,0,1,1,9.47,149,1.51,1.51,0,0,1,11,150.51"/><path id="Fill-120" class="cls-3" d="M37.8,150.51A1.51,1.51,0,1,1,36.29,149a1.5,1.5,0,0,1,1.51,1.51"/><path id="Fill-122" class="cls-3" d="M64.63,150.51A1.52,1.52,0,1,1,63.11,149a1.51,1.51,0,0,1,1.52,1.51"/><path id="Fill-124" class="cls-3" d="M91.45,150.51A1.52,1.52,0,1,1,89.93,149a1.51,1.51,0,0,1,1.52,1.51"/><path id="Fill-126" class="cls-3" d="M118.27,150.51a1.52,1.52,0,1,1-1.51-1.51,1.51,1.51,0,0,1,1.51,1.51"/><path id="Fill-128" class="cls-3" d="M145.09,150.51a1.52,1.52,0,1,1-1.51-1.51,1.51,1.51,0,0,1,1.51,1.51"/><path id="Fill-130" class="cls-3" d="M171.91,150.51A1.51,1.51,0,1,1,170.4,149a1.51,1.51,0,0,1,1.51,1.51"/><path id="Fill-132" class="cls-3" d="M198.73,150.51a1.51,1.51,0,1,1-1.51-1.51,1.5,1.5,0,0,1,1.51,1.51"/><path id="Fill-134" class="cls-3" d="M225.55,150.51A1.51,1.51,0,1,1,224,149a1.5,1.5,0,0,1,1.51,1.51"/><path id="Fill-136" class="cls-3" d="M252.38,150.51a1.52,1.52,0,1,1-1.52-1.51,1.51,1.51,0,0,1,1.52,1.51"/><g class="cls-4"><polygon id="Fill-138" class="cls-5" points="92.52 129.49 167.84 129.49 167.84 35.51 92.52 35.51 92.52 129.49"/></g><g class="cls-4"><polygon id="Fill-140" class="cls-2" points="100.85 57.89 133.39 57.89 133.39 50.35 100.85 50.35 100.85 57.89"/></g><g class="cls-4"><path id="Fill-141" class="cls-2" d="M133.08,85.28H106.69a.73.73,0,1,1,0-1.46h26.39a.73.73,0,1,1,0,1.46"/></g><g class="cls-4"><path id="Fill-142" class="cls-2" d="M102.79,84.55a1.13,1.13,0,1,1-1.12-1.12,1.13,1.13,0,0,1,1.12,1.12"/></g><g class="cls-4"><path id="Fill-143" class="cls-2" d="M133.08,77.68H106.69a.73.73,0,1,1,0-1.46h26.39a.73.73,0,1,1,0,1.46"/></g><g class="cls-4"><path id="Fill-144" class="cls-2" d="M102.79,77a1.13,1.13,0,1,1-1.12-1.13A1.12,1.12,0,0,1,102.79,77"/></g><g class="cls-4"><path id="Fill-145" class="cls-2" d="M133.08,70.08H106.69a.74.74,0,0,1,0-1.47h26.39a.74.74,0,0,1,0,1.47"/></g><g class="cls-4"><path id="Fill-146" class="cls-2" d="M102.79,69.35a1.13,1.13,0,1,1-1.12-1.13,1.12,1.12,0,0,1,1.12,1.13"/></g><g class="cls-4"><path id="Fill-147" class="cls-2" d="M133.08,92.89H106.69a.74.74,0,0,1,0-1.47h26.39a.74.74,0,0,1,0,1.47"/></g><g class="cls-4"><path id="Fill-148" class="cls-2" d="M102.79,92.15A1.13,1.13,0,1,1,101.67,91a1.12,1.12,0,0,1,1.12,1.12"/></g><g class="cls-4"><path id="Fill-149" class="cls-2" d="M140.34,100.49H106.69a.74.74,0,0,1,0-1.47h33.65a.74.74,0,0,1,0,1.47"/></g><g class="cls-4"><path id="Fill-150" class="cls-2" d="M102.79,99.76a1.13,1.13,0,1,1-1.12-1.13,1.12,1.12,0,0,1,1.12,1.13"/></g><g class="cls-4"><path id="Fill-151" class="cls-2" d="M120,108.09H106.69a.73.73,0,1,1,0-1.46H120a.73.73,0,0,1,0,1.46"/></g><g class="cls-4"><path id="Fill-152" class="cls-2" d="M102.79,107.36a1.13,1.13,0,1,1-1.12-1.13,1.12,1.12,0,0,1,1.12,1.13"/></g><g class="cls-4"><polygon id="Fill-153" class="cls-6" points="144.93 90.34 150.75 95.36 171.33 72.25 164.75 66.58 144.93 90.34"/></g><g class="cls-4"><polygon id="Fill-154" class="cls-7" points="141.77 98.06 143.57 99.64 150.74 95.35 144.94 90.35 141.77 98.06"/></g><g class="cls-4"><polygon id="Fill-155" class="cls-6" points="191.15 48.49 185.32 43.47 164.75 66.58 171.32 72.25 191.15 48.49"/></g><g class="cls-4"><path id="Fill-156" class="cls-8" d="M185.3,43.44a3.88,3.88,0,1,1,5.88,5.07Z"/></g><g class="cls-4"><path id="Fill-157" class="cls-6" d="M177.42,69.5s9.57-4.17,16.12-19l-1.49-1.29-2.56,3s-2.91,9-13.62,15.93Z"/></g><g class="cls-4"><polygon id="Fill-158" class="cls-6" points="187.41 50.46 190.97 53.53 193.54 50.55 189.98 47.48 187.41 50.46"/></g><g class="cls-4"><polygon id="Fill-159" class="cls-2" points="164.55 66.77 171.17 72.48 171.66 71.9 165.04 66.2 164.55 66.77"/></g><g class="cls-4"><path id="Fill-160" class="cls-6" d="M143.57,99.64l-1.82-1.56-.66,1.63a.73.73,0,0,0,1,.85Z"/></g></g></g></g></g></g></g></svg>