<svg id="Layer_1" data-name="Layer 1" xmlns="http://www.w3.org/2000/svg" width="290" height="109" viewBox="0 0 290 109"><defs><style>.cls-1{fill:#1d4354;}.cls-1,.cls-2,.cls-3,.cls-4{fill-rule:evenodd;}.cls-2{fill:#2b5468;}.cls-3{fill:#336278;}.cls-4{fill:#6fda44;}</style></defs><title>illo-it-small</title><g id="Page-1"><g id="Padding-Group-10-Copy-3"><g id="Stacked-Group"><g id="illo-it-small"><polygon id="Fill-1" class="cls-1" points="0 109 290 109 290 0 0 0 0 109"/><polygon id="Fill-2" class="cls-2" points="0.6 10.6 165.3 10.6 165.3 10.5 0.6 10.5 0.6 10.6"/><polygon id="Fill-3" class="cls-2" points="0.6 28.3 165.3 28.3 165.3 28.2 0.6 28.2 0.6 28.3"/><polygon id="Fill-4" class="cls-2" points="0.6 46 165.3 46 165.3 45.9 0.6 45.9 0.6 46"/><polygon id="Fill-5" class="cls-2" points="0.6 63.7 165.3 63.7 165.3 63.6 0.6 63.6 0.6 63.7"/><polygon id="Fill-6" class="cls-2" points="0.6 81.4 165.3 81.4 165.3 81.3 0.6 81.3 0.6 81.4"/><polygon id="Fill-7" class="cls-2" points="0.6 99.1 165.3 99.1 165.3 99 0.6 99 0.6 99.1"/><polygon id="Fill-8" class="cls-2" points="6.1 108.5 6.2 108.5 6.2 0.3 6.1 0.3 6.1 108.5"/><polygon id="Fill-9" class="cls-2" points="23.8 108.5 23.9 108.5 23.9 0.3 23.8 0.3 23.8 108.5"/><polygon id="Fill-10" class="cls-2" points="41.5 108.5 41.6 108.5 41.6 0.3 41.5 0.3 41.5 108.5"/><polygon id="Fill-11" class="cls-2" points="59.2 108.5 59.3 108.5 59.3 0.3 59.2 0.3 59.2 108.5"/><polygon id="Fill-12" class="cls-2" points="76.9 108.5 77 108.5 77 0.3 76.9 0.3 76.9 108.5"/><polygon id="Fill-13" class="cls-2" points="94.6 108.5 94.7 108.5 94.7 0.3 94.6 0.3 94.6 108.5"/><polygon id="Fill-14" class="cls-2" points="112.3 108.5 112.4 108.5 112.4 0.3 112.3 0.3 112.3 108.5"/><polygon id="Fill-15" class="cls-2" points="130 108.5 130.1 108.5 130.1 0.3 130 0.3 130 108.5"/><polygon id="Fill-16" class="cls-2" points="147.7 108.5 147.8 108.5 147.8 0.3 147.7 0.3 147.7 108.5"/><polygon id="Fill-17" class="cls-2" points="165.4 108.5 165.5 108.5 165.5 0.3 165.4 0.3 165.4 108.5"/><g id="Group-198"><path id="Fill-18" class="cls-2" d="M7.1,10.55a.94.94,0,0,1-1,1,.94.94,0,0,1-1-1,.94.94,0,0,1,1-1,.94.94,0,0,1,1,1"/><path id="Fill-20" class="cls-2" d="M24.8,10.55a1,1,0,0,1-2,0,1,1,0,0,1,2,0"/><path id="Fill-22" class="cls-2" d="M42.5,10.55a1,1,0,0,1-2,0,1,1,0,1,1,2,0"/><path id="Fill-24" class="cls-2" d="M60.2,10.55a1,1,0,0,1-2,0,1,1,0,1,1,2,0"/><path id="Fill-26" class="cls-2" d="M77.9,10.55a1,1,0,0,1-2,0,1,1,0,1,1,2,0"/><path id="Fill-28" class="cls-2" d="M95.6,10.55a1,1,0,0,1-2,0,1,1,0,1,1,2,0"/><path id="Fill-30" class="cls-2" d="M113.3,10.55a1,1,0,0,1-2,0,1,1,0,1,1,2,0"/><path id="Fill-32" class="cls-2" d="M131,10.55a1,1,0,1,1-2,0,1,1,0,0,1,2,0"/><path id="Fill-34" class="cls-2" d="M148.7,10.55a1,1,0,1,1-2,0,1,1,0,0,1,2,0"/><path id="Fill-36" class="cls-2" d="M166.4,10.55a1,1,0,1,1-2,0,1,1,0,0,1,2,0"/><path id="Fill-38" class="cls-2" d="M7.1,28.25a.94.94,0,0,1-1,1,1,1,0,0,1,0-2,.94.94,0,0,1,1,1"/><path id="Fill-40" class="cls-2" d="M24.8,28.25a1,1,0,1,1-1-1,.94.94,0,0,1,1,1"/><path id="Fill-42" class="cls-2" d="M42.5,28.25a1,1,0,1,1-1-1,.94.94,0,0,1,1,1"/><path id="Fill-44" class="cls-2" d="M60.2,28.25a1,1,0,1,1-1-1,.94.94,0,0,1,1,1"/><path id="Fill-46" class="cls-2" d="M77.9,28.25a1,1,0,1,1-1-1,.94.94,0,0,1,1,1"/><path id="Fill-48" class="cls-2" d="M95.6,28.25a1,1,0,1,1-1-1,.94.94,0,0,1,1,1"/><path id="Fill-50" class="cls-2" d="M113.3,28.25a1,1,0,1,1-1-1,.94.94,0,0,1,1,1"/><path id="Fill-52" class="cls-2" d="M131,28.25a1,1,0,1,1-1-1,.94.94,0,0,1,1,1"/><path id="Fill-54" class="cls-2" d="M148.7,28.25a1,1,0,1,1-1-1,.94.94,0,0,1,1,1"/><path id="Fill-56" class="cls-2" d="M166.4,28.25a1,1,0,1,1-1-1,.94.94,0,0,1,1,1"/><path id="Fill-58" class="cls-2" d="M7.1,46a.94.94,0,0,1-1,1,1,1,0,0,1,0-2,.94.94,0,0,1,1,1"/><path id="Fill-60" class="cls-2" d="M24.8,46a1,1,0,1,1-1-1,.94.94,0,0,1,1,1"/><path id="Fill-62" class="cls-2" d="M42.5,46a1,1,0,1,1-1-1,.94.94,0,0,1,1,1"/><path id="Fill-64" class="cls-2" d="M60.2,46a1,1,0,1,1-1-1,.94.94,0,0,1,1,1"/><path id="Fill-66" class="cls-2" d="M77.9,46a1,1,0,1,1-1-1,.94.94,0,0,1,1,1"/><path id="Fill-68" class="cls-2" d="M95.6,46a1,1,0,1,1-1-1,.94.94,0,0,1,1,1"/><path id="Fill-70" class="cls-2" d="M113.3,46a1,1,0,1,1-1-1,.94.94,0,0,1,1,1"/><path id="Fill-72" class="cls-2" d="M131,46a1,1,0,1,1-1-1,.94.94,0,0,1,1,1"/><path id="Fill-74" class="cls-2" d="M148.7,46a1,1,0,1,1-1-1,.94.94,0,0,1,1,1"/><path id="Fill-76" class="cls-2" d="M166.4,46a1,1,0,1,1-1-1,.94.94,0,0,1,1,1"/><path id="Fill-78" class="cls-2" d="M7.1,63.65a.94.94,0,0,1-1,1,1,1,0,1,1,0-2,.94.94,0,0,1,1,1"/><path id="Fill-80" class="cls-2" d="M24.8,63.65a1,1,0,1,1-1-1,.94.94,0,0,1,1,1"/><path id="Fill-82" class="cls-2" d="M42.5,63.65a1,1,0,1,1-1-1,.94.94,0,0,1,1,1"/><path id="Fill-84" class="cls-2" d="M60.2,63.65a1,1,0,1,1-1-1,.94.94,0,0,1,1,1"/><path id="Fill-86" class="cls-2" d="M77.9,63.65a1,1,0,1,1-1-1,.94.94,0,0,1,1,1"/><path id="Fill-88" class="cls-2" d="M95.6,63.65a1,1,0,1,1-1-1,.94.94,0,0,1,1,1"/><path id="Fill-90" class="cls-2" d="M113.3,63.65a1,1,0,1,1-1-1,.94.94,0,0,1,1,1"/><path id="Fill-92" class="cls-2" d="M131,63.65a1,1,0,1,1-1-1,.94.94,0,0,1,1,1"/><path id="Fill-94" class="cls-2" d="M148.7,63.65a1,1,0,1,1-1-1,.94.94,0,0,1,1,1"/><path id="Fill-96" class="cls-2" d="M166.4,63.65a1,1,0,1,1-1-1,.94.94,0,0,1,1,1"/><path id="Fill-98" class="cls-2" d="M7.1,81.35a.94.94,0,0,1-1,1,1,1,0,1,1,0-2,.94.94,0,0,1,1,1"/><path id="Fill-100" class="cls-2" d="M24.8,81.35a1,1,0,1,1-1-1,.94.94,0,0,1,1,1"/><path id="Fill-102" class="cls-2" d="M42.5,81.35a1,1,0,1,1-1-1,.94.94,0,0,1,1,1"/><path id="Fill-104" class="cls-2" d="M60.2,81.35a1,1,0,1,1-1-1,.94.94,0,0,1,1,1"/><path id="Fill-106" class="cls-2" d="M77.9,81.35a1,1,0,1,1-1-1,.94.94,0,0,1,1,1"/><path id="Fill-108" class="cls-2" d="M95.6,81.35a1,1,0,1,1-1-1,.94.94,0,0,1,1,1"/><path id="Fill-110" class="cls-2" d="M113.3,81.35a1,1,0,1,1-1-1,.94.94,0,0,1,1,1"/><path id="Fill-112" class="cls-2" d="M131,81.35a1,1,0,1,1-1-1,.94.94,0,0,1,1,1"/><path id="Fill-114" class="cls-2" d="M148.7,81.35a1,1,0,1,1-1-1,.94.94,0,0,1,1,1"/><path id="Fill-116" class="cls-2" d="M166.4,81.35a1,1,0,1,1-1-1,.94.94,0,0,1,1,1"/><path id="Fill-118" class="cls-2" d="M7.1,99.05a.94.94,0,0,1-1,1,1,1,0,1,1,0-2,.94.94,0,0,1,1,1"/><path id="Fill-120" class="cls-2" d="M24.8,99.05a1,1,0,1,1-1-1,.94.94,0,0,1,1,1"/><path id="Fill-122" class="cls-2" d="M42.5,99.05a1,1,0,1,1-1-1,.94.94,0,0,1,1,1"/><path id="Fill-124" class="cls-2" d="M60.2,99.05a1,1,0,1,1-1-1,.94.94,0,0,1,1,1"/><path id="Fill-126" class="cls-2" d="M77.9,99.05a1,1,0,1,1-1-1,.94.94,0,0,1,1,1"/><path id="Fill-128" class="cls-2" d="M95.6,99.05a1,1,0,1,1-1-1,.94.94,0,0,1,1,1"/><path id="Fill-130" class="cls-2" d="M113.3,99.05a1,1,0,1,1-1-1,.94.94,0,0,1,1,1"/><path id="Fill-132" class="cls-2" d="M131,99.05a1,1,0,1,1-1-1,.94.94,0,0,1,1,1"/><path id="Fill-134" class="cls-2" d="M148.7,99.05a1,1,0,1,1-1-1,.94.94,0,0,1,1,1"/><path id="Fill-136" class="cls-2" d="M166.4,99.05a1,1,0,1,1-1-1,.94.94,0,0,1,1,1"/><polygon id="Fill-138" class="cls-2" points="165.5 10.65 289.4 10.65 289.4 10.45 165.5 10.45 165.5 10.65"/><polygon id="Fill-140" class="cls-2" points="165.5 28.35 289.4 28.35 289.4 28.15 165.5 28.15 165.5 28.35"/><polygon id="Fill-141" class="cls-2" points="165.5 46.05 289.4 46.05 289.4 45.85 165.5 45.85 165.5 46.05"/><polygon id="Fill-142" class="cls-2" points="165.5 63.75 289.4 63.75 289.4 63.55 165.5 63.55 165.5 63.75"/><polygon id="Fill-143" class="cls-2" points="165.5 81.45 289.4 81.45 289.4 81.25 165.5 81.25 165.5 81.45"/><polygon id="Fill-144" class="cls-2" points="165.5 99.15 289.4 99.15 289.4 98.95 165.5 98.95 165.5 99.15"/><polygon id="Fill-145" class="cls-2" points="183.6 108.45 183.8 108.45 183.8 0.25 183.6 0.25 183.6 108.45"/><polygon id="Fill-146" class="cls-2" points="201.3 108.45 201.5 108.45 201.5 0.25 201.3 0.25 201.3 108.45"/><polygon id="Fill-147" class="cls-2" points="219 108.45 219.2 108.45 219.2 0.25 219 0.25 219 108.45"/><polygon id="Fill-148" class="cls-2" points="236.7 108.45 236.9 108.45 236.9 0.25 236.7 0.25 236.7 108.45"/><polygon id="Fill-149" class="cls-2" points="254.4 108.45 254.6 108.45 254.6 0.25 254.4 0.25 254.4 108.45"/><polygon id="Fill-150" class="cls-2" points="272.1 108.45 272.3 108.45 272.3 0.25 272.1 0.25 272.1 108.45"/><path id="Fill-151" class="cls-2" d="M184.7,10.55a1,1,0,1,1-2,0,.94.94,0,0,1,1-1,1,1,0,0,1,1,1"/><path id="Fill-152" class="cls-2" d="M202.4,10.55a1,1,0,1,1-2,0,.94.94,0,0,1,1-1,1,1,0,0,1,1,1"/><path id="Fill-153" class="cls-2" d="M220.1,10.55a1,1,0,1,1-2,0,.94.94,0,0,1,1-1,1,1,0,0,1,1,1"/><path id="Fill-154" class="cls-2" d="M237.8,10.55a1,1,0,1,1-2,0,.94.94,0,0,1,1-1,1,1,0,0,1,1,1"/><path id="Fill-155" class="cls-2" d="M255.5,10.55a1,1,0,1,1-2,0,.94.94,0,0,1,1-1,1,1,0,0,1,1,1"/><path id="Fill-156" class="cls-2" d="M273.2,10.55a1,1,0,1,1-2,0,.94.94,0,0,1,1-1,1,1,0,0,1,1,1"/><path id="Fill-157" class="cls-2" d="M184.7,28.25a1,1,0,1,1-1-1,1,1,0,0,1,1,1"/><path id="Fill-158" class="cls-2" d="M202.4,28.25a1,1,0,1,1-1-1,1,1,0,0,1,1,1"/><path id="Fill-159" class="cls-2" d="M220.1,28.25a1,1,0,1,1-1-1,1,1,0,0,1,1,1"/><path id="Fill-160" class="cls-2" d="M237.8,28.25a1,1,0,1,1-1-1,1,1,0,0,1,1,1"/><path id="Fill-161" class="cls-2" d="M255.5,28.25a1,1,0,1,1-1-1,1,1,0,0,1,1,1"/><path id="Fill-162" class="cls-2" d="M273.2,28.25a1,1,0,1,1-1-1,1,1,0,0,1,1,1"/><path id="Fill-163" class="cls-2" d="M184.7,46a1,1,0,1,1-1-1,1,1,0,0,1,1,1"/><path id="Fill-164" class="cls-2" d="M202.4,46a1,1,0,1,1-1-1,1,1,0,0,1,1,1"/><path id="Fill-165" class="cls-2" d="M220.1,46a1,1,0,1,1-1-1,1,1,0,0,1,1,1"/><path id="Fill-166" class="cls-2" d="M237.8,46a1,1,0,1,1-1-1,1,1,0,0,1,1,1"/><path id="Fill-167" class="cls-2" d="M255.5,46a1,1,0,1,1-1-1,1,1,0,0,1,1,1"/><path id="Fill-168" class="cls-2" d="M273.2,46a1,1,0,1,1-1-1,1,1,0,0,1,1,1"/><path id="Fill-169" class="cls-2" d="M184.7,63.65a1,1,0,1,1-1-1,1,1,0,0,1,1,1"/><path id="Fill-170" class="cls-2" d="M202.4,63.65a1,1,0,1,1-1-1,1,1,0,0,1,1,1"/><path id="Fill-171" class="cls-2" d="M220.1,63.65a1,1,0,1,1-1-1,1,1,0,0,1,1,1"/><path id="Fill-172" class="cls-2" d="M237.8,63.65a1,1,0,1,1-1-1,1,1,0,0,1,1,1"/><path id="Fill-173" class="cls-2" d="M255.5,63.65a1,1,0,1,1-1-1,1,1,0,0,1,1,1"/><path id="Fill-174" class="cls-2" d="M273.2,63.65a1,1,0,1,1-1-1,1,1,0,0,1,1,1"/><path id="Fill-175" class="cls-2" d="M184.7,81.35a1,1,0,1,1-1-1,1,1,0,0,1,1,1"/><path id="Fill-176" class="cls-2" d="M202.4,81.35a1,1,0,1,1-1-1,1,1,0,0,1,1,1"/><path id="Fill-177" class="cls-2" d="M220.1,81.35a1,1,0,1,1-1-1,1,1,0,0,1,1,1"/><path id="Fill-178" class="cls-2" d="M237.8,81.35a1,1,0,1,1-1-1,1,1,0,0,1,1,1"/><path id="Fill-179" class="cls-2" d="M255.5,81.35a1,1,0,1,1-1-1,1,1,0,0,1,1,1"/><path id="Fill-180" class="cls-2" d="M273.2,81.35a1,1,0,1,1-1-1,1,1,0,0,1,1,1"/><path id="Fill-181" class="cls-2" d="M184.7,99.05a1,1,0,1,1-1-1,1,1,0,0,1,1,1"/><path id="Fill-182" class="cls-2" d="M202.4,99.05a1,1,0,1,1-1-1,1,1,0,0,1,1,1"/><path id="Fill-183" class="cls-2" d="M220.1,99.05a1,1,0,1,1-1-1,1,1,0,0,1,1,1"/><path id="Fill-184" class="cls-2" d="M237.8,99.05a1,1,0,1,1-1-1,1,1,0,0,1,1,1"/><path id="Fill-185" class="cls-2" d="M255.5,99.05a1,1,0,1,1-1-1,1,1,0,0,1,1,1"/><path id="Fill-186" class="cls-2" d="M273.2,99.05a1,1,0,1,1-1-1,1,1,0,0,1,1,1"/><path id="Fill-187" class="cls-3" d="M175.1,48.65a1,1,0,0,1-.9-.8,29.09,29.09,0,0,0-20.4-22,.9.9,0,0,1-.6-1.2.93.93,0,0,1,1.2-.6,31.24,31.24,0,0,1,21.7,23.5.92.92,0,0,1-.7,1.1h-.3"/><path id="Fill-188" class="cls-3" d="M138,84.35h-.2a31.24,31.24,0,0,1-22.4-21.8,1,1,0,0,1,1.9-.5,29.36,29.36,0,0,0,21.1,20.5.92.92,0,0,1,.7,1.1,1.51,1.51,0,0,1-1.1.7"/><path id="Fill-189" class="cls-3" d="M154.1,84.05a1,1,0,0,1-.9-.7,1,1,0,0,1,.6-1.2A29.48,29.48,0,0,0,173.7,62a1,1,0,0,1,1.9.5A31.56,31.56,0,0,1,154.4,84a.37.37,0,0,1-.3.1"/><path id="Fill-190" class="cls-3" d="M115.8,48.65h-.2a.92.92,0,0,1-.7-1.1,31.55,31.55,0,0,1,22.9-23.8.92.92,0,1,1,.4,1.8A29.42,29.42,0,0,0,116.7,48a1,1,0,0,1-.9.7"/><polygon id="Fill-191" class="cls-4" points="170.9 58.95 180.1 58.95 180.1 49.75 170.9 49.75 170.9 58.95"/><polygon id="Fill-192" class="cls-4" points="109.9 58.95 119.1 58.95 119.1 49.75 109.9 49.75 109.9 58.95"/><polygon id="Fill-193" class="cls-4" points="141 28.85 150.2 28.85 150.2 19.65 141 19.65 141 28.85"/><polygon id="Fill-194" class="cls-4" points="141 89.15 150.2 89.15 150.2 79.85 141 79.85 141 89.15"/><path id="Fill-195" class="cls-2" d="M164.4,54.45a18.8,18.8,0,1,1-18.8-18.8,18.78,18.78,0,0,1,18.8,18.8"/><path id="Fill-196" class="cls-3" d="M145.5,48.65c-9.8,0-16.7,3-16.7,5.7s6.9,5.7,16.7,5.7,16.7-3,16.7-5.7-6.8-5.7-16.7-5.7m0,13.4c-10.6,0-18.6-3.3-18.6-7.6s8-7.6,18.6-7.6,18.6,3.3,18.6,7.6-8,7.6-18.6,7.6"/><path id="Fill-197" class="cls-3" d="M145.5,37.75c-2.7,0-5.7,6.9-5.7,16.7s3,16.7,5.7,16.7,5.7-6.9,5.7-16.7-3-16.7-5.7-16.7m0,35.3c-4.4,0-7.6-8-7.6-18.6s3.3-18.6,7.6-18.6,7.6,8,7.6,18.6-3.2,18.6-7.6,18.6"/></g></g></g></g></g></svg>