<svg id="Layer_1" data-name="Layer 1" xmlns="http://www.w3.org/2000/svg" xmlns:xlink="http://www.w3.org/1999/xlink" width="262" height="165" viewBox="0 0 262 165"><defs><style>.cls-1{fill:#fff;}.cls-1,.cls-2,.cls-3,.cls-5,.cls-6,.cls-7{fill-rule:evenodd;}.cls-2{fill:#1d4354;}.cls-3{fill:#2f5a6e;}.cls-4{mask:url(#mask);}.cls-5{fill:#2b5468;}.cls-6{fill:#6fda44;}.cls-7{fill:#b2b2b2;}</style><mask id="mask" x="0" y="0" width="262" height="165" maskUnits="userSpaceOnUse"><g id="mask-2"><polygon id="path-1" class="cls-1" points="0 165 262 165 262 0 0 0 0 165"/></g></mask></defs><title>illo-engineering</title><g id="Page-1"><g id="Group"><g id="Tile-Copy-6"><g id="Stacked-Group"><g id="illo-engineering"><polygon id="Fill-1" class="cls-2" points="0 165 262 165 262 0 0 0 0 165"/><g id="Group-874"><path id="Fill-2" class="cls-3" d="M4,5.53a.69.69,0,0,1-.68.68.68.68,0,0,1-.67-.68.67.67,0,0,1,.67-.67A.68.68,0,0,1,4,5.53"/><path id="Fill-4" class="cls-3" d="M14.62,5.53a.68.68,0,1,1-1.35,0,.68.68,0,0,1,1.35,0"/><path id="Fill-6" class="cls-3" d="M25.22,5.53a.68.68,0,0,1-.67.68.69.69,0,0,1-.68-.68.68.68,0,0,1,.68-.67.67.67,0,0,1,.67.67"/><path id="Fill-8" class="cls-3" d="M35.82,5.53a.68.68,0,0,1-.67.68.69.69,0,0,1-.68-.68.68.68,0,0,1,.68-.67.67.67,0,0,1,.67.67"/><path id="Fill-10" class="cls-3" d="M46.43,5.53a.69.69,0,0,1-.68.68.68.68,0,0,1-.67-.68.67.67,0,0,1,.67-.67.68.68,0,0,1,.68.67"/><path id="Fill-12" class="cls-3" d="M57,5.53a.68.68,0,1,1-1.35,0,.68.68,0,0,1,1.35,0"/><path id="Fill-14" class="cls-3" d="M67.63,5.53A.68.68,0,1,1,67,4.86a.67.67,0,0,1,.67.67"/><path id="Fill-16" class="cls-3" d="M78.23,5.53a.67.67,0,1,1-1.34,0,.67.67,0,0,1,1.34,0"/><path id="Fill-18" class="cls-3" d="M88.83,5.53a.67.67,0,1,1-1.34,0,.67.67,0,0,1,1.34,0"/><path id="Fill-20" class="cls-3" d="M99.44,5.53a.69.69,0,0,1-.68.68.68.68,0,0,1-.67-.68.67.67,0,0,1,.67-.67.68.68,0,0,1,.68.67"/><path id="Fill-22" class="cls-3" d="M110,5.53a.68.68,0,1,1-.67-.67.67.67,0,0,1,.67.67"/><path id="Fill-24" class="cls-3" d="M120.64,5.53a.68.68,0,0,1-.67.68.69.69,0,0,1-.68-.68.68.68,0,0,1,.68-.67.67.67,0,0,1,.67.67"/><path id="Fill-26" class="cls-3" d="M131.24,5.53a.67.67,0,1,1-1.34,0,.67.67,0,1,1,1.34,0"/><path id="Fill-28" class="cls-3" d="M141.85,5.53a.69.69,0,0,1-.68.68.68.68,0,0,1-.67-.68.67.67,0,0,1,.67-.67.68.68,0,0,1,.68.67"/><path id="Fill-30" class="cls-3" d="M152.45,5.53a.68.68,0,1,1-1.35,0,.68.68,0,0,1,1.35,0"/><path id="Fill-32" class="cls-3" d="M163.05,5.53a.68.68,0,1,1-.67-.67.67.67,0,0,1,.67.67"/><path id="Fill-34" class="cls-3" d="M173.65,5.53a.67.67,0,1,1-1.34,0,.67.67,0,1,1,1.34,0"/><path id="Fill-36" class="cls-3" d="M184.26,5.53a.69.69,0,0,1-.68.68.68.68,0,0,1-.67-.68.67.67,0,0,1,.67-.67.68.68,0,0,1,.68.67"/><path id="Fill-38" class="cls-3" d="M194.86,5.53a.68.68,0,1,1-1.35,0,.68.68,0,0,1,1.35,0"/><path id="Fill-40" class="cls-3" d="M205.46,5.53a.68.68,0,1,1-.67-.67.67.67,0,0,1,.67.67"/><path id="Fill-42" class="cls-3" d="M4,15.15a.68.68,0,0,1-.68.68A.68.68,0,1,1,4,15.15"/><path id="Fill-44" class="cls-3" d="M14.62,15.15a.68.68,0,1,1-.68-.67.67.67,0,0,1,.68.67"/><path id="Fill-46" class="cls-3" d="M25.22,15.15a.67.67,0,0,1-.67.68.68.68,0,1,1,0-1.35.67.67,0,0,1,.67.67"/><path id="Fill-48" class="cls-3" d="M35.82,15.15a.67.67,0,0,1-.67.68.68.68,0,1,1,0-1.35.67.67,0,0,1,.67.67"/><path id="Fill-50" class="cls-3" d="M46.43,15.15a.68.68,0,0,1-.68.68.68.68,0,1,1,.68-.68"/><path id="Fill-52" class="cls-3" d="M57,15.15a.68.68,0,1,1-.68-.67.67.67,0,0,1,.68.67"/><path id="Fill-54" class="cls-3" d="M67.63,15.15a.68.68,0,1,1-.67-.67.67.67,0,0,1,.67.67"/><path id="Fill-56" class="cls-3" d="M78.23,15.15a.67.67,0,1,1-.67-.67.67.67,0,0,1,.67.67"/><path id="Fill-58" class="cls-3" d="M88.83,15.15a.67.67,0,1,1-.67-.67.67.67,0,0,1,.67.67"/><path id="Fill-60" class="cls-3" d="M99.44,15.15a.68.68,0,0,1-.68.68.68.68,0,1,1,.68-.68"/><path id="Fill-62" class="cls-3" d="M110,15.15a.68.68,0,1,1-.67-.67.67.67,0,0,1,.67.67"/><path id="Fill-64" class="cls-3" d="M120.64,15.15a.67.67,0,0,1-.67.68.68.68,0,1,1,0-1.35.67.67,0,0,1,.67.67"/><path id="Fill-66" class="cls-3" d="M131.24,15.15a.67.67,0,1,1-.67-.67.67.67,0,0,1,.67.67"/><path id="Fill-68" class="cls-3" d="M141.85,15.15a.68.68,0,0,1-.68.68.68.68,0,1,1,.68-.68"/><path id="Fill-70" class="cls-3" d="M152.45,15.15a.68.68,0,1,1-.68-.67.67.67,0,0,1,.68.67"/><path id="Fill-72" class="cls-3" d="M163.05,15.15a.68.68,0,1,1-.67-.67.67.67,0,0,1,.67.67"/><path id="Fill-74" class="cls-3" d="M173.65,15.15a.67.67,0,1,1-.67-.67.67.67,0,0,1,.67.67"/><path id="Fill-76" class="cls-3" d="M184.26,15.15a.68.68,0,0,1-.68.68.68.68,0,1,1,.68-.68"/><path id="Fill-78" class="cls-3" d="M194.86,15.15a.68.68,0,1,1-.68-.67.67.67,0,0,1,.68.67"/><path id="Fill-80" class="cls-3" d="M205.46,15.15a.68.68,0,1,1-.67-.67.67.67,0,0,1,.67.67"/><path id="Fill-82" class="cls-3" d="M4,24.77a.68.68,0,0,1-.68.68A.68.68,0,1,1,4,24.77"/><path id="Fill-84" class="cls-3" d="M14.62,24.77a.68.68,0,1,1-.68-.67.67.67,0,0,1,.68.67"/><path id="Fill-86" class="cls-3" d="M25.22,24.77a.67.67,0,0,1-.67.68.68.68,0,1,1,0-1.35.67.67,0,0,1,.67.67"/><path id="Fill-88" class="cls-3" d="M35.82,24.77a.67.67,0,0,1-.67.68.68.68,0,1,1,0-1.35.67.67,0,0,1,.67.67"/><path id="Fill-90" class="cls-3" d="M46.43,24.77a.68.68,0,0,1-.68.68.68.68,0,1,1,.68-.68"/><path id="Fill-92" class="cls-3" d="M57,24.77a.68.68,0,1,1-.68-.67.67.67,0,0,1,.68.67"/><path id="Fill-94" class="cls-3" d="M67.63,24.77A.68.68,0,1,1,67,24.1a.67.67,0,0,1,.67.67"/><path id="Fill-96" class="cls-3" d="M78.23,24.77a.67.67,0,1,1-.67-.67.67.67,0,0,1,.67.67"/><path id="Fill-98" class="cls-3" d="M88.83,24.77a.67.67,0,1,1-.67-.67.67.67,0,0,1,.67.67"/><path id="Fill-100" class="cls-3" d="M99.44,24.77a.68.68,0,0,1-.68.68.68.68,0,1,1,.68-.68"/><path id="Fill-102" class="cls-3" d="M110,24.77a.68.68,0,1,1-.67-.67.67.67,0,0,1,.67.67"/><path id="Fill-104" class="cls-3" d="M120.64,24.77a.67.67,0,0,1-.67.68.68.68,0,1,1,0-1.35.67.67,0,0,1,.67.67"/><path id="Fill-106" class="cls-3" d="M131.24,24.77a.67.67,0,1,1-.67-.67.67.67,0,0,1,.67.67"/><path id="Fill-108" class="cls-3" d="M141.85,24.77a.68.68,0,0,1-.68.68.68.68,0,1,1,.68-.68"/><path id="Fill-110" class="cls-3" d="M152.45,24.77a.68.68,0,1,1-.68-.67.67.67,0,0,1,.68.67"/><path id="Fill-112" class="cls-3" d="M163.05,24.77a.68.68,0,1,1-.67-.67.67.67,0,0,1,.67.67"/><path id="Fill-114" class="cls-3" d="M173.65,24.77a.67.67,0,1,1-.67-.67.67.67,0,0,1,.67.67"/><path id="Fill-116" class="cls-3" d="M184.26,24.77a.68.68,0,0,1-.68.68.68.68,0,1,1,.68-.68"/><path id="Fill-118" class="cls-3" d="M194.86,24.77a.68.68,0,1,1-.68-.67.67.67,0,0,1,.68.67"/><path id="Fill-120" class="cls-3" d="M205.46,24.77a.68.68,0,1,1-.67-.67.67.67,0,0,1,.67.67"/><path id="Fill-122" class="cls-3" d="M4,34.39a.68.68,0,0,1-.68.68A.68.68,0,1,1,4,34.39"/><path id="Fill-124" class="cls-3" d="M14.62,34.39a.68.68,0,1,1-.68-.67.67.67,0,0,1,.68.67"/><path id="Fill-126" class="cls-3" d="M25.22,34.39a.67.67,0,0,1-.67.68.68.68,0,1,1,0-1.35.67.67,0,0,1,.67.67"/><path id="Fill-128" class="cls-3" d="M35.82,34.39a.67.67,0,0,1-.67.68.68.68,0,1,1,0-1.35.67.67,0,0,1,.67.67"/><path id="Fill-130" class="cls-3" d="M46.43,34.39a.68.68,0,0,1-.68.68.68.68,0,1,1,.68-.68"/><path id="Fill-132" class="cls-3" d="M57,34.39a.68.68,0,1,1-.68-.67.67.67,0,0,1,.68.67"/><path id="Fill-134" class="cls-3" d="M67.63,34.39a.68.68,0,1,1-.67-.67.67.67,0,0,1,.67.67"/><path id="Fill-136" class="cls-3" d="M78.23,34.39a.67.67,0,1,1-.67-.67.67.67,0,0,1,.67.67"/><path id="Fill-138" class="cls-3" d="M88.83,34.39a.67.67,0,1,1-.67-.67.67.67,0,0,1,.67.67"/><path id="Fill-140" class="cls-3" d="M99.44,34.39a.68.68,0,0,1-.68.68.68.68,0,1,1,.68-.68"/><path id="Fill-142" class="cls-3" d="M110,34.39a.68.68,0,1,1-.67-.67.67.67,0,0,1,.67.67"/><path id="Fill-144" class="cls-3" d="M120.64,34.39a.67.67,0,0,1-.67.68.68.68,0,1,1,0-1.35.67.67,0,0,1,.67.67"/><path id="Fill-146" class="cls-3" d="M131.24,34.39a.67.67,0,1,1-.67-.67.67.67,0,0,1,.67.67"/><path id="Fill-148" class="cls-3" d="M141.85,34.39a.68.68,0,0,1-.68.68.68.68,0,1,1,.68-.68"/><path id="Fill-150" class="cls-3" d="M152.45,34.39a.68.68,0,1,1-.68-.67.67.67,0,0,1,.68.67"/><path id="Fill-152" class="cls-3" d="M163.05,34.39a.68.68,0,1,1-.67-.67.67.67,0,0,1,.67.67"/><path id="Fill-154" class="cls-3" d="M173.65,34.39a.67.67,0,1,1-.67-.67.67.67,0,0,1,.67.67"/><path id="Fill-156" class="cls-3" d="M184.26,34.39a.68.68,0,0,1-.68.68.68.68,0,1,1,.68-.68"/><path id="Fill-158" class="cls-3" d="M194.86,34.39a.68.68,0,1,1-.68-.67.67.67,0,0,1,.68.67"/><path id="Fill-160" class="cls-3" d="M205.46,34.39a.68.68,0,1,1-.67-.67.67.67,0,0,1,.67.67"/><path id="Fill-162" class="cls-3" d="M4,44a.68.68,0,0,1-.68.67.68.68,0,0,1,0-1.35A.68.68,0,0,1,4,44"/><path id="Fill-164" class="cls-3" d="M14.62,44a.68.68,0,1,1-.68-.68.67.67,0,0,1,.68.68"/><path id="Fill-166" class="cls-3" d="M25.22,44a.67.67,0,0,1-.67.67.68.68,0,1,1,.67-.67"/><path id="Fill-168" class="cls-3" d="M35.82,44a.67.67,0,0,1-.67.67.68.68,0,1,1,.67-.67"/><path id="Fill-170" class="cls-3" d="M46.43,44a.68.68,0,0,1-.68.67.68.68,0,0,1,0-1.35.68.68,0,0,1,.68.68"/><path id="Fill-172" class="cls-3" d="M57,44a.68.68,0,1,1-.68-.68A.67.67,0,0,1,57,44"/><path id="Fill-174" class="cls-3" d="M67.63,44a.68.68,0,1,1-.67-.68.67.67,0,0,1,.67.68"/><path id="Fill-176" class="cls-3" d="M78.23,44a.67.67,0,1,1-.67-.68.67.67,0,0,1,.67.68"/><path id="Fill-178" class="cls-3" d="M88.83,44a.67.67,0,1,1-.67-.68.67.67,0,0,1,.67.68"/><path id="Fill-180" class="cls-3" d="M99.44,44a.68.68,0,0,1-.68.67.68.68,0,0,1,0-1.35.68.68,0,0,1,.68.68"/><path id="Fill-182" class="cls-3" d="M110,44a.68.68,0,1,1-.67-.68A.67.67,0,0,1,110,44"/><path id="Fill-184" class="cls-3" d="M120.64,44a.67.67,0,0,1-.67.67.68.68,0,1,1,.67-.67"/><path id="Fill-186" class="cls-3" d="M131.24,44a.67.67,0,1,1-.67-.68.67.67,0,0,1,.67.68"/><path id="Fill-188" class="cls-3" d="M141.85,44a.68.68,0,0,1-.68.67.68.68,0,0,1,0-1.35.68.68,0,0,1,.68.68"/><path id="Fill-190" class="cls-3" d="M152.45,44a.68.68,0,1,1-.68-.68.67.67,0,0,1,.68.68"/><path id="Fill-192" class="cls-3" d="M163.05,44a.68.68,0,1,1-.67-.68.67.67,0,0,1,.67.68"/><path id="Fill-194" class="cls-3" d="M173.65,44a.67.67,0,1,1-.67-.68.67.67,0,0,1,.67.68"/><path id="Fill-196" class="cls-3" d="M184.26,44a.68.68,0,0,1-.68.67.68.68,0,0,1,0-1.35.68.68,0,0,1,.68.68"/><path id="Fill-198" class="cls-3" d="M194.86,44a.68.68,0,1,1-.68-.68.67.67,0,0,1,.68.68"/><path id="Fill-200" class="cls-3" d="M205.46,44a.68.68,0,1,1-.67-.68.67.67,0,0,1,.67.68"/><path id="Fill-202" class="cls-3" d="M4,53.64a.68.68,0,0,1-.68.67.67.67,0,0,1-.67-.67A.68.68,0,0,1,3.34,53a.69.69,0,0,1,.68.68"/><path id="Fill-204" class="cls-3" d="M14.62,53.64a.68.68,0,1,1-.68-.68.68.68,0,0,1,.68.68"/><path id="Fill-206" class="cls-3" d="M25.22,53.64a.67.67,0,0,1-.67.67.68.68,0,0,1-.68-.67.69.69,0,0,1,.68-.68.68.68,0,0,1,.67.68"/><path id="Fill-208" class="cls-3" d="M35.82,53.64a.67.67,0,0,1-.67.67.68.68,0,0,1-.68-.67.69.69,0,0,1,.68-.68.68.68,0,0,1,.67.68"/><path id="Fill-210" class="cls-3" d="M46.43,53.64a.68.68,0,0,1-.68.67.67.67,0,0,1-.67-.67.68.68,0,0,1,.67-.68.69.69,0,0,1,.68.68"/><path id="Fill-212" class="cls-3" d="M57,53.64a.68.68,0,1,1-.68-.68.68.68,0,0,1,.68.68"/><path id="Fill-214" class="cls-3" d="M67.63,53.64a.68.68,0,0,1-1.35,0,.68.68,0,1,1,1.35,0"/><path id="Fill-216" class="cls-3" d="M78.23,53.64a.67.67,0,0,1-1.34,0,.67.67,0,1,1,1.34,0"/><path id="Fill-218" class="cls-3" d="M88.83,53.64a.67.67,0,0,1-1.34,0,.67.67,0,1,1,1.34,0"/><path id="Fill-220" class="cls-3" d="M99.44,53.64a.68.68,0,0,1-.68.67.67.67,0,0,1-.67-.67.68.68,0,0,1,.67-.68.69.69,0,0,1,.68.68"/><path id="Fill-222" class="cls-3" d="M110,53.64a.68.68,0,0,1-1.35,0,.68.68,0,1,1,1.35,0"/><path id="Fill-224" class="cls-3" d="M120.64,53.64a.67.67,0,0,1-.67.67.68.68,0,0,1-.68-.67A.69.69,0,0,1,120,53a.68.68,0,0,1,.67.68"/><path id="Fill-226" class="cls-3" d="M131.24,53.64a.67.67,0,1,1-1.34,0,.67.67,0,1,1,1.34,0"/><path id="Fill-228" class="cls-3" d="M141.85,53.64a.68.68,0,0,1-.68.67.67.67,0,0,1-.67-.67.68.68,0,0,1,.67-.68.69.69,0,0,1,.68.68"/><path id="Fill-230" class="cls-3" d="M152.45,53.64a.68.68,0,1,1-.68-.68.68.68,0,0,1,.68.68"/><path id="Fill-232" class="cls-3" d="M163.05,53.64a.68.68,0,0,1-1.35,0,.68.68,0,1,1,1.35,0"/><path id="Fill-234" class="cls-3" d="M173.65,53.64a.67.67,0,1,1-1.34,0,.67.67,0,1,1,1.34,0"/><path id="Fill-236" class="cls-3" d="M184.26,53.64a.68.68,0,0,1-.68.67.67.67,0,0,1-.67-.67.68.68,0,0,1,.67-.68.69.69,0,0,1,.68.68"/><path id="Fill-238" class="cls-3" d="M194.86,53.64a.68.68,0,1,1-.68-.68.68.68,0,0,1,.68.68"/><path id="Fill-240" class="cls-3" d="M205.46,53.64a.68.68,0,0,1-1.35,0,.68.68,0,1,1,1.35,0"/><path id="Fill-242" class="cls-3" d="M4,63.26a.68.68,0,0,1-.68.67.67.67,0,0,1-.67-.67.68.68,0,0,1,.67-.68.69.69,0,0,1,.68.68"/><path id="Fill-244" class="cls-3" d="M14.62,63.26a.68.68,0,1,1-.68-.68.68.68,0,0,1,.68.68"/><path id="Fill-246" class="cls-3" d="M25.22,63.26a.67.67,0,0,1-.67.67.68.68,0,0,1-.68-.67.69.69,0,0,1,.68-.68.68.68,0,0,1,.67.68"/><path id="Fill-248" class="cls-3" d="M35.82,63.26a.67.67,0,0,1-.67.67.68.68,0,0,1-.68-.67.69.69,0,0,1,.68-.68.68.68,0,0,1,.67.68"/><path id="Fill-250" class="cls-3" d="M46.43,63.26a.68.68,0,0,1-.68.67.67.67,0,0,1-.67-.67.68.68,0,0,1,.67-.68.69.69,0,0,1,.68.68"/><path id="Fill-252" class="cls-3" d="M57,63.26a.68.68,0,1,1-.68-.68.68.68,0,0,1,.68.68"/><path id="Fill-254" class="cls-3" d="M67.63,63.26a.68.68,0,0,1-1.35,0,.68.68,0,1,1,1.35,0"/><path id="Fill-256" class="cls-3" d="M78.23,63.26a.67.67,0,0,1-1.34,0,.67.67,0,1,1,1.34,0"/><path id="Fill-258" class="cls-3" d="M88.83,63.26a.67.67,0,0,1-1.34,0,.67.67,0,1,1,1.34,0"/><path id="Fill-260" class="cls-3" d="M99.44,63.26a.68.68,0,0,1-.68.67.67.67,0,0,1-.67-.67.68.68,0,0,1,.67-.68.69.69,0,0,1,.68.68"/><path id="Fill-262" class="cls-3" d="M110,63.26a.68.68,0,0,1-1.35,0,.68.68,0,1,1,1.35,0"/><path id="Fill-264" class="cls-3" d="M120.64,63.26a.67.67,0,0,1-.67.67.68.68,0,0,1-.68-.67.69.69,0,0,1,.68-.68.68.68,0,0,1,.67.68"/><path id="Fill-266" class="cls-3" d="M131.24,63.26a.67.67,0,1,1-1.34,0,.67.67,0,1,1,1.34,0"/><path id="Fill-268" class="cls-3" d="M141.85,63.26a.68.68,0,0,1-.68.67.67.67,0,0,1-.67-.67.68.68,0,0,1,.67-.68.69.69,0,0,1,.68.68"/><path id="Fill-270" class="cls-3" d="M152.45,63.26a.68.68,0,1,1-.68-.68.68.68,0,0,1,.68.68"/><path id="Fill-272" class="cls-3" d="M163.05,63.26a.68.68,0,0,1-1.35,0,.68.68,0,1,1,1.35,0"/><path id="Fill-274" class="cls-3" d="M173.65,63.26a.67.67,0,1,1-1.34,0,.67.67,0,1,1,1.34,0"/><path id="Fill-276" class="cls-3" d="M184.26,63.26a.68.68,0,0,1-.68.67.67.67,0,0,1-.67-.67.68.68,0,0,1,.67-.68.69.69,0,0,1,.68.68"/><path id="Fill-278" class="cls-3" d="M194.86,63.26a.68.68,0,1,1-.68-.68.68.68,0,0,1,.68.68"/><path id="Fill-280" class="cls-3" d="M205.46,63.26a.68.68,0,0,1-1.35,0,.68.68,0,1,1,1.35,0"/><path id="Fill-282" class="cls-3" d="M4,72.88a.68.68,0,0,1-.68.67.67.67,0,0,1,0-1.34.68.68,0,0,1,.68.67"/><path id="Fill-284" class="cls-3" d="M14.62,72.88a.68.68,0,1,1-.68-.67.67.67,0,0,1,.68.67"/><path id="Fill-286" class="cls-3" d="M25.22,72.88a.67.67,0,0,1-.67.67.67.67,0,1,1,0-1.34.67.67,0,0,1,.67.67"/><path id="Fill-288" class="cls-3" d="M35.82,72.88a.67.67,0,0,1-.67.67.67.67,0,1,1,0-1.34.67.67,0,0,1,.67.67"/><path id="Fill-290" class="cls-3" d="M46.43,72.88a.68.68,0,0,1-.68.67.67.67,0,0,1,0-1.34.68.68,0,0,1,.68.67"/><path id="Fill-292" class="cls-3" d="M57,72.88a.68.68,0,1,1-.68-.67.67.67,0,0,1,.68.67"/><path id="Fill-294" class="cls-3" d="M67.63,72.88a.68.68,0,1,1-.67-.67.67.67,0,0,1,.67.67"/><path id="Fill-296" class="cls-3" d="M78.23,72.88a.67.67,0,1,1-.67-.67.67.67,0,0,1,.67.67"/><path id="Fill-298" class="cls-3" d="M88.83,72.88a.67.67,0,1,1-.67-.67.67.67,0,0,1,.67.67"/><path id="Fill-300" class="cls-3" d="M99.44,72.88a.68.68,0,0,1-.68.67.67.67,0,0,1,0-1.34.68.68,0,0,1,.68.67"/><path id="Fill-302" class="cls-3" d="M110,72.88a.68.68,0,1,1-.67-.67.67.67,0,0,1,.67.67"/><path id="Fill-304" class="cls-3" d="M120.64,72.88a.67.67,0,0,1-.67.67.67.67,0,1,1,0-1.34.67.67,0,0,1,.67.67"/><path id="Fill-306" class="cls-3" d="M131.24,72.88a.67.67,0,1,1-.67-.67.67.67,0,0,1,.67.67"/><path id="Fill-308" class="cls-3" d="M141.85,72.88a.68.68,0,0,1-.68.67.67.67,0,0,1,0-1.34.68.68,0,0,1,.68.67"/><path id="Fill-310" class="cls-3" d="M152.45,72.88a.68.68,0,1,1-.68-.67.67.67,0,0,1,.68.67"/><path id="Fill-312" class="cls-3" d="M163.05,72.88a.68.68,0,1,1-.67-.67.67.67,0,0,1,.67.67"/><path id="Fill-314" class="cls-3" d="M173.65,72.88a.67.67,0,1,1-.67-.67.67.67,0,0,1,.67.67"/><path id="Fill-316" class="cls-3" d="M184.26,72.88a.68.68,0,0,1-.68.67.67.67,0,1,1,0-1.34.68.68,0,0,1,.68.67"/><path id="Fill-318" class="cls-3" d="M194.86,72.88a.68.68,0,1,1-.68-.67.67.67,0,0,1,.68.67"/><path id="Fill-320" class="cls-3" d="M205.46,72.88a.68.68,0,1,1-.67-.67.67.67,0,0,1,.67.67"/><path id="Fill-322" class="cls-3" d="M4,82.5a.68.68,0,0,1-.68.67.67.67,0,0,1,0-1.34A.68.68,0,0,1,4,82.5"/><path id="Fill-324" class="cls-3" d="M14.62,82.5a.68.68,0,1,1-.68-.67.67.67,0,0,1,.68.67"/><path id="Fill-326" class="cls-3" d="M25.22,82.5a.67.67,0,0,1-.67.67.67.67,0,1,1,0-1.34.67.67,0,0,1,.67.67"/><path id="Fill-328" class="cls-3" d="M35.82,82.5a.67.67,0,0,1-.67.67.67.67,0,1,1,0-1.34.67.67,0,0,1,.67.67"/><path id="Fill-330" class="cls-3" d="M46.43,82.5a.68.68,0,0,1-.68.67.67.67,0,0,1,0-1.34.68.68,0,0,1,.68.67"/><path id="Fill-332" class="cls-3" d="M57,82.5a.68.68,0,1,1-.68-.67.67.67,0,0,1,.68.67"/><path id="Fill-334" class="cls-3" d="M67.63,82.5a.68.68,0,1,1-.67-.67.67.67,0,0,1,.67.67"/><path id="Fill-336" class="cls-3" d="M78.23,82.5a.67.67,0,1,1-.67-.67.67.67,0,0,1,.67.67"/><path id="Fill-338" class="cls-3" d="M88.83,82.5a.67.67,0,1,1-.67-.67.67.67,0,0,1,.67.67"/><path id="Fill-340" class="cls-3" d="M99.44,82.5a.68.68,0,0,1-.68.67.67.67,0,0,1,0-1.34.68.68,0,0,1,.68.67"/><path id="Fill-342" class="cls-3" d="M110,82.5a.68.68,0,1,1-.67-.67.67.67,0,0,1,.67.67"/><path id="Fill-344" class="cls-3" d="M120.64,82.5a.67.67,0,0,1-.67.67.67.67,0,1,1,0-1.34.67.67,0,0,1,.67.67"/><path id="Fill-346" class="cls-3" d="M131.24,82.5a.67.67,0,1,1-.67-.67.67.67,0,0,1,.67.67"/><path id="Fill-348" class="cls-3" d="M141.85,82.5a.68.68,0,0,1-.68.67.67.67,0,0,1,0-1.34.68.68,0,0,1,.68.67"/><path id="Fill-350" class="cls-3" d="M152.45,82.5a.68.68,0,1,1-.68-.67.67.67,0,0,1,.68.67"/><path id="Fill-352" class="cls-3" d="M163.05,82.5a.68.68,0,1,1-.67-.67.67.67,0,0,1,.67.67"/><path id="Fill-354" class="cls-3" d="M173.65,82.5a.67.67,0,1,1-.67-.67.67.67,0,0,1,.67.67"/><path id="Fill-356" class="cls-3" d="M184.26,82.5a.68.68,0,0,1-.68.67.67.67,0,0,1,0-1.34.68.68,0,0,1,.68.67"/><path id="Fill-358" class="cls-3" d="M194.86,82.5a.68.68,0,1,1-.68-.67.67.67,0,0,1,.68.67"/><path id="Fill-360" class="cls-3" d="M205.46,82.5a.68.68,0,1,1-.67-.67.67.67,0,0,1,.67.67"/><path id="Fill-362" class="cls-3" d="M4,92.12a.68.68,0,0,1-.68.67.67.67,0,0,1,0-1.34.68.68,0,0,1,.68.67"/><path id="Fill-364" class="cls-3" d="M14.62,92.12a.68.68,0,1,1-.68-.67.67.67,0,0,1,.68.67"/><path id="Fill-366" class="cls-3" d="M25.22,92.12a.67.67,0,0,1-.67.67.67.67,0,1,1,0-1.34.67.67,0,0,1,.67.67"/><path id="Fill-368" class="cls-3" d="M35.82,92.12a.67.67,0,0,1-.67.67.67.67,0,1,1,0-1.34.67.67,0,0,1,.67.67"/><path id="Fill-370" class="cls-3" d="M46.43,92.12a.68.68,0,0,1-.68.67.67.67,0,0,1,0-1.34.68.68,0,0,1,.68.67"/><path id="Fill-372" class="cls-3" d="M57,92.12a.68.68,0,1,1-.68-.67.67.67,0,0,1,.68.67"/><path id="Fill-374" class="cls-3" d="M67.63,92.12a.68.68,0,1,1-.67-.67.67.67,0,0,1,.67.67"/><path id="Fill-376" class="cls-3" d="M78.23,92.12a.67.67,0,1,1-.67-.67.67.67,0,0,1,.67.67"/><path id="Fill-378" class="cls-3" d="M88.83,92.12a.67.67,0,1,1-.67-.67.67.67,0,0,1,.67.67"/><path id="Fill-380" class="cls-3" d="M99.44,92.12a.68.68,0,0,1-.68.67.67.67,0,0,1,0-1.34.68.68,0,0,1,.68.67"/><path id="Fill-382" class="cls-3" d="M110,92.12a.68.68,0,1,1-.67-.67.67.67,0,0,1,.67.67"/><path id="Fill-384" class="cls-3" d="M120.64,92.12a.67.67,0,0,1-.67.67.67.67,0,1,1,0-1.34.67.67,0,0,1,.67.67"/><path id="Fill-386" class="cls-3" d="M131.24,92.12a.67.67,0,1,1-.67-.67.67.67,0,0,1,.67.67"/><path id="Fill-388" class="cls-3" d="M141.85,92.12a.68.68,0,0,1-.68.67.67.67,0,0,1,0-1.34.68.68,0,0,1,.68.67"/><path id="Fill-390" class="cls-3" d="M152.45,92.12a.68.68,0,1,1-.68-.67.67.67,0,0,1,.68.67"/><path id="Fill-392" class="cls-3" d="M163.05,92.12a.68.68,0,1,1-.67-.67.67.67,0,0,1,.67.67"/><path id="Fill-394" class="cls-3" d="M173.65,92.12a.67.67,0,1,1-.67-.67.67.67,0,0,1,.67.67"/><path id="Fill-396" class="cls-3" d="M184.26,92.12a.68.68,0,0,1-.68.67.67.67,0,0,1,0-1.34.68.68,0,0,1,.68.67"/><path id="Fill-398" class="cls-3" d="M194.86,92.12a.68.68,0,1,1-.68-.67.67.67,0,0,1,.68.67"/><path id="Fill-400" class="cls-3" d="M205.46,92.12a.68.68,0,1,1-.67-.67.67.67,0,0,1,.67.67"/><path id="Fill-402" class="cls-3" d="M4,101.74a.69.69,0,0,1-.68.68.68.68,0,0,1-.67-.68.67.67,0,0,1,.67-.67.68.68,0,0,1,.68.67"/><path id="Fill-404" class="cls-3" d="M14.62,101.74a.68.68,0,1,1-1.35,0,.68.68,0,0,1,1.35,0"/><path id="Fill-406" class="cls-3" d="M25.22,101.74a.68.68,0,0,1-.67.68.69.69,0,0,1-.68-.68.68.68,0,0,1,.68-.67.67.67,0,0,1,.67.67"/><path id="Fill-408" class="cls-3" d="M35.82,101.74a.68.68,0,0,1-.67.68.69.69,0,0,1-.68-.68.68.68,0,0,1,.68-.67.67.67,0,0,1,.67.67"/><path id="Fill-410" class="cls-3" d="M46.43,101.74a.69.69,0,0,1-.68.68.68.68,0,0,1-.67-.68.67.67,0,0,1,.67-.67.68.68,0,0,1,.68.67"/><path id="Fill-412" class="cls-3" d="M57,101.74a.68.68,0,1,1-1.35,0,.68.68,0,0,1,1.35,0"/><path id="Fill-414" class="cls-3" d="M67.63,101.74a.68.68,0,1,1-.67-.67.67.67,0,0,1,.67.67"/><path id="Fill-416" class="cls-3" d="M78.23,101.74a.67.67,0,1,1-1.34,0,.67.67,0,0,1,1.34,0"/><path id="Fill-418" class="cls-3" d="M88.83,101.74a.67.67,0,1,1-1.34,0,.67.67,0,0,1,1.34,0"/><path id="Fill-420" class="cls-3" d="M99.44,101.74a.69.69,0,0,1-.68.68.68.68,0,0,1-.67-.68.67.67,0,0,1,.67-.67.68.68,0,0,1,.68.67"/><path id="Fill-422" class="cls-3" d="M110,101.74a.68.68,0,1,1-.67-.67.67.67,0,0,1,.67.67"/><path id="Fill-424" class="cls-3" d="M120.64,101.74a.68.68,0,0,1-.67.68.69.69,0,0,1-.68-.68.68.68,0,0,1,.68-.67.67.67,0,0,1,.67.67"/><path id="Fill-426" class="cls-3" d="M131.24,101.74a.67.67,0,1,1-1.34,0,.67.67,0,1,1,1.34,0"/><path id="Fill-428" class="cls-3" d="M141.85,101.74a.69.69,0,0,1-.68.68.68.68,0,0,1-.67-.68.67.67,0,0,1,.67-.67.68.68,0,0,1,.68.67"/><path id="Fill-430" class="cls-3" d="M152.45,101.74a.68.68,0,1,1-1.35,0,.68.68,0,0,1,1.35,0"/><path id="Fill-432" class="cls-3" d="M163.05,101.74a.68.68,0,1,1-.67-.67.67.67,0,0,1,.67.67"/><path id="Fill-434" class="cls-3" d="M173.65,101.74a.67.67,0,1,1-1.34,0,.67.67,0,0,1,1.34,0"/><path id="Fill-436" class="cls-3" d="M184.26,101.74a.69.69,0,0,1-.68.68.68.68,0,0,1-.67-.68.67.67,0,0,1,.67-.67.68.68,0,0,1,.68.67"/><path id="Fill-438" class="cls-3" d="M194.86,101.74a.68.68,0,1,1-1.35,0,.68.68,0,0,1,1.35,0"/><path id="Fill-440" class="cls-3" d="M205.46,101.74a.68.68,0,1,1-.67-.67.67.67,0,0,1,.67.67"/><path id="Fill-442" class="cls-3" d="M4,111.36a.69.69,0,0,1-.68.68.68.68,0,0,1-.67-.68.67.67,0,0,1,.67-.67.68.68,0,0,1,.68.67"/><path id="Fill-444" class="cls-3" d="M14.62,111.36a.68.68,0,1,1-1.35,0,.68.68,0,0,1,1.35,0"/><path id="Fill-446" class="cls-3" d="M25.22,111.36a.68.68,0,0,1-.67.68.69.69,0,0,1-.68-.68.68.68,0,0,1,.68-.67.67.67,0,0,1,.67.67"/><path id="Fill-448" class="cls-3" d="M35.82,111.36a.68.68,0,0,1-.67.68.69.69,0,0,1-.68-.68.68.68,0,0,1,.68-.67.67.67,0,0,1,.67.67"/><path id="Fill-450" class="cls-3" d="M46.43,111.36a.69.69,0,0,1-.68.68.68.68,0,0,1-.67-.68.67.67,0,0,1,.67-.67.68.68,0,0,1,.68.67"/><path id="Fill-452" class="cls-3" d="M57,111.36a.68.68,0,1,1-1.35,0,.68.68,0,0,1,1.35,0"/><path id="Fill-454" class="cls-3" d="M67.63,111.36a.68.68,0,1,1-.67-.67.67.67,0,0,1,.67.67"/><path id="Fill-456" class="cls-3" d="M78.23,111.36a.67.67,0,1,1-1.34,0,.67.67,0,0,1,1.34,0"/><path id="Fill-458" class="cls-3" d="M88.83,111.36a.67.67,0,1,1-1.34,0,.67.67,0,0,1,1.34,0"/><path id="Fill-460" class="cls-3" d="M99.44,111.36a.69.69,0,0,1-.68.68.68.68,0,0,1-.67-.68.67.67,0,0,1,.67-.67.68.68,0,0,1,.68.67"/><path id="Fill-462" class="cls-3" d="M110,111.36a.68.68,0,1,1-.67-.67.67.67,0,0,1,.67.67"/><path id="Fill-464" class="cls-3" d="M120.64,111.36a.68.68,0,0,1-.67.68.69.69,0,0,1-.68-.68.68.68,0,0,1,.68-.67.67.67,0,0,1,.67.67"/><path id="Fill-466" class="cls-3" d="M131.24,111.36a.67.67,0,1,1-1.34,0,.67.67,0,1,1,1.34,0"/><path id="Fill-468" class="cls-3" d="M141.85,111.36a.69.69,0,0,1-.68.68.68.68,0,0,1-.67-.68.67.67,0,0,1,.67-.67.68.68,0,0,1,.68.67"/><path id="Fill-470" class="cls-3" d="M152.45,111.36a.68.68,0,1,1-1.35,0,.68.68,0,0,1,1.35,0"/><path id="Fill-472" class="cls-3" d="M163.05,111.36a.68.68,0,1,1-.67-.67.67.67,0,0,1,.67.67"/><path id="Fill-474" class="cls-3" d="M173.65,111.36a.67.67,0,1,1-1.34,0,.67.67,0,0,1,1.34,0"/><path id="Fill-476" class="cls-3" d="M184.26,111.36a.69.69,0,0,1-.68.68.68.68,0,0,1-.67-.68.67.67,0,0,1,.67-.67.68.68,0,0,1,.68.67"/><path id="Fill-478" class="cls-3" d="M194.86,111.36a.68.68,0,1,1-1.35,0,.68.68,0,0,1,1.35,0"/><path id="Fill-480" class="cls-3" d="M205.46,111.36a.68.68,0,1,1-.67-.67.67.67,0,0,1,.67.67"/><path id="Fill-482" class="cls-3" d="M4,121a.68.68,0,0,1-.68.68A.68.68,0,1,1,4,121"/><path id="Fill-484" class="cls-3" d="M14.62,121a.68.68,0,1,1-.68-.67.67.67,0,0,1,.68.67"/><path id="Fill-486" class="cls-3" d="M25.22,121a.67.67,0,0,1-.67.68.68.68,0,1,1,0-1.35.67.67,0,0,1,.67.67"/><path id="Fill-488" class="cls-3" d="M35.82,121a.67.67,0,0,1-.67.68.68.68,0,1,1,0-1.35.67.67,0,0,1,.67.67"/><path id="Fill-490" class="cls-3" d="M46.43,121a.68.68,0,0,1-.68.68.68.68,0,1,1,.68-.68"/><path id="Fill-492" class="cls-3" d="M57,121a.68.68,0,1,1-.68-.67A.67.67,0,0,1,57,121"/><path id="Fill-494" class="cls-3" d="M67.63,121a.68.68,0,1,1-.67-.67.67.67,0,0,1,.67.67"/><path id="Fill-496" class="cls-3" d="M78.23,121a.67.67,0,1,1-.67-.67.67.67,0,0,1,.67.67"/><path id="Fill-498" class="cls-3" d="M88.83,121a.67.67,0,1,1-.67-.67.67.67,0,0,1,.67.67"/><path id="Fill-500" class="cls-3" d="M99.44,121a.68.68,0,0,1-.68.68.68.68,0,1,1,.68-.68"/><path id="Fill-502" class="cls-3" d="M110,121a.68.68,0,1,1-.67-.67.67.67,0,0,1,.67.67"/><path id="Fill-504" class="cls-3" d="M120.64,121a.67.67,0,0,1-.67.68.68.68,0,1,1,0-1.35.67.67,0,0,1,.67.67"/><path id="Fill-506" class="cls-3" d="M131.24,121a.67.67,0,1,1-.67-.67.67.67,0,0,1,.67.67"/><path id="Fill-508" class="cls-3" d="M141.85,121a.68.68,0,0,1-.68.68.68.68,0,1,1,.68-.68"/><path id="Fill-510" class="cls-3" d="M152.45,121a.68.68,0,1,1-.68-.67.67.67,0,0,1,.68.67"/><path id="Fill-512" class="cls-3" d="M163.05,121a.68.68,0,1,1-.67-.67.67.67,0,0,1,.67.67"/><path id="Fill-514" class="cls-3" d="M173.65,121a.67.67,0,1,1-.67-.67.67.67,0,0,1,.67.67"/><path id="Fill-516" class="cls-3" d="M184.26,121a.68.68,0,0,1-.68.68.68.68,0,1,1,.68-.68"/><path id="Fill-518" class="cls-3" d="M194.86,121a.68.68,0,1,1-.68-.67.67.67,0,0,1,.68.67"/><path id="Fill-520" class="cls-3" d="M205.46,121a.68.68,0,1,1-.67-.67.67.67,0,0,1,.67.67"/><path id="Fill-522" class="cls-3" d="M4,130.6a.68.68,0,0,1-.68.68A.68.68,0,1,1,4,130.6"/><path id="Fill-524" class="cls-3" d="M14.62,130.6a.68.68,0,1,1-.68-.67.67.67,0,0,1,.68.67"/><path id="Fill-526" class="cls-3" d="M25.22,130.6a.67.67,0,0,1-.67.68.68.68,0,1,1,0-1.35.67.67,0,0,1,.67.67"/><path id="Fill-528" class="cls-3" d="M35.82,130.6a.67.67,0,0,1-.67.68.68.68,0,1,1,0-1.35.67.67,0,0,1,.67.67"/><path id="Fill-530" class="cls-3" d="M46.43,130.6a.68.68,0,0,1-.68.68.68.68,0,1,1,.68-.68"/><path id="Fill-532" class="cls-3" d="M57,130.6a.68.68,0,1,1-.68-.67.67.67,0,0,1,.68.67"/><path id="Fill-534" class="cls-3" d="M67.63,130.6a.68.68,0,1,1-.67-.67.67.67,0,0,1,.67.67"/><path id="Fill-536" class="cls-3" d="M78.23,130.6a.67.67,0,1,1-.67-.67.67.67,0,0,1,.67.67"/><path id="Fill-538" class="cls-3" d="M88.83,130.6a.67.67,0,1,1-.67-.67.67.67,0,0,1,.67.67"/><path id="Fill-540" class="cls-3" d="M99.44,130.6a.68.68,0,0,1-.68.68.68.68,0,1,1,.68-.68"/><path id="Fill-542" class="cls-3" d="M110,130.6a.68.68,0,1,1-.67-.67.67.67,0,0,1,.67.67"/><path id="Fill-544" class="cls-3" d="M120.64,130.6a.67.67,0,0,1-.67.68.68.68,0,1,1,0-1.35.67.67,0,0,1,.67.67"/><path id="Fill-546" class="cls-3" d="M131.24,130.6a.67.67,0,1,1-.67-.67.67.67,0,0,1,.67.67"/><path id="Fill-548" class="cls-3" d="M141.85,130.6a.68.68,0,0,1-.68.68.68.68,0,1,1,.68-.68"/><path id="Fill-550" class="cls-3" d="M152.45,130.6a.68.68,0,1,1-.68-.67.67.67,0,0,1,.68.67"/><path id="Fill-552" class="cls-3" d="M163.05,130.6a.68.68,0,1,1-.67-.67.67.67,0,0,1,.67.67"/><path id="Fill-554" class="cls-3" d="M173.65,130.6a.67.67,0,1,1-.67-.67.67.67,0,0,1,.67.67"/><path id="Fill-556" class="cls-3" d="M184.26,130.6a.68.68,0,0,1-.68.68.68.68,0,1,1,.68-.68"/><path id="Fill-558" class="cls-3" d="M194.86,130.6a.68.68,0,1,1-.68-.67.67.67,0,0,1,.68.67"/><path id="Fill-560" class="cls-3" d="M205.46,130.6a.68.68,0,1,1-.67-.67.67.67,0,0,1,.67.67"/><path id="Fill-562" class="cls-3" d="M4,140.23a.68.68,0,0,1-.68.67.68.68,0,0,1,0-1.35.68.68,0,0,1,.68.68"/><path id="Fill-564" class="cls-3" d="M14.62,140.23a.68.68,0,1,1-.68-.68.67.67,0,0,1,.68.68"/><path id="Fill-566" class="cls-3" d="M25.22,140.23a.67.67,0,0,1-.67.67.68.68,0,1,1,.67-.67"/><path id="Fill-568" class="cls-3" d="M35.82,140.23a.67.67,0,0,1-.67.67.68.68,0,1,1,.67-.67"/><path id="Fill-570" class="cls-3" d="M46.43,140.23a.68.68,0,0,1-.68.67.68.68,0,0,1,0-1.35.68.68,0,0,1,.68.68"/><path id="Fill-572" class="cls-3" d="M57,140.23a.68.68,0,1,1-.68-.68.67.67,0,0,1,.68.68"/><path id="Fill-574" class="cls-3" d="M67.63,140.23a.68.68,0,1,1-.67-.68.67.67,0,0,1,.67.68"/><path id="Fill-576" class="cls-3" d="M78.23,140.23a.67.67,0,1,1-.67-.68.67.67,0,0,1,.67.68"/><path id="Fill-578" class="cls-3" d="M88.83,140.23a.67.67,0,1,1-.67-.68.67.67,0,0,1,.67.68"/><path id="Fill-580" class="cls-3" d="M99.44,140.23a.68.68,0,0,1-.68.67.68.68,0,0,1,0-1.35.68.68,0,0,1,.68.68"/><path id="Fill-582" class="cls-3" d="M110,140.23a.68.68,0,1,1-.67-.68.67.67,0,0,1,.67.68"/><path id="Fill-584" class="cls-3" d="M120.64,140.23a.67.67,0,0,1-.67.67.68.68,0,1,1,.67-.67"/><path id="Fill-586" class="cls-3" d="M131.24,140.23a.67.67,0,1,1-.67-.68.67.67,0,0,1,.67.68"/><path id="Fill-588" class="cls-3" d="M141.85,140.23a.68.68,0,0,1-.68.67.68.68,0,0,1,0-1.35.68.68,0,0,1,.68.68"/><path id="Fill-590" class="cls-3" d="M152.45,140.23a.68.68,0,1,1-.68-.68.67.67,0,0,1,.68.68"/><path id="Fill-592" class="cls-3" d="M163.05,140.23a.68.68,0,1,1-.67-.68.67.67,0,0,1,.67.68"/><path id="Fill-594" class="cls-3" d="M173.65,140.23a.67.67,0,1,1-.67-.68.67.67,0,0,1,.67.68"/><path id="Fill-596" class="cls-3" d="M184.26,140.23a.68.68,0,0,1-.68.67.68.68,0,0,1,0-1.35.68.68,0,0,1,.68.68"/><path id="Fill-598" class="cls-3" d="M194.86,140.23a.68.68,0,1,1-.68-.68.67.67,0,0,1,.68.68"/><path id="Fill-600" class="cls-3" d="M205.46,140.23a.68.68,0,1,1-.67-.68.67.67,0,0,1,.67.68"/><path id="Fill-602" class="cls-3" d="M4,149.85a.68.68,0,0,1-.68.67.68.68,0,0,1,0-1.35.68.68,0,0,1,.68.68"/><path id="Fill-604" class="cls-3" d="M14.62,149.85a.68.68,0,1,1-.68-.68.67.67,0,0,1,.68.68"/><path id="Fill-606" class="cls-3" d="M25.22,149.85a.67.67,0,0,1-.67.67.68.68,0,1,1,.67-.67"/><path id="Fill-608" class="cls-3" d="M35.82,149.85a.67.67,0,0,1-.67.67.68.68,0,1,1,.67-.67"/><path id="Fill-610" class="cls-3" d="M46.43,149.85a.68.68,0,0,1-.68.67.68.68,0,0,1,0-1.35.68.68,0,0,1,.68.68"/><path id="Fill-612" class="cls-3" d="M57,149.85a.68.68,0,1,1-.68-.68.67.67,0,0,1,.68.68"/><path id="Fill-614" class="cls-3" d="M67.63,149.85a.68.68,0,1,1-.67-.68.67.67,0,0,1,.67.68"/><path id="Fill-616" class="cls-3" d="M78.23,149.85a.67.67,0,1,1-.67-.68.67.67,0,0,1,.67.68"/><path id="Fill-618" class="cls-3" d="M88.83,149.85a.67.67,0,1,1-.67-.68.67.67,0,0,1,.67.68"/><path id="Fill-620" class="cls-3" d="M99.44,149.85a.68.68,0,0,1-.68.67.68.68,0,0,1,0-1.35.68.68,0,0,1,.68.68"/><path id="Fill-622" class="cls-3" d="M110,149.85a.68.68,0,1,1-.67-.68.67.67,0,0,1,.67.68"/><path id="Fill-624" class="cls-3" d="M120.64,149.85a.67.67,0,0,1-.67.67.68.68,0,1,1,.67-.67"/><path id="Fill-626" class="cls-3" d="M131.24,149.85a.67.67,0,1,1-.67-.68.67.67,0,0,1,.67.68"/><path id="Fill-628" class="cls-3" d="M141.85,149.85a.68.68,0,0,1-.68.67.68.68,0,0,1,0-1.35.68.68,0,0,1,.68.68"/><path id="Fill-630" class="cls-3" d="M152.45,149.85a.68.68,0,1,1-.68-.68.67.67,0,0,1,.68.68"/><path id="Fill-632" class="cls-3" d="M163.05,149.85a.68.68,0,1,1-.67-.68.67.67,0,0,1,.67.68"/><path id="Fill-634" class="cls-3" d="M173.65,149.85a.67.67,0,1,1-.67-.68.67.67,0,0,1,.67.68"/><path id="Fill-636" class="cls-3" d="M184.26,149.85a.68.68,0,0,1-.68.67.68.68,0,0,1,0-1.35.68.68,0,0,1,.68.68"/><path id="Fill-638" class="cls-3" d="M194.86,149.85a.68.68,0,1,1-.68-.68.67.67,0,0,1,.68.68"/><path id="Fill-640" class="cls-3" d="M205.46,149.85a.68.68,0,1,1-.67-.68.67.67,0,0,1,.67.68"/><path id="Fill-642" class="cls-3" d="M4,159.47a.68.68,0,0,1-.68.67.67.67,0,0,1-.67-.67.68.68,0,0,1,.67-.68.69.69,0,0,1,.68.68"/><path id="Fill-644" class="cls-3" d="M14.62,159.47a.68.68,0,1,1-.68-.68.68.68,0,0,1,.68.68"/><path id="Fill-646" class="cls-3" d="M25.22,159.47a.67.67,0,0,1-.67.67.68.68,0,0,1-.68-.67.69.69,0,0,1,.68-.68.68.68,0,0,1,.67.68"/><path id="Fill-648" class="cls-3" d="M35.82,159.47a.67.67,0,0,1-.67.67.68.68,0,0,1-.68-.67.69.69,0,0,1,.68-.68.68.68,0,0,1,.67.68"/><path id="Fill-650" class="cls-3" d="M46.43,159.47a.68.68,0,0,1-.68.67.67.67,0,0,1-.67-.67.68.68,0,0,1,.67-.68.69.69,0,0,1,.68.68"/><path id="Fill-652" class="cls-3" d="M57,159.47a.68.68,0,1,1-.68-.68.68.68,0,0,1,.68.68"/><path id="Fill-654" class="cls-3" d="M67.63,159.47a.68.68,0,0,1-1.35,0,.68.68,0,1,1,1.35,0"/><path id="Fill-656" class="cls-3" d="M78.23,159.47a.67.67,0,0,1-1.34,0,.67.67,0,1,1,1.34,0"/><path id="Fill-658" class="cls-3" d="M88.83,159.47a.67.67,0,0,1-1.34,0,.67.67,0,1,1,1.34,0"/><path id="Fill-660" class="cls-3" d="M99.44,159.47a.68.68,0,0,1-.68.67.67.67,0,0,1-.67-.67.68.68,0,0,1,.67-.68.69.69,0,0,1,.68.68"/><path id="Fill-662" class="cls-3" d="M110,159.47a.68.68,0,0,1-1.35,0,.68.68,0,1,1,1.35,0"/><path id="Fill-664" class="cls-3" d="M120.64,159.47a.67.67,0,0,1-.67.67.68.68,0,0,1-.68-.67.69.69,0,0,1,.68-.68.68.68,0,0,1,.67.68"/><path id="Fill-666" class="cls-3" d="M131.24,159.47a.67.67,0,1,1-1.34,0,.67.67,0,1,1,1.34,0"/><path id="Fill-668" class="cls-3" d="M141.85,159.47a.68.68,0,0,1-.68.67.67.67,0,0,1-.67-.67.68.68,0,0,1,.67-.68.69.69,0,0,1,.68.68"/><path id="Fill-670" class="cls-3" d="M152.45,159.47a.68.68,0,1,1-.68-.68.68.68,0,0,1,.68.68"/><path id="Fill-672" class="cls-3" d="M163.05,159.47a.68.68,0,0,1-1.35,0,.68.68,0,1,1,1.35,0"/><path id="Fill-674" class="cls-3" d="M173.65,159.47a.67.67,0,0,1-1.34,0,.67.67,0,1,1,1.34,0"/><path id="Fill-676" class="cls-3" d="M184.26,159.47a.68.68,0,0,1-.68.67.67.67,0,0,1-.67-.67.68.68,0,0,1,.67-.68.69.69,0,0,1,.68.68"/><path id="Fill-678" class="cls-3" d="M194.86,159.47a.68.68,0,1,1-.68-.68.68.68,0,0,1,.68.68"/><path id="Fill-680" class="cls-3" d="M205.46,159.47a.68.68,0,0,1-1.35,0,.68.68,0,1,1,1.35,0"/><path id="Fill-682" class="cls-3" d="M216.92,5.53a.68.68,0,0,1-.67.68.69.69,0,0,1-.68-.68.68.68,0,0,1,.68-.67.67.67,0,0,1,.67.67"/><path id="Fill-684" class="cls-3" d="M227.52,5.53a.67.67,0,1,1-1.34,0,.67.67,0,1,1,1.34,0"/><path id="Fill-686" class="cls-3" d="M238.13,5.53a.69.69,0,0,1-.68.68.68.68,0,0,1-.67-.68.67.67,0,0,1,.67-.67.68.68,0,0,1,.68.67"/><path id="Fill-688" class="cls-3" d="M248.73,5.53a.68.68,0,1,1-.67-.67.67.67,0,0,1,.67.67"/><path id="Fill-690" class="cls-3" d="M259.33,5.53a.68.68,0,0,1-.67.68.69.69,0,0,1-.68-.68.68.68,0,0,1,.68-.67.67.67,0,0,1,.67.67"/><path id="Fill-692" class="cls-3" d="M216.92,15.15a.67.67,0,0,1-.67.68.68.68,0,1,1,0-1.35.67.67,0,0,1,.67.67"/><path id="Fill-694" class="cls-3" d="M227.52,15.15a.67.67,0,1,1-.67-.67.67.67,0,0,1,.67.67"/><path id="Fill-696" class="cls-3" d="M238.13,15.15a.68.68,0,0,1-.68.68.68.68,0,1,1,.68-.68"/><path id="Fill-698" class="cls-3" d="M248.73,15.15a.68.68,0,1,1-.67-.67.67.67,0,0,1,.67.67"/><path id="Fill-700" class="cls-3" d="M259.33,15.15a.67.67,0,0,1-.67.68.68.68,0,1,1,0-1.35.67.67,0,0,1,.67.67"/><path id="Fill-702" class="cls-3" d="M216.92,24.77a.67.67,0,0,1-.67.68.68.68,0,1,1,0-1.35.67.67,0,0,1,.67.67"/><path id="Fill-704" class="cls-3" d="M227.52,24.77a.67.67,0,1,1-.67-.67.67.67,0,0,1,.67.67"/><path id="Fill-706" class="cls-3" d="M238.13,24.77a.68.68,0,0,1-.68.68.68.68,0,1,1,.68-.68"/><path id="Fill-708" class="cls-3" d="M248.73,24.77a.68.68,0,1,1-.67-.67.67.67,0,0,1,.67.67"/><path id="Fill-710" class="cls-3" d="M259.33,24.77a.67.67,0,0,1-.67.68.68.68,0,1,1,0-1.35.67.67,0,0,1,.67.67"/><path id="Fill-712" class="cls-3" d="M216.92,34.39a.67.67,0,0,1-.67.68.68.68,0,1,1,0-1.35.67.67,0,0,1,.67.67"/><path id="Fill-714" class="cls-3" d="M227.52,34.39a.67.67,0,1,1-.67-.67.67.67,0,0,1,.67.67"/><path id="Fill-716" class="cls-3" d="M238.13,34.39a.68.68,0,0,1-.68.68.68.68,0,1,1,.68-.68"/><path id="Fill-718" class="cls-3" d="M248.73,34.39a.68.68,0,1,1-.67-.67.67.67,0,0,1,.67.67"/><path id="Fill-720" class="cls-3" d="M259.33,34.39a.67.67,0,0,1-.67.68.68.68,0,1,1,0-1.35.67.67,0,0,1,.67.67"/><path id="Fill-722" class="cls-3" d="M216.92,44a.67.67,0,0,1-.67.67.68.68,0,1,1,.67-.67"/><path id="Fill-724" class="cls-3" d="M227.52,44a.67.67,0,1,1-.67-.68.67.67,0,0,1,.67.68"/><path id="Fill-726" class="cls-3" d="M238.13,44a.68.68,0,0,1-.68.67.68.68,0,0,1,0-1.35.68.68,0,0,1,.68.68"/><path id="Fill-728" class="cls-3" d="M248.73,44a.68.68,0,1,1-.67-.68.67.67,0,0,1,.67.68"/><path id="Fill-730" class="cls-3" d="M259.33,44a.67.67,0,0,1-.67.67.68.68,0,1,1,.67-.67"/><path id="Fill-732" class="cls-3" d="M216.92,53.64a.67.67,0,0,1-.67.67.68.68,0,0,1-.68-.67.69.69,0,0,1,.68-.68.68.68,0,0,1,.67.68"/><path id="Fill-734" class="cls-3" d="M227.52,53.64a.67.67,0,0,1-1.34,0,.67.67,0,1,1,1.34,0"/><path id="Fill-736" class="cls-3" d="M238.13,53.64a.68.68,0,0,1-.68.67.67.67,0,0,1-.67-.67.68.68,0,0,1,.67-.68.69.69,0,0,1,.68.68"/><path id="Fill-738" class="cls-3" d="M248.73,53.64a.68.68,0,0,1-1.35,0,.68.68,0,1,1,1.35,0"/><path id="Fill-740" class="cls-3" d="M259.33,53.64a.67.67,0,0,1-.67.67.68.68,0,0,1-.68-.67.69.69,0,0,1,.68-.68.68.68,0,0,1,.67.68"/><path id="Fill-742" class="cls-3" d="M216.92,63.26a.67.67,0,0,1-.67.67.68.68,0,0,1-.68-.67.69.69,0,0,1,.68-.68.68.68,0,0,1,.67.68"/><path id="Fill-744" class="cls-3" d="M227.52,63.26a.67.67,0,0,1-1.34,0,.67.67,0,1,1,1.34,0"/><path id="Fill-746" class="cls-3" d="M238.13,63.26a.68.68,0,0,1-.68.67.67.67,0,0,1-.67-.67.68.68,0,0,1,.67-.68.69.69,0,0,1,.68.68"/><path id="Fill-748" class="cls-3" d="M248.73,63.26a.68.68,0,0,1-1.35,0,.68.68,0,1,1,1.35,0"/><path id="Fill-750" class="cls-3" d="M259.33,63.26a.67.67,0,0,1-.67.67.68.68,0,0,1-.68-.67.69.69,0,0,1,.68-.68.68.68,0,0,1,.67.68"/><path id="Fill-752" class="cls-3" d="M216.92,72.88a.67.67,0,0,1-.67.67.67.67,0,1,1,0-1.34.67.67,0,0,1,.67.67"/><path id="Fill-754" class="cls-3" d="M227.52,72.88a.67.67,0,1,1-.67-.67.67.67,0,0,1,.67.67"/><path id="Fill-756" class="cls-3" d="M238.13,72.88a.68.68,0,0,1-.68.67.67.67,0,1,1,0-1.34.68.68,0,0,1,.68.67"/><path id="Fill-758" class="cls-3" d="M248.73,72.88a.68.68,0,1,1-.67-.67.67.67,0,0,1,.67.67"/><path id="Fill-760" class="cls-3" d="M259.33,72.88a.67.67,0,0,1-.67.67.67.67,0,1,1,0-1.34.67.67,0,0,1,.67.67"/><path id="Fill-762" class="cls-3" d="M216.92,82.5a.67.67,0,0,1-.67.67.67.67,0,1,1,0-1.34.67.67,0,0,1,.67.67"/><path id="Fill-764" class="cls-3" d="M227.52,82.5a.67.67,0,1,1-.67-.67.67.67,0,0,1,.67.67"/><path id="Fill-766" class="cls-3" d="M238.13,82.5a.68.68,0,0,1-.68.67.67.67,0,1,1,0-1.34.68.68,0,0,1,.68.67"/><path id="Fill-768" class="cls-3" d="M248.73,82.5a.68.68,0,1,1-.67-.67.67.67,0,0,1,.67.67"/><path id="Fill-770" class="cls-3" d="M259.33,82.5a.67.67,0,0,1-.67.67.67.67,0,1,1,0-1.34.67.67,0,0,1,.67.67"/><path id="Fill-772" class="cls-3" d="M216.92,92.12a.67.67,0,0,1-.67.67.67.67,0,1,1,0-1.34.67.67,0,0,1,.67.67"/><path id="Fill-774" class="cls-3" d="M227.52,92.12a.67.67,0,1,1-.67-.67.67.67,0,0,1,.67.67"/><path id="Fill-776" class="cls-3" d="M238.13,92.12a.68.68,0,0,1-.68.67.67.67,0,1,1,0-1.34.68.68,0,0,1,.68.67"/><path id="Fill-778" class="cls-3" d="M248.73,92.12a.68.68,0,1,1-.67-.67.67.67,0,0,1,.67.67"/><path id="Fill-780" class="cls-3" d="M259.33,92.12a.67.67,0,0,1-.67.67.67.67,0,1,1,0-1.34.67.67,0,0,1,.67.67"/><path id="Fill-782" class="cls-3" d="M216.92,101.74a.68.68,0,0,1-.67.68.69.69,0,0,1-.68-.68.68.68,0,0,1,.68-.67.67.67,0,0,1,.67.67"/><path id="Fill-784" class="cls-3" d="M227.52,101.74a.67.67,0,1,1-1.34,0,.67.67,0,0,1,1.34,0"/><path id="Fill-786" class="cls-3" d="M238.13,101.74a.69.69,0,0,1-.68.68.68.68,0,0,1-.67-.68.67.67,0,0,1,.67-.67.68.68,0,0,1,.68.67"/><path id="Fill-788" class="cls-3" d="M248.73,101.74a.68.68,0,1,1-.67-.67.67.67,0,0,1,.67.67"/><path id="Fill-790" class="cls-3" d="M259.33,101.74a.68.68,0,0,1-.67.68.69.69,0,0,1-.68-.68.68.68,0,0,1,.68-.67.67.67,0,0,1,.67.67"/><path id="Fill-792" class="cls-3" d="M216.92,111.36a.68.68,0,0,1-.67.68.69.69,0,0,1-.68-.68.68.68,0,0,1,.68-.67.67.67,0,0,1,.67.67"/><path id="Fill-794" class="cls-3" d="M227.52,111.36a.67.67,0,1,1-1.34,0,.67.67,0,0,1,1.34,0"/><path id="Fill-796" class="cls-3" d="M238.13,111.36a.69.69,0,0,1-.68.68.68.68,0,0,1-.67-.68.67.67,0,0,1,.67-.67.68.68,0,0,1,.68.67"/><path id="Fill-798" class="cls-3" d="M248.73,111.36a.68.68,0,1,1-.67-.67.67.67,0,0,1,.67.67"/><path id="Fill-800" class="cls-3" d="M259.33,111.36a.68.68,0,0,1-.67.68.69.69,0,0,1-.68-.68.68.68,0,0,1,.68-.67.67.67,0,0,1,.67.67"/><path id="Fill-802" class="cls-3" d="M216.92,121a.67.67,0,0,1-.67.68.68.68,0,1,1,0-1.35.67.67,0,0,1,.67.67"/><path id="Fill-804" class="cls-3" d="M227.52,121a.67.67,0,1,1-.67-.67.67.67,0,0,1,.67.67"/><path id="Fill-806" class="cls-3" d="M238.13,121a.68.68,0,0,1-.68.68.68.68,0,1,1,.68-.68"/><path id="Fill-808" class="cls-3" d="M248.73,121a.68.68,0,1,1-.67-.67.67.67,0,0,1,.67.67"/><path id="Fill-810" class="cls-3" d="M259.33,121a.67.67,0,0,1-.67.68.68.68,0,1,1,0-1.35.67.67,0,0,1,.67.67"/><path id="Fill-812" class="cls-3" d="M216.92,130.6a.67.67,0,0,1-.67.68.68.68,0,1,1,0-1.35.67.67,0,0,1,.67.67"/><path id="Fill-814" class="cls-3" d="M227.52,130.6a.67.67,0,1,1-.67-.67.67.67,0,0,1,.67.67"/><path id="Fill-816" class="cls-3" d="M238.13,130.6a.68.68,0,0,1-.68.68.68.68,0,1,1,.68-.68"/><path id="Fill-818" class="cls-3" d="M248.73,130.6a.68.68,0,1,1-.67-.67.67.67,0,0,1,.67.67"/><path id="Fill-820" class="cls-3" d="M259.33,130.6a.67.67,0,0,1-.67.68.68.68,0,1,1,0-1.35.67.67,0,0,1,.67.67"/><path id="Fill-822" class="cls-3" d="M216.92,140.23a.67.67,0,0,1-.67.67.68.68,0,1,1,.67-.67"/><path id="Fill-824" class="cls-3" d="M227.52,140.23a.67.67,0,1,1-.67-.68.67.67,0,0,1,.67.68"/><path id="Fill-826" class="cls-3" d="M238.13,140.23a.68.68,0,0,1-.68.67.68.68,0,0,1,0-1.35.68.68,0,0,1,.68.68"/><path id="Fill-828" class="cls-3" d="M248.73,140.23a.68.68,0,1,1-.67-.68.67.67,0,0,1,.67.68"/><path id="Fill-830" class="cls-3" d="M259.33,140.23a.67.67,0,0,1-.67.67.68.68,0,1,1,.67-.67"/><path id="Fill-832" class="cls-3" d="M216.92,149.85a.67.67,0,0,1-.67.67.68.68,0,1,1,.67-.67"/><path id="Fill-834" class="cls-3" d="M227.52,149.85a.67.67,0,1,1-.67-.68.67.67,0,0,1,.67.68"/><path id="Fill-836" class="cls-3" d="M238.13,149.85a.68.68,0,0,1-.68.67.68.68,0,0,1,0-1.35.68.68,0,0,1,.68.68"/><path id="Fill-838" class="cls-3" d="M248.73,149.85a.68.68,0,1,1-.67-.68.67.67,0,0,1,.67.68"/><path id="Fill-840" class="cls-3" d="M259.33,149.85a.67.67,0,0,1-.67.67.68.68,0,1,1,.67-.67"/><path id="Fill-842" class="cls-3" d="M216.92,159.47a.67.67,0,0,1-.67.67.68.68,0,0,1-.68-.67.69.69,0,0,1,.68-.68.68.68,0,0,1,.67.68"/><path id="Fill-844" class="cls-3" d="M227.52,159.47a.67.67,0,1,1-1.34,0,.67.67,0,1,1,1.34,0"/><path id="Fill-846" class="cls-3" d="M238.13,159.47a.68.68,0,0,1-.68.67.67.67,0,0,1-.67-.67.68.68,0,0,1,.67-.68.69.69,0,0,1,.68.68"/><path id="Fill-848" class="cls-3" d="M248.73,159.47a.68.68,0,0,1-1.35,0,.68.68,0,1,1,1.35,0"/><path id="Fill-850" class="cls-3" d="M259.33,159.47a.67.67,0,0,1-.67.67.68.68,0,0,1-.68-.67.69.69,0,0,1,.68-.68.68.68,0,0,1,.67.68"/><g class="cls-4"><polygon id="Fill-852" class="cls-5" points="107.8 123.5 122.9 123.5 122.9 41.49 107.8 41.49 107.8 123.5"/></g><g class="cls-4"><polygon id="Fill-854" class="cls-2" points="117.92 62.84 122.9 62.84 122.9 61.22 117.92 61.22 117.92 62.84"/></g><g class="cls-4"><polygon id="Fill-855" class="cls-2" points="117.92 52.72 122.9 52.72 122.9 51.1 117.92 51.1 117.92 52.72"/></g><g class="cls-4"><polygon id="Fill-856" class="cls-2" points="117.92 72.95 122.9 72.95 122.9 71.34 117.92 71.34 117.92 72.95"/></g><g class="cls-4"><polygon id="Fill-857" class="cls-2" points="117.92 83.07 122.9 83.07 122.9 81.46 117.92 81.46 117.92 83.07"/></g><g class="cls-4"><polygon id="Fill-858" class="cls-2" points="117.92 93.19 122.9 93.19 122.9 91.57 117.92 91.57 117.92 93.19"/></g><g class="cls-4"><polygon id="Fill-859" class="cls-2" points="117.92 103.31 122.9 103.31 122.9 101.69 117.92 101.69 117.92 103.31"/></g><g class="cls-4"><polygon id="Fill-860" class="cls-2" points="117.92 113.42 122.9 113.42 122.9 111.81 117.92 111.81 117.92 113.42"/></g><g class="cls-4"><path id="Fill-861" class="cls-5" d="M108.41,108.63a26.13,26.13,0,0,1,0-52.26V67.68a14.82,14.82,0,0,0,0,29.64Z"/></g><g class="cls-4"><path id="Fill-862" class="cls-6" d="M108.41,78.67a3.83,3.83,0,1,1-3.83,3.83,3.83,3.83,0,0,1,3.83-3.83"/></g><g class="cls-4"><polygon id="Fill-863" class="cls-7" points="138.07 126.94 136.17 126.46 137.75 120.19 139.64 120.67 138.07 126.94"/></g><g class="cls-4"><polygon id="Fill-864" class="cls-7" points="175.19 126.94 177.08 126.46 175.5 120.19 173.61 120.67 175.19 126.94"/></g><g class="cls-4"><polygon id="Fill-865" class="cls-7" points="135.76 99.88 177.63 99.88 177.63 98.13 135.76 98.13 135.76 99.88"/></g><g class="cls-4"><path id="Fill-866" class="cls-1" d="M138.59,121.53l-.32-.08a3.24,3.24,0,0,1-2.35-3.94l13-51.52,6.61,1.66-13,51.53a3.24,3.24,0,0,1-3.94,2.35"/></g><g class="cls-4"><path id="Fill-867" class="cls-1" d="M174.67,121.53l.31-.08a3.24,3.24,0,0,0,2.36-3.94L164.38,66l-6.62,1.66,13,51.53a3.24,3.24,0,0,0,3.94,2.35"/></g><g class="cls-4"><polygon id="Fill-868" class="cls-6" points="154.38 102.44 159.01 102.44 159.01 95.37 154.38 95.37 154.38 102.44"/></g><g class="cls-4"><path id="Fill-869" class="cls-7" d="M179.72,99a2.09,2.09,0,1,1-2.09-2.09A2.09,2.09,0,0,1,179.72,99"/></g><g class="cls-4"><path id="Fill-870" class="cls-7" d="M137.84,99a2.09,2.09,0,1,1-2.08-2.09A2.08,2.08,0,0,1,137.84,99"/></g><g class="cls-4"><polygon id="Fill-871" class="cls-7" points="153.59 55.85 159.67 55.85 159.67 38.06 153.59 38.06 153.59 55.85"/></g><g class="cls-4"><path id="Fill-872" class="cls-1" d="M168,59.19a11.32,11.32,0,1,1-11.32-11.32A11.32,11.32,0,0,1,168,59.19"/></g><g class="cls-4"><path id="Fill-873" class="cls-2" d="M161.88,59.19a5.25,5.25,0,1,1-5.25-5.25,5.25,5.25,0,0,1,5.25,5.25"/></g></g></g></g></g></g></g></svg>