<svg id="Layer_1" data-name="Layer 1" xmlns="http://www.w3.org/2000/svg" width="290" height="109" viewBox="0 0 290 109"><defs><style>.cls-1{fill:#1d4354;}.cls-1,.cls-2,.cls-3,.cls-4,.cls-5,.cls-6{fill-rule:evenodd;}.cls-2{fill:#336278;}.cls-3{fill:#2b5468;}.cls-4{fill:#6fda44;}.cls-5{fill:#b2b2b2;}.cls-6{fill:#fff;}</style></defs><title>illo-engineering-small</title><g id="Page-1"><g id="Padding-Group-10-Copy-4"><g id="Stacked-Group"><g id="illo-engineering-small"><polygon id="Fill-1" class="cls-1" points="0 109 290 109 290 0 0 0 0 109"/><g id="Group-1104"><path id="Fill-2" class="cls-2" d="M7.6,4.55a.5.5,0,0,1-1,0,.5.5,0,1,1,1,0"/><path id="Fill-4" class="cls-2" d="M15.4,4.55a.5.5,0,0,1-1,0,.5.5,0,1,1,1,0"/><path id="Fill-6" class="cls-2" d="M23.3,4.55a.5.5,0,1,1-1,0,.5.5,0,0,1,1,0"/><path id="Fill-8" class="cls-2" d="M31.1,4.55a.5.5,0,0,1-1,0,.5.5,0,1,1,1,0"/><path id="Fill-10" class="cls-2" d="M39,4.55a.5.5,0,0,1-1,0,.47.47,0,0,1,.5-.5.54.54,0,0,1,.5.5"/><path id="Fill-12" class="cls-2" d="M46.8,4.55a.5.5,0,0,1-1,0,.5.5,0,1,1,1,0"/><path id="Fill-14" class="cls-2" d="M54.7,4.55a.5.5,0,0,1-1,0,.47.47,0,0,1,.5-.5.54.54,0,0,1,.5.5"/><path id="Fill-16" class="cls-2" d="M62.5,4.55a.5.5,0,0,1-1,0,.5.5,0,1,1,1,0"/><path id="Fill-18" class="cls-2" d="M70.3,4.55a.5.5,0,0,1-1,0,.5.5,0,1,1,1,0"/><path id="Fill-20" class="cls-2" d="M78.2,4.55a.5.5,0,0,1-1,0,.5.5,0,1,1,1,0"/><path id="Fill-22" class="cls-2" d="M86,4.55a.5.5,0,0,1-1,0,.5.5,0,1,1,1,0"/><path id="Fill-24" class="cls-2" d="M93.9,4.55a.5.5,0,0,1-1,0,.5.5,0,1,1,1,0"/><path id="Fill-26" class="cls-2" d="M101.7,4.55a.5.5,0,0,1-1,0,.5.5,0,1,1,1,0"/><path id="Fill-28" class="cls-2" d="M109.6,4.55a.5.5,0,0,1-1,0,.47.47,0,0,1,.5-.5.54.54,0,0,1,.5.5"/><path id="Fill-30" class="cls-2" d="M117.4,4.55a.5.5,0,0,1-1,0,.5.5,0,1,1,1,0"/><path id="Fill-32" class="cls-2" d="M125.2,4.55a.5.5,0,0,1-1,0,.5.5,0,1,1,1,0"/><path id="Fill-34" class="cls-2" d="M133.1,4.55a.5.5,0,1,1-1,0,.5.5,0,0,1,1,0"/><path id="Fill-36" class="cls-2" d="M140.9,4.55a.5.5,0,1,1-1,0,.5.5,0,0,1,1,0"/><path id="Fill-38" class="cls-2" d="M148.8,4.55a.5.5,0,1,1-1,0,.5.5,0,0,1,1,0"/><path id="Fill-40" class="cls-2" d="M156.6,4.55a.5.5,0,1,1-1,0,.5.5,0,0,1,1,0"/><path id="Fill-42" class="cls-2" d="M7.6,11.65a.5.5,0,1,1-.5-.5.47.47,0,0,1,.5.5"/><path id="Fill-44" class="cls-2" d="M15.4,11.65a.5.5,0,1,1-.5-.5.47.47,0,0,1,.5.5"/><path id="Fill-46" class="cls-2" d="M23.3,11.65a.5.5,0,1,1-.5-.5.47.47,0,0,1,.5.5"/><path id="Fill-48" class="cls-2" d="M31.1,11.65a.5.5,0,1,1-.5-.5.47.47,0,0,1,.5.5"/><path id="Fill-50" class="cls-2" d="M39,11.65a.5.5,0,1,1-.5-.5.54.54,0,0,1,.5.5"/><path id="Fill-52" class="cls-2" d="M46.8,11.65a.5.5,0,1,1-.5-.5.47.47,0,0,1,.5.5"/><path id="Fill-54" class="cls-2" d="M54.7,11.65a.5.5,0,1,1-.5-.5.54.54,0,0,1,.5.5"/><path id="Fill-56" class="cls-2" d="M62.5,11.65a.5.5,0,1,1-.5-.5.47.47,0,0,1,.5.5"/><path id="Fill-58" class="cls-2" d="M70.3,11.65a.5.5,0,1,1-.5-.5.47.47,0,0,1,.5.5"/><path id="Fill-60" class="cls-2" d="M78.2,11.65a.5.5,0,1,1-.5-.5.47.47,0,0,1,.5.5"/><path id="Fill-62" class="cls-2" d="M86,11.65a.5.5,0,1,1-.5-.5.47.47,0,0,1,.5.5"/><path id="Fill-64" class="cls-2" d="M93.9,11.65a.5.5,0,1,1-.5-.5.47.47,0,0,1,.5.5"/><path id="Fill-66" class="cls-2" d="M101.7,11.65a.5.5,0,1,1-.5-.5.47.47,0,0,1,.5.5"/><path id="Fill-68" class="cls-2" d="M109.6,11.65a.5.5,0,1,1-.5-.5.54.54,0,0,1,.5.5"/><path id="Fill-70" class="cls-2" d="M117.4,11.65a.5.5,0,1,1-.5-.5.47.47,0,0,1,.5.5"/><path id="Fill-72" class="cls-2" d="M125.2,11.65a.5.5,0,1,1-.5-.5.47.47,0,0,1,.5.5"/><path id="Fill-74" class="cls-2" d="M133.1,11.65a.5.5,0,1,1-.5-.5.47.47,0,0,1,.5.5"/><path id="Fill-76" class="cls-2" d="M140.9,11.65a.5.5,0,1,1-.5-.5.47.47,0,0,1,.5.5"/><path id="Fill-78" class="cls-2" d="M148.8,11.65a.5.5,0,1,1-.5-.5.47.47,0,0,1,.5.5"/><path id="Fill-80" class="cls-2" d="M156.6,11.65a.5.5,0,1,1-.5-.5.47.47,0,0,1,.5.5"/><path id="Fill-82" class="cls-2" d="M7.6,18.75a.5.5,0,1,1-.5-.5.54.54,0,0,1,.5.5"/><path id="Fill-84" class="cls-2" d="M15.4,18.75a.5.5,0,1,1-.5-.5.54.54,0,0,1,.5.5"/><path id="Fill-86" class="cls-2" d="M23.3,18.75a.5.5,0,1,1-.5-.5.54.54,0,0,1,.5.5"/><path id="Fill-88" class="cls-2" d="M31.1,18.75a.5.5,0,1,1-.5-.5.54.54,0,0,1,.5.5"/><path id="Fill-90" class="cls-2" d="M39,18.75a.5.5,0,1,1-.5-.5.64.64,0,0,1,.5.5"/><path id="Fill-92" class="cls-2" d="M46.8,18.75a.5.5,0,1,1-.5-.5.54.54,0,0,1,.5.5"/><path id="Fill-94" class="cls-2" d="M54.7,18.75a.5.5,0,1,1-.5-.5.64.64,0,0,1,.5.5"/><path id="Fill-96" class="cls-2" d="M62.5,18.75a.5.5,0,1,1-.5-.5.54.54,0,0,1,.5.5"/><path id="Fill-98" class="cls-2" d="M70.3,18.75a.5.5,0,1,1-.5-.5.54.54,0,0,1,.5.5"/><path id="Fill-100" class="cls-2" d="M78.2,18.75a.5.5,0,1,1-.5-.5.54.54,0,0,1,.5.5"/><path id="Fill-102" class="cls-2" d="M86,18.75a.5.5,0,1,1-.5-.5.54.54,0,0,1,.5.5"/><path id="Fill-104" class="cls-2" d="M93.9,18.75a.5.5,0,1,1-.5-.5.54.54,0,0,1,.5.5"/><path id="Fill-106" class="cls-2" d="M101.7,18.75a.5.5,0,1,1-.5-.5.54.54,0,0,1,.5.5"/><path id="Fill-108" class="cls-2" d="M109.6,18.75a.5.5,0,1,1-.5-.5.64.64,0,0,1,.5.5"/><path id="Fill-110" class="cls-2" d="M117.4,18.75a.5.5,0,1,1-.5-.5.54.54,0,0,1,.5.5"/><path id="Fill-112" class="cls-2" d="M125.2,18.75a.5.5,0,1,1-.5-.5.54.54,0,0,1,.5.5"/><path id="Fill-114" class="cls-2" d="M133.1,18.75a.5.5,0,1,1-.5-.5.54.54,0,0,1,.5.5"/><path id="Fill-116" class="cls-2" d="M140.9,18.75a.5.5,0,1,1-.5-.5.54.54,0,0,1,.5.5"/><path id="Fill-118" class="cls-2" d="M148.8,18.75a.5.5,0,1,1-.5-.5.54.54,0,0,1,.5.5"/><path id="Fill-120" class="cls-2" d="M156.6,18.75a.5.5,0,1,1-.5-.5.54.54,0,0,1,.5.5"/><path id="Fill-122" class="cls-2" d="M7.6,26a.5.5,0,1,1-.5-.5.47.47,0,0,1,.5.5"/><path id="Fill-124" class="cls-2" d="M15.4,26a.5.5,0,1,1-.5-.5.47.47,0,0,1,.5.5"/><path id="Fill-126" class="cls-2" d="M23.3,26a.5.5,0,1,1-.5-.5.47.47,0,0,1,.5.5"/><path id="Fill-128" class="cls-2" d="M31.1,26a.5.5,0,1,1-.5-.5.47.47,0,0,1,.5.5"/><path id="Fill-130" class="cls-2" d="M39,26a.5.5,0,1,1-.5-.5.54.54,0,0,1,.5.5"/><path id="Fill-132" class="cls-2" d="M46.8,26a.5.5,0,1,1-.5-.5.47.47,0,0,1,.5.5"/><path id="Fill-134" class="cls-2" d="M54.7,26a.5.5,0,1,1-.5-.5.54.54,0,0,1,.5.5"/><path id="Fill-136" class="cls-2" d="M62.5,26a.5.5,0,1,1-.5-.5.47.47,0,0,1,.5.5"/><path id="Fill-138" class="cls-2" d="M70.3,26a.5.5,0,1,1-.5-.5.47.47,0,0,1,.5.5"/><path id="Fill-140" class="cls-2" d="M78.2,26a.5.5,0,1,1-.5-.5.47.47,0,0,1,.5.5"/><path id="Fill-142" class="cls-2" d="M86,26a.47.47,0,0,1-.5.5A.54.54,0,0,1,85,26a.5.5,0,0,1,1,0"/><path id="Fill-144" class="cls-2" d="M93.9,26a.5.5,0,1,1-.5-.5.47.47,0,0,1,.5.5"/><path id="Fill-146" class="cls-2" d="M101.7,26a.5.5,0,1,1-.5-.5.47.47,0,0,1,.5.5"/><path id="Fill-148" class="cls-2" d="M109.6,26a.5.5,0,1,1-.5-.5.54.54,0,0,1,.5.5"/><path id="Fill-150" class="cls-2" d="M117.4,26a.5.5,0,1,1-.5-.5.47.47,0,0,1,.5.5"/><path id="Fill-152" class="cls-2" d="M125.2,26a.5.5,0,1,1-.5-.5.47.47,0,0,1,.5.5"/><path id="Fill-154" class="cls-2" d="M133.1,26a.5.5,0,1,1-.5-.5.47.47,0,0,1,.5.5"/><path id="Fill-156" class="cls-2" d="M140.9,26a.5.5,0,1,1-.5-.5.47.47,0,0,1,.5.5"/><path id="Fill-158" class="cls-2" d="M148.8,26a.5.5,0,1,1-.5-.5.47.47,0,0,1,.5.5"/><path id="Fill-160" class="cls-2" d="M156.6,26a.5.5,0,1,1-.5-.5.47.47,0,0,1,.5.5"/><path id="Fill-162" class="cls-2" d="M7.6,33.05a.5.5,0,1,1-.5-.5.47.47,0,0,1,.5.5"/><path id="Fill-164" class="cls-2" d="M15.4,33.05a.5.5,0,1,1-.5-.5.47.47,0,0,1,.5.5"/><path id="Fill-166" class="cls-2" d="M23.3,33.05a.5.5,0,1,1-.5-.5.47.47,0,0,1,.5.5"/><path id="Fill-168" class="cls-2" d="M31.1,33.05a.5.5,0,1,1-.5-.5.47.47,0,0,1,.5.5"/><path id="Fill-170" class="cls-2" d="M39,33.05a.5.5,0,1,1-.5-.5.54.54,0,0,1,.5.5"/><path id="Fill-172" class="cls-2" d="M46.8,33.05a.5.5,0,1,1-.5-.5.47.47,0,0,1,.5.5"/><path id="Fill-174" class="cls-2" d="M54.7,33.05a.5.5,0,1,1-.5-.5.54.54,0,0,1,.5.5"/><path id="Fill-176" class="cls-2" d="M62.5,33.05a.5.5,0,1,1-.5-.5.47.47,0,0,1,.5.5"/><path id="Fill-178" class="cls-2" d="M70.3,33.05a.5.5,0,1,1-.5-.5.47.47,0,0,1,.5.5"/><path id="Fill-180" class="cls-2" d="M78.2,33.05a.5.5,0,1,1-.5-.5.47.47,0,0,1,.5.5"/><path id="Fill-182" class="cls-2" d="M86,33.05a.47.47,0,0,1-.5.5.54.54,0,0,1-.5-.5.5.5,0,0,1,1,0"/><path id="Fill-184" class="cls-2" d="M93.9,33.05a.5.5,0,1,1-.5-.5.47.47,0,0,1,.5.5"/><path id="Fill-186" class="cls-2" d="M101.7,33.05a.5.5,0,1,1-.5-.5.47.47,0,0,1,.5.5"/><path id="Fill-188" class="cls-2" d="M109.6,33.05a.5.5,0,1,1-.5-.5.54.54,0,0,1,.5.5"/><path id="Fill-190" class="cls-2" d="M117.4,33.05a.5.5,0,1,1-.5-.5.47.47,0,0,1,.5.5"/><path id="Fill-192" class="cls-2" d="M125.2,33.05a.5.5,0,1,1-.5-.5.47.47,0,0,1,.5.5"/><path id="Fill-194" class="cls-2" d="M133.1,33.05a.5.5,0,1,1-.5-.5.47.47,0,0,1,.5.5"/><path id="Fill-196" class="cls-2" d="M140.9,33.05a.5.5,0,1,1-.5-.5.47.47,0,0,1,.5.5"/><path id="Fill-198" class="cls-2" d="M148.8,33.05a.5.5,0,1,1-.5-.5.47.47,0,0,1,.5.5"/><path id="Fill-200" class="cls-2" d="M156.6,33.05a.5.5,0,1,1-.5-.5.47.47,0,0,1,.5.5"/><path id="Fill-202" class="cls-2" d="M7.6,40.15a.5.5,0,1,1-.5-.5.47.47,0,0,1,.5.5"/><path id="Fill-204" class="cls-2" d="M15.4,40.15a.5.5,0,1,1-.5-.5.47.47,0,0,1,.5.5"/><path id="Fill-206" class="cls-2" d="M23.3,40.15a.5.5,0,1,1-.5-.5.47.47,0,0,1,.5.5"/><path id="Fill-208" class="cls-2" d="M31.1,40.15a.5.5,0,1,1-.5-.5.47.47,0,0,1,.5.5"/><path id="Fill-210" class="cls-2" d="M39,40.15a.5.5,0,1,1-.5-.5.54.54,0,0,1,.5.5"/><path id="Fill-212" class="cls-2" d="M46.8,40.15a.5.5,0,1,1-.5-.5.47.47,0,0,1,.5.5"/><path id="Fill-214" class="cls-2" d="M54.7,40.15a.5.5,0,1,1-.5-.5.54.54,0,0,1,.5.5"/><path id="Fill-216" class="cls-2" d="M62.5,40.15a.5.5,0,1,1-.5-.5.47.47,0,0,1,.5.5"/><path id="Fill-218" class="cls-2" d="M70.3,40.15a.5.5,0,1,1-.5-.5.47.47,0,0,1,.5.5"/><path id="Fill-220" class="cls-2" d="M78.2,40.15a.5.5,0,1,1-.5-.5.47.47,0,0,1,.5.5"/><path id="Fill-222" class="cls-2" d="M86,40.15a.5.5,0,1,1-.5-.5.47.47,0,0,1,.5.5"/><path id="Fill-224" class="cls-2" d="M93.9,40.15a.5.5,0,1,1-.5-.5.47.47,0,0,1,.5.5"/><path id="Fill-226" class="cls-2" d="M101.7,40.15a.5.5,0,1,1-.5-.5.47.47,0,0,1,.5.5"/><path id="Fill-228" class="cls-2" d="M109.6,40.15a.5.5,0,1,1-.5-.5.54.54,0,0,1,.5.5"/><path id="Fill-230" class="cls-2" d="M117.4,40.15a.5.5,0,1,1-.5-.5.47.47,0,0,1,.5.5"/><path id="Fill-232" class="cls-2" d="M125.2,40.15a.5.5,0,1,1-.5-.5.47.47,0,0,1,.5.5"/><path id="Fill-234" class="cls-2" d="M133.1,40.15a.5.5,0,1,1-.5-.5.47.47,0,0,1,.5.5"/><path id="Fill-236" class="cls-2" d="M140.9,40.15a.5.5,0,1,1-.5-.5.47.47,0,0,1,.5.5"/><path id="Fill-238" class="cls-2" d="M148.8,40.15a.5.5,0,1,1-.5-.5.47.47,0,0,1,.5.5"/><path id="Fill-240" class="cls-2" d="M156.6,40.15a.5.5,0,1,1-.5-.5.47.47,0,0,1,.5.5"/><path id="Fill-242" class="cls-2" d="M7.6,47.25a.5.5,0,1,1-.5-.5.47.47,0,0,1,.5.5"/><path id="Fill-244" class="cls-2" d="M15.4,47.25a.5.5,0,1,1-.5-.5.47.47,0,0,1,.5.5"/><path id="Fill-246" class="cls-2" d="M23.3,47.25a.5.5,0,1,1-.5-.5.47.47,0,0,1,.5.5"/><path id="Fill-248" class="cls-2" d="M31.1,47.25a.5.5,0,1,1-.5-.5.47.47,0,0,1,.5.5"/><path id="Fill-250" class="cls-2" d="M39,47.25a.5.5,0,1,1-.5-.5.54.54,0,0,1,.5.5"/><path id="Fill-252" class="cls-2" d="M46.8,47.25a.5.5,0,1,1-.5-.5.47.47,0,0,1,.5.5"/><path id="Fill-254" class="cls-2" d="M54.7,47.25a.5.5,0,1,1-.5-.5.54.54,0,0,1,.5.5"/><path id="Fill-256" class="cls-2" d="M62.5,47.25a.5.5,0,1,1-.5-.5.47.47,0,0,1,.5.5"/><path id="Fill-258" class="cls-2" d="M70.3,47.25a.5.5,0,1,1-.5-.5.47.47,0,0,1,.5.5"/><path id="Fill-260" class="cls-2" d="M78.2,47.25a.5.5,0,1,1-.5-.5.47.47,0,0,1,.5.5"/><path id="Fill-262" class="cls-2" d="M86,47.25a.5.5,0,1,1-.5-.5.47.47,0,0,1,.5.5"/><path id="Fill-264" class="cls-2" d="M93.9,47.25a.5.5,0,1,1-.5-.5.47.47,0,0,1,.5.5"/><path id="Fill-266" class="cls-2" d="M101.7,47.25a.5.5,0,1,1-.5-.5.47.47,0,0,1,.5.5"/><path id="Fill-268" class="cls-2" d="M109.6,47.25a.5.5,0,1,1-.5-.5.54.54,0,0,1,.5.5"/><path id="Fill-270" class="cls-2" d="M117.4,47.25a.5.5,0,1,1-.5-.5.47.47,0,0,1,.5.5"/><path id="Fill-272" class="cls-2" d="M125.2,47.25a.5.5,0,1,1-.5-.5.47.47,0,0,1,.5.5"/><path id="Fill-274" class="cls-2" d="M133.1,47.25a.5.5,0,1,1-.5-.5.47.47,0,0,1,.5.5"/><path id="Fill-276" class="cls-2" d="M140.9,47.25a.5.5,0,1,1-.5-.5.47.47,0,0,1,.5.5"/><path id="Fill-278" class="cls-2" d="M148.8,47.25a.5.5,0,1,1-.5-.5.47.47,0,0,1,.5.5"/><path id="Fill-280" class="cls-2" d="M156.6,47.25a.5.5,0,1,1-.5-.5.47.47,0,0,1,.5.5"/><path id="Fill-282" class="cls-2" d="M7.6,54.35a.5.5,0,1,1-.5-.5.54.54,0,0,1,.5.5"/><path id="Fill-284" class="cls-2" d="M15.4,54.35a.5.5,0,1,1-.5-.5.54.54,0,0,1,.5.5"/><path id="Fill-286" class="cls-2" d="M23.3,54.35a.5.5,0,1,1-.5-.5.54.54,0,0,1,.5.5"/><path id="Fill-288" class="cls-2" d="M31.1,54.35a.5.5,0,1,1-.5-.5.54.54,0,0,1,.5.5"/><path id="Fill-290" class="cls-2" d="M39,54.35a.5.5,0,1,1-.5-.5.64.64,0,0,1,.5.5"/><path id="Fill-292" class="cls-2" d="M46.8,54.35a.5.5,0,1,1-.5-.5.54.54,0,0,1,.5.5"/><path id="Fill-294" class="cls-2" d="M54.7,54.35a.5.5,0,1,1-.5-.5.64.64,0,0,1,.5.5"/><path id="Fill-296" class="cls-2" d="M62.5,54.35a.5.5,0,1,1-.5-.5.54.54,0,0,1,.5.5"/><path id="Fill-298" class="cls-2" d="M70.3,54.35a.5.5,0,1,1-.5-.5.54.54,0,0,1,.5.5"/><path id="Fill-300" class="cls-2" d="M78.2,54.35a.5.5,0,1,1-.5-.5.54.54,0,0,1,.5.5"/><path id="Fill-302" class="cls-2" d="M86,54.35a.5.5,0,1,1-.5-.5.54.54,0,0,1,.5.5"/><path id="Fill-304" class="cls-2" d="M93.9,54.35a.5.5,0,1,1-.5-.5.54.54,0,0,1,.5.5"/><path id="Fill-306" class="cls-2" d="M101.7,54.35a.5.5,0,1,1-.5-.5.54.54,0,0,1,.5.5"/><path id="Fill-308" class="cls-2" d="M109.6,54.35a.5.5,0,1,1-.5-.5.64.64,0,0,1,.5.5"/><path id="Fill-310" class="cls-2" d="M117.4,54.35a.5.5,0,1,1-.5-.5.54.54,0,0,1,.5.5"/><path id="Fill-312" class="cls-2" d="M125.2,54.35a.5.5,0,1,1-.5-.5.54.54,0,0,1,.5.5"/><path id="Fill-314" class="cls-2" d="M133.1,54.35a.5.5,0,1,1-.5-.5.54.54,0,0,1,.5.5"/><path id="Fill-316" class="cls-2" d="M140.9,54.35a.5.5,0,1,1-.5-.5.54.54,0,0,1,.5.5"/><path id="Fill-318" class="cls-2" d="M148.8,54.35a.5.5,0,1,1-.5-.5.54.54,0,0,1,.5.5"/><path id="Fill-320" class="cls-2" d="M156.6,54.35a.5.5,0,1,1-.5-.5.54.54,0,0,1,.5.5"/><path id="Fill-322" class="cls-2" d="M7.6,61.45a.5.5,0,1,1-.5-.5.54.54,0,0,1,.5.5"/><path id="Fill-324" class="cls-2" d="M15.4,61.45a.5.5,0,1,1-.5-.5.54.54,0,0,1,.5.5"/><path id="Fill-326" class="cls-2" d="M23.3,61.45a.5.5,0,1,1-.5-.5.54.54,0,0,1,.5.5"/><path id="Fill-328" class="cls-2" d="M31.1,61.45a.5.5,0,1,1-.5-.5.54.54,0,0,1,.5.5"/><path id="Fill-330" class="cls-2" d="M39,61.45a.5.5,0,1,1-.5-.5.64.64,0,0,1,.5.5"/><path id="Fill-332" class="cls-2" d="M46.8,61.45a.5.5,0,1,1-.5-.5.54.54,0,0,1,.5.5"/><path id="Fill-334" class="cls-2" d="M54.7,61.45a.5.5,0,1,1-.5-.5.64.64,0,0,1,.5.5"/><path id="Fill-336" class="cls-2" d="M62.5,61.45A.5.5,0,1,1,62,61a.54.54,0,0,1,.5.5"/><path id="Fill-338" class="cls-2" d="M70.3,61.45a.5.5,0,1,1-.5-.5.54.54,0,0,1,.5.5"/><path id="Fill-340" class="cls-2" d="M78.2,61.45a.5.5,0,1,1-.5-.5.54.54,0,0,1,.5.5"/><path id="Fill-342" class="cls-2" d="M86,61.45a.5.5,0,1,1-.5-.5.54.54,0,0,1,.5.5"/><path id="Fill-344" class="cls-2" d="M93.9,61.45a.5.5,0,1,1-.5-.5.54.54,0,0,1,.5.5"/><path id="Fill-346" class="cls-2" d="M101.7,61.45a.5.5,0,1,1-.5-.5.54.54,0,0,1,.5.5"/><path id="Fill-348" class="cls-2" d="M109.6,61.45a.5.5,0,1,1-.5-.5.64.64,0,0,1,.5.5"/><path id="Fill-350" class="cls-2" d="M117.4,61.45a.5.5,0,1,1-.5-.5.54.54,0,0,1,.5.5"/><path id="Fill-352" class="cls-2" d="M125.2,61.45a.5.5,0,1,1-.5-.5.54.54,0,0,1,.5.5"/><path id="Fill-354" class="cls-2" d="M133.1,61.45a.5.5,0,1,1-.5-.5.54.54,0,0,1,.5.5"/><path id="Fill-356" class="cls-2" d="M140.9,61.45a.5.5,0,1,1-.5-.5.54.54,0,0,1,.5.5"/><path id="Fill-358" class="cls-2" d="M148.8,61.45a.5.5,0,1,1-.5-.5.54.54,0,0,1,.5.5"/><path id="Fill-360" class="cls-2" d="M156.6,61.45a.5.5,0,1,1-.5-.5.54.54,0,0,1,.5.5"/><path id="Fill-362" class="cls-2" d="M7.6,68.65a.5.5,0,1,1-.5-.5.47.47,0,0,1,.5.5"/><path id="Fill-364" class="cls-2" d="M15.4,68.65a.5.5,0,1,1-.5-.5.47.47,0,0,1,.5.5"/><path id="Fill-366" class="cls-2" d="M23.3,68.65a.5.5,0,1,1-.5-.5.47.47,0,0,1,.5.5"/><path id="Fill-368" class="cls-2" d="M31.1,68.65a.5.5,0,1,1-.5-.5.47.47,0,0,1,.5.5"/><path id="Fill-370" class="cls-2" d="M39,68.65a.5.5,0,1,1-.5-.5.54.54,0,0,1,.5.5"/><path id="Fill-372" class="cls-2" d="M46.8,68.65a.5.5,0,1,1-.5-.5.47.47,0,0,1,.5.5"/><path id="Fill-374" class="cls-2" d="M54.7,68.65a.5.5,0,1,1-.5-.5.54.54,0,0,1,.5.5"/><path id="Fill-376" class="cls-2" d="M62.5,68.65a.5.5,0,1,1-.5-.5.47.47,0,0,1,.5.5"/><path id="Fill-378" class="cls-2" d="M70.3,68.65a.5.5,0,1,1-.5-.5.47.47,0,0,1,.5.5"/><path id="Fill-380" class="cls-2" d="M78.2,68.65a.5.5,0,1,1-.5-.5.47.47,0,0,1,.5.5"/><path id="Fill-382" class="cls-2" d="M86,68.65a.47.47,0,0,1-.5.5.54.54,0,0,1-.5-.5.5.5,0,0,1,1,0"/><path id="Fill-384" class="cls-2" d="M93.9,68.65a.5.5,0,1,1-.5-.5.47.47,0,0,1,.5.5"/><path id="Fill-386" class="cls-2" d="M101.7,68.65a.5.5,0,1,1-.5-.5.47.47,0,0,1,.5.5"/><path id="Fill-388" class="cls-2" d="M109.6,68.65a.5.5,0,1,1-.5-.5.54.54,0,0,1,.5.5"/><path id="Fill-390" class="cls-2" d="M117.4,68.65a.5.5,0,1,1-.5-.5.47.47,0,0,1,.5.5"/><path id="Fill-392" class="cls-2" d="M125.2,68.65a.5.5,0,1,1-.5-.5.47.47,0,0,1,.5.5"/><path id="Fill-394" class="cls-2" d="M133.1,68.65a.5.5,0,1,1-.5-.5.47.47,0,0,1,.5.5"/><path id="Fill-396" class="cls-2" d="M140.9,68.65a.5.5,0,1,1-.5-.5.47.47,0,0,1,.5.5"/><path id="Fill-398" class="cls-2" d="M148.8,68.65a.5.5,0,1,1-.5-.5.47.47,0,0,1,.5.5"/><path id="Fill-400" class="cls-2" d="M156.6,68.65a.5.5,0,1,1-.5-.5.47.47,0,0,1,.5.5"/><path id="Fill-402" class="cls-2" d="M7.6,75.75a.5.5,0,1,1-.5-.5.47.47,0,0,1,.5.5"/><path id="Fill-404" class="cls-2" d="M15.4,75.75a.5.5,0,1,1-.5-.5.47.47,0,0,1,.5.5"/><path id="Fill-406" class="cls-2" d="M23.3,75.75a.5.5,0,1,1-.5-.5.47.47,0,0,1,.5.5"/><path id="Fill-408" class="cls-2" d="M31.1,75.75a.5.5,0,1,1-.5-.5.47.47,0,0,1,.5.5"/><path id="Fill-410" class="cls-2" d="M39,75.75a.5.5,0,1,1-.5-.5.54.54,0,0,1,.5.5"/><path id="Fill-412" class="cls-2" d="M46.8,75.75a.5.5,0,1,1-.5-.5.47.47,0,0,1,.5.5"/><path id="Fill-414" class="cls-2" d="M54.7,75.75a.5.5,0,1,1-.5-.5.54.54,0,0,1,.5.5"/><path id="Fill-416" class="cls-2" d="M62.5,75.75a.5.5,0,1,1-.5-.5.47.47,0,0,1,.5.5"/><path id="Fill-418" class="cls-2" d="M70.3,75.75a.5.5,0,1,1-.5-.5.47.47,0,0,1,.5.5"/><path id="Fill-420" class="cls-2" d="M78.2,75.75a.5.5,0,1,1-.5-.5.47.47,0,0,1,.5.5"/><path id="Fill-422" class="cls-2" d="M86,75.75a.5.5,0,1,1-.5-.5.47.47,0,0,1,.5.5"/><path id="Fill-424" class="cls-2" d="M93.9,75.75a.5.5,0,1,1-.5-.5.47.47,0,0,1,.5.5"/><path id="Fill-426" class="cls-2" d="M101.7,75.75a.5.5,0,1,1-.5-.5.47.47,0,0,1,.5.5"/><path id="Fill-428" class="cls-2" d="M109.6,75.75a.5.5,0,1,1-.5-.5.54.54,0,0,1,.5.5"/><path id="Fill-430" class="cls-2" d="M117.4,75.75a.5.5,0,1,1-.5-.5.47.47,0,0,1,.5.5"/><path id="Fill-432" class="cls-2" d="M125.2,75.75a.5.5,0,1,1-.5-.5.47.47,0,0,1,.5.5"/><path id="Fill-434" class="cls-2" d="M133.1,75.75a.5.5,0,1,1-.5-.5.47.47,0,0,1,.5.5"/><path id="Fill-436" class="cls-2" d="M140.9,75.75a.5.5,0,1,1-.5-.5.47.47,0,0,1,.5.5"/><path id="Fill-438" class="cls-2" d="M148.8,75.75a.5.5,0,1,1-.5-.5.47.47,0,0,1,.5.5"/><path id="Fill-440" class="cls-2" d="M156.6,75.75a.5.5,0,1,1-.5-.5.47.47,0,0,1,.5.5"/><path id="Fill-442" class="cls-2" d="M7.6,82.85a.5.5,0,1,1-.5-.5.47.47,0,0,1,.5.5"/><path id="Fill-444" class="cls-2" d="M15.4,82.85a.5.5,0,1,1-.5-.5.47.47,0,0,1,.5.5"/><path id="Fill-446" class="cls-2" d="M23.3,82.85a.5.5,0,1,1-.5-.5.47.47,0,0,1,.5.5"/><path id="Fill-448" class="cls-2" d="M31.1,82.85a.5.5,0,1,1-.5-.5.47.47,0,0,1,.5.5"/><path id="Fill-450" class="cls-2" d="M39,82.85a.5.5,0,1,1-.5-.5.54.54,0,0,1,.5.5"/><path id="Fill-452" class="cls-2" d="M46.8,82.85a.5.5,0,1,1-.5-.5.47.47,0,0,1,.5.5"/><path id="Fill-454" class="cls-2" d="M54.7,82.85a.5.5,0,1,1-.5-.5.54.54,0,0,1,.5.5"/><path id="Fill-456" class="cls-2" d="M62.5,82.85a.5.5,0,1,1-.5-.5.47.47,0,0,1,.5.5"/><path id="Fill-458" class="cls-2" d="M70.3,82.85a.5.5,0,1,1-.5-.5.47.47,0,0,1,.5.5"/><path id="Fill-460" class="cls-2" d="M78.2,82.85a.5.5,0,1,1-.5-.5.47.47,0,0,1,.5.5"/><path id="Fill-462" class="cls-2" d="M86,82.85a.5.5,0,1,1-.5-.5.47.47,0,0,1,.5.5"/><path id="Fill-464" class="cls-2" d="M93.9,82.85a.5.5,0,1,1-.5-.5.47.47,0,0,1,.5.5"/><path id="Fill-466" class="cls-2" d="M101.7,82.85a.5.5,0,1,1-.5-.5.47.47,0,0,1,.5.5"/><path id="Fill-468" class="cls-2" d="M109.6,82.85a.5.5,0,1,1-.5-.5.54.54,0,0,1,.5.5"/><path id="Fill-470" class="cls-2" d="M117.4,82.85a.5.5,0,1,1-.5-.5.47.47,0,0,1,.5.5"/><path id="Fill-472" class="cls-2" d="M125.2,82.85a.5.5,0,1,1-.5-.5.47.47,0,0,1,.5.5"/><path id="Fill-474" class="cls-2" d="M133.1,82.85a.5.5,0,1,1-.5-.5.47.47,0,0,1,.5.5"/><path id="Fill-476" class="cls-2" d="M140.9,82.85a.5.5,0,1,1-.5-.5.47.47,0,0,1,.5.5"/><path id="Fill-478" class="cls-2" d="M148.8,82.85a.5.5,0,1,1-.5-.5.47.47,0,0,1,.5.5"/><path id="Fill-480" class="cls-2" d="M156.6,82.85a.5.5,0,1,1-.5-.5.47.47,0,0,1,.5.5"/><path id="Fill-482" class="cls-2" d="M7.6,90a.5.5,0,1,1-.5-.5.47.47,0,0,1,.5.5"/><path id="Fill-484" class="cls-2" d="M15.4,90a.5.5,0,1,1-.5-.5.47.47,0,0,1,.5.5"/><path id="Fill-486" class="cls-2" d="M23.3,90a.5.5,0,1,1-.5-.5.47.47,0,0,1,.5.5"/><path id="Fill-488" class="cls-2" d="M31.1,90a.5.5,0,1,1-.5-.5.47.47,0,0,1,.5.5"/><path id="Fill-490" class="cls-2" d="M39,90a.5.5,0,1,1-.5-.5.54.54,0,0,1,.5.5"/><path id="Fill-492" class="cls-2" d="M46.8,90a.5.5,0,1,1-.5-.5.47.47,0,0,1,.5.5"/><path id="Fill-494" class="cls-2" d="M54.7,90a.5.5,0,1,1-.5-.5.54.54,0,0,1,.5.5"/><path id="Fill-496" class="cls-2" d="M62.5,90a.5.5,0,1,1-.5-.5.47.47,0,0,1,.5.5"/><path id="Fill-498" class="cls-2" d="M70.3,90a.5.5,0,1,1-.5-.5.47.47,0,0,1,.5.5"/><path id="Fill-500" class="cls-2" d="M78.2,90a.5.5,0,1,1-.5-.5.47.47,0,0,1,.5.5"/><path id="Fill-502" class="cls-2" d="M86,90a.5.5,0,1,1-.5-.5.47.47,0,0,1,.5.5"/><path id="Fill-504" class="cls-2" d="M93.9,90a.5.5,0,1,1-.5-.5.47.47,0,0,1,.5.5"/><path id="Fill-506" class="cls-2" d="M101.7,90a.5.5,0,1,1-.5-.5.47.47,0,0,1,.5.5"/><path id="Fill-508" class="cls-2" d="M109.6,90a.5.5,0,1,1-.5-.5.54.54,0,0,1,.5.5"/><path id="Fill-510" class="cls-2" d="M117.4,90a.5.5,0,1,1-.5-.5.47.47,0,0,1,.5.5"/><path id="Fill-512" class="cls-2" d="M125.2,90a.5.5,0,1,1-.5-.5.47.47,0,0,1,.5.5"/><path id="Fill-514" class="cls-2" d="M133.1,90a.5.5,0,1,1-.5-.5.47.47,0,0,1,.5.5"/><path id="Fill-516" class="cls-2" d="M140.9,90a.5.5,0,1,1-.5-.5.47.47,0,0,1,.5.5"/><path id="Fill-518" class="cls-2" d="M148.8,90a.5.5,0,1,1-.5-.5.47.47,0,0,1,.5.5"/><path id="Fill-520" class="cls-2" d="M156.6,90a.5.5,0,1,1-.5-.5.47.47,0,0,1,.5.5"/><path id="Fill-522" class="cls-2" d="M7.6,97.05a.5.5,0,1,1-.5-.5.54.54,0,0,1,.5.5"/><path id="Fill-524" class="cls-2" d="M15.4,97.05a.5.5,0,1,1-.5-.5.54.54,0,0,1,.5.5"/><path id="Fill-526" class="cls-2" d="M23.3,97.05a.5.5,0,1,1-.5-.5.54.54,0,0,1,.5.5"/><path id="Fill-528" class="cls-2" d="M31.1,97.05a.5.5,0,1,1-.5-.5.54.54,0,0,1,.5.5"/><path id="Fill-530" class="cls-2" d="M39,97.05a.5.5,0,1,1-.5-.5.64.64,0,0,1,.5.5"/><path id="Fill-532" class="cls-2" d="M46.8,97.05a.5.5,0,1,1-.5-.5.54.54,0,0,1,.5.5"/><path id="Fill-534" class="cls-2" d="M54.7,97.05a.5.5,0,1,1-.5-.5.64.64,0,0,1,.5.5"/><path id="Fill-536" class="cls-2" d="M62.5,97.05a.5.5,0,1,1-.5-.5.54.54,0,0,1,.5.5"/><path id="Fill-538" class="cls-2" d="M70.3,97.05a.5.5,0,1,1-.5-.5.54.54,0,0,1,.5.5"/><path id="Fill-540" class="cls-2" d="M78.2,97.05a.5.5,0,1,1-.5-.5.54.54,0,0,1,.5.5"/><path id="Fill-542" class="cls-2" d="M86,97.05a.5.5,0,1,1-.5-.5.54.54,0,0,1,.5.5"/><path id="Fill-544" class="cls-2" d="M93.9,97.05a.5.5,0,1,1-.5-.5.54.54,0,0,1,.5.5"/><path id="Fill-546" class="cls-2" d="M101.7,97.05a.5.5,0,1,1-.5-.5.54.54,0,0,1,.5.5"/><path id="Fill-548" class="cls-2" d="M109.6,97.05a.5.5,0,1,1-.5-.5.64.64,0,0,1,.5.5"/><path id="Fill-550" class="cls-2" d="M117.4,97.05a.5.5,0,1,1-.5-.5.54.54,0,0,1,.5.5"/><path id="Fill-552" class="cls-2" d="M125.2,97.05a.5.5,0,1,1-.5-.5.54.54,0,0,1,.5.5"/><path id="Fill-554" class="cls-2" d="M133.1,97.05a.5.5,0,1,1-.5-.5.54.54,0,0,1,.5.5"/><path id="Fill-556" class="cls-2" d="M140.9,97.05a.5.5,0,1,1-.5-.5.54.54,0,0,1,.5.5"/><path id="Fill-558" class="cls-2" d="M148.8,97.05a.5.5,0,1,1-.5-.5.54.54,0,0,1,.5.5"/><path id="Fill-560" class="cls-2" d="M156.6,97.05a.5.5,0,1,1-.5-.5.54.54,0,0,1,.5.5"/><path id="Fill-562" class="cls-2" d="M7.6,104.15a.5.5,0,1,1-.5-.5.54.54,0,0,1,.5.5"/><path id="Fill-564" class="cls-2" d="M15.4,104.15a.5.5,0,1,1-.5-.5.54.54,0,0,1,.5.5"/><path id="Fill-566" class="cls-2" d="M23.3,104.15a.5.5,0,1,1-.5-.5.54.54,0,0,1,.5.5"/><path id="Fill-568" class="cls-2" d="M31.1,104.15a.5.5,0,1,1-.5-.5.54.54,0,0,1,.5.5"/><path id="Fill-570" class="cls-2" d="M39,104.15a.5.5,0,1,1-.5-.5.64.64,0,0,1,.5.5"/><path id="Fill-572" class="cls-2" d="M46.8,104.15a.5.5,0,1,1-.5-.5.54.54,0,0,1,.5.5"/><path id="Fill-574" class="cls-2" d="M54.7,104.15a.5.5,0,1,1-.5-.5.64.64,0,0,1,.5.5"/><path id="Fill-576" class="cls-2" d="M62.5,104.15a.5.5,0,1,1-.5-.5.54.54,0,0,1,.5.5"/><path id="Fill-578" class="cls-2" d="M70.3,104.15a.5.5,0,1,1-.5-.5.54.54,0,0,1,.5.5"/><path id="Fill-580" class="cls-2" d="M78.2,104.15a.5.5,0,1,1-.5-.5.54.54,0,0,1,.5.5"/><path id="Fill-582" class="cls-2" d="M86,104.15a.5.5,0,1,1-.5-.5.54.54,0,0,1,.5.5"/><path id="Fill-584" class="cls-2" d="M93.9,104.15a.5.5,0,1,1-.5-.5.54.54,0,0,1,.5.5"/><path id="Fill-586" class="cls-2" d="M101.7,104.15a.5.5,0,1,1-.5-.5.54.54,0,0,1,.5.5"/><path id="Fill-588" class="cls-2" d="M109.6,104.15a.5.5,0,1,1-.5-.5.64.64,0,0,1,.5.5"/><path id="Fill-590" class="cls-2" d="M117.4,104.15a.5.5,0,1,1-.5-.5.54.54,0,0,1,.5.5"/><path id="Fill-592" class="cls-2" d="M125.2,104.15a.5.5,0,1,1-.5-.5.54.54,0,0,1,.5.5"/><path id="Fill-594" class="cls-2" d="M133.1,104.15a.5.5,0,1,1-.5-.5.54.54,0,0,1,.5.5"/><path id="Fill-596" class="cls-2" d="M140.9,104.15a.5.5,0,1,1-.5-.5.54.54,0,0,1,.5.5"/><path id="Fill-598" class="cls-2" d="M148.8,104.15a.5.5,0,1,1-.5-.5.54.54,0,0,1,.5.5"/><path id="Fill-600" class="cls-2" d="M156.6,104.15a.5.5,0,1,1-.5-.5.54.54,0,0,1,.5.5"/><path id="Fill-602" class="cls-2" d="M165.1,4.55a.5.5,0,1,1-1,0,.5.5,0,0,1,1,0"/><path id="Fill-604" class="cls-2" d="M172.9,4.55a.5.5,0,1,1-1,0,.5.5,0,0,1,1,0"/><path id="Fill-606" class="cls-2" d="M180.8,4.55a.5.5,0,1,1-1,0,.5.5,0,0,1,1,0"/><path id="Fill-608" class="cls-2" d="M188.6,4.55a.5.5,0,1,1-1,0,.5.5,0,0,1,1,0"/><path id="Fill-610" class="cls-2" d="M196.5,4.55a.5.5,0,1,1-1,0,.5.5,0,0,1,1,0"/><path id="Fill-612" class="cls-2" d="M165.1,11.65a.5.5,0,1,1-.5-.5.47.47,0,0,1,.5.5"/><path id="Fill-614" class="cls-2" d="M172.9,11.65a.5.5,0,1,1-.5-.5.47.47,0,0,1,.5.5"/><path id="Fill-616" class="cls-2" d="M180.8,11.65a.5.5,0,1,1-.5-.5.47.47,0,0,1,.5.5"/><path id="Fill-618" class="cls-2" d="M188.6,11.65a.5.5,0,1,1-.5-.5.47.47,0,0,1,.5.5"/><path id="Fill-620" class="cls-2" d="M196.5,11.65a.5.5,0,1,1-.5-.5.47.47,0,0,1,.5.5"/><path id="Fill-622" class="cls-2" d="M165.1,18.75a.5.5,0,1,1-.5-.5.54.54,0,0,1,.5.5"/><path id="Fill-624" class="cls-2" d="M172.9,18.75a.5.5,0,1,1-.5-.5.54.54,0,0,1,.5.5"/><path id="Fill-626" class="cls-2" d="M180.8,18.75a.5.5,0,1,1-.5-.5.54.54,0,0,1,.5.5"/><path id="Fill-628" class="cls-2" d="M188.6,18.75a.5.5,0,1,1-.5-.5.54.54,0,0,1,.5.5"/><path id="Fill-630" class="cls-2" d="M196.5,18.75a.5.5,0,1,1-.5-.5.54.54,0,0,1,.5.5"/><path id="Fill-632" class="cls-2" d="M165.1,26a.5.5,0,1,1-.5-.5.47.47,0,0,1,.5.5"/><path id="Fill-634" class="cls-2" d="M172.9,26a.5.5,0,1,1-.5-.5.47.47,0,0,1,.5.5"/><path id="Fill-636" class="cls-2" d="M180.8,26a.5.5,0,1,1-.5-.5.47.47,0,0,1,.5.5"/><path id="Fill-638" class="cls-2" d="M188.6,26a.5.5,0,1,1-.5-.5.47.47,0,0,1,.5.5"/><path id="Fill-640" class="cls-2" d="M196.5,26a.5.5,0,1,1-.5-.5.47.47,0,0,1,.5.5"/><path id="Fill-642" class="cls-2" d="M165.1,33.05a.5.5,0,1,1-.5-.5.47.47,0,0,1,.5.5"/><path id="Fill-644" class="cls-2" d="M172.9,33.05a.5.5,0,1,1-.5-.5.47.47,0,0,1,.5.5"/><path id="Fill-646" class="cls-2" d="M180.8,33.05a.5.5,0,1,1-.5-.5.47.47,0,0,1,.5.5"/><path id="Fill-648" class="cls-2" d="M188.6,33.05a.5.5,0,1,1-.5-.5.47.47,0,0,1,.5.5"/><path id="Fill-650" class="cls-2" d="M196.5,33.05a.5.5,0,1,1-.5-.5.47.47,0,0,1,.5.5"/><path id="Fill-652" class="cls-2" d="M165.1,40.15a.5.5,0,1,1-.5-.5.47.47,0,0,1,.5.5"/><path id="Fill-654" class="cls-2" d="M172.9,40.15a.5.5,0,1,1-.5-.5.47.47,0,0,1,.5.5"/><path id="Fill-656" class="cls-2" d="M180.8,40.15a.5.5,0,1,1-.5-.5.47.47,0,0,1,.5.5"/><path id="Fill-658" class="cls-2" d="M188.6,40.15a.5.5,0,1,1-.5-.5.47.47,0,0,1,.5.5"/><path id="Fill-660" class="cls-2" d="M196.5,40.15a.5.5,0,1,1-.5-.5.47.47,0,0,1,.5.5"/><path id="Fill-662" class="cls-2" d="M165.1,47.25a.5.5,0,1,1-.5-.5.47.47,0,0,1,.5.5"/><path id="Fill-664" class="cls-2" d="M172.9,47.25a.5.5,0,1,1-.5-.5.47.47,0,0,1,.5.5"/><path id="Fill-666" class="cls-2" d="M180.8,47.25a.5.5,0,1,1-.5-.5.47.47,0,0,1,.5.5"/><path id="Fill-668" class="cls-2" d="M188.6,47.25a.5.5,0,1,1-.5-.5.47.47,0,0,1,.5.5"/><path id="Fill-670" class="cls-2" d="M196.5,47.25a.5.5,0,1,1-.5-.5.47.47,0,0,1,.5.5"/><path id="Fill-672" class="cls-2" d="M165.1,54.35a.5.5,0,1,1-.5-.5.54.54,0,0,1,.5.5"/><path id="Fill-674" class="cls-2" d="M172.9,54.35a.5.5,0,1,1-.5-.5.54.54,0,0,1,.5.5"/><path id="Fill-676" class="cls-2" d="M180.8,54.35a.5.5,0,1,1-.5-.5.54.54,0,0,1,.5.5"/><path id="Fill-678" class="cls-2" d="M188.6,54.35a.5.5,0,1,1-.5-.5.54.54,0,0,1,.5.5"/><path id="Fill-680" class="cls-2" d="M196.5,54.35a.5.5,0,1,1-.5-.5.54.54,0,0,1,.5.5"/><path id="Fill-682" class="cls-2" d="M165.1,61.45a.5.5,0,1,1-.5-.5.54.54,0,0,1,.5.5"/><path id="Fill-684" class="cls-2" d="M172.9,61.45a.5.5,0,1,1-.5-.5.54.54,0,0,1,.5.5"/><path id="Fill-686" class="cls-2" d="M180.8,61.45a.5.5,0,1,1-.5-.5.54.54,0,0,1,.5.5"/><path id="Fill-688" class="cls-2" d="M188.6,61.45a.5.5,0,1,1-.5-.5.54.54,0,0,1,.5.5"/><path id="Fill-690" class="cls-2" d="M196.5,61.45a.5.5,0,1,1-.5-.5.54.54,0,0,1,.5.5"/><path id="Fill-692" class="cls-2" d="M165.1,68.65a.5.5,0,1,1-.5-.5.47.47,0,0,1,.5.5"/><path id="Fill-694" class="cls-2" d="M172.9,68.65a.5.5,0,1,1-.5-.5.47.47,0,0,1,.5.5"/><path id="Fill-696" class="cls-2" d="M180.8,68.65a.5.5,0,1,1-.5-.5.47.47,0,0,1,.5.5"/><path id="Fill-698" class="cls-2" d="M188.6,68.65a.5.5,0,1,1-.5-.5.47.47,0,0,1,.5.5"/><path id="Fill-700" class="cls-2" d="M196.5,68.65a.5.5,0,1,1-.5-.5.47.47,0,0,1,.5.5"/><path id="Fill-702" class="cls-2" d="M165.1,75.75a.5.5,0,1,1-.5-.5.47.47,0,0,1,.5.5"/><path id="Fill-704" class="cls-2" d="M172.9,75.75a.5.5,0,1,1-.5-.5.47.47,0,0,1,.5.5"/><path id="Fill-706" class="cls-2" d="M180.8,75.75a.5.5,0,1,1-.5-.5.47.47,0,0,1,.5.5"/><path id="Fill-708" class="cls-2" d="M188.6,75.75a.5.5,0,1,1-.5-.5.47.47,0,0,1,.5.5"/><path id="Fill-710" class="cls-2" d="M196.5,75.75a.5.5,0,1,1-.5-.5.47.47,0,0,1,.5.5"/><path id="Fill-712" class="cls-2" d="M165.1,82.85a.5.5,0,1,1-.5-.5.47.47,0,0,1,.5.5"/><path id="Fill-714" class="cls-2" d="M172.9,82.85a.5.5,0,1,1-.5-.5.47.47,0,0,1,.5.5"/><path id="Fill-716" class="cls-2" d="M180.8,82.85a.5.5,0,1,1-.5-.5.47.47,0,0,1,.5.5"/><path id="Fill-718" class="cls-2" d="M188.6,82.85a.5.5,0,1,1-.5-.5.47.47,0,0,1,.5.5"/><path id="Fill-720" class="cls-2" d="M196.5,82.85a.5.5,0,1,1-.5-.5.47.47,0,0,1,.5.5"/><path id="Fill-722" class="cls-2" d="M165.1,90a.5.5,0,1,1-.5-.5.47.47,0,0,1,.5.5"/><path id="Fill-724" class="cls-2" d="M172.9,90a.5.5,0,1,1-.5-.5.47.47,0,0,1,.5.5"/><path id="Fill-726" class="cls-2" d="M180.8,90a.5.5,0,1,1-.5-.5.47.47,0,0,1,.5.5"/><path id="Fill-728" class="cls-2" d="M188.6,90a.5.5,0,1,1-.5-.5.47.47,0,0,1,.5.5"/><path id="Fill-730" class="cls-2" d="M196.5,90a.5.5,0,1,1-.5-.5.47.47,0,0,1,.5.5"/><path id="Fill-732" class="cls-2" d="M165.1,97.05a.5.5,0,1,1-.5-.5.54.54,0,0,1,.5.5"/><path id="Fill-734" class="cls-2" d="M172.9,97.05a.5.5,0,1,1-.5-.5.54.54,0,0,1,.5.5"/><path id="Fill-736" class="cls-2" d="M180.8,97.05a.5.5,0,1,1-.5-.5.54.54,0,0,1,.5.5"/><path id="Fill-738" class="cls-2" d="M188.6,97.05a.5.5,0,1,1-.5-.5.54.54,0,0,1,.5.5"/><path id="Fill-740" class="cls-2" d="M196.5,97.05a.5.5,0,1,1-.5-.5.54.54,0,0,1,.5.5"/><path id="Fill-742" class="cls-2" d="M165.1,104.15a.5.5,0,1,1-.5-.5.54.54,0,0,1,.5.5"/><path id="Fill-744" class="cls-2" d="M172.9,104.15a.5.5,0,1,1-.5-.5.54.54,0,0,1,.5.5"/><path id="Fill-746" class="cls-2" d="M180.8,104.15a.5.5,0,1,1-.5-.5.54.54,0,0,1,.5.5"/><path id="Fill-748" class="cls-2" d="M188.6,104.15a.5.5,0,1,1-.5-.5.54.54,0,0,1,.5.5"/><path id="Fill-750" class="cls-2" d="M196.5,104.15a.5.5,0,1,1-.5-.5.54.54,0,0,1,.5.5"/><path id="Fill-752" class="cls-2" d="M205,4.55a.5.5,0,1,1-1,0,.5.5,0,0,1,1,0"/><path id="Fill-754" class="cls-2" d="M212.8,4.55a.5.5,0,1,1-1,0,.5.5,0,0,1,1,0"/><path id="Fill-756" class="cls-2" d="M220.7,4.55a.5.5,0,1,1-1,0,.47.47,0,0,1,.5-.5.54.54,0,0,1,.5.5"/><path id="Fill-758" class="cls-2" d="M228.5,4.55a.5.5,0,1,1-1,0,.5.5,0,0,1,1,0"/><path id="Fill-760" class="cls-2" d="M236.3,4.55a.5.5,0,1,1-1,0,.5.5,0,0,1,1,0"/><path id="Fill-762" class="cls-2" d="M244.2,4.55a.5.5,0,1,1-1,0,.5.5,0,0,1,1,0"/><path id="Fill-764" class="cls-2" d="M252,4.55a.5.5,0,1,1-1,0,.5.5,0,0,1,1,0"/><path id="Fill-766" class="cls-2" d="M259.9,4.55a.5.5,0,1,1-1,0,.5.5,0,0,1,1,0"/><path id="Fill-768" class="cls-2" d="M267.7,4.55a.5.5,0,1,1-1,0,.5.5,0,0,1,1,0"/><path id="Fill-770" class="cls-2" d="M275.6,4.55a.5.5,0,1,1-1,0,.5.5,0,0,1,1,0"/><path id="Fill-772" class="cls-2" d="M283.4,4.55a.5.5,0,1,1-1,0,.5.5,0,0,1,1,0"/><path id="Fill-774" class="cls-2" d="M205,11.65a.5.5,0,1,1-.5-.5.47.47,0,0,1,.5.5"/><path id="Fill-776" class="cls-2" d="M212.8,11.65a.5.5,0,1,1-.5-.5.47.47,0,0,1,.5.5"/><path id="Fill-778" class="cls-2" d="M220.7,11.65a.5.5,0,1,1-.5-.5.54.54,0,0,1,.5.5"/><path id="Fill-780" class="cls-2" d="M228.5,11.65a.5.5,0,1,1-.5-.5.47.47,0,0,1,.5.5"/><path id="Fill-782" class="cls-2" d="M236.3,11.65a.5.5,0,1,1-.5-.5.47.47,0,0,1,.5.5"/><path id="Fill-784" class="cls-2" d="M244.2,11.65a.5.5,0,1,1-.5-.5.47.47,0,0,1,.5.5"/><path id="Fill-786" class="cls-2" d="M252,11.65a.5.5,0,1,1-.5-.5.47.47,0,0,1,.5.5"/><path id="Fill-788" class="cls-2" d="M259.9,11.65a.5.5,0,1,1-.5-.5.47.47,0,0,1,.5.5"/><path id="Fill-790" class="cls-2" d="M267.7,11.65a.5.5,0,1,1-.5-.5.47.47,0,0,1,.5.5"/><path id="Fill-792" class="cls-2" d="M275.6,11.65a.5.5,0,1,1-.5-.5.47.47,0,0,1,.5.5"/><path id="Fill-794" class="cls-2" d="M283.4,11.65a.5.5,0,1,1-.5-.5.47.47,0,0,1,.5.5"/><path id="Fill-796" class="cls-2" d="M205,18.75a.5.5,0,1,1-.5-.5.54.54,0,0,1,.5.5"/><path id="Fill-798" class="cls-2" d="M212.8,18.75a.5.5,0,1,1-.5-.5.54.54,0,0,1,.5.5"/><path id="Fill-800" class="cls-2" d="M220.7,18.75a.5.5,0,1,1-.5-.5.64.64,0,0,1,.5.5"/><path id="Fill-802" class="cls-2" d="M228.5,18.75a.5.5,0,1,1-.5-.5.54.54,0,0,1,.5.5"/><path id="Fill-804" class="cls-2" d="M236.3,18.75a.5.5,0,1,1-.5-.5.54.54,0,0,1,.5.5"/><path id="Fill-806" class="cls-2" d="M244.2,18.75a.5.5,0,1,1-.5-.5.54.54,0,0,1,.5.5"/><path id="Fill-808" class="cls-2" d="M252,18.75a.5.5,0,1,1-.5-.5.54.54,0,0,1,.5.5"/><path id="Fill-810" class="cls-2" d="M259.9,18.75a.5.5,0,1,1-.5-.5.54.54,0,0,1,.5.5"/><path id="Fill-812" class="cls-2" d="M267.7,18.75a.5.5,0,1,1-.5-.5.54.54,0,0,1,.5.5"/><path id="Fill-814" class="cls-2" d="M275.6,18.75a.5.5,0,1,1-.5-.5.54.54,0,0,1,.5.5"/><path id="Fill-816" class="cls-2" d="M283.4,18.75a.5.5,0,1,1-.5-.5.54.54,0,0,1,.5.5"/><path id="Fill-818" class="cls-2" d="M205,26a.5.5,0,1,1-.5-.5.47.47,0,0,1,.5.5"/><path id="Fill-820" class="cls-2" d="M212.8,26a.5.5,0,1,1-.5-.5.47.47,0,0,1,.5.5"/><path id="Fill-822" class="cls-2" d="M220.7,26a.5.5,0,1,1-.5-.5.54.54,0,0,1,.5.5"/><path id="Fill-824" class="cls-2" d="M228.5,26a.5.5,0,1,1-.5-.5.47.47,0,0,1,.5.5"/><path id="Fill-826" class="cls-2" d="M236.3,26a.5.5,0,1,1-.5-.5.47.47,0,0,1,.5.5"/><path id="Fill-828" class="cls-2" d="M244.2,26a.5.5,0,1,1-.5-.5.47.47,0,0,1,.5.5"/><path id="Fill-830" class="cls-2" d="M252,26a.5.5,0,1,1-.5-.5.47.47,0,0,1,.5.5"/><path id="Fill-832" class="cls-2" d="M259.9,26a.5.5,0,1,1-.5-.5.47.47,0,0,1,.5.5"/><path id="Fill-834" class="cls-2" d="M267.7,26a.5.5,0,1,1-.5-.5.47.47,0,0,1,.5.5"/><path id="Fill-836" class="cls-2" d="M275.6,26a.5.5,0,1,1-.5-.5.47.47,0,0,1,.5.5"/><path id="Fill-838" class="cls-2" d="M283.4,26a.5.5,0,1,1-.5-.5.47.47,0,0,1,.5.5"/><path id="Fill-840" class="cls-2" d="M205,33.05a.5.5,0,1,1-.5-.5.47.47,0,0,1,.5.5"/><path id="Fill-842" class="cls-2" d="M212.8,33.05a.5.5,0,1,1-.5-.5.47.47,0,0,1,.5.5"/><path id="Fill-844" class="cls-2" d="M220.7,33.05a.5.5,0,1,1-.5-.5.54.54,0,0,1,.5.5"/><path id="Fill-846" class="cls-2" d="M228.5,33.05a.5.5,0,1,1-.5-.5.47.47,0,0,1,.5.5"/><path id="Fill-848" class="cls-2" d="M236.3,33.05a.5.5,0,1,1-.5-.5.47.47,0,0,1,.5.5"/><path id="Fill-850" class="cls-2" d="M244.2,33.05a.5.5,0,1,1-.5-.5.47.47,0,0,1,.5.5"/><path id="Fill-852" class="cls-2" d="M252,33.05a.5.5,0,1,1-.5-.5.47.47,0,0,1,.5.5"/><path id="Fill-854" class="cls-2" d="M259.9,33.05a.5.5,0,1,1-.5-.5.47.47,0,0,1,.5.5"/><path id="Fill-856" class="cls-2" d="M267.7,33.05a.5.5,0,1,1-.5-.5.47.47,0,0,1,.5.5"/><path id="Fill-858" class="cls-2" d="M275.6,33.05a.5.5,0,1,1-.5-.5.47.47,0,0,1,.5.5"/><path id="Fill-860" class="cls-2" d="M283.4,33.05a.5.5,0,1,1-.5-.5.47.47,0,0,1,.5.5"/><path id="Fill-862" class="cls-2" d="M205,40.15a.5.5,0,1,1-.5-.5.47.47,0,0,1,.5.5"/><path id="Fill-864" class="cls-2" d="M212.8,40.15a.5.5,0,1,1-.5-.5.47.47,0,0,1,.5.5"/><path id="Fill-866" class="cls-2" d="M220.7,40.15a.5.5,0,1,1-.5-.5.54.54,0,0,1,.5.5"/><path id="Fill-868" class="cls-2" d="M228.5,40.15a.5.5,0,1,1-.5-.5.47.47,0,0,1,.5.5"/><path id="Fill-870" class="cls-2" d="M236.3,40.15a.5.5,0,1,1-.5-.5.47.47,0,0,1,.5.5"/><path id="Fill-872" class="cls-2" d="M244.2,40.15a.5.5,0,1,1-.5-.5.47.47,0,0,1,.5.5"/><path id="Fill-874" class="cls-2" d="M252,40.15a.5.5,0,1,1-.5-.5.47.47,0,0,1,.5.5"/><path id="Fill-876" class="cls-2" d="M259.9,40.15a.5.5,0,1,1-.5-.5.47.47,0,0,1,.5.5"/><path id="Fill-878" class="cls-2" d="M267.7,40.15a.5.5,0,1,1-.5-.5.47.47,0,0,1,.5.5"/><path id="Fill-880" class="cls-2" d="M275.6,40.15a.5.5,0,1,1-.5-.5.47.47,0,0,1,.5.5"/><path id="Fill-882" class="cls-2" d="M283.4,40.15a.5.5,0,1,1-.5-.5.47.47,0,0,1,.5.5"/><path id="Fill-884" class="cls-2" d="M205,47.25a.5.5,0,1,1-.5-.5.47.47,0,0,1,.5.5"/><path id="Fill-886" class="cls-2" d="M212.8,47.25a.5.5,0,1,1-.5-.5.47.47,0,0,1,.5.5"/><path id="Fill-888" class="cls-2" d="M220.7,47.25a.5.5,0,1,1-.5-.5.54.54,0,0,1,.5.5"/><path id="Fill-890" class="cls-2" d="M228.5,47.25a.5.5,0,1,1-.5-.5.47.47,0,0,1,.5.5"/><path id="Fill-892" class="cls-2" d="M236.3,47.25a.5.5,0,1,1-.5-.5.47.47,0,0,1,.5.5"/><path id="Fill-894" class="cls-2" d="M244.2,47.25a.5.5,0,1,1-.5-.5.47.47,0,0,1,.5.5"/><path id="Fill-896" class="cls-2" d="M252,47.25a.5.5,0,1,1-.5-.5.47.47,0,0,1,.5.5"/><path id="Fill-898" class="cls-2" d="M259.9,47.25a.5.5,0,1,1-.5-.5.47.47,0,0,1,.5.5"/><path id="Fill-900" class="cls-2" d="M267.7,47.25a.5.5,0,1,1-.5-.5.47.47,0,0,1,.5.5"/><path id="Fill-902" class="cls-2" d="M275.6,47.25a.5.5,0,1,1-.5-.5.47.47,0,0,1,.5.5"/><path id="Fill-904" class="cls-2" d="M283.4,47.25a.5.5,0,1,1-.5-.5.47.47,0,0,1,.5.5"/><path id="Fill-906" class="cls-2" d="M205,54.35a.5.5,0,1,1-.5-.5.54.54,0,0,1,.5.5"/><path id="Fill-908" class="cls-2" d="M212.8,54.35a.5.5,0,1,1-.5-.5.54.54,0,0,1,.5.5"/><path id="Fill-910" class="cls-2" d="M220.7,54.35a.5.5,0,1,1-.5-.5.64.64,0,0,1,.5.5"/><path id="Fill-912" class="cls-2" d="M228.5,54.35a.5.5,0,1,1-.5-.5.54.54,0,0,1,.5.5"/><path id="Fill-914" class="cls-2" d="M236.3,54.35a.5.5,0,1,1-.5-.5.54.54,0,0,1,.5.5"/><path id="Fill-916" class="cls-2" d="M244.2,54.35a.5.5,0,1,1-.5-.5.54.54,0,0,1,.5.5"/><path id="Fill-918" class="cls-2" d="M252,54.35a.5.5,0,1,1-.5-.5.54.54,0,0,1,.5.5"/><path id="Fill-920" class="cls-2" d="M259.9,54.35a.5.5,0,1,1-.5-.5.54.54,0,0,1,.5.5"/><path id="Fill-922" class="cls-2" d="M267.7,54.35a.5.5,0,1,1-.5-.5.54.54,0,0,1,.5.5"/><path id="Fill-924" class="cls-2" d="M275.6,54.35a.5.5,0,1,1-.5-.5.54.54,0,0,1,.5.5"/><path id="Fill-926" class="cls-2" d="M283.4,54.35a.5.5,0,1,1-.5-.5.54.54,0,0,1,.5.5"/><path id="Fill-928" class="cls-2" d="M205,61.45a.5.5,0,1,1-.5-.5.54.54,0,0,1,.5.5"/><path id="Fill-930" class="cls-2" d="M212.8,61.45a.5.5,0,1,1-.5-.5.54.54,0,0,1,.5.5"/><path id="Fill-932" class="cls-2" d="M220.7,61.45a.5.5,0,1,1-.5-.5.64.64,0,0,1,.5.5"/><path id="Fill-934" class="cls-2" d="M228.5,61.45a.5.5,0,1,1-.5-.5.54.54,0,0,1,.5.5"/><path id="Fill-936" class="cls-2" d="M236.3,61.45a.5.5,0,1,1-.5-.5.54.54,0,0,1,.5.5"/><path id="Fill-938" class="cls-2" d="M244.2,61.45a.5.5,0,1,1-.5-.5.54.54,0,0,1,.5.5"/><path id="Fill-940" class="cls-2" d="M252,61.45a.5.5,0,1,1-.5-.5.54.54,0,0,1,.5.5"/><path id="Fill-942" class="cls-2" d="M259.9,61.45a.5.5,0,1,1-.5-.5.54.54,0,0,1,.5.5"/><path id="Fill-944" class="cls-2" d="M267.7,61.45a.5.5,0,1,1-.5-.5.54.54,0,0,1,.5.5"/><path id="Fill-946" class="cls-2" d="M275.6,61.45a.5.5,0,1,1-.5-.5.54.54,0,0,1,.5.5"/><path id="Fill-948" class="cls-2" d="M283.4,61.45a.5.5,0,1,1-.5-.5.54.54,0,0,1,.5.5"/><path id="Fill-950" class="cls-2" d="M205,68.65a.5.5,0,1,1-.5-.5.47.47,0,0,1,.5.5"/><path id="Fill-952" class="cls-2" d="M212.8,68.65a.5.5,0,1,1-.5-.5.47.47,0,0,1,.5.5"/><path id="Fill-954" class="cls-2" d="M220.7,68.65a.5.5,0,1,1-.5-.5.54.54,0,0,1,.5.5"/><path id="Fill-956" class="cls-2" d="M228.5,68.65a.5.5,0,1,1-.5-.5.47.47,0,0,1,.5.5"/><path id="Fill-958" class="cls-2" d="M236.3,68.65a.5.5,0,1,1-.5-.5.47.47,0,0,1,.5.5"/><path id="Fill-960" class="cls-2" d="M244.2,68.65a.5.5,0,1,1-.5-.5.47.47,0,0,1,.5.5"/><path id="Fill-962" class="cls-2" d="M252,68.65a.5.5,0,1,1-.5-.5.47.47,0,0,1,.5.5"/><path id="Fill-964" class="cls-2" d="M259.9,68.65a.5.5,0,1,1-.5-.5.47.47,0,0,1,.5.5"/><path id="Fill-966" class="cls-2" d="M267.7,68.65a.5.5,0,1,1-.5-.5.47.47,0,0,1,.5.5"/><path id="Fill-968" class="cls-2" d="M275.6,68.65a.5.5,0,1,1-.5-.5.47.47,0,0,1,.5.5"/><path id="Fill-970" class="cls-2" d="M283.4,68.65a.5.5,0,1,1-.5-.5.47.47,0,0,1,.5.5"/><path id="Fill-972" class="cls-2" d="M205,75.75a.5.5,0,1,1-.5-.5.47.47,0,0,1,.5.5"/><path id="Fill-974" class="cls-2" d="M212.8,75.75a.5.5,0,1,1-.5-.5.47.47,0,0,1,.5.5"/><path id="Fill-976" class="cls-2" d="M220.7,75.75a.5.5,0,1,1-.5-.5.54.54,0,0,1,.5.5"/><path id="Fill-978" class="cls-2" d="M228.5,75.75a.5.5,0,1,1-.5-.5.47.47,0,0,1,.5.5"/><path id="Fill-980" class="cls-2" d="M236.3,75.75a.5.5,0,1,1-.5-.5.47.47,0,0,1,.5.5"/><path id="Fill-982" class="cls-2" d="M244.2,75.75a.5.5,0,1,1-.5-.5.47.47,0,0,1,.5.5"/><path id="Fill-984" class="cls-2" d="M252,75.75a.5.5,0,1,1-.5-.5.47.47,0,0,1,.5.5"/><path id="Fill-986" class="cls-2" d="M259.9,75.75a.5.5,0,1,1-.5-.5.47.47,0,0,1,.5.5"/><path id="Fill-988" class="cls-2" d="M267.7,75.75a.5.5,0,1,1-.5-.5.47.47,0,0,1,.5.5"/><path id="Fill-990" class="cls-2" d="M275.6,75.75a.5.5,0,1,1-.5-.5.47.47,0,0,1,.5.5"/><path id="Fill-992" class="cls-2" d="M283.4,75.75a.5.5,0,1,1-.5-.5.47.47,0,0,1,.5.5"/><path id="Fill-994" class="cls-2" d="M205,82.85a.5.5,0,1,1-.5-.5.47.47,0,0,1,.5.5"/><path id="Fill-996" class="cls-2" d="M212.8,82.85a.5.5,0,1,1-.5-.5.47.47,0,0,1,.5.5"/><path id="Fill-998" class="cls-2" d="M220.7,82.85a.5.5,0,1,1-.5-.5.54.54,0,0,1,.5.5"/><path id="Fill-1000" class="cls-2" d="M228.5,82.85a.5.5,0,1,1-.5-.5.47.47,0,0,1,.5.5"/><path id="Fill-1002" class="cls-2" d="M236.3,82.85a.5.5,0,1,1-.5-.5.47.47,0,0,1,.5.5"/><path id="Fill-1004" class="cls-2" d="M244.2,82.85a.5.5,0,1,1-.5-.5.47.47,0,0,1,.5.5"/><path id="Fill-1006" class="cls-2" d="M252,82.85a.5.5,0,1,1-.5-.5.47.47,0,0,1,.5.5"/><path id="Fill-1008" class="cls-2" d="M259.9,82.85a.5.5,0,1,1-.5-.5.47.47,0,0,1,.5.5"/><path id="Fill-1010" class="cls-2" d="M267.7,82.85a.5.5,0,1,1-.5-.5.47.47,0,0,1,.5.5"/><path id="Fill-1012" class="cls-2" d="M275.6,82.85a.5.5,0,1,1-.5-.5.47.47,0,0,1,.5.5"/><path id="Fill-1014" class="cls-2" d="M283.4,82.85a.5.5,0,1,1-.5-.5.47.47,0,0,1,.5.5"/><path id="Fill-1016" class="cls-2" d="M205,90a.5.5,0,1,1-.5-.5.47.47,0,0,1,.5.5"/><path id="Fill-1018" class="cls-2" d="M212.8,90a.5.5,0,1,1-.5-.5.47.47,0,0,1,.5.5"/><path id="Fill-1020" class="cls-2" d="M220.7,90a.5.5,0,1,1-.5-.5.54.54,0,0,1,.5.5"/><path id="Fill-1022" class="cls-2" d="M228.5,90a.5.5,0,1,1-.5-.5.47.47,0,0,1,.5.5"/><path id="Fill-1024" class="cls-2" d="M236.3,90a.5.5,0,1,1-.5-.5.47.47,0,0,1,.5.5"/><path id="Fill-1026" class="cls-2" d="M244.2,90a.5.5,0,1,1-.5-.5.47.47,0,0,1,.5.5"/><path id="Fill-1028" class="cls-2" d="M252,90a.5.5,0,1,1-.5-.5.47.47,0,0,1,.5.5"/><path id="Fill-1030" class="cls-2" d="M259.9,90a.5.5,0,1,1-.5-.5.47.47,0,0,1,.5.5"/><path id="Fill-1032" class="cls-2" d="M267.7,90a.5.5,0,1,1-.5-.5.47.47,0,0,1,.5.5"/><path id="Fill-1034" class="cls-2" d="M275.6,90a.5.5,0,1,1-.5-.5.47.47,0,0,1,.5.5"/><path id="Fill-1036" class="cls-2" d="M283.4,90a.5.5,0,1,1-.5-.5.47.47,0,0,1,.5.5"/><path id="Fill-1038" class="cls-2" d="M205,97.05a.5.5,0,1,1-.5-.5.54.54,0,0,1,.5.5"/><path id="Fill-1040" class="cls-2" d="M212.8,97.05a.5.5,0,1,1-.5-.5.54.54,0,0,1,.5.5"/><path id="Fill-1042" class="cls-2" d="M220.7,97.05a.5.5,0,1,1-.5-.5.64.64,0,0,1,.5.5"/><path id="Fill-1044" class="cls-2" d="M228.5,97.05a.5.5,0,1,1-.5-.5.54.54,0,0,1,.5.5"/><path id="Fill-1046" class="cls-2" d="M236.3,97.05a.5.5,0,1,1-.5-.5.54.54,0,0,1,.5.5"/><path id="Fill-1048" class="cls-2" d="M244.2,97.05a.5.5,0,1,1-.5-.5.54.54,0,0,1,.5.5"/><path id="Fill-1050" class="cls-2" d="M252,97.05a.5.5,0,1,1-.5-.5.54.54,0,0,1,.5.5"/><path id="Fill-1052" class="cls-2" d="M259.9,97.05a.5.5,0,1,1-.5-.5.54.54,0,0,1,.5.5"/><path id="Fill-1054" class="cls-2" d="M267.7,97.05a.5.5,0,1,1-.5-.5.54.54,0,0,1,.5.5"/><path id="Fill-1056" class="cls-2" d="M275.6,97.05a.5.5,0,1,1-.5-.5.54.54,0,0,1,.5.5"/><path id="Fill-1058" class="cls-2" d="M283.4,97.05a.5.5,0,1,1-.5-.5.54.54,0,0,1,.5.5"/><path id="Fill-1060" class="cls-2" d="M205,104.15a.5.5,0,1,1-.5-.5.54.54,0,0,1,.5.5"/><path id="Fill-1062" class="cls-2" d="M212.8,104.15a.5.5,0,1,1-.5-.5.54.54,0,0,1,.5.5"/><path id="Fill-1064" class="cls-2" d="M220.7,104.15a.5.5,0,1,1-.5-.5.64.64,0,0,1,.5.5"/><path id="Fill-1066" class="cls-2" d="M228.5,104.15a.5.5,0,1,1-.5-.5.54.54,0,0,1,.5.5"/><path id="Fill-1068" class="cls-2" d="M236.3,104.15a.5.5,0,1,1-.5-.5.54.54,0,0,1,.5.5"/><path id="Fill-1070" class="cls-2" d="M244.2,104.15a.5.5,0,1,1-.5-.5.54.54,0,0,1,.5.5"/><path id="Fill-1072" class="cls-2" d="M252,104.15a.5.5,0,1,1-.5-.5.54.54,0,0,1,.5.5"/><path id="Fill-1074" class="cls-2" d="M259.9,104.15a.5.5,0,1,1-.5-.5.54.54,0,0,1,.5.5"/><path id="Fill-1076" class="cls-2" d="M267.7,104.15a.5.5,0,1,1-.5-.5.54.54,0,0,1,.5.5"/><path id="Fill-1078" class="cls-2" d="M275.6,104.15a.5.5,0,1,1-.5-.5.54.54,0,0,1,.5.5"/><path id="Fill-1080" class="cls-2" d="M283.4,104.15a.5.5,0,1,1-.5-.5.54.54,0,0,1,.5.5"/><polygon id="Fill-1082" class="cls-3" points="124.3 84.65 135.4 84.65 135.4 24.15 124.3 24.15 124.3 84.65"/><polygon id="Fill-1084" class="cls-1" points="131.7 39.85 135.4 39.85 135.4 38.65 131.7 38.65 131.7 39.85"/><polygon id="Fill-1085" class="cls-1" points="131.7 32.35 135.4 32.35 135.4 31.25 131.7 31.25 131.7 32.35"/><polygon id="Fill-1086" class="cls-1" points="131.7 47.35 135.4 47.35 135.4 46.15 131.7 46.15 131.7 47.35"/><polygon id="Fill-1087" class="cls-1" points="131.7 54.75 135.4 54.75 135.4 53.65 131.7 53.65 131.7 54.75"/><polygon id="Fill-1088" class="cls-1" points="131.7 62.25 135.4 62.25 135.4 61.05 131.7 61.05 131.7 62.25"/><polygon id="Fill-1089" class="cls-1" points="131.7 69.75 135.4 69.75 135.4 68.55 131.7 68.55 131.7 69.75"/><polygon id="Fill-1090" class="cls-1" points="131.7 77.15 135.4 77.15 135.4 76.05 131.7 76.05 131.7 77.15"/><path id="Fill-1091" class="cls-3" d="M124.7,73.65a19.3,19.3,0,1,1,0-38.6v8.3a10.9,10.9,0,0,0,0,21.8Z"/><path id="Fill-1092" class="cls-4" d="M124.7,51.55a2.8,2.8,0,1,1-2.8,2.8,2.8,2.8,0,0,1,2.8-2.8"/><polygon id="Fill-1093" class="cls-5" points="146.6 87.15 145.2 86.85 146.4 82.15 147.8 82.55 146.6 87.15"/><polygon id="Fill-1094" class="cls-5" points="174 87.15 175.4 86.85 174.2 82.15 172.8 82.55 174 87.15"/><polygon id="Fill-1095" class="cls-5" points="144.9 67.25 175.8 67.25 175.8 65.95 144.9 65.95 144.9 67.25"/><path id="Fill-1096" class="cls-6" d="M146.9,83.15h0a2.5,2.5,0,0,1-1.8-3.1l9.5-37.9,4.9,1.2L150,81.25a2.65,2.65,0,0,1-3.1,1.9"/><path id="Fill-1097" class="cls-6" d="M173.7,83.15h0a2.5,2.5,0,0,0,1.8-3.1L166,42.15l-4.9,1.2,9.5,37.9a2.65,2.65,0,0,0,3.1,1.9"/><polygon id="Fill-1098" class="cls-4" points="158.6 69.05 162 69.05 162 63.85 158.6 63.85 158.6 69.05"/><path id="Fill-1099" class="cls-5" d="M177.3,66.55a1.54,1.54,0,0,1-1.5,1.5,1.47,1.47,0,0,1-1.5-1.5,1.5,1.5,0,0,1,3,0"/><path id="Fill-1100" class="cls-5" d="M146.4,66.55a1.5,1.5,0,1,1-1.5-1.5,1.54,1.54,0,0,1,1.5,1.5"/><polygon id="Fill-1101" class="cls-5" points="158 34.75 162.5 34.75 162.5 21.55 158 21.55 158 34.75"/><path id="Fill-1102" class="cls-6" d="M168.6,37.15a8.4,8.4,0,1,1-8.4-8.4,8.39,8.39,0,0,1,8.4,8.4"/><path id="Fill-1103" class="cls-1" d="M164.2,37.15a3.9,3.9,0,1,1-7.8,0,3.84,3.84,0,0,1,3.9-3.9,4,4,0,0,1,3.9,3.9"/></g></g></g></g></g></svg>