<svg id="Layer_1" data-name="Layer 1" xmlns="http://www.w3.org/2000/svg" width="290" height="109" viewBox="0 0 290 109"><defs><style>.cls-1{fill:#1d4354;}.cls-1,.cls-2,.cls-3,.cls-4,.cls-5,.cls-6{fill-rule:evenodd;}.cls-2{fill:#2b5468;}.cls-3{fill:#336278;}.cls-4{fill:#6fda44;}.cls-5{fill:#e0e0e0;}.cls-6{fill:#34ba08;}</style></defs><title>illo-writing-small</title><g id="Page-1"><g id="Padding-Group-10-Copy-6"><g id="Stacked-Group"><g id="illo-writing-small"><polygon id="Fill-1" class="cls-1" points="0 109 290 109 290 0 0 0 0 109"/><polygon id="Fill-2" class="cls-2" points="1.5 10.7 166 10.7 166 10.6 1.5 10.6 1.5 10.7"/><polygon id="Fill-3" class="cls-2" points="1.5 28.4 166 28.4 166 28.3 1.5 28.3 1.5 28.4"/><polygon id="Fill-4" class="cls-2" points="1.5 46.1 166 46.1 166 45.9 1.5 45.9 1.5 46.1"/><polygon id="Fill-5" class="cls-2" points="1.5 63.8 166 63.8 166 63.6 1.5 63.6 1.5 63.8"/><polygon id="Fill-6" class="cls-2" points="1.5 81.4 166 81.4 166 81.3 1.5 81.3 1.5 81.4"/><polygon id="Fill-7" class="cls-2" points="1.5 99.1 166 99.1 166 99 1.5 99 1.5 99.1"/><polygon id="Fill-8" class="cls-2" points="7 108.5 7.1 108.5 7.1 0.4 7 0.4 7 108.5"/><polygon id="Fill-9" class="cls-2" points="24.7 108.5 24.8 108.5 24.8 0.4 24.7 0.4 24.7 108.5"/><polygon id="Fill-10" class="cls-2" points="42.3 108.5 42.5 108.5 42.5 0.4 42.3 0.4 42.3 108.5"/><polygon id="Fill-11" class="cls-2" points="60 108.5 60.2 108.5 60.2 0.4 60 0.4 60 108.5"/><polygon id="Fill-12" class="cls-2" points="77.7 108.5 77.8 108.5 77.8 0.4 77.7 0.4 77.7 108.5"/><polygon id="Fill-13" class="cls-2" points="95.4 108.5 95.5 108.5 95.5 0.4 95.4 0.4 95.4 108.5"/><polygon id="Fill-14" class="cls-2" points="113.1 108.5 113.2 108.5 113.2 0.4 113.1 0.4 113.1 108.5"/><polygon id="Fill-15" class="cls-2" points="130.8 108.5 130.9 108.5 130.9 0.4 130.8 0.4 130.8 108.5"/><polygon id="Fill-16" class="cls-2" points="148.4 108.5 148.6 108.5 148.6 0.4 148.4 0.4 148.4 108.5"/><polygon id="Fill-17" class="cls-2" points="166.1 108.5 166.3 108.5 166.3 0.4 166.1 0.4 166.1 108.5"/><g id="Group-209"><path id="Fill-18" class="cls-2" d="M8,10.65a.94.94,0,0,1-1,1,.94.94,0,0,1-1-1,.94.94,0,0,1,1-1,.94.94,0,0,1,1,1"/><path id="Fill-20" class="cls-2" d="M25.7,10.65a1,1,0,1,1-2,0,1,1,0,0,1,2,0"/><path id="Fill-22" class="cls-2" d="M43.4,10.65a1,1,0,0,1-2,0,1,1,0,1,1,2,0"/><path id="Fill-24" class="cls-2" d="M61.1,10.65a1,1,0,0,1-2,0,1,1,0,1,1,2,0"/><path id="Fill-26" class="cls-2" d="M78.8,10.65a1,1,0,1,1-2,0,1,1,0,0,1,2,0"/><path id="Fill-28" class="cls-2" d="M96.5,10.65a1,1,0,1,1-2,0,.94.94,0,0,1,1-1,1,1,0,0,1,1,1"/><path id="Fill-30" class="cls-2" d="M114.1,10.65a1,1,0,1,1-2,0,1,1,0,0,1,2,0"/><path id="Fill-32" class="cls-2" d="M131.8,10.65a1,1,0,1,1-2,0,1,1,0,0,1,2,0"/><path id="Fill-34" class="cls-2" d="M149.5,10.65a1,1,0,1,1-2,0,1,1,0,0,1,2,0"/><path id="Fill-36" class="cls-2" d="M167.2,10.65a1,1,0,1,1-2,0,.94.94,0,0,1,1-1,1,1,0,0,1,1,1"/><path id="Fill-38" class="cls-2" d="M8,28.35a.94.94,0,0,1-1,1,1,1,0,0,1,0-2,.94.94,0,0,1,1,1"/><path id="Fill-40" class="cls-2" d="M25.7,28.35a1,1,0,1,1-1-1,.94.94,0,0,1,1,1"/><path id="Fill-42" class="cls-2" d="M43.4,28.35a1,1,0,1,1-1-1,.94.94,0,0,1,1,1"/><path id="Fill-44" class="cls-2" d="M61.1,28.35a1,1,0,1,1-1-1,.94.94,0,0,1,1,1"/><path id="Fill-46" class="cls-2" d="M78.8,28.35a1,1,0,1,1-1-1,.94.94,0,0,1,1,1"/><path id="Fill-48" class="cls-2" d="M96.5,28.35a1,1,0,1,1-1-1,1,1,0,0,1,1,1"/><path id="Fill-50" class="cls-2" d="M114.1,28.35a1,1,0,1,1-1-1,.94.94,0,0,1,1,1"/><path id="Fill-52" class="cls-2" d="M131.8,28.35a1,1,0,1,1-1-1,.94.94,0,0,1,1,1"/><path id="Fill-54" class="cls-2" d="M149.5,28.35a1,1,0,1,1-1-1,.94.94,0,0,1,1,1"/><path id="Fill-56" class="cls-2" d="M167.2,28.35a1,1,0,1,1-1-1,1,1,0,0,1,1,1"/><path id="Fill-58" class="cls-2" d="M8,46.05a.94.94,0,0,1-1,1,1,1,0,0,1,0-2,.94.94,0,0,1,1,1"/><path id="Fill-60" class="cls-2" d="M25.7,46.05a1,1,0,1,1-1-1,.94.94,0,0,1,1,1"/><path id="Fill-62" class="cls-2" d="M43.4,46.05a1,1,0,1,1-1-1,.94.94,0,0,1,1,1"/><path id="Fill-64" class="cls-2" d="M61.1,46.05a1,1,0,1,1-1-1,.94.94,0,0,1,1,1"/><path id="Fill-66" class="cls-2" d="M78.8,46.05a1,1,0,1,1-1-1,.94.94,0,0,1,1,1"/><path id="Fill-68" class="cls-2" d="M96.5,46.05a1,1,0,1,1-1-1,1,1,0,0,1,1,1"/><path id="Fill-70" class="cls-2" d="M114.1,46.05a1,1,0,1,1-1-1,.94.94,0,0,1,1,1"/><path id="Fill-72" class="cls-2" d="M131.8,46.05a1,1,0,1,1-1-1,.94.94,0,0,1,1,1"/><path id="Fill-74" class="cls-2" d="M149.5,46.05a1,1,0,1,1-1-1,.94.94,0,0,1,1,1"/><path id="Fill-76" class="cls-2" d="M167.2,46.05a1,1,0,1,1-1-1,1,1,0,0,1,1,1"/><path id="Fill-78" class="cls-2" d="M8,63.65a.94.94,0,0,1-1,1,1,1,0,0,1,0-2,1,1,0,0,1,1,1"/><path id="Fill-80" class="cls-2" d="M25.7,63.65a1,1,0,1,1-1-1,1,1,0,0,1,1,1"/><path id="Fill-82" class="cls-2" d="M43.4,63.65a1,1,0,1,1-1-1,1,1,0,0,1,1,1"/><path id="Fill-84" class="cls-2" d="M61.1,63.65a1,1,0,1,1-1-1,1,1,0,0,1,1,1"/><path id="Fill-86" class="cls-2" d="M78.8,63.65a1,1,0,1,1-1-1,1,1,0,0,1,1,1"/><path id="Fill-88" class="cls-2" d="M96.5,63.65a1,1,0,1,1-1-1,1.08,1.08,0,0,1,1,1"/><path id="Fill-90" class="cls-2" d="M114.1,63.65a1,1,0,1,1-1-1,1,1,0,0,1,1,1"/><path id="Fill-92" class="cls-2" d="M131.8,63.65a1,1,0,1,1-1-1,1,1,0,0,1,1,1"/><path id="Fill-94" class="cls-2" d="M149.5,63.65a1,1,0,1,1-1-1,1,1,0,0,1,1,1"/><path id="Fill-96" class="cls-2" d="M167.2,63.65a1,1,0,1,1-1-1,1.08,1.08,0,0,1,1,1"/><path id="Fill-98" class="cls-2" d="M8,81.35a.94.94,0,0,1-1,1,1,1,0,0,1,0-2,1,1,0,0,1,1,1"/><path id="Fill-100" class="cls-2" d="M25.7,81.35a1,1,0,1,1-1-1,1,1,0,0,1,1,1"/><path id="Fill-102" class="cls-2" d="M43.4,81.35a1,1,0,1,1-1-1,1,1,0,0,1,1,1"/><path id="Fill-104" class="cls-2" d="M61.1,81.35a1,1,0,1,1-1-1,1,1,0,0,1,1,1"/><path id="Fill-106" class="cls-2" d="M78.8,81.35a1,1,0,1,1-1-1,1,1,0,0,1,1,1"/><path id="Fill-108" class="cls-2" d="M96.5,81.35a1,1,0,1,1-1-1,1.08,1.08,0,0,1,1,1"/><path id="Fill-110" class="cls-2" d="M114.1,81.35a1,1,0,1,1-1-1,1,1,0,0,1,1,1"/><path id="Fill-112" class="cls-2" d="M131.8,81.35a1,1,0,1,1-1-1,1,1,0,0,1,1,1"/><path id="Fill-114" class="cls-2" d="M149.5,81.35a1,1,0,1,1-1-1,1,1,0,0,1,1,1"/><path id="Fill-116" class="cls-2" d="M167.2,81.35a1,1,0,1,1-1-1,1.08,1.08,0,0,1,1,1"/><path id="Fill-118" class="cls-2" d="M8,99.05a.94.94,0,0,1-1,1,1,1,0,0,1,0-2,1,1,0,0,1,1,1"/><path id="Fill-120" class="cls-2" d="M25.7,99.05a1,1,0,1,1-1-1,1,1,0,0,1,1,1"/><path id="Fill-122" class="cls-2" d="M43.4,99.05a1,1,0,1,1-1-1,1,1,0,0,1,1,1"/><path id="Fill-124" class="cls-2" d="M61.1,99.05a1,1,0,1,1-1-1,1,1,0,0,1,1,1"/><path id="Fill-126" class="cls-2" d="M78.8,99.05a1,1,0,1,1-1-1,1,1,0,0,1,1,1"/><path id="Fill-128" class="cls-2" d="M96.5,99.05a1,1,0,1,1-1-1,1.08,1.08,0,0,1,1,1"/><path id="Fill-130" class="cls-2" d="M114.1,99.05a1,1,0,1,1-1-1,1,1,0,0,1,1,1"/><path id="Fill-132" class="cls-2" d="M131.8,99.05a1,1,0,1,1-1-1,1,1,0,0,1,1,1"/><path id="Fill-134" class="cls-2" d="M149.5,99.05a1,1,0,1,1-1-1,1,1,0,0,1,1,1"/><path id="Fill-136" class="cls-2" d="M167.2,99.05a1,1,0,1,1-1-1,1.08,1.08,0,0,1,1,1"/><polygon id="Fill-138" class="cls-2" points="166.2 10.75 290 10.75 290 10.55 166.2 10.55 166.2 10.75"/><polygon id="Fill-140" class="cls-2" points="166.2 28.35 290 28.35 290 28.25 166.2 28.25 166.2 28.35"/><polygon id="Fill-141" class="cls-2" points="166.2 46.05 290 46.05 290 45.95 166.2 45.95 166.2 46.05"/><polygon id="Fill-142" class="cls-2" points="166.2 63.75 290 63.75 290 63.65 166.2 63.65 166.2 63.75"/><polygon id="Fill-143" class="cls-2" points="166.2 81.45 290 81.45 290 81.35 166.2 81.35 166.2 81.45"/><polygon id="Fill-144" class="cls-2" points="166.2 99.15 290 99.15 290 98.95 166.2 98.95 166.2 99.15"/><polygon id="Fill-145" class="cls-2" points="184.3 108.55 184.5 108.55 184.5 0.35 184.3 0.35 184.3 108.55"/><polygon id="Fill-146" class="cls-2" points="202 108.55 202.2 108.55 202.2 0.35 202 0.35 202 108.55"/><polygon id="Fill-147" class="cls-2" points="219.7 108.55 219.9 108.55 219.9 0.35 219.7 0.35 219.7 108.55"/><polygon id="Fill-148" class="cls-2" points="237.4 108.55 237.5 108.55 237.5 0.35 237.4 0.35 237.4 108.55"/><polygon id="Fill-149" class="cls-2" points="255.1 108.55 255.2 108.55 255.2 0.35 255.1 0.35 255.1 108.55"/><polygon id="Fill-150" class="cls-2" points="272.8 108.55 272.9 108.55 272.9 0.35 272.8 0.35 272.8 108.55"/><path id="Fill-151" class="cls-2" d="M185.4,10.65a1,1,0,1,1-2,0,1,1,0,0,1,2,0"/><path id="Fill-152" class="cls-2" d="M203.1,10.65a1,1,0,1,1-2,0,.94.94,0,0,1,1-1,1,1,0,0,1,1,1"/><path id="Fill-153" class="cls-2" d="M220.8,10.65a1,1,0,1,1-2,0,.94.94,0,0,1,1-1,1,1,0,0,1,1,1"/><path id="Fill-154" class="cls-2" d="M238.5,10.65a1,1,0,1,1-2,0,.94.94,0,0,1,1-1,1,1,0,0,1,1,1"/><path id="Fill-155" class="cls-2" d="M256.1,10.65a1,1,0,0,1-2,0,1,1,0,0,1,2,0"/><path id="Fill-156" class="cls-2" d="M273.8,10.65a1,1,0,0,1-2,0,1,1,0,1,1,2,0"/><path id="Fill-157" class="cls-2" d="M185.4,28.35a1,1,0,1,1-1-1,.94.94,0,0,1,1,1"/><path id="Fill-158" class="cls-2" d="M203.1,28.35a1,1,0,1,1-1-1,1,1,0,0,1,1,1"/><path id="Fill-159" class="cls-2" d="M220.8,28.35a1,1,0,1,1-1-1,1,1,0,0,1,1,1"/><path id="Fill-160" class="cls-2" d="M238.5,28.35a1,1,0,1,1-1-1,1,1,0,0,1,1,1"/><path id="Fill-161" class="cls-2" d="M256.1,28.35a1,1,0,1,1-1-1,.94.94,0,0,1,1,1"/><path id="Fill-162" class="cls-2" d="M273.8,28.35a1,1,0,1,1-1-1,.94.94,0,0,1,1,1"/><path id="Fill-163" class="cls-2" d="M185.4,46.05a1,1,0,1,1-1-1,.94.94,0,0,1,1,1"/><path id="Fill-164" class="cls-2" d="M203.1,46.05a1,1,0,1,1-1-1,1,1,0,0,1,1,1"/><path id="Fill-165" class="cls-2" d="M220.8,46.05a1,1,0,1,1-1-1,1,1,0,0,1,1,1"/><path id="Fill-166" class="cls-2" d="M238.5,46.05a1,1,0,1,1-1-1,1,1,0,0,1,1,1"/><path id="Fill-167" class="cls-2" d="M256.1,46.05a1,1,0,1,1-1-1,.94.94,0,0,1,1,1"/><path id="Fill-168" class="cls-2" d="M273.8,46.05a1,1,0,1,1-1-1,.94.94,0,0,1,1,1"/><path id="Fill-169" class="cls-2" d="M185.4,63.65a1,1,0,1,1-1-1,1,1,0,0,1,1,1"/><path id="Fill-170" class="cls-2" d="M203.1,63.65a1,1,0,1,1-1-1,1.08,1.08,0,0,1,1,1"/><path id="Fill-171" class="cls-2" d="M220.8,63.65a1,1,0,1,1-1-1,1.08,1.08,0,0,1,1,1"/><path id="Fill-172" class="cls-2" d="M238.5,63.65a1,1,0,1,1-1-1,1.08,1.08,0,0,1,1,1"/><path id="Fill-173" class="cls-2" d="M256.1,63.65a1,1,0,1,1-1-1,1,1,0,0,1,1,1"/><path id="Fill-174" class="cls-2" d="M273.8,63.65a1,1,0,1,1-1-1,1,1,0,0,1,1,1"/><path id="Fill-175" class="cls-2" d="M185.4,81.35a1,1,0,1,1-1-1,1,1,0,0,1,1,1"/><path id="Fill-176" class="cls-2" d="M203.1,81.35a1,1,0,1,1-1-1,1.08,1.08,0,0,1,1,1"/><path id="Fill-177" class="cls-2" d="M220.8,81.35a1,1,0,1,1-1-1,1.08,1.08,0,0,1,1,1"/><path id="Fill-178" class="cls-2" d="M238.5,81.35a1,1,0,1,1-1-1,1.08,1.08,0,0,1,1,1"/><path id="Fill-179" class="cls-2" d="M256.1,81.35a1,1,0,1,1-1-1,1,1,0,0,1,1,1"/><path id="Fill-180" class="cls-2" d="M273.8,81.35a1,1,0,1,1-1-1,1,1,0,0,1,1,1"/><path id="Fill-181" class="cls-2" d="M185.4,99.05a1,1,0,1,1-1-1,1,1,0,0,1,1,1"/><path id="Fill-182" class="cls-2" d="M203.1,99.05a1,1,0,1,1-1-1,1.08,1.08,0,0,1,1,1"/><path id="Fill-183" class="cls-2" d="M220.8,99.05a1,1,0,1,1-1-1,1.08,1.08,0,0,1,1,1"/><path id="Fill-184" class="cls-2" d="M238.5,99.05a1,1,0,1,1-1-1,1.08,1.08,0,0,1,1,1"/><path id="Fill-185" class="cls-2" d="M256.1,99.05a1,1,0,1,1-1-1,1,1,0,0,1,1,1"/><path id="Fill-186" class="cls-2" d="M273.8,99.05a1,1,0,1,1-1-1,1,1,0,0,1,1,1"/><polygon id="Fill-187" class="cls-3" points="117.2 88.25 170.7 88.25 170.7 21.45 117.2 21.45 117.2 88.25"/><polygon id="Fill-188" class="cls-1" points="123.2 37.35 146.3 37.35 146.3 31.95 123.2 31.95 123.2 37.35"/><path id="Fill-189" class="cls-1" d="M146,56.85H127.3a.5.5,0,0,1,0-1H146a.47.47,0,0,1,.5.5c.1.2-.2.5-.5.5"/><path id="Fill-190" class="cls-1" d="M124.5,56.25a.8.8,0,1,1-.8-.8.79.79,0,0,1,.8.8"/><path id="Fill-191" class="cls-1" d="M146,51.45H127.3a.5.5,0,0,1,0-1H146a.47.47,0,0,1,.5.5c.1.2-.2.5-.5.5"/><path id="Fill-192" class="cls-1" d="M124.5,50.85a.8.8,0,1,1-.8-.8.79.79,0,0,1,.8.8"/><path id="Fill-193" class="cls-1" d="M146,46.05H127.3a.5.5,0,0,1,0-1H146a.47.47,0,0,1,.5.5c.1.2-.2.5-.5.5"/><path id="Fill-194" class="cls-1" d="M124.5,45.45a.8.8,0,1,1-.8-.8.79.79,0,0,1,.8.8"/><path id="Fill-195" class="cls-1" d="M146,62.25H127.3a.5.5,0,0,1,0-1H146a.47.47,0,0,1,.5.5c.1.2-.2.5-.5.5"/><path id="Fill-196" class="cls-1" d="M124.5,61.65a.8.8,0,1,1-.8-.8.79.79,0,0,1,.8.8"/><path id="Fill-197" class="cls-1" d="M151.2,67.65H127.3a.5.5,0,1,1,0-1h23.9a.47.47,0,0,1,.5.5.54.54,0,0,1-.5.5"/><path id="Fill-198" class="cls-1" d="M124.5,67.05a.8.8,0,1,1-.8-.8.79.79,0,0,1,.8.8"/><path id="Fill-199" class="cls-1" d="M136.7,73.05h-9.4a.5.5,0,0,1,0-1h9.4a.47.47,0,0,1,.5.5.54.54,0,0,1-.5.5"/><path id="Fill-200" class="cls-1" d="M124.5,72.45a.8.8,0,1,1-.8-.8.79.79,0,0,1,.8.8"/><polygon id="Fill-201" class="cls-4" points="154.5 60.35 158.6 63.95 173.2 47.55 168.5 43.55 154.5 60.35"/><polygon id="Fill-202" class="cls-5" points="152.2 65.85 153.5 67.05 158.6 63.95 154.5 60.45 152.2 65.85"/><polygon id="Fill-203" class="cls-4" points="187.3 30.65 183.1 27.15 168.5 43.55 173.2 47.55 187.3 30.65"/><path id="Fill-204" class="cls-6" d="M183.1,27.05a2.77,2.77,0,0,1,4.2,3.6Z"/><path id="Fill-205" class="cls-4" d="M177.5,45.65s6.8-3,11.4-13.5l-1.1-.9-1.8,2.1s-2.1,6.4-9.7,11.3Z"/><polygon id="Fill-206" class="cls-4" points="184.6 32.05 187.2 34.25 189 32.15 186.5 29.95 184.6 32.05"/><polygon id="Fill-207" class="cls-1" points="168.4 43.65 173.1 47.75 173.4 47.35 168.7 43.25 168.4 43.65"/><path id="Fill-208" class="cls-4" d="M153.5,67.05,152.2,66l-.5,1.2a.51.51,0,0,0,.7.6Z"/></g></g></g></g></g></svg>