<svg id="Layer_1" data-name="Layer 1" xmlns="http://www.w3.org/2000/svg" width="262" height="165" viewBox="0 0 262 165"><defs><style>.cls-1{fill:#1d4354;}.cls-1,.cls-2,.cls-3,.cls-4,.cls-5,.cls-6{fill-rule:evenodd;}.cls-2{fill:#2f5a6e;}.cls-3{fill:#2b5468;}.cls-4{fill:#336278;}.cls-5{fill:#fff;}.cls-6{fill:#6fda44;}</style></defs><title>illo-data</title><g id="Page-1"><g id="Group"><g id="Tile-Copy-9"><g id="Stacked-Group"><g id="illo-data"><polygon id="Fill-1" class="cls-1" points="0 165 262 165 262 0 0 0 0 165"/><g id="Group-872"><path id="Fill-2" class="cls-2" d="M4,5.7a.67.67,0,0,1-.7.6.58.58,0,0,1-.6-.6c0-.3.3-.7.6-.7a.75.75,0,0,1,.7.7"/><path id="Fill-4" class="cls-2" d="M14.6,5.7a.7.7,0,1,1-1.4,0,.75.75,0,0,1,.7-.7.68.68,0,0,1,.7.7"/><path id="Fill-6" class="cls-2" d="M25.2,5.7a.68.68,0,0,1-.7.7.66.66,0,0,1-.6-.7c0-.3.3-.7.6-.7a.75.75,0,0,1,.7.7"/><path id="Fill-8" class="cls-2" d="M35.8,5.7a.7.7,0,0,1-1.4,0,.75.75,0,0,1,.7-.7.68.68,0,0,1,.7.7"/><path id="Fill-10" class="cls-2" d="M46.4,5.7a.68.68,0,0,1-.7.7.66.66,0,0,1-.6-.7.75.75,0,0,1,.7-.7c.4,0,.6.3.6.7"/><path id="Fill-12" class="cls-2" d="M57,5.7a.68.68,0,0,1-.7.7.66.66,0,0,1-.6-.7.75.75,0,0,1,.7-.7c.4,0,.6.3.6.7"/><path id="Fill-14" class="cls-2" d="M67.6,5.7a.68.68,0,0,1-.7.7.66.66,0,0,1-.6-.7A.75.75,0,0,1,67,5c.4,0,.6.3.6.7"/><path id="Fill-16" class="cls-2" d="M78.2,5.7a.7.7,0,0,1-1.4,0,.77.77,0,0,1,.8-.7.67.67,0,0,1,.6.7"/><path id="Fill-18" class="cls-2" d="M88.8,5.7a.68.68,0,0,1-.7.7.66.66,0,0,1-.6-.7.75.75,0,0,1,.7-.7c.4,0,.6.3.6.7"/><path id="Fill-20" class="cls-2" d="M99.4,5.7a.7.7,0,0,1-1.4,0,.77.77,0,0,1,.8-.7.67.67,0,0,1,.6.7"/><path id="Fill-22" class="cls-2" d="M110,5.7a.7.7,0,0,1-1.4,0,.77.77,0,0,1,.8-.7.67.67,0,0,1,.6.7"/><path id="Fill-24" class="cls-2" d="M120.6,5.7a.7.7,0,1,1-1.4,0A.77.77,0,0,1,120,5c.4,0,.6.3.6.7"/><path id="Fill-26" class="cls-2" d="M131.2,5.7a.7.7,0,1,1-.7-.7.68.68,0,0,1,.7.7"/><path id="Fill-28" class="cls-2" d="M141.8,5.7a.7.7,0,1,1-.7-.7.68.68,0,0,1,.7.7"/><path id="Fill-30" class="cls-2" d="M152.4,5.7a.7.7,0,1,1-.7-.7.68.68,0,0,1,.7.7"/><path id="Fill-32" class="cls-2" d="M163.1,5.7a.7.7,0,1,1-.7-.7.75.75,0,0,1,.7.7"/><path id="Fill-34" class="cls-2" d="M173.7,5.7A.7.7,0,1,1,173,5a.68.68,0,0,1,.7.7"/><path id="Fill-36" class="cls-2" d="M184.3,5.7a.7.7,0,1,1-.7-.7.68.68,0,0,1,.7.7"/><path id="Fill-38" class="cls-2" d="M194.9,5.7a.7.7,0,1,1-.7-.7.68.68,0,0,1,.7.7"/><path id="Fill-40" class="cls-2" d="M205.5,5.7a.7.7,0,1,1-.7-.7.68.68,0,0,1,.7.7"/><path id="Fill-42" class="cls-2" d="M4,15.3a.68.68,0,0,1-.7.7.7.7,0,0,1,0-1.4.68.68,0,0,1,.7.7"/><path id="Fill-44" class="cls-2" d="M14.6,15.3a.7.7,0,1,1-.7-.7.68.68,0,0,1,.7.7"/><path id="Fill-46" class="cls-2" d="M25.2,15.3a.7.7,0,1,1-.7-.7.68.68,0,0,1,.7.7"/><path id="Fill-48" class="cls-2" d="M35.8,15.3a.7.7,0,1,1-.7-.7.68.68,0,0,1,.7.7"/><path id="Fill-50" class="cls-2" d="M46.4,15.3a.7.7,0,1,1-.7-.7.68.68,0,0,1,.7.7"/><path id="Fill-52" class="cls-2" d="M57,15.3a.7.7,0,1,1-.7-.7.68.68,0,0,1,.7.7"/><path id="Fill-54" class="cls-2" d="M67.6,15.3a.7.7,0,1,1-.7-.7.68.68,0,0,1,.7.7"/><path id="Fill-56" class="cls-2" d="M78.2,15.3a.7.7,0,1,1-.7-.7.68.68,0,0,1,.7.7"/><path id="Fill-58" class="cls-2" d="M88.8,15.3a.7.7,0,1,1-.7-.7.68.68,0,0,1,.7.7"/><path id="Fill-60" class="cls-2" d="M99.4,15.3a.7.7,0,1,1-.7-.7.68.68,0,0,1,.7.7"/><path id="Fill-62" class="cls-2" d="M110,15.3a.7.7,0,1,1-.7-.7.68.68,0,0,1,.7.7"/><path id="Fill-64" class="cls-2" d="M120.6,15.3a.7.7,0,1,1-.7-.7.68.68,0,0,1,.7.7"/><path id="Fill-66" class="cls-2" d="M131.2,15.3a.7.7,0,1,1-.7-.7.68.68,0,0,1,.7.7"/><path id="Fill-68" class="cls-2" d="M141.8,15.3a.7.7,0,1,1-.7-.7.68.68,0,0,1,.7.7"/><path id="Fill-70" class="cls-2" d="M152.4,15.3a.7.7,0,1,1-.7-.7.68.68,0,0,1,.7.7"/><path id="Fill-72" class="cls-2" d="M163.1,15.3a.7.7,0,1,1-.7-.7.75.75,0,0,1,.7.7"/><path id="Fill-74" class="cls-2" d="M173.7,15.3a.7.7,0,1,1-.7-.7.68.68,0,0,1,.7.7"/><path id="Fill-76" class="cls-2" d="M184.3,15.3a.7.7,0,1,1-.7-.7.68.68,0,0,1,.7.7"/><path id="Fill-78" class="cls-2" d="M194.9,15.3a.7.7,0,1,1-.7-.7.68.68,0,0,1,.7.7"/><path id="Fill-80" class="cls-2" d="M205.5,15.3a.7.7,0,1,1-.7-.7.68.68,0,0,1,.7.7"/><path id="Fill-82" class="cls-2" d="M4,24.9a.68.68,0,0,1-.7.7.7.7,0,0,1,0-1.4.68.68,0,0,1,.7.7"/><path id="Fill-84" class="cls-2" d="M14.6,24.9a.7.7,0,1,1-.7-.7.68.68,0,0,1,.7.7"/><path id="Fill-86" class="cls-2" d="M25.2,24.9a.7.7,0,1,1-.7-.7.68.68,0,0,1,.7.7"/><path id="Fill-88" class="cls-2" d="M35.8,24.9a.7.7,0,1,1-.7-.7.68.68,0,0,1,.7.7"/><path id="Fill-90" class="cls-2" d="M46.4,24.9a.7.7,0,1,1-.7-.7.68.68,0,0,1,.7.7"/><path id="Fill-92" class="cls-2" d="M57,24.9a.7.7,0,1,1-.7-.7.68.68,0,0,1,.7.7"/><path id="Fill-94" class="cls-2" d="M67.6,24.9a.7.7,0,1,1-.7-.7.68.68,0,0,1,.7.7"/><path id="Fill-96" class="cls-2" d="M78.2,24.9a.7.7,0,1,1-.7-.7.68.68,0,0,1,.7.7"/><path id="Fill-98" class="cls-2" d="M88.8,24.9a.7.7,0,1,1-.7-.7.68.68,0,0,1,.7.7"/><path id="Fill-100" class="cls-2" d="M99.4,24.9a.7.7,0,1,1-.7-.7.68.68,0,0,1,.7.7"/><path id="Fill-102" class="cls-2" d="M110,24.9a.7.7,0,1,1-.7-.7.68.68,0,0,1,.7.7"/><path id="Fill-104" class="cls-2" d="M120.6,24.9a.7.7,0,1,1-.7-.7.68.68,0,0,1,.7.7"/><path id="Fill-106" class="cls-2" d="M131.2,24.9a.7.7,0,1,1-.7-.7.68.68,0,0,1,.7.7"/><path id="Fill-108" class="cls-2" d="M141.8,24.9a.7.7,0,1,1-.7-.7.68.68,0,0,1,.7.7"/><path id="Fill-110" class="cls-2" d="M152.4,24.9a.7.7,0,1,1-.7-.7.68.68,0,0,1,.7.7"/><path id="Fill-112" class="cls-2" d="M163.1,24.9a.7.7,0,1,1-.7-.7.75.75,0,0,1,.7.7"/><path id="Fill-114" class="cls-2" d="M173.7,24.9a.7.7,0,1,1-.7-.7.68.68,0,0,1,.7.7"/><path id="Fill-116" class="cls-2" d="M184.3,24.9a.7.7,0,1,1-.7-.7.68.68,0,0,1,.7.7"/><path id="Fill-118" class="cls-2" d="M194.9,24.9a.7.7,0,1,1-.7-.7.68.68,0,0,1,.7.7"/><path id="Fill-120" class="cls-2" d="M205.5,24.9a.7.7,0,1,1-.7-.7.68.68,0,0,1,.7.7"/><path id="Fill-122" class="cls-2" d="M4,34.5a.68.68,0,0,1-.7.7.7.7,0,0,1,0-1.4.68.68,0,0,1,.7.7"/><path id="Fill-124" class="cls-2" d="M14.6,34.5a.7.7,0,1,1-.7-.7.68.68,0,0,1,.7.7"/><path id="Fill-126" class="cls-2" d="M25.2,34.5a.7.7,0,1,1-.7-.7.68.68,0,0,1,.7.7"/><path id="Fill-128" class="cls-2" d="M35.8,34.5a.7.7,0,1,1-.7-.7.68.68,0,0,1,.7.7"/><path id="Fill-130" class="cls-2" d="M46.4,34.5a.7.7,0,1,1-.7-.7.68.68,0,0,1,.7.7"/><path id="Fill-132" class="cls-2" d="M57,34.5a.7.7,0,1,1-.7-.7.68.68,0,0,1,.7.7"/><path id="Fill-134" class="cls-2" d="M67.6,34.5a.7.7,0,1,1-.7-.7.68.68,0,0,1,.7.7"/><path id="Fill-136" class="cls-2" d="M78.2,34.5a.7.7,0,1,1-.7-.7.68.68,0,0,1,.7.7"/><path id="Fill-138" class="cls-2" d="M88.8,34.5a.7.7,0,1,1-.7-.7.68.68,0,0,1,.7.7"/><path id="Fill-140" class="cls-2" d="M99.4,34.5a.7.7,0,1,1-.7-.7.68.68,0,0,1,.7.7"/><path id="Fill-142" class="cls-2" d="M110,34.5a.7.7,0,1,1-.7-.7.68.68,0,0,1,.7.7"/><path id="Fill-144" class="cls-2" d="M120.6,34.5a.7.7,0,1,1-.7-.7.68.68,0,0,1,.7.7"/><path id="Fill-146" class="cls-2" d="M131.2,34.5a.7.7,0,1,1-.7-.7.68.68,0,0,1,.7.7"/><path id="Fill-148" class="cls-2" d="M141.8,34.5a.7.7,0,1,1-.7-.7.68.68,0,0,1,.7.7"/><path id="Fill-150" class="cls-2" d="M152.4,34.5a.7.7,0,1,1-.7-.7.68.68,0,0,1,.7.7"/><path id="Fill-152" class="cls-2" d="M163.1,34.5a.7.7,0,1,1-.7-.7.75.75,0,0,1,.7.7"/><path id="Fill-154" class="cls-2" d="M173.7,34.5a.7.7,0,1,1-.7-.7.68.68,0,0,1,.7.7"/><path id="Fill-156" class="cls-2" d="M184.3,34.5a.7.7,0,1,1-.7-.7.68.68,0,0,1,.7.7"/><path id="Fill-158" class="cls-2" d="M194.9,34.5a.7.7,0,1,1-.7-.7.68.68,0,0,1,.7.7"/><path id="Fill-160" class="cls-2" d="M205.5,34.5a.7.7,0,1,1-.7-.7.68.68,0,0,1,.7.7"/><path id="Fill-162" class="cls-2" d="M4,44.1a.68.68,0,0,1-.7.7.7.7,0,0,1,0-1.4.75.75,0,0,1,.7.7"/><path id="Fill-164" class="cls-2" d="M14.6,44.1a.7.7,0,1,1-.7-.7.84.84,0,0,1,.7.7"/><path id="Fill-166" class="cls-2" d="M25.2,44.1a.7.7,0,1,1-.7-.7.75.75,0,0,1,.7.7"/><path id="Fill-168" class="cls-2" d="M35.8,44.1a.7.7,0,1,1-.7-.7.84.84,0,0,1,.7.7"/><path id="Fill-170" class="cls-2" d="M46.4,44.1a.7.7,0,1,1-.7-.7.75.75,0,0,1,.7.7"/><path id="Fill-172" class="cls-2" d="M57,44.1a.7.7,0,1,1-.7-.7.75.75,0,0,1,.7.7"/><path id="Fill-174" class="cls-2" d="M67.6,44.1a.7.7,0,1,1-.7-.7.75.75,0,0,1,.7.7"/><path id="Fill-176" class="cls-2" d="M78.2,44.1a.7.7,0,1,1-.7-.7.84.84,0,0,1,.7.7"/><path id="Fill-178" class="cls-2" d="M88.8,44.1a.7.7,0,1,1-.7-.7.75.75,0,0,1,.7.7"/><path id="Fill-180" class="cls-2" d="M99.4,44.1a.7.7,0,1,1-.7-.7.84.84,0,0,1,.7.7"/><path id="Fill-182" class="cls-2" d="M110,44.1a.7.7,0,1,1-.7-.7.84.84,0,0,1,.7.7"/><path id="Fill-184" class="cls-2" d="M120.6,44.1a.7.7,0,1,1-.7-.7.75.75,0,0,1,.7.7"/><path id="Fill-186" class="cls-2" d="M131.2,44.1a.7.7,0,1,1-.7-.7.84.84,0,0,1,.7.7"/><path id="Fill-188" class="cls-2" d="M141.8,44.1a.7.7,0,1,1-.7-.7.84.84,0,0,1,.7.7"/><path id="Fill-190" class="cls-2" d="M152.4,44.1a.7.7,0,1,1-.7-.7.75.75,0,0,1,.7.7"/><path id="Fill-192" class="cls-2" d="M163.1,44.1a.7.7,0,1,1-.7-.7c.3.1.7.4.7.7"/><path id="Fill-194" class="cls-2" d="M173.7,44.1a.7.7,0,1,1-.7-.7.84.84,0,0,1,.7.7"/><path id="Fill-196" class="cls-2" d="M184.3,44.1a.7.7,0,1,1-.7-.7.75.75,0,0,1,.7.7"/><path id="Fill-198" class="cls-2" d="M194.9,44.1a.7.7,0,1,1-.7-.7.84.84,0,0,1,.7.7"/><path id="Fill-200" class="cls-2" d="M205.5,44.1a.7.7,0,1,1-.7-.7.84.84,0,0,1,.7.7"/><path id="Fill-202" class="cls-2" d="M4,53.8a.68.68,0,0,1-.7.7.7.7,0,0,1,0-1.4.68.68,0,0,1,.7.7"/><path id="Fill-204" class="cls-2" d="M14.6,53.8a.7.7,0,1,1-.7-.7.68.68,0,0,1,.7.7"/><path id="Fill-206" class="cls-2" d="M25.2,53.8a.7.7,0,1,1-.7-.7.68.68,0,0,1,.7.7"/><path id="Fill-208" class="cls-2" d="M35.8,53.8a.7.7,0,1,1-.7-.7.68.68,0,0,1,.7.7"/><path id="Fill-210" class="cls-2" d="M46.4,53.8a.7.7,0,1,1-.7-.7.68.68,0,0,1,.7.7"/><path id="Fill-212" class="cls-2" d="M57,53.8a.7.7,0,1,1-.7-.7.68.68,0,0,1,.7.7"/><path id="Fill-214" class="cls-2" d="M67.6,53.8a.7.7,0,1,1-.7-.7.68.68,0,0,1,.7.7"/><path id="Fill-216" class="cls-2" d="M78.2,53.8a.7.7,0,1,1-.7-.7.68.68,0,0,1,.7.7"/><path id="Fill-218" class="cls-2" d="M88.8,53.8a.7.7,0,1,1-.7-.7.68.68,0,0,1,.7.7"/><path id="Fill-220" class="cls-2" d="M99.4,53.8a.7.7,0,1,1-.7-.7.68.68,0,0,1,.7.7"/><path id="Fill-222" class="cls-2" d="M110,53.8a.7.7,0,1,1-.7-.7.68.68,0,0,1,.7.7"/><path id="Fill-224" class="cls-2" d="M120.6,53.8a.7.7,0,1,1-.7-.7.68.68,0,0,1,.7.7"/><path id="Fill-226" class="cls-2" d="M131.2,53.8a.7.7,0,1,1-.7-.7.68.68,0,0,1,.7.7"/><path id="Fill-228" class="cls-2" d="M141.8,53.8a.7.7,0,1,1-.7-.7.68.68,0,0,1,.7.7"/><path id="Fill-230" class="cls-2" d="M152.4,53.8a.7.7,0,1,1-.7-.7.68.68,0,0,1,.7.7"/><path id="Fill-232" class="cls-2" d="M163.1,53.8a.7.7,0,1,1-.7-.7.75.75,0,0,1,.7.7"/><path id="Fill-234" class="cls-2" d="M173.7,53.8a.7.7,0,1,1-.7-.7.68.68,0,0,1,.7.7"/><path id="Fill-236" class="cls-2" d="M184.3,53.8a.7.7,0,1,1-.7-.7.68.68,0,0,1,.7.7"/><path id="Fill-238" class="cls-2" d="M194.9,53.8a.7.7,0,1,1-.7-.7.68.68,0,0,1,.7.7"/><path id="Fill-240" class="cls-2" d="M205.5,53.8a.7.7,0,1,1-.7-.7.68.68,0,0,1,.7.7"/><path id="Fill-242" class="cls-2" d="M4,63.4a.68.68,0,0,1-.7.7.7.7,0,0,1,0-1.4.68.68,0,0,1,.7.7"/><path id="Fill-244" class="cls-2" d="M14.6,63.4a.7.7,0,1,1-.7-.7.68.68,0,0,1,.7.7"/><path id="Fill-246" class="cls-2" d="M25.2,63.4a.7.7,0,1,1-.7-.7.68.68,0,0,1,.7.7"/><path id="Fill-248" class="cls-2" d="M35.8,63.4a.7.7,0,1,1-.7-.7.68.68,0,0,1,.7.7"/><path id="Fill-250" class="cls-2" d="M46.4,63.4a.7.7,0,1,1-.7-.7.68.68,0,0,1,.7.7"/><path id="Fill-252" class="cls-2" d="M57,63.4a.7.7,0,1,1-.7-.7.68.68,0,0,1,.7.7"/><path id="Fill-254" class="cls-2" d="M67.6,63.4a.7.7,0,1,1-.7-.7.68.68,0,0,1,.7.7"/><path id="Fill-256" class="cls-2" d="M78.2,63.4a.7.7,0,1,1-.7-.7.68.68,0,0,1,.7.7"/><path id="Fill-258" class="cls-2" d="M88.8,63.4a.7.7,0,1,1-.7-.7.68.68,0,0,1,.7.7"/><path id="Fill-260" class="cls-2" d="M99.4,63.4a.7.7,0,1,1-.7-.7.68.68,0,0,1,.7.7"/><path id="Fill-262" class="cls-2" d="M110,63.4a.7.7,0,1,1-.7-.7.68.68,0,0,1,.7.7"/><path id="Fill-264" class="cls-2" d="M120.6,63.4a.7.7,0,1,1-.7-.7.68.68,0,0,1,.7.7"/><path id="Fill-266" class="cls-2" d="M131.2,63.4a.7.7,0,1,1-.7-.7.68.68,0,0,1,.7.7"/><path id="Fill-268" class="cls-2" d="M141.8,63.4a.7.7,0,1,1-.7-.7.68.68,0,0,1,.7.7"/><path id="Fill-270" class="cls-2" d="M152.4,63.4a.7.7,0,1,1-.7-.7.68.68,0,0,1,.7.7"/><path id="Fill-272" class="cls-2" d="M163.1,63.4a.7.7,0,1,1-.7-.7.75.75,0,0,1,.7.7"/><path id="Fill-274" class="cls-2" d="M173.7,63.4a.7.7,0,1,1-.7-.7.68.68,0,0,1,.7.7"/><path id="Fill-276" class="cls-2" d="M184.3,63.4a.7.7,0,1,1-.7-.7.68.68,0,0,1,.7.7"/><path id="Fill-278" class="cls-2" d="M194.9,63.4a.7.7,0,1,1-.7-.7.68.68,0,0,1,.7.7"/><path id="Fill-280" class="cls-2" d="M205.5,63.4a.7.7,0,1,1-.7-.7.68.68,0,0,1,.7.7"/><path id="Fill-282" class="cls-2" d="M4,73a.68.68,0,0,1-.7.7c-.4,0-.6-.3-.6-.7a.68.68,0,0,1,.7-.7c.4,0,.6.3.6.7"/><path id="Fill-284" class="cls-2" d="M14.6,73a.7.7,0,1,1-.7-.7.68.68,0,0,1,.7.7"/><path id="Fill-286" class="cls-2" d="M25.2,73a.7.7,0,1,1-.7-.7.68.68,0,0,1,.7.7"/><path id="Fill-288" class="cls-2" d="M35.8,73a.7.7,0,1,1-.7-.7.68.68,0,0,1,.7.7"/><path id="Fill-290" class="cls-2" d="M46.4,73a.7.7,0,1,1-.7-.7.68.68,0,0,1,.7.7"/><path id="Fill-292" class="cls-2" d="M57,73a.7.7,0,1,1-.7-.7.68.68,0,0,1,.7.7"/><path id="Fill-294" class="cls-2" d="M67.6,73a.7.7,0,1,1-.7-.7.68.68,0,0,1,.7.7"/><path id="Fill-296" class="cls-2" d="M78.2,73a.7.7,0,1,1-.7-.7.68.68,0,0,1,.7.7"/><path id="Fill-298" class="cls-2" d="M88.8,73a.7.7,0,1,1-.7-.7.68.68,0,0,1,.7.7"/><path id="Fill-300" class="cls-2" d="M99.4,73a.7.7,0,1,1-.7-.7.68.68,0,0,1,.7.7"/><path id="Fill-302" class="cls-2" d="M110,73a.7.7,0,1,1-.7-.7.68.68,0,0,1,.7.7"/><path id="Fill-304" class="cls-2" d="M120.6,73a.7.7,0,1,1-.7-.7.68.68,0,0,1,.7.7"/><path id="Fill-306" class="cls-2" d="M131.2,73a.7.7,0,1,1-.7-.7.68.68,0,0,1,.7.7"/><path id="Fill-308" class="cls-2" d="M141.8,73a.7.7,0,1,1-.7-.7.68.68,0,0,1,.7.7"/><path id="Fill-310" class="cls-2" d="M152.4,73a.7.7,0,1,1-.7-.7.68.68,0,0,1,.7.7"/><path id="Fill-312" class="cls-2" d="M163.1,73a.7.7,0,1,1-.7-.7.75.75,0,0,1,.7.7"/><path id="Fill-314" class="cls-2" d="M173.7,73a.7.7,0,1,1-.7-.7.68.68,0,0,1,.7.7"/><path id="Fill-316" class="cls-2" d="M184.3,73a.7.7,0,1,1-.7-.7.68.68,0,0,1,.7.7"/><path id="Fill-318" class="cls-2" d="M194.9,73a.7.7,0,1,1-.7-.7.68.68,0,0,1,.7.7"/><path id="Fill-320" class="cls-2" d="M205.5,73a.7.7,0,1,1-.7-.7.68.68,0,0,1,.7.7"/><path id="Fill-322" class="cls-2" d="M4,82.6a.68.68,0,0,1-.7.7c-.4,0-.6-.3-.6-.7a.68.68,0,0,1,.7-.7.66.66,0,0,1,.6.7"/><path id="Fill-324" class="cls-2" d="M14.6,82.6a.7.7,0,1,1-.7-.7.75.75,0,0,1,.7.7"/><path id="Fill-326" class="cls-2" d="M25.2,82.6a.7.7,0,1,1-.7-.7.75.75,0,0,1,.7.7"/><path id="Fill-328" class="cls-2" d="M35.8,82.6a.7.7,0,1,1-.7-.7.75.75,0,0,1,.7.7"/><path id="Fill-330" class="cls-2" d="M46.4,82.6a.7.7,0,1,1-.7-.7.75.75,0,0,1,.7.7"/><path id="Fill-332" class="cls-2" d="M57,82.6a.7.7,0,1,1-.7-.7.75.75,0,0,1,.7.7"/><path id="Fill-334" class="cls-2" d="M67.6,82.6a.7.7,0,1,1-.7-.7.75.75,0,0,1,.7.7"/><path id="Fill-336" class="cls-2" d="M78.2,82.6a.7.7,0,1,1-.7-.7.75.75,0,0,1,.7.7"/><path id="Fill-338" class="cls-2" d="M88.8,82.6a.7.7,0,1,1-.7-.7.75.75,0,0,1,.7.7"/><path id="Fill-340" class="cls-2" d="M99.4,82.6a.7.7,0,1,1-.7-.7.75.75,0,0,1,.7.7"/><path id="Fill-342" class="cls-2" d="M110,82.6a.7.7,0,1,1-.7-.7.75.75,0,0,1,.7.7"/><path id="Fill-344" class="cls-2" d="M120.6,82.6a.7.7,0,1,1-.7-.7.75.75,0,0,1,.7.7"/><path id="Fill-346" class="cls-2" d="M131.2,82.6a.7.7,0,1,1-.7-.7.75.75,0,0,1,.7.7"/><path id="Fill-348" class="cls-2" d="M141.8,82.6a.7.7,0,1,1-.7-.7.75.75,0,0,1,.7.7"/><path id="Fill-350" class="cls-2" d="M152.4,82.6a.7.7,0,1,1-.7-.7.75.75,0,0,1,.7.7"/><path id="Fill-352" class="cls-2" d="M163.1,82.6a.7.7,0,1,1-.7-.7.85.85,0,0,1,.7.7"/><path id="Fill-354" class="cls-2" d="M173.7,82.6a.7.7,0,1,1-.7-.7.75.75,0,0,1,.7.7"/><path id="Fill-356" class="cls-2" d="M184.3,82.6a.7.7,0,1,1-.7-.7.75.75,0,0,1,.7.7"/><path id="Fill-358" class="cls-2" d="M194.9,82.6a.7.7,0,1,1-.7-.7.75.75,0,0,1,.7.7"/><path id="Fill-360" class="cls-2" d="M205.5,82.6a.7.7,0,1,1-.7-.7.75.75,0,0,1,.7.7"/><path id="Fill-362" class="cls-2" d="M4,92.2a.68.68,0,0,1-.7.7.7.7,0,1,1,0-1.4.75.75,0,0,1,.7.7"/><path id="Fill-364" class="cls-2" d="M14.6,92.2a.7.7,0,1,1-.7-.7.84.84,0,0,1,.7.7"/><path id="Fill-366" class="cls-2" d="M25.2,92.2a.7.7,0,1,1-.7-.7.75.75,0,0,1,.7.7"/><path id="Fill-368" class="cls-2" d="M35.8,92.2a.7.7,0,1,1-.7-.7.84.84,0,0,1,.7.7"/><path id="Fill-370" class="cls-2" d="M46.4,92.2a.7.7,0,1,1-.7-.7.75.75,0,0,1,.7.7"/><path id="Fill-372" class="cls-2" d="M57,92.2a.7.7,0,1,1-.7-.7.75.75,0,0,1,.7.7"/><path id="Fill-374" class="cls-2" d="M67.6,92.2a.7.7,0,1,1-.7-.7.75.75,0,0,1,.7.7"/><path id="Fill-376" class="cls-2" d="M78.2,92.2a.7.7,0,1,1-.7-.7.84.84,0,0,1,.7.7"/><path id="Fill-378" class="cls-2" d="M88.8,92.2a.7.7,0,1,1-.7-.7.75.75,0,0,1,.7.7"/><path id="Fill-380" class="cls-2" d="M99.4,92.2a.7.7,0,1,1-.7-.7.84.84,0,0,1,.7.7"/><path id="Fill-382" class="cls-2" d="M110,92.2a.7.7,0,1,1-.7-.7.84.84,0,0,1,.7.7"/><path id="Fill-384" class="cls-2" d="M120.6,92.2a.7.7,0,1,1-.7-.7.75.75,0,0,1,.7.7"/><path id="Fill-386" class="cls-2" d="M131.2,92.2a.7.7,0,1,1-.7-.7.84.84,0,0,1,.7.7"/><path id="Fill-388" class="cls-2" d="M141.8,92.2a.7.7,0,1,1-.7-.7.84.84,0,0,1,.7.7"/><path id="Fill-390" class="cls-2" d="M152.4,92.2a.7.7,0,1,1-.7-.7.75.75,0,0,1,.7.7"/><path id="Fill-392" class="cls-2" d="M163.1,92.2a.7.7,0,1,1-.7-.7c.3.1.7.4.7.7"/><path id="Fill-394" class="cls-2" d="M173.7,92.2a.7.7,0,1,1-.7-.7.84.84,0,0,1,.7.7"/><path id="Fill-396" class="cls-2" d="M184.3,92.2a.7.7,0,1,1-.7-.7.75.75,0,0,1,.7.7"/><path id="Fill-398" class="cls-2" d="M194.9,92.2a.7.7,0,1,1-.7-.7.84.84,0,0,1,.7.7"/><path id="Fill-400" class="cls-2" d="M205.5,92.2a.7.7,0,1,1-.7-.7.84.84,0,0,1,.7.7"/><path id="Fill-402" class="cls-2" d="M4,101.9a.68.68,0,0,1-.7.7.7.7,0,1,1,0-1.4.68.68,0,0,1,.7.7"/><path id="Fill-404" class="cls-2" d="M14.6,101.9a.7.7,0,1,1-.7-.7.68.68,0,0,1,.7.7"/><path id="Fill-406" class="cls-2" d="M25.2,101.9a.7.7,0,1,1-.7-.7.68.68,0,0,1,.7.7"/><path id="Fill-408" class="cls-2" d="M35.8,101.9a.7.7,0,1,1-.7-.7.68.68,0,0,1,.7.7"/><path id="Fill-410" class="cls-2" d="M46.4,101.9a.7.7,0,1,1-.7-.7.68.68,0,0,1,.7.7"/><path id="Fill-412" class="cls-2" d="M57,101.9a.7.7,0,1,1-.7-.7.68.68,0,0,1,.7.7"/><path id="Fill-414" class="cls-2" d="M67.6,101.9a.7.7,0,1,1-.7-.7.68.68,0,0,1,.7.7"/><path id="Fill-416" class="cls-2" d="M78.2,101.9a.7.7,0,1,1-.7-.7.68.68,0,0,1,.7.7"/><path id="Fill-418" class="cls-2" d="M88.8,101.9a.7.7,0,1,1-.7-.7.68.68,0,0,1,.7.7"/><path id="Fill-420" class="cls-2" d="M99.4,101.9a.7.7,0,1,1-.7-.7.68.68,0,0,1,.7.7"/><path id="Fill-422" class="cls-2" d="M110,101.9a.7.7,0,1,1-.7-.7.68.68,0,0,1,.7.7"/><path id="Fill-424" class="cls-2" d="M120.6,101.9a.7.7,0,1,1-.7-.7.68.68,0,0,1,.7.7"/><path id="Fill-426" class="cls-2" d="M131.2,101.9a.7.7,0,1,1-.7-.7.68.68,0,0,1,.7.7"/><path id="Fill-428" class="cls-2" d="M141.8,101.9a.7.7,0,1,1-.7-.7.68.68,0,0,1,.7.7"/><path id="Fill-430" class="cls-2" d="M152.4,101.9a.7.7,0,1,1-.7-.7.68.68,0,0,1,.7.7"/><path id="Fill-432" class="cls-2" d="M163.1,101.9a.7.7,0,1,1-.7-.7.75.75,0,0,1,.7.7"/><path id="Fill-434" class="cls-2" d="M173.7,101.9a.7.7,0,1,1-.7-.7.68.68,0,0,1,.7.7"/><path id="Fill-436" class="cls-2" d="M184.3,101.9a.7.7,0,1,1-.7-.7.68.68,0,0,1,.7.7"/><path id="Fill-438" class="cls-2" d="M194.9,101.9a.7.7,0,1,1-.7-.7.68.68,0,0,1,.7.7"/><path id="Fill-440" class="cls-2" d="M205.5,101.9a.7.7,0,1,1-.7-.7.68.68,0,0,1,.7.7"/><path id="Fill-442" class="cls-2" d="M4,111.5a.68.68,0,0,1-.7.7.7.7,0,1,1,0-1.4.68.68,0,0,1,.7.7"/><path id="Fill-444" class="cls-2" d="M14.6,111.5a.7.7,0,1,1-.7-.7.68.68,0,0,1,.7.7"/><path id="Fill-446" class="cls-2" d="M25.2,111.5a.7.7,0,1,1-.7-.7.68.68,0,0,1,.7.7"/><path id="Fill-448" class="cls-2" d="M35.8,111.5a.7.7,0,1,1-.7-.7.68.68,0,0,1,.7.7"/><path id="Fill-450" class="cls-2" d="M46.4,111.5a.7.7,0,1,1-.7-.7.68.68,0,0,1,.7.7"/><path id="Fill-452" class="cls-2" d="M57,111.5a.7.7,0,1,1-.7-.7.68.68,0,0,1,.7.7"/><path id="Fill-454" class="cls-2" d="M67.6,111.5a.7.7,0,1,1-.7-.7.68.68,0,0,1,.7.7"/><path id="Fill-456" class="cls-2" d="M78.2,111.5a.7.7,0,1,1-.7-.7.68.68,0,0,1,.7.7"/><path id="Fill-458" class="cls-2" d="M88.8,111.5a.7.7,0,1,1-.7-.7.68.68,0,0,1,.7.7"/><path id="Fill-460" class="cls-2" d="M99.4,111.5a.7.7,0,1,1-.7-.7.68.68,0,0,1,.7.7"/><path id="Fill-462" class="cls-2" d="M110,111.5a.7.7,0,1,1-.7-.7.68.68,0,0,1,.7.7"/><path id="Fill-464" class="cls-2" d="M120.6,111.5a.7.7,0,1,1-.7-.7.68.68,0,0,1,.7.7"/><path id="Fill-466" class="cls-2" d="M131.2,111.5a.7.7,0,1,1-.7-.7.68.68,0,0,1,.7.7"/><path id="Fill-468" class="cls-2" d="M141.8,111.5a.7.7,0,1,1-.7-.7.68.68,0,0,1,.7.7"/><path id="Fill-470" class="cls-2" d="M152.4,111.5a.7.7,0,1,1-.7-.7.68.68,0,0,1,.7.7"/><path id="Fill-472" class="cls-2" d="M163.1,111.5a.7.7,0,1,1-.7-.7.75.75,0,0,1,.7.7"/><path id="Fill-474" class="cls-2" d="M173.7,111.5a.7.7,0,1,1-.7-.7.68.68,0,0,1,.7.7"/><path id="Fill-476" class="cls-2" d="M184.3,111.5a.7.7,0,1,1-.7-.7.68.68,0,0,1,.7.7"/><path id="Fill-478" class="cls-2" d="M194.9,111.5a.7.7,0,1,1-.7-.7.68.68,0,0,1,.7.7"/><path id="Fill-480" class="cls-2" d="M205.5,111.5a.7.7,0,1,1-.7-.7.68.68,0,0,1,.7.7"/><path id="Fill-482" class="cls-2" d="M4,121.1a.68.68,0,0,1-.7.7.7.7,0,1,1,0-1.4.68.68,0,0,1,.7.7"/><path id="Fill-484" class="cls-2" d="M14.6,121.1a.7.7,0,1,1-.7-.7.68.68,0,0,1,.7.7"/><path id="Fill-486" class="cls-2" d="M25.2,121.1a.7.7,0,1,1-.7-.7.68.68,0,0,1,.7.7"/><path id="Fill-488" class="cls-2" d="M35.8,121.1a.7.7,0,1,1-.7-.7.68.68,0,0,1,.7.7"/><path id="Fill-490" class="cls-2" d="M46.4,121.1a.7.7,0,1,1-.7-.7.68.68,0,0,1,.7.7"/><path id="Fill-492" class="cls-2" d="M57,121.1a.7.7,0,1,1-.7-.7.68.68,0,0,1,.7.7"/><path id="Fill-494" class="cls-2" d="M67.6,121.1a.7.7,0,1,1-.7-.7.68.68,0,0,1,.7.7"/><path id="Fill-496" class="cls-2" d="M78.2,121.1a.7.7,0,1,1-.7-.7.68.68,0,0,1,.7.7"/><path id="Fill-498" class="cls-2" d="M88.8,121.1a.7.7,0,1,1-.7-.7.68.68,0,0,1,.7.7"/><path id="Fill-500" class="cls-2" d="M99.4,121.1a.7.7,0,1,1-.7-.7.68.68,0,0,1,.7.7"/><path id="Fill-502" class="cls-2" d="M110,121.1a.7.7,0,1,1-.7-.7.68.68,0,0,1,.7.7"/><path id="Fill-504" class="cls-2" d="M120.6,121.1a.7.7,0,1,1-.7-.7.68.68,0,0,1,.7.7"/><path id="Fill-506" class="cls-2" d="M131.2,121.1a.7.7,0,1,1-.7-.7.68.68,0,0,1,.7.7"/><path id="Fill-508" class="cls-2" d="M141.8,121.1a.7.7,0,1,1-.7-.7.68.68,0,0,1,.7.7"/><path id="Fill-510" class="cls-2" d="M152.4,121.1a.7.7,0,1,1-.7-.7.68.68,0,0,1,.7.7"/><path id="Fill-512" class="cls-2" d="M163.1,121.1a.7.7,0,1,1-.7-.7.75.75,0,0,1,.7.7"/><path id="Fill-514" class="cls-2" d="M173.7,121.1a.7.7,0,1,1-.7-.7.68.68,0,0,1,.7.7"/><path id="Fill-516" class="cls-2" d="M184.3,121.1a.7.7,0,1,1-.7-.7.68.68,0,0,1,.7.7"/><path id="Fill-518" class="cls-2" d="M194.9,121.1a.7.7,0,1,1-.7-.7.68.68,0,0,1,.7.7"/><path id="Fill-520" class="cls-2" d="M205.5,121.1a.7.7,0,1,1-.7-.7.68.68,0,0,1,.7.7"/><path id="Fill-522" class="cls-2" d="M4,130.7a.68.68,0,0,1-.7.7.7.7,0,1,1,0-1.4.75.75,0,0,1,.7.7"/><path id="Fill-524" class="cls-2" d="M14.6,130.7a.7.7,0,1,1-.7-.7.84.84,0,0,1,.7.7"/><path id="Fill-526" class="cls-2" d="M25.2,130.7a.7.7,0,1,1-.7-.7.75.75,0,0,1,.7.7"/><path id="Fill-528" class="cls-2" d="M35.8,130.7a.7.7,0,1,1-.7-.7.84.84,0,0,1,.7.7"/><path id="Fill-530" class="cls-2" d="M46.4,130.7a.7.7,0,1,1-.7-.7.75.75,0,0,1,.7.7"/><path id="Fill-532" class="cls-2" d="M57,130.7a.7.7,0,1,1-.7-.7.75.75,0,0,1,.7.7"/><path id="Fill-534" class="cls-2" d="M67.6,130.7a.7.7,0,1,1-.7-.7.75.75,0,0,1,.7.7"/><path id="Fill-536" class="cls-2" d="M78.2,130.7a.7.7,0,1,1-.7-.7.84.84,0,0,1,.7.7"/><path id="Fill-538" class="cls-2" d="M88.8,130.7a.7.7,0,1,1-.7-.7.75.75,0,0,1,.7.7"/><path id="Fill-540" class="cls-2" d="M99.4,130.7a.7.7,0,1,1-.7-.7.84.84,0,0,1,.7.7"/><path id="Fill-542" class="cls-2" d="M110,130.7a.7.7,0,1,1-.7-.7.84.84,0,0,1,.7.7"/><path id="Fill-544" class="cls-2" d="M120.6,130.7a.7.7,0,1,1-.7-.7.75.75,0,0,1,.7.7"/><path id="Fill-546" class="cls-2" d="M131.2,130.7a.7.7,0,1,1-.7-.7.84.84,0,0,1,.7.7"/><path id="Fill-548" class="cls-2" d="M141.8,130.7a.7.7,0,1,1-.7-.7.84.84,0,0,1,.7.7"/><path id="Fill-550" class="cls-2" d="M152.4,130.7a.7.7,0,1,1-.7-.7.75.75,0,0,1,.7.7"/><path id="Fill-552" class="cls-2" d="M163.1,130.7a.7.7,0,1,1-.7-.7c.3.1.7.4.7.7"/><path id="Fill-554" class="cls-2" d="M173.7,130.7a.7.7,0,1,1-.7-.7.84.84,0,0,1,.7.7"/><path id="Fill-556" class="cls-2" d="M184.3,130.7a.7.7,0,1,1-.7-.7.75.75,0,0,1,.7.7"/><path id="Fill-558" class="cls-2" d="M194.9,130.7a.7.7,0,1,1-.7-.7.84.84,0,0,1,.7.7"/><path id="Fill-560" class="cls-2" d="M205.5,130.7a.7.7,0,1,1-.7-.7.84.84,0,0,1,.7.7"/><path id="Fill-562" class="cls-2" d="M4,140.3a.68.68,0,0,1-.7.7.7.7,0,1,1,0-1.4.75.75,0,0,1,.7.7"/><path id="Fill-564" class="cls-2" d="M14.6,140.3a.7.7,0,1,1-.7-.7.84.84,0,0,1,.7.7"/><path id="Fill-566" class="cls-2" d="M25.2,140.3a.7.7,0,1,1-.7-.7.75.75,0,0,1,.7.7"/><path id="Fill-568" class="cls-2" d="M35.8,140.3a.7.7,0,1,1-.7-.7.84.84,0,0,1,.7.7"/><path id="Fill-570" class="cls-2" d="M46.4,140.3a.7.7,0,1,1-.7-.7.75.75,0,0,1,.7.7"/><path id="Fill-572" class="cls-2" d="M57,140.3a.7.7,0,1,1-.7-.7.75.75,0,0,1,.7.7"/><path id="Fill-574" class="cls-2" d="M67.6,140.3a.7.7,0,1,1-.7-.7.75.75,0,0,1,.7.7"/><path id="Fill-576" class="cls-2" d="M78.2,140.3a.7.7,0,1,1-.7-.7.84.84,0,0,1,.7.7"/><path id="Fill-578" class="cls-2" d="M88.8,140.3a.7.7,0,1,1-.7-.7.75.75,0,0,1,.7.7"/><path id="Fill-580" class="cls-2" d="M99.4,140.3a.7.7,0,1,1-.7-.7.84.84,0,0,1,.7.7"/><path id="Fill-582" class="cls-2" d="M110,140.3a.7.7,0,1,1-.7-.7.84.84,0,0,1,.7.7"/><path id="Fill-584" class="cls-2" d="M120.6,140.3a.7.7,0,1,1-.7-.7.75.75,0,0,1,.7.7"/><path id="Fill-586" class="cls-2" d="M131.2,140.3a.7.7,0,1,1-.7-.7.84.84,0,0,1,.7.7"/><path id="Fill-588" class="cls-2" d="M141.8,140.3a.7.7,0,1,1-.7-.7.84.84,0,0,1,.7.7"/><path id="Fill-590" class="cls-2" d="M152.4,140.3a.7.7,0,1,1-.7-.7.75.75,0,0,1,.7.7"/><path id="Fill-592" class="cls-2" d="M163.1,140.3a.7.7,0,1,1-.7-.7c.3.1.7.4.7.7"/><path id="Fill-594" class="cls-2" d="M173.7,140.3a.7.7,0,1,1-.7-.7.84.84,0,0,1,.7.7"/><path id="Fill-596" class="cls-2" d="M184.3,140.3a.7.7,0,1,1-.7-.7.75.75,0,0,1,.7.7"/><path id="Fill-598" class="cls-2" d="M194.9,140.3a.7.7,0,1,1-.7-.7.84.84,0,0,1,.7.7"/><path id="Fill-600" class="cls-2" d="M205.5,140.3a.7.7,0,1,1-.7-.7.84.84,0,0,1,.7.7"/><path id="Fill-602" class="cls-2" d="M4,150a.68.68,0,0,1-.7.7.7.7,0,1,1,0-1.4.68.68,0,0,1,.7.7"/><path id="Fill-604" class="cls-2" d="M14.6,150a.7.7,0,1,1-.7-.7.68.68,0,0,1,.7.7"/><path id="Fill-606" class="cls-2" d="M25.2,150a.7.7,0,1,1-.7-.7.68.68,0,0,1,.7.7"/><path id="Fill-608" class="cls-2" d="M35.8,150a.7.7,0,1,1-.7-.7.68.68,0,0,1,.7.7"/><path id="Fill-610" class="cls-2" d="M46.4,150a.7.7,0,1,1-.7-.7.68.68,0,0,1,.7.7"/><path id="Fill-612" class="cls-2" d="M57,150a.7.7,0,1,1-.7-.7.68.68,0,0,1,.7.7"/><path id="Fill-614" class="cls-2" d="M67.6,150a.7.7,0,1,1-.7-.7.68.68,0,0,1,.7.7"/><path id="Fill-616" class="cls-2" d="M78.2,150a.7.7,0,1,1-.7-.7.68.68,0,0,1,.7.7"/><path id="Fill-618" class="cls-2" d="M88.8,150a.7.7,0,1,1-.7-.7.68.68,0,0,1,.7.7"/><path id="Fill-620" class="cls-2" d="M99.4,150a.7.7,0,1,1-.7-.7.68.68,0,0,1,.7.7"/><path id="Fill-622" class="cls-2" d="M110,150a.7.7,0,1,1-.7-.7.68.68,0,0,1,.7.7"/><path id="Fill-624" class="cls-2" d="M120.6,150a.7.7,0,1,1-.7-.7.68.68,0,0,1,.7.7"/><path id="Fill-626" class="cls-2" d="M131.2,150a.7.7,0,1,1-.7-.7.68.68,0,0,1,.7.7"/><path id="Fill-628" class="cls-2" d="M141.8,150a.7.7,0,1,1-.7-.7.68.68,0,0,1,.7.7"/><path id="Fill-630" class="cls-2" d="M152.4,150a.7.7,0,1,1-.7-.7.68.68,0,0,1,.7.7"/><path id="Fill-632" class="cls-2" d="M163.1,150a.7.7,0,1,1-.7-.7.75.75,0,0,1,.7.7"/><path id="Fill-634" class="cls-2" d="M173.7,150a.7.7,0,1,1-.7-.7.68.68,0,0,1,.7.7"/><path id="Fill-636" class="cls-2" d="M184.3,150a.7.7,0,1,1-.7-.7.68.68,0,0,1,.7.7"/><path id="Fill-638" class="cls-2" d="M194.9,150a.7.7,0,1,1-.7-.7.68.68,0,0,1,.7.7"/><path id="Fill-640" class="cls-2" d="M205.5,150a.7.7,0,1,1-.7-.7.68.68,0,0,1,.7.7"/><path id="Fill-642" class="cls-2" d="M4,159.6a.68.68,0,0,1-.7.7.7.7,0,1,1,0-1.4.68.68,0,0,1,.7.7"/><path id="Fill-644" class="cls-2" d="M14.6,159.6a.7.7,0,1,1-.7-.7.68.68,0,0,1,.7.7"/><path id="Fill-646" class="cls-2" d="M25.2,159.6a.7.7,0,1,1-.7-.7.68.68,0,0,1,.7.7"/><path id="Fill-648" class="cls-2" d="M35.8,159.6a.7.7,0,1,1-.7-.7.68.68,0,0,1,.7.7"/><path id="Fill-650" class="cls-2" d="M46.4,159.6a.7.7,0,1,1-.7-.7.68.68,0,0,1,.7.7"/><path id="Fill-652" class="cls-2" d="M57,159.6a.7.7,0,1,1-.7-.7.68.68,0,0,1,.7.7"/><path id="Fill-654" class="cls-2" d="M67.6,159.6a.7.7,0,1,1-.7-.7.68.68,0,0,1,.7.7"/><path id="Fill-656" class="cls-2" d="M78.2,159.6a.7.7,0,1,1-.7-.7.68.68,0,0,1,.7.7"/><path id="Fill-658" class="cls-2" d="M88.8,159.6a.7.7,0,1,1-.7-.7.68.68,0,0,1,.7.7"/><path id="Fill-660" class="cls-2" d="M99.4,159.6a.7.7,0,1,1-.7-.7.68.68,0,0,1,.7.7"/><path id="Fill-662" class="cls-2" d="M110,159.6a.7.7,0,1,1-.7-.7.68.68,0,0,1,.7.7"/><path id="Fill-664" class="cls-2" d="M120.6,159.6a.7.7,0,1,1-.7-.7.68.68,0,0,1,.7.7"/><path id="Fill-666" class="cls-2" d="M131.2,159.6a.7.7,0,1,1-.7-.7.68.68,0,0,1,.7.7"/><path id="Fill-668" class="cls-2" d="M141.8,159.6a.7.7,0,1,1-.7-.7.68.68,0,0,1,.7.7"/><path id="Fill-670" class="cls-2" d="M152.4,159.6a.7.7,0,1,1-.7-.7.68.68,0,0,1,.7.7"/><path id="Fill-672" class="cls-2" d="M163.1,159.6a.7.7,0,1,1-.7-.7.75.75,0,0,1,.7.7"/><path id="Fill-674" class="cls-2" d="M173.7,159.6a.7.7,0,1,1-.7-.7.68.68,0,0,1,.7.7"/><path id="Fill-676" class="cls-2" d="M184.3,159.6a.7.7,0,1,1-.7-.7.68.68,0,0,1,.7.7"/><path id="Fill-678" class="cls-2" d="M194.9,159.6a.7.7,0,1,1-.7-.7.68.68,0,0,1,.7.7"/><path id="Fill-680" class="cls-2" d="M205.5,159.6a.7.7,0,1,1-.7-.7.68.68,0,0,1,.7.7"/><path id="Fill-682" class="cls-2" d="M216.9,5.7a.7.7,0,1,1-.7-.7.68.68,0,0,1,.7.7"/><path id="Fill-684" class="cls-2" d="M227.5,5.7a.7.7,0,1,1-.7-.7.68.68,0,0,1,.7.7"/><path id="Fill-686" class="cls-2" d="M238.1,5.7a.7.7,0,1,1-.7-.7.68.68,0,0,1,.7.7"/><path id="Fill-688" class="cls-2" d="M248.7,5.7A.7.7,0,1,1,248,5a.68.68,0,0,1,.7.7"/><path id="Fill-690" class="cls-2" d="M259.3,5.7a.68.68,0,0,1-.7.7.66.66,0,0,1-.6-.7.75.75,0,0,1,.7-.7c.4,0,.6.3.6.7"/><path id="Fill-692" class="cls-2" d="M216.9,15.3a.7.7,0,1,1-.7-.7.68.68,0,0,1,.7.7"/><path id="Fill-694" class="cls-2" d="M227.5,15.3a.7.7,0,1,1-.7-.7.68.68,0,0,1,.7.7"/><path id="Fill-696" class="cls-2" d="M238.1,15.3a.7.7,0,1,1-.7-.7.68.68,0,0,1,.7.7"/><path id="Fill-698" class="cls-2" d="M248.7,15.3a.7.7,0,1,1-.7-.7.68.68,0,0,1,.7.7"/><path id="Fill-700" class="cls-2" d="M259.3,15.3a.7.7,0,1,1-.7-.7.68.68,0,0,1,.7.7"/><path id="Fill-702" class="cls-2" d="M216.9,24.9a.7.7,0,1,1-.7-.7.68.68,0,0,1,.7.7"/><path id="Fill-704" class="cls-2" d="M227.5,24.9a.7.7,0,1,1-.7-.7.68.68,0,0,1,.7.7"/><path id="Fill-706" class="cls-2" d="M238.1,24.9a.7.7,0,1,1-.7-.7.68.68,0,0,1,.7.7"/><path id="Fill-708" class="cls-2" d="M248.7,24.9a.7.7,0,1,1-.7-.7.68.68,0,0,1,.7.7"/><path id="Fill-710" class="cls-2" d="M259.3,24.9a.7.7,0,1,1-.7-.7.68.68,0,0,1,.7.7"/><path id="Fill-712" class="cls-2" d="M216.9,34.5a.7.7,0,1,1-.7-.7.68.68,0,0,1,.7.7"/><path id="Fill-714" class="cls-2" d="M227.5,34.5a.7.7,0,1,1-.7-.7.68.68,0,0,1,.7.7"/><path id="Fill-716" class="cls-2" d="M238.1,34.5a.7.7,0,1,1-.7-.7.68.68,0,0,1,.7.7"/><path id="Fill-718" class="cls-2" d="M248.7,34.5a.7.7,0,1,1-.7-.7.68.68,0,0,1,.7.7"/><path id="Fill-720" class="cls-2" d="M259.3,34.5a.7.7,0,1,1-.7-.7.68.68,0,0,1,.7.7"/><path id="Fill-722" class="cls-2" d="M216.9,44.1a.7.7,0,1,1-.7-.7.75.75,0,0,1,.7.7"/><path id="Fill-724" class="cls-2" d="M227.5,44.1a.7.7,0,1,1-.7-.7.75.75,0,0,1,.7.7"/><path id="Fill-726" class="cls-2" d="M238.1,44.1a.7.7,0,1,1-.7-.7.84.84,0,0,1,.7.7"/><path id="Fill-728" class="cls-2" d="M248.7,44.1a.7.7,0,1,1-.7-.7.75.75,0,0,1,.7.7"/><path id="Fill-730" class="cls-2" d="M259.3,44.1a.7.7,0,1,1-.7-.7.75.75,0,0,1,.7.7"/><path id="Fill-732" class="cls-2" d="M216.9,53.8a.7.7,0,1,1-.7-.7.68.68,0,0,1,.7.7"/><path id="Fill-734" class="cls-2" d="M227.5,53.8a.7.7,0,1,1-.7-.7.68.68,0,0,1,.7.7"/><path id="Fill-736" class="cls-2" d="M238.1,53.8a.7.7,0,1,1-.7-.7.68.68,0,0,1,.7.7"/><path id="Fill-738" class="cls-2" d="M248.7,53.8a.7.7,0,1,1-.7-.7.68.68,0,0,1,.7.7"/><path id="Fill-740" class="cls-2" d="M259.3,53.8a.7.7,0,1,1-.7-.7.68.68,0,0,1,.7.7"/><path id="Fill-742" class="cls-2" d="M216.9,63.4a.7.7,0,1,1-.7-.7.68.68,0,0,1,.7.7"/><path id="Fill-744" class="cls-2" d="M227.5,63.4a.7.7,0,1,1-.7-.7.68.68,0,0,1,.7.7"/><path id="Fill-746" class="cls-2" d="M238.1,63.4a.7.7,0,1,1-.7-.7.68.68,0,0,1,.7.7"/><path id="Fill-748" class="cls-2" d="M248.7,63.4a.7.7,0,1,1-.7-.7.68.68,0,0,1,.7.7"/><path id="Fill-750" class="cls-2" d="M259.3,63.4a.7.7,0,1,1-.7-.7.68.68,0,0,1,.7.7"/><path id="Fill-752" class="cls-2" d="M216.9,73a.7.7,0,1,1-.7-.7.68.68,0,0,1,.7.7"/><path id="Fill-754" class="cls-2" d="M227.5,73a.7.7,0,1,1-.7-.7.68.68,0,0,1,.7.7"/><path id="Fill-756" class="cls-2" d="M238.1,73a.7.7,0,1,1-.7-.7.68.68,0,0,1,.7.7"/><path id="Fill-758" class="cls-2" d="M248.7,73a.7.7,0,1,1-.7-.7.68.68,0,0,1,.7.7"/><path id="Fill-760" class="cls-2" d="M259.3,73a.68.68,0,0,1-.7.7c-.4,0-.6-.3-.6-.7a.68.68,0,0,1,.7-.7c.4,0,.6.3.6.7"/><path id="Fill-762" class="cls-2" d="M216.9,82.6a.7.7,0,1,1-.7-.7.75.75,0,0,1,.7.7"/><path id="Fill-764" class="cls-2" d="M227.5,82.6a.7.7,0,1,1-.7-.7.75.75,0,0,1,.7.7"/><path id="Fill-766" class="cls-2" d="M238.1,82.6a.7.7,0,1,1-.7-.7.75.75,0,0,1,.7.7"/><path id="Fill-768" class="cls-2" d="M248.7,82.6a.7.7,0,1,1-.7-.7.75.75,0,0,1,.7.7"/><path id="Fill-770" class="cls-2" d="M259.3,82.6a.68.68,0,0,1-.7.7c-.4,0-.6-.3-.6-.7a.68.68,0,0,1,.7-.7.66.66,0,0,1,.6.7"/><path id="Fill-772" class="cls-2" d="M216.9,92.2a.7.7,0,1,1-.7-.7.75.75,0,0,1,.7.7"/><path id="Fill-774" class="cls-2" d="M227.5,92.2a.7.7,0,1,1-.7-.7.75.75,0,0,1,.7.7"/><path id="Fill-776" class="cls-2" d="M238.1,92.2a.7.7,0,1,1-.7-.7.84.84,0,0,1,.7.7"/><path id="Fill-778" class="cls-2" d="M248.7,92.2a.7.7,0,1,1-.7-.7.75.75,0,0,1,.7.7"/><path id="Fill-780" class="cls-2" d="M259.3,92.2a.7.7,0,1,1-.7-.7.75.75,0,0,1,.7.7"/><path id="Fill-782" class="cls-2" d="M216.9,101.9a.7.7,0,1,1-.7-.7.68.68,0,0,1,.7.7"/><path id="Fill-784" class="cls-2" d="M227.5,101.9a.7.7,0,1,1-.7-.7.68.68,0,0,1,.7.7"/><path id="Fill-786" class="cls-2" d="M238.1,101.9a.7.7,0,1,1-.7-.7.68.68,0,0,1,.7.7"/><path id="Fill-788" class="cls-2" d="M248.7,101.9a.7.7,0,1,1-.7-.7.68.68,0,0,1,.7.7"/><path id="Fill-790" class="cls-2" d="M259.3,101.9a.7.7,0,1,1-.7-.7.68.68,0,0,1,.7.7"/><path id="Fill-792" class="cls-2" d="M216.9,111.5a.7.7,0,1,1-.7-.7.68.68,0,0,1,.7.7"/><path id="Fill-794" class="cls-2" d="M227.5,111.5a.7.7,0,1,1-.7-.7.68.68,0,0,1,.7.7"/><path id="Fill-796" class="cls-2" d="M238.1,111.5a.7.7,0,1,1-.7-.7.68.68,0,0,1,.7.7"/><path id="Fill-798" class="cls-2" d="M248.7,111.5a.7.7,0,1,1-.7-.7.68.68,0,0,1,.7.7"/><path id="Fill-800" class="cls-2" d="M259.3,111.5a.7.7,0,1,1-.7-.7.68.68,0,0,1,.7.7"/><path id="Fill-802" class="cls-2" d="M216.9,121.1a.7.7,0,1,1-.7-.7.68.68,0,0,1,.7.7"/><path id="Fill-804" class="cls-2" d="M227.5,121.1a.7.7,0,1,1-.7-.7.68.68,0,0,1,.7.7"/><path id="Fill-806" class="cls-2" d="M238.1,121.1a.7.7,0,1,1-.7-.7.68.68,0,0,1,.7.7"/><path id="Fill-808" class="cls-2" d="M248.7,121.1a.7.7,0,1,1-.7-.7.68.68,0,0,1,.7.7"/><path id="Fill-810" class="cls-2" d="M259.3,121.1a.7.7,0,1,1-.7-.7.68.68,0,0,1,.7.7"/><path id="Fill-812" class="cls-2" d="M216.9,130.7a.7.7,0,1,1-.7-.7.75.75,0,0,1,.7.7"/><path id="Fill-814" class="cls-2" d="M227.5,130.7a.7.7,0,1,1-.7-.7.75.75,0,0,1,.7.7"/><path id="Fill-816" class="cls-2" d="M238.1,130.7a.7.7,0,1,1-.7-.7.84.84,0,0,1,.7.7"/><path id="Fill-818" class="cls-2" d="M248.7,130.7a.7.7,0,1,1-.7-.7.75.75,0,0,1,.7.7"/><path id="Fill-820" class="cls-2" d="M259.3,130.7a.7.7,0,1,1-.7-.7.75.75,0,0,1,.7.7"/><path id="Fill-822" class="cls-2" d="M216.9,140.3a.7.7,0,1,1-.7-.7.75.75,0,0,1,.7.7"/><path id="Fill-824" class="cls-2" d="M227.5,140.3a.7.7,0,1,1-.7-.7.75.75,0,0,1,.7.7"/><path id="Fill-826" class="cls-2" d="M238.1,140.3a.7.7,0,1,1-.7-.7.84.84,0,0,1,.7.7"/><path id="Fill-828" class="cls-2" d="M248.7,140.3a.7.7,0,1,1-.7-.7.75.75,0,0,1,.7.7"/><path id="Fill-830" class="cls-2" d="M259.3,140.3a.7.7,0,1,1-.7-.7.75.75,0,0,1,.7.7"/><path id="Fill-832" class="cls-2" d="M216.9,150a.7.7,0,1,1-.7-.7.68.68,0,0,1,.7.7"/><path id="Fill-834" class="cls-2" d="M227.5,150a.7.7,0,1,1-.7-.7.68.68,0,0,1,.7.7"/><path id="Fill-836" class="cls-2" d="M238.1,150a.7.7,0,1,1-.7-.7.68.68,0,0,1,.7.7"/><path id="Fill-838" class="cls-2" d="M248.7,150a.7.7,0,1,1-.7-.7.68.68,0,0,1,.7.7"/><path id="Fill-840" class="cls-2" d="M259.3,150a.7.7,0,1,1-.7-.7.68.68,0,0,1,.7.7"/><path id="Fill-842" class="cls-2" d="M216.9,159.6a.7.7,0,1,1-.7-.7.68.68,0,0,1,.7.7"/><path id="Fill-844" class="cls-2" d="M227.5,159.6a.7.7,0,1,1-.7-.7.68.68,0,0,1,.7.7"/><path id="Fill-846" class="cls-2" d="M238.1,159.6a.7.7,0,1,1-.7-.7.68.68,0,0,1,.7.7"/><path id="Fill-848" class="cls-2" d="M248.7,159.6a.7.7,0,1,1-.7-.7.68.68,0,0,1,.7.7"/><path id="Fill-850" class="cls-2" d="M259.3,159.6a.7.7,0,1,1-.7-.7.68.68,0,0,1,.7.7"/><path id="Fill-852" class="cls-3" d="M195.6,125H66.4a.94.94,0,0,1-1-1V53H196.7v71a1.18,1.18,0,0,1-1.1,1"/><path id="Fill-854" class="cls-4" d="M196.6,53.3H65.4V41a.94.94,0,0,1,1-1H195.7a.94.94,0,0,1,1,1V53.3Z"/><path id="Fill-856" class="cls-5" d="M73.6,46.8a1.4,1.4,0,1,1-1.4-1.4,1.5,1.5,0,0,1,1.4,1.4"/><path id="Fill-858" class="cls-5" d="M80.4,46.8A1.4,1.4,0,1,1,79,45.4a1.43,1.43,0,0,1,1.4,1.4"/><path id="Fill-860" class="cls-5" d="M87.2,46.8a1.4,1.4,0,1,1-1.4-1.4,1.43,1.43,0,0,1,1.4,1.4"/><path id="Fill-862" class="cls-5" d="M102.3,100.3c-.2,0-.3-.1-.5-.2a.67.67,0,0,1,0-1l20.6-21.2a.74.74,0,0,1,.9-.1l18.6,11.6,18.1-18a.71.71,0,0,1,1,1L142.5,90.8a.74.74,0,0,1-.9.1L123,79.2,102.8,100a.55.55,0,0,1-.5.3"/><path id="Fill-864" class="cls-6" d="M155.5,72.6a4.2,4.2,0,1,1,4.2,4.2,4.23,4.23,0,0,1-4.2-4.2"/><path id="Fill-866" class="cls-6" d="M137.1,89.3a4.2,4.2,0,1,1,4.2,4.2,4.16,4.16,0,0,1-4.2-4.2"/><path id="Fill-868" class="cls-6" d="M118.7,78.9a4.2,4.2,0,1,1,4.2,4.2,4.23,4.23,0,0,1-4.2-4.2"/><path id="Fill-870" class="cls-6" d="M98.1,99.6a4.2,4.2,0,1,1,4.2,4.2,4.23,4.23,0,0,1-4.2-4.2"/></g></g></g></g></g></g></svg>