<svg id="Layer_1" data-name="Layer 1" xmlns="http://www.w3.org/2000/svg" xmlns:xlink="http://www.w3.org/1999/xlink" width="262" height="165" viewBox="0 0 262 165"><defs><style>.cls-1{fill:#fff;}.cls-1,.cls-2,.cls-3,.cls-5{fill-rule:evenodd;}.cls-2{fill:#1d4354;}.cls-3{fill:#2b5468;}.cls-4{mask:url(#mask);}.cls-5{fill:#6fda44;}</style><mask id="mask" x="0" y="0" width="262" height="165" maskUnits="userSpaceOnUse"><g id="mask-2"><polygon id="path-1" class="cls-1" points="0 165 262 165 262 0 0 0 0 165"/></g></mask></defs><title>illo-design</title><g id="Page-1"><g id="Group"><g id="Tile-Copy"><g id="Stacked-Group"><g id="illo-design"><polygon id="Fill-1" class="cls-2" points="0 165 262 165 262 0 0 0 0 165"/><polygon id="Fill-2" class="cls-3" points="0.74 16.18 261.26 16.18 261.26 15.97 0.74 15.97 0.74 16.18"/><polygon id="Fill-3" class="cls-3" points="0.74 43 261.26 43 261.26 42.79 0.74 42.79 0.74 43"/><polygon id="Fill-4" class="cls-3" points="0.74 69.82 261.26 69.82 261.26 69.61 0.74 69.61 0.74 69.82"/><polygon id="Fill-5" class="cls-3" points="0.74 96.64 261.26 96.64 261.26 96.43 0.74 96.43 0.74 96.64"/><polygon id="Fill-6" class="cls-3" points="0.74 123.47 261.26 123.47 261.26 123.25 0.74 123.25 0.74 123.47"/><polygon id="Fill-7" class="cls-3" points="0.74 150.29 261.26 150.29 261.26 150.07 0.74 150.07 0.74 150.29"/><polygon id="Fill-8" class="cls-3" points="9 164.51 9.21 164.51 9.21 0.49 9 0.49 9 164.51"/><polygon id="Fill-9" class="cls-3" points="35.82 164.51 36.03 164.51 36.03 0.49 35.82 0.49 35.82 164.51"/><polygon id="Fill-10" class="cls-3" points="62.64 164.51 62.85 164.51 62.85 0.49 62.64 0.49 62.64 164.51"/><polygon id="Fill-11" class="cls-3" points="89.46 164.51 89.67 164.51 89.67 0.49 89.46 0.49 89.46 164.51"/><polygon id="Fill-12" class="cls-3" points="116.28 164.51 116.5 164.51 116.5 0.49 116.28 0.49 116.28 164.51"/><polygon id="Fill-13" class="cls-3" points="143.1 164.51 143.32 164.51 143.32 0.49 143.1 0.49 143.1 164.51"/><polygon id="Fill-14" class="cls-3" points="169.93 164.51 170.14 164.51 170.14 0.49 169.93 0.49 169.93 164.51"/><polygon id="Fill-15" class="cls-3" points="196.75 164.51 196.96 164.51 196.96 0.49 196.75 0.49 196.75 164.51"/><polygon id="Fill-16" class="cls-3" points="223.57 164.51 223.78 164.51 223.78 0.49 223.57 0.49 223.57 164.51"/><polygon id="Fill-17" class="cls-3" points="250.39 164.51 250.6 164.51 250.6 0.49 250.39 0.49 250.39 164.51"/><g id="Group-144"><path id="Fill-18" class="cls-3" d="M10.62,16.07A1.52,1.52,0,1,1,9.1,14.56a1.52,1.52,0,0,1,1.52,1.51"/><path id="Fill-20" class="cls-3" d="M37.44,16.07a1.52,1.52,0,1,1-1.52-1.51,1.52,1.52,0,0,1,1.52,1.51"/><path id="Fill-22" class="cls-3" d="M64.26,16.07a1.52,1.52,0,1,1-1.51-1.51,1.52,1.52,0,0,1,1.51,1.51"/><path id="Fill-24" class="cls-3" d="M91.08,16.07a1.52,1.52,0,1,1-1.51-1.51,1.52,1.52,0,0,1,1.51,1.51"/><path id="Fill-26" class="cls-3" d="M117.9,16.07a1.51,1.51,0,1,1-1.51-1.51,1.52,1.52,0,0,1,1.51,1.51"/><path id="Fill-28" class="cls-3" d="M144.72,16.07a1.51,1.51,0,1,1-1.51-1.51,1.51,1.51,0,0,1,1.51,1.51"/><path id="Fill-30" class="cls-3" d="M171.54,16.07A1.51,1.51,0,1,1,170,14.56a1.51,1.51,0,0,1,1.51,1.51"/><path id="Fill-32" class="cls-3" d="M198.37,16.07a1.52,1.52,0,1,1-1.52-1.51,1.52,1.52,0,0,1,1.52,1.51"/><path id="Fill-34" class="cls-3" d="M225.19,16.07a1.52,1.52,0,1,1-1.52-1.51,1.52,1.52,0,0,1,1.52,1.51"/><path id="Fill-36" class="cls-3" d="M252,16.07a1.52,1.52,0,1,1-1.51-1.51A1.52,1.52,0,0,1,252,16.07"/><path id="Fill-38" class="cls-3" d="M10.62,42.89A1.52,1.52,0,1,1,9.1,41.38a1.52,1.52,0,0,1,1.52,1.51"/><path id="Fill-40" class="cls-3" d="M37.44,42.89a1.52,1.52,0,1,1-1.52-1.51,1.52,1.52,0,0,1,1.52,1.51"/><path id="Fill-42" class="cls-3" d="M64.26,42.89a1.52,1.52,0,1,1-1.51-1.51,1.52,1.52,0,0,1,1.51,1.51"/><path id="Fill-44" class="cls-3" d="M91.08,42.89a1.52,1.52,0,1,1-1.51-1.51,1.52,1.52,0,0,1,1.51,1.51"/><path id="Fill-46" class="cls-3" d="M117.9,42.89a1.51,1.51,0,1,1-1.51-1.51,1.52,1.52,0,0,1,1.51,1.51"/><path id="Fill-48" class="cls-3" d="M144.72,42.89a1.51,1.51,0,1,1-1.51-1.51,1.51,1.51,0,0,1,1.51,1.51"/><path id="Fill-50" class="cls-3" d="M171.54,42.89A1.51,1.51,0,1,1,170,41.38a1.51,1.51,0,0,1,1.51,1.51"/><path id="Fill-52" class="cls-3" d="M198.37,42.89a1.52,1.52,0,1,1-1.52-1.51,1.52,1.52,0,0,1,1.52,1.51"/><path id="Fill-54" class="cls-3" d="M225.19,42.89a1.52,1.52,0,1,1-1.52-1.51,1.52,1.52,0,0,1,1.52,1.51"/><path id="Fill-56" class="cls-3" d="M252,42.89a1.52,1.52,0,1,1-1.51-1.51A1.52,1.52,0,0,1,252,42.89"/><path id="Fill-58" class="cls-3" d="M10.62,69.72A1.52,1.52,0,1,1,9.1,68.2a1.52,1.52,0,0,1,1.52,1.52"/><path id="Fill-60" class="cls-3" d="M37.44,69.72a1.52,1.52,0,1,1-1.52-1.52,1.52,1.52,0,0,1,1.52,1.52"/><path id="Fill-62" class="cls-3" d="M64.26,69.72a1.52,1.52,0,1,1-1.51-1.52,1.52,1.52,0,0,1,1.51,1.52"/><path id="Fill-64" class="cls-3" d="M91.08,69.72a1.52,1.52,0,1,1-1.51-1.52,1.52,1.52,0,0,1,1.51,1.52"/><path id="Fill-66" class="cls-3" d="M117.9,69.72a1.51,1.51,0,1,1-1.51-1.52,1.52,1.52,0,0,1,1.51,1.52"/><path id="Fill-68" class="cls-3" d="M144.72,69.72a1.51,1.51,0,1,1-1.51-1.52,1.51,1.51,0,0,1,1.51,1.52"/><path id="Fill-70" class="cls-3" d="M171.54,69.72A1.51,1.51,0,1,1,170,68.2a1.51,1.51,0,0,1,1.51,1.52"/><path id="Fill-72" class="cls-3" d="M198.37,69.72a1.52,1.52,0,1,1-1.52-1.52,1.52,1.52,0,0,1,1.52,1.52"/><path id="Fill-74" class="cls-3" d="M225.19,69.72a1.52,1.52,0,1,1-1.52-1.52,1.52,1.52,0,0,1,1.52,1.52"/><path id="Fill-76" class="cls-3" d="M252,69.72a1.52,1.52,0,1,1-1.51-1.52A1.52,1.52,0,0,1,252,69.72"/><path id="Fill-78" class="cls-3" d="M10.62,96.54A1.52,1.52,0,1,1,9.1,95a1.52,1.52,0,0,1,1.52,1.52"/><path id="Fill-80" class="cls-3" d="M37.44,96.54A1.52,1.52,0,1,1,35.92,95a1.52,1.52,0,0,1,1.52,1.52"/><path id="Fill-82" class="cls-3" d="M64.26,96.54A1.52,1.52,0,1,1,62.75,95a1.52,1.52,0,0,1,1.51,1.52"/><path id="Fill-84" class="cls-3" d="M91.08,96.54A1.52,1.52,0,1,1,89.57,95a1.52,1.52,0,0,1,1.51,1.52"/><path id="Fill-86" class="cls-3" d="M117.9,96.54A1.51,1.51,0,1,1,116.39,95a1.52,1.52,0,0,1,1.51,1.52"/><path id="Fill-88" class="cls-3" d="M144.72,96.54A1.51,1.51,0,1,1,143.21,95a1.51,1.51,0,0,1,1.51,1.52"/><path id="Fill-90" class="cls-3" d="M171.54,96.54A1.51,1.51,0,1,1,170,95a1.51,1.51,0,0,1,1.51,1.52"/><path id="Fill-92" class="cls-3" d="M198.37,96.54A1.52,1.52,0,1,1,196.85,95a1.52,1.52,0,0,1,1.52,1.52"/><path id="Fill-94" class="cls-3" d="M225.19,96.54A1.52,1.52,0,1,1,223.67,95a1.52,1.52,0,0,1,1.52,1.52"/><path id="Fill-96" class="cls-3" d="M252,96.54A1.52,1.52,0,1,1,250.5,95,1.52,1.52,0,0,1,252,96.54"/><path id="Fill-98" class="cls-3" d="M10.62,123.36a1.52,1.52,0,1,1-1.52-1.51,1.52,1.52,0,0,1,1.52,1.51"/><path id="Fill-100" class="cls-3" d="M37.44,123.36a1.52,1.52,0,1,1-1.52-1.51,1.52,1.52,0,0,1,1.52,1.51"/><path id="Fill-102" class="cls-3" d="M64.26,123.36a1.52,1.52,0,1,1-1.51-1.51,1.52,1.52,0,0,1,1.51,1.51"/><path id="Fill-104" class="cls-3" d="M91.08,123.36a1.52,1.52,0,1,1-1.51-1.51,1.52,1.52,0,0,1,1.51,1.51"/><path id="Fill-106" class="cls-3" d="M117.9,123.36a1.51,1.51,0,1,1-1.51-1.51,1.52,1.52,0,0,1,1.51,1.51"/><path id="Fill-108" class="cls-3" d="M144.72,123.36a1.51,1.51,0,1,1-1.51-1.51,1.51,1.51,0,0,1,1.51,1.51"/><path id="Fill-110" class="cls-3" d="M171.54,123.36a1.51,1.51,0,1,1-1.51-1.51,1.51,1.51,0,0,1,1.51,1.51"/><path id="Fill-112" class="cls-3" d="M198.37,123.36a1.52,1.52,0,1,1-1.52-1.51,1.52,1.52,0,0,1,1.52,1.51"/><path id="Fill-114" class="cls-3" d="M225.19,123.36a1.52,1.52,0,1,1-1.52-1.51,1.52,1.52,0,0,1,1.52,1.51"/><path id="Fill-116" class="cls-3" d="M252,123.36a1.52,1.52,0,1,1-1.51-1.51,1.52,1.52,0,0,1,1.51,1.51"/><path id="Fill-118" class="cls-3" d="M10.62,150.18a1.52,1.52,0,1,1-1.52-1.51,1.51,1.51,0,0,1,1.52,1.51"/><path id="Fill-120" class="cls-3" d="M37.44,150.18a1.52,1.52,0,1,1-1.52-1.51,1.51,1.51,0,0,1,1.52,1.51"/><path id="Fill-122" class="cls-3" d="M64.26,150.18a1.52,1.52,0,1,1-1.51-1.51,1.51,1.51,0,0,1,1.51,1.51"/><path id="Fill-124" class="cls-3" d="M91.08,150.18a1.52,1.52,0,1,1-1.51-1.51,1.51,1.51,0,0,1,1.51,1.51"/><path id="Fill-126" class="cls-3" d="M117.9,150.18a1.51,1.51,0,1,1-1.51-1.51,1.51,1.51,0,0,1,1.51,1.51"/><path id="Fill-128" class="cls-3" d="M144.72,150.18a1.51,1.51,0,1,1-1.51-1.51,1.5,1.5,0,0,1,1.51,1.51"/><path id="Fill-130" class="cls-3" d="M171.54,150.18a1.51,1.51,0,1,1-1.51-1.51,1.5,1.5,0,0,1,1.51,1.51"/><path id="Fill-132" class="cls-3" d="M198.37,150.18a1.52,1.52,0,1,1-1.52-1.51,1.51,1.51,0,0,1,1.52,1.51"/><path id="Fill-134" class="cls-3" d="M225.19,150.18a1.52,1.52,0,1,1-1.52-1.51,1.51,1.51,0,0,1,1.52,1.51"/><path id="Fill-136" class="cls-3" d="M252,150.18a1.52,1.52,0,1,1-1.51-1.51,1.51,1.51,0,0,1,1.51,1.51"/><path id="Fill-138" class="cls-3" d="M162.07,70.29A30.25,30.25,0,1,0,117.85,97.1a3,3,0,0,1,1.35,2.17l2.07,8.42a2.44,2.44,0,0,0,2.4,2H140a2.44,2.44,0,0,0,2.4-2l2.07-8.42a2.88,2.88,0,0,1,1.35-2.17,30.22,30.22,0,0,0,16.29-26.81"/><g class="cls-4"><polygon id="Fill-140" class="cls-5" points="122.19 118.3 141.44 118.3 141.44 113.8 122.19 113.8 122.19 118.3"/></g><g class="cls-4"><polygon id="Fill-142" class="cls-5" points="122.19 124.97 141.44 124.97 141.44 120.47 122.19 120.47 122.19 124.97"/></g><g class="cls-4"><path id="Fill-143" class="cls-1" d="M133.11,75.46a6.61,6.61,0,1,1,5.18-5.19,6.61,6.61,0,0,1-5.18,5.19Zm15.32-10.64a1.15,1.15,0,0,0-1.27-1l-2.36.26-.33-.2a14.32,14.32,0,0,0-1.24-2.36.45.45,0,0,1,0-.55l1.24-1.5a1.2,1.2,0,0,0,0-1.76l-3.88-3.22a1.14,1.14,0,0,0-1.61.14l-1.36,1.63a.45.45,0,0,1-.55.13,13.88,13.88,0,0,0-2.47-.77.47.47,0,0,1-.38-.41L134,53.08a1.15,1.15,0,0,0-1.25-1l-5,.46a1.16,1.16,0,0,0-1,1.25l.2,2.11a.47.47,0,0,1-.3.48,13.47,13.47,0,0,0-2.29,1.2.45.45,0,0,1-.56,0l-1.49-1.25a1.21,1.21,0,0,0-1.76,0l-3.23,3.89a1.14,1.14,0,0,0,.15,1.61l1.63,1.36a.47.47,0,0,1,.13.55,13.49,13.49,0,0,0-.8,2.62l-.11.1-2.45.27A1.2,1.2,0,0,0,114.64,68l.56,5.12a1.16,1.16,0,0,0,1.27,1l2.25-.25a.47.47,0,0,1,.44.28,13.57,13.57,0,0,0,1.2,2.3.45.45,0,0,1,0,.56L119,78.65a1.13,1.13,0,0,0,.15,1.61L123,83.49a1.13,1.13,0,0,0,1.61-.15L126,81.71a.46.46,0,0,1,.54-.13,12.51,12.51,0,0,0,2.48.77.49.49,0,0,1,.38.42l.19,2.11a1.15,1.15,0,0,0,1.25,1l5-.46a1.15,1.15,0,0,0,1-1.25l-.19-2.11a.47.47,0,0,1,.29-.48,12.5,12.5,0,0,0,2.29-1.21.47.47,0,0,1,.56,0l1.5,1.24a1.18,1.18,0,0,0,1.75,0l3.23-3.88a1.13,1.13,0,0,0-.15-1.61l-1.63-1.36a.48.48,0,0,1-.13-.55,12.64,12.64,0,0,0,.79-2.58l.2-.18,2.59-.28a1.15,1.15,0,0,0,1-1.27Z"/></g></g></g></g></g></g></g></svg>