<svg id="Layer_1" data-name="Layer 1" xmlns="http://www.w3.org/2000/svg" width="262" height="165" viewBox="0 0 262 165"><defs><style>.cls-1{fill:#1d4354;}.cls-1,.cls-2,.cls-3,.cls-4{fill-rule:evenodd;}.cls-2{fill:#2b5468;}.cls-3{fill:#336278;}.cls-4{fill:#6fda44;}</style></defs><title>illo-it</title><g id="Page-1"><g id="Group"><g id="Tile-Copy-3"><g id="Stacked-Group"><g id="illo-it"><polygon id="Fill-1" class="cls-1" points="0 165 262 165 262 0 0 0 0 165"/><polygon id="Fill-2" class="cls-2" points="0.4 16.5 260.9 16.5 260.9 16.3 0.4 16.3 0.4 16.5"/><polygon id="Fill-3" class="cls-2" points="0.4 43.3 260.9 43.3 260.9 43.1 0.4 43.1 0.4 43.3"/><polygon id="Fill-4" class="cls-2" points="0.4 70.2 260.9 70.2 260.9 70 0.4 70 0.4 70.2"/><polygon id="Fill-5" class="cls-2" points="0.4 97 260.9 97 260.9 96.8 0.4 96.8 0.4 97"/><polygon id="Fill-6" class="cls-2" points="0.4 123.8 260.9 123.8 260.9 123.6 0.4 123.6 0.4 123.8"/><polygon id="Fill-7" class="cls-2" points="0.4 150.6 260.9 150.6 260.9 150.4 0.4 150.4 0.4 150.6"/><polygon id="Fill-8" class="cls-2" points="8.6 164.9 8.9 164.9 8.9 0.8 8.6 0.8 8.6 164.9"/><polygon id="Fill-9" class="cls-2" points="35.5 164.9 35.7 164.9 35.7 0.8 35.5 0.8 35.5 164.9"/><polygon id="Fill-10" class="cls-2" points="62.3 164.9 62.5 164.9 62.5 0.8 62.3 0.8 62.3 164.9"/><polygon id="Fill-11" class="cls-2" points="89.1 164.9 89.3 164.9 89.3 0.8 89.1 0.8 89.1 164.9"/><polygon id="Fill-12" class="cls-2" points="115.9 164.9 116.1 164.9 116.1 0.8 115.9 0.8 115.9 164.9"/><polygon id="Fill-13" class="cls-2" points="142.7 164.9 143 164.9 143 0.8 142.7 0.8 142.7 164.9"/><polygon id="Fill-14" class="cls-2" points="169.6 164.9 169.8 164.9 169.8 0.8 169.6 0.8 169.6 164.9"/><polygon id="Fill-15" class="cls-2" points="196.4 164.9 196.6 164.9 196.6 0.8 196.4 0.8 196.4 164.9"/><polygon id="Fill-16" class="cls-2" points="223.2 164.9 223.4 164.9 223.4 0.8 223.2 0.8 223.2 164.9"/><polygon id="Fill-17" class="cls-2" points="250 164.9 250.2 164.9 250.2 0.8 250 0.8 250 164.9"/><g id="Group-154"><path id="Fill-18" class="cls-2" d="M10.3,16.39a1.5,1.5,0,1,1-1.5-1.5,1.54,1.54,0,0,1,1.5,1.5"/><path id="Fill-20" class="cls-2" d="M37.1,16.39a1.5,1.5,0,1,1-1.5-1.5,1.54,1.54,0,0,1,1.5,1.5"/><path id="Fill-22" class="cls-2" d="M63.9,16.39a1.5,1.5,0,1,1-1.5-1.5,1.54,1.54,0,0,1,1.5,1.5"/><path id="Fill-24" class="cls-2" d="M90.7,16.39a1.5,1.5,0,1,1-1.5-1.5,1.54,1.54,0,0,1,1.5,1.5"/><path id="Fill-26" class="cls-2" d="M117.5,16.39a1.5,1.5,0,1,1-1.5-1.5,1.54,1.54,0,0,1,1.5,1.5"/><path id="Fill-28" class="cls-2" d="M144.4,16.39a1.5,1.5,0,1,1-1.5-1.5,1.54,1.54,0,0,1,1.5,1.5"/><path id="Fill-30" class="cls-2" d="M171.2,16.39a1.5,1.5,0,1,1-1.5-1.5,1.54,1.54,0,0,1,1.5,1.5"/><path id="Fill-32" class="cls-2" d="M198,16.39a1.5,1.5,0,1,1-1.5-1.5,1.54,1.54,0,0,1,1.5,1.5"/><path id="Fill-34" class="cls-2" d="M224.8,16.39a1.5,1.5,0,1,1-1.5-1.5,1.47,1.47,0,0,1,1.5,1.5"/><path id="Fill-36" class="cls-2" d="M251.7,16.39a1.5,1.5,0,1,1-1.5-1.5,1.54,1.54,0,0,1,1.5,1.5"/><path id="Fill-38" class="cls-2" d="M10.3,43.29a1.5,1.5,0,1,1-1.5-1.5,1.42,1.42,0,0,1,1.5,1.5"/><path id="Fill-40" class="cls-2" d="M37.1,43.29a1.5,1.5,0,1,1-1.5-1.5,1.42,1.42,0,0,1,1.5,1.5"/><path id="Fill-42" class="cls-2" d="M63.9,43.29a1.5,1.5,0,1,1-1.5-1.5,1.42,1.42,0,0,1,1.5,1.5"/><path id="Fill-44" class="cls-2" d="M90.7,43.29a1.5,1.5,0,1,1-1.5-1.5,1.42,1.42,0,0,1,1.5,1.5"/><path id="Fill-46" class="cls-2" d="M117.5,43.29a1.5,1.5,0,1,1-1.5-1.5,1.47,1.47,0,0,1,1.5,1.5"/><path id="Fill-48" class="cls-2" d="M144.4,43.29a1.5,1.5,0,1,1-1.5-1.5,1.42,1.42,0,0,1,1.5,1.5"/><path id="Fill-50" class="cls-2" d="M171.2,43.29a1.5,1.5,0,1,1-1.5-1.5,1.47,1.47,0,0,1,1.5,1.5"/><path id="Fill-52" class="cls-2" d="M198,43.29a1.5,1.5,0,1,1-1.5-1.5,1.47,1.47,0,0,1,1.5,1.5"/><path id="Fill-54" class="cls-2" d="M224.8,43.29a1.5,1.5,0,1,1-1.5-1.5,1.37,1.37,0,0,1,1.5,1.5"/><path id="Fill-56" class="cls-2" d="M251.7,43.29a1.5,1.5,0,1,1-1.5-1.5,1.47,1.47,0,0,1,1.5,1.5"/><path id="Fill-58" class="cls-2" d="M10.3,70.09a1.5,1.5,0,1,1-1.5-1.5,1.47,1.47,0,0,1,1.5,1.5"/><path id="Fill-60" class="cls-2" d="M37.1,70.09a1.5,1.5,0,1,1-1.5-1.5,1.47,1.47,0,0,1,1.5,1.5"/><path id="Fill-62" class="cls-2" d="M63.9,70.09a1.5,1.5,0,1,1-1.5-1.5,1.47,1.47,0,0,1,1.5,1.5"/><path id="Fill-64" class="cls-2" d="M90.7,70.09a1.5,1.5,0,1,1-1.5-1.5,1.47,1.47,0,0,1,1.5,1.5"/><path id="Fill-66" class="cls-2" d="M117.5,70.09a1.5,1.5,0,1,1-1.5-1.5,1.47,1.47,0,0,1,1.5,1.5"/><path id="Fill-68" class="cls-2" d="M144.4,70.09a1.5,1.5,0,1,1-1.5-1.5,1.47,1.47,0,0,1,1.5,1.5"/><path id="Fill-70" class="cls-2" d="M171.2,70.09a1.5,1.5,0,1,1-1.5-1.5,1.47,1.47,0,0,1,1.5,1.5"/><path id="Fill-72" class="cls-2" d="M198,70.09a1.5,1.5,0,1,1-1.5-1.5,1.47,1.47,0,0,1,1.5,1.5"/><path id="Fill-74" class="cls-2" d="M224.8,70.09a1.5,1.5,0,1,1-1.5-1.5,1.42,1.42,0,0,1,1.5,1.5"/><path id="Fill-76" class="cls-2" d="M251.7,70.09a1.5,1.5,0,1,1-1.5-1.5,1.47,1.47,0,0,1,1.5,1.5"/><path id="Fill-78" class="cls-2" d="M10.3,96.89a1.5,1.5,0,1,1-1.5-1.5,1.54,1.54,0,0,1,1.5,1.5"/><path id="Fill-80" class="cls-2" d="M37.1,96.89a1.5,1.5,0,1,1-1.5-1.5,1.54,1.54,0,0,1,1.5,1.5"/><path id="Fill-82" class="cls-2" d="M63.9,96.89a1.5,1.5,0,1,1-1.5-1.5,1.54,1.54,0,0,1,1.5,1.5"/><path id="Fill-84" class="cls-2" d="M90.7,96.89a1.5,1.5,0,1,1-1.5-1.5,1.54,1.54,0,0,1,1.5,1.5"/><path id="Fill-86" class="cls-2" d="M117.5,96.89a1.5,1.5,0,1,1-1.5-1.5,1.54,1.54,0,0,1,1.5,1.5"/><path id="Fill-88" class="cls-2" d="M144.4,96.89a1.5,1.5,0,1,1-1.5-1.5,1.54,1.54,0,0,1,1.5,1.5"/><path id="Fill-90" class="cls-2" d="M171.2,96.89a1.5,1.5,0,1,1-1.5-1.5,1.54,1.54,0,0,1,1.5,1.5"/><path id="Fill-92" class="cls-2" d="M198,96.89a1.5,1.5,0,1,1-1.5-1.5,1.54,1.54,0,0,1,1.5,1.5"/><path id="Fill-94" class="cls-2" d="M224.8,96.89a1.5,1.5,0,1,1-1.5-1.5,1.47,1.47,0,0,1,1.5,1.5"/><path id="Fill-96" class="cls-2" d="M251.7,96.89a1.5,1.5,0,1,1-1.5-1.5,1.54,1.54,0,0,1,1.5,1.5"/><path id="Fill-98" class="cls-2" d="M10.3,123.69a1.5,1.5,0,1,1-1.5-1.5,1.54,1.54,0,0,1,1.5,1.5"/><path id="Fill-100" class="cls-2" d="M37.1,123.69a1.5,1.5,0,1,1-1.5-1.5,1.54,1.54,0,0,1,1.5,1.5"/><path id="Fill-102" class="cls-2" d="M63.9,123.69a1.5,1.5,0,1,1-1.5-1.5,1.54,1.54,0,0,1,1.5,1.5"/><path id="Fill-104" class="cls-2" d="M90.7,123.69a1.5,1.5,0,1,1-1.5-1.5,1.54,1.54,0,0,1,1.5,1.5"/><path id="Fill-106" class="cls-2" d="M117.5,123.69a1.5,1.5,0,1,1-1.5-1.5,1.54,1.54,0,0,1,1.5,1.5"/><path id="Fill-108" class="cls-2" d="M144.4,123.69a1.5,1.5,0,1,1-1.5-1.5,1.54,1.54,0,0,1,1.5,1.5"/><path id="Fill-110" class="cls-2" d="M171.2,123.69a1.5,1.5,0,1,1-1.5-1.5,1.54,1.54,0,0,1,1.5,1.5"/><path id="Fill-112" class="cls-2" d="M198,123.69a1.5,1.5,0,1,1-1.5-1.5,1.54,1.54,0,0,1,1.5,1.5"/><path id="Fill-114" class="cls-2" d="M224.8,123.69a1.5,1.5,0,1,1-1.5-1.5,1.47,1.47,0,0,1,1.5,1.5"/><path id="Fill-116" class="cls-2" d="M251.7,123.69a1.5,1.5,0,1,1-1.5-1.5,1.54,1.54,0,0,1,1.5,1.5"/><path id="Fill-118" class="cls-2" d="M10.3,150.49A1.5,1.5,0,1,1,8.8,149a1.54,1.54,0,0,1,1.5,1.5"/><path id="Fill-120" class="cls-2" d="M37.1,150.49a1.5,1.5,0,1,1-1.5-1.5,1.54,1.54,0,0,1,1.5,1.5"/><path id="Fill-122" class="cls-2" d="M63.9,150.49a1.5,1.5,0,1,1-1.5-1.5,1.54,1.54,0,0,1,1.5,1.5"/><path id="Fill-124" class="cls-2" d="M90.7,150.49a1.5,1.5,0,1,1-1.5-1.5,1.54,1.54,0,0,1,1.5,1.5"/><path id="Fill-126" class="cls-2" d="M117.5,150.49A1.5,1.5,0,1,1,116,149a1.54,1.54,0,0,1,1.5,1.5"/><path id="Fill-128" class="cls-2" d="M144.4,150.49a1.5,1.5,0,1,1-1.5-1.5,1.54,1.54,0,0,1,1.5,1.5"/><path id="Fill-130" class="cls-2" d="M171.2,150.49a1.5,1.5,0,1,1-1.5-1.5,1.54,1.54,0,0,1,1.5,1.5"/><path id="Fill-132" class="cls-2" d="M198,150.49a1.5,1.5,0,1,1-1.5-1.5,1.54,1.54,0,0,1,1.5,1.5"/><path id="Fill-134" class="cls-2" d="M224.8,150.49a1.5,1.5,0,1,1-1.5-1.5,1.47,1.47,0,0,1,1.5,1.5"/><path id="Fill-136" class="cls-2" d="M251.7,150.49a1.5,1.5,0,1,1-1.5-1.5,1.54,1.54,0,0,1,1.5,1.5"/><path id="Fill-138" class="cls-3" d="M173.6,74.69a1.29,1.29,0,0,1-1.3-1.1,41.87,41.87,0,0,0-29-31.4,1.36,1.36,0,1,1,.8-2.6A44.45,44.45,0,0,1,175,73a1.35,1.35,0,0,1-1,1.6c-.3,0-.3.1-.4.1"/><path id="Fill-140" class="cls-3" d="M120.7,125.59h-.3a44.7,44.7,0,0,1-32-31.1,1.36,1.36,0,0,1,2.6-.8,41.61,41.61,0,0,0,30,29.2,1.35,1.35,0,0,1,1,1.6,1.36,1.36,0,0,1-1.3,1.1"/><path id="Fill-142" class="cls-3" d="M143.6,125.09a1.38,1.38,0,0,1-.4-2.7,42.13,42.13,0,0,0,28.4-28.8,1.39,1.39,0,0,1,1.7-.9,1.35,1.35,0,0,1,.9,1.7,45,45,0,0,1-30.2,30.7h-.4"/><path id="Fill-144" class="cls-3" d="M89,74.69h-.3a1.35,1.35,0,0,1-1-1.6,44.68,44.68,0,0,1,32.7-33.9,1.33,1.33,0,0,1,.6,2.6,42.12,42.12,0,0,0-30.7,31.9,1.41,1.41,0,0,1-1.3,1"/><polygon id="Fill-146" class="cls-4" points="167.6 89.39 180.7 89.39 180.7 76.29 167.6 76.29 167.6 89.39"/><polygon id="Fill-148" class="cls-4" points="80.6 89.39 93.7 89.39 93.7 76.29 80.6 76.29 80.6 89.39"/><polygon id="Fill-149" class="cls-4" points="124.9 46.49 138 46.49 138 33.39 124.9 33.39 124.9 46.49"/><polygon id="Fill-150" class="cls-4" points="124.9 132.39 138 132.39 138 119.19 124.9 119.19 124.9 132.39"/><path id="Fill-151" class="cls-2" d="M158.3,82.89A26.9,26.9,0,1,1,131.4,56a26.91,26.91,0,0,1,26.9,26.9"/><path id="Fill-152" class="cls-3" d="M131.4,74.69c-14,0-23.8,4.3-23.8,8.2s9.8,8.2,23.8,8.2,23.8-4.3,23.8-8.2-9.8-8.2-23.8-8.2m0,19.1c-15.1,0-26.5-4.7-26.5-10.9S116.3,72,131.4,72s26.5,4.7,26.5,10.9-11.4,10.9-26.5,10.9"/><path id="Fill-153" class="cls-3" d="M131.4,59.09c-3.9,0-8.2,9.8-8.2,23.8s4.3,23.8,8.2,23.8,8.2-9.8,8.2-23.8-4.3-23.8-8.2-23.8m0,50.3c-6.2,0-10.9-11.4-10.9-26.5s4.7-26.5,10.9-26.5,10.9,11.4,10.9,26.5-4.7,26.5-10.9,26.5"/></g></g></g></g></g></g></svg>