<svg id="Layer_1" xmlns="http://www.w3.org/2000/svg" viewBox="0 0 200 125"><style>.st0{fill:#282829}</style><path class="st0" d="M78.3 80.5v-.9h7.4v.8c-1.7.3-1.8.4-1.8 2.2v16.9c0 .9.2 1.9.5 2.7.4 1.3 1.4 1.9 2.7 1.9 1.3 0 2.3-.7 2.7-2 .2-.8.4-1.6.4-2.4V82.5c0-1.6-.3-1.9-1.9-2v-.9H100.4c.7 0 1.4.1 2.1.2 2.8.6 4.4 2.5 4.6 5.4.2 2.9-1.1 5.2-3.7 6.3-.5.2-1.1.4-1.7.6.5.2 1 .3 1.5.5 1.6.8 2.5 2 2.6 3.8l.3 5.7c0 .2 0 .5.1.6.2.2.4.5.6.5.2 0 .5-.3.6-.6.1-.3.1-.6.1-.9v-1.5h1.2c-.1 1.1-.2 2.1-.4 3.1-.3 1.2-1.2 1.8-2.3 1.8-1.4.1-2.3-.4-2.8-1.5-.3-.9-.5-1.9-.6-2.9-.2-1.8-.2-3.7-.3-5.5-.2-2.2-1-2.9-3.4-2.7V102.1c0 1.6.2 1.8 1.8 1.9.1 0 .2 0 .3.1 0 .2 0 .5.1.8h-7.8v-.7c.1-.1.1-.1.2-.1 1.8-.1 2-.3 2-2.1V82.3c0-1.5-.4-1.8-1.8-1.8-2.1-.1-2.2.8-2.2 2.3v16.7c0 1-.2 2-.4 3-.5 1.8-1.9 2.8-3.7 2.8-.9 0-1.8 0-2.7-.2-2.6-.6-4.1-2.7-4.1-5.5v-16-.9c-.3-1.9-.4-2-2.3-2.2zm20.6 10.9c2.3.3 3.7-.5 4.2-2.7.4-1.7.5-3.5.1-5.3-.5-2.1-2.2-3.1-4.3-2.6v10.6zM129.7 104.3h.7c.9-.1 1.3-.5 1.1-1.5-.2-1.2-.4-2.5-.7-3.7h-4.4c-.2 1.2-.5 2.5-.7 3.7-.2 1.1.2 1.4 1.2 1.5h.4v.9h-5.4v-.8c1.8-.3 2-.5 2.4-2.4 1.4-7.3 2.8-14.6 4.2-21.8 0-.2.1-.4.2-.6.1 0 .1-.1.2-.1 1.4-.1 1.4-.1 1.7 1.3 1.4 7.2 2.9 14.5 4.3 21.7.3 1.4 1 2 2.3 1.8.8-.1 1.2-.5 1.2-1.2v-1.9-18.1c0-2.2 0-2.2-2.1-2.5v-.8h7.5v.9h-.6c-.9 0-1.3.4-1.3 1.3v22.1c2.9.5 4.6-.1 5.5-2.9.4-1.1.5-2.3.6-3.4.1-.4 0-.8 0-1.2h.9v8.7h-19.5c.3-.5.3-.7.3-1zm.9-6.5c-.6-3.7-1.3-7.4-1.9-11h-.2c-.6 3.6-1.2 7.3-1.9 11h4zM63.9 74c.8 0 1.6.1 2.3 0 1.4-.1 2.5-.9 2.9-2.2.5-1.4.7-3 1-4.5.1-.3 0-.6 0-.9.3 0 .5 0 .8-.1v8.8H51.5v-.9h.4c1.3-.1 1.6-.5 1.4-1.7-.2-1-.3-2-.5-3 0-.2-.4-.5-.6-.5h-3.9c-.2 1.4-.5 2.8-.7 4.2-.1.5.2.9.8 1 .3.1.6.1.9.1v.9h-5.4c0-.3 0-.5-.1-.8.2 0 .3-.1.4-.1 1.2-.1 1.7-.5 1.9-1.7.5-2.3.9-4.5 1.3-6.8 1-5.3 2-10.5 3-15.8.1-.4.2-.6.7-.6h1.1c.3 1.3.5 2.6.8 4 1.2 6.3 2.5 12.5 3.7 18.8.1.5.2.9.5 1.4.4.8 1.2 1 2.2.8.8-.2.9-.8.9-1.6V52.4c0-1.3-.3-1.5-2-1.6 0-.1-.1-.3-.1-.4V50h7.5v.9h-.8c-.7.1-1.1.4-1.1 1.1V73.7c0-.2.1 0 .1.3zm-11.6-6.3c-.6-3.8-1.3-7.4-1.9-11.1h-.1c-.6 3.7-1.2 7.3-1.9 11.1h3.9zM33.1 75.3h-1.4c-.6-3-1.2-6.1-1.8-9.1-.9-4.6-1.8-9.3-2.8-13.9-.3-1.4-.6-1.6-2.1-1.8 0-.1-.1-.3-.1-.4 0-.1 0-.3.1-.4h6.8v.8c-1.4.4-1.5.6-1.3 2 .9 4.9 1.8 9.9 2.8 14.8 0 .1.1.2.2.4.6-3.4 1.3-6.6 1.8-9.9.1-.8-.2-1.7-.4-2.6l-.6-3c-.2-.9-.5-1.7-1.7-1.6v-.9h6.8v.9c-.2 0-.3 0-.5.1-.9.1-1.2.4-1.1 1.3.2 1.3.4 2.6.7 3.9.7 3.8 1.5 7.6 2.2 11.3 0 .1 0 .1.2.4.3-1.4.5-2.7.7-3.9.7-3.6 1.3-7.2 2-10.8.3-1.7 0-2.1-1.7-2.3v-.8h5.7v.8c-1.9.3-2.1.6-2.5 2.5l-4.5 21.6c0 .2-.1.5-.2.7h-.7c-.6.1-.8-.1-.9-.7-.9-4.6-1.8-9.1-2.9-13.7-.8 4.7-1.8 9.5-2.8 14.3zM99.3 20.4v-.8h7.6v.8c-.1 0-.1.1-.1.1-1.7.1-1.9.3-1.9 2V42c0 1.9.1 2 2 2.2v.9h-7.5v-.8c.1 0 .1-.1.1-.1 1.6-.1 1.9-.4 1.9-2v-8.7-.8h-5.6V42c0 1.9.2 2.1 2 2.3v.4c0 .1 0 .3-.1.4h-7.6v-.8c2-.3 2-.3 2-2.4V22.7c0-1.9-.1-2-2-2.2v-.9h7.6v.8c-.1 0-.1.1-.2.1-1.7.1-1.9.4-1.9 2v8.7h5.6v-.8-7.7c.1-1.9 0-2-1.9-2.3zM125.5 74.3v.8h-7.7v-.8c.1 0 .1-.1.2-.1 1.7-.1 2-.4 2-2.1V52.9c0-2.1 0-2.2-2.1-2.5v-.8c.3 0 .5-.1.7-.1h6.5c.7 0 1.4.1 2.1.2 2.7.6 4.3 2.5 4.5 5 .3 3.3-.9 5.5-3.6 6.7-.5.2-1.1.4-1.7.6.5.2 1 .3 1.5.6 1.6.8 2.4 2.1 2.5 3.9.1 1.9.2 3.9.3 5.8 0 .2 0 .4.1.5.2.2.4.5.6.5.2 0 .6-.3.6-.5.1-.8.2-1.6.2-2.5h1.1c-.1 1.1-.2 2.2-.4 3.2-.3 1.1-1.1 1.6-2.2 1.7-1.2.1-2.3-.2-2.8-1.4-.4-.9-.6-1.8-.7-2.8-.2-1.8-.2-3.7-.3-5.5v-.2c-.2-2.2-1.1-2.9-3.4-2.7V72.2c0 1.6.2 1.8 1.8 1.8 0 .2.1.2.2.3zm-2-23.5v10.6c2.3.3 3.6-.5 4.2-2.6.5-1.6.5-3.3.2-5-.6-2.4-2-3.3-4.4-3zM78.4 92.4c-.1 3-.4 5.9-1.6 8.6-.4 1-1 1.9-1.7 2.7-2 2.3-5.2 2.3-7.2 0-1.6-1.9-2.3-4.1-2.7-6.5-.7-4-.6-8 .5-12 .4-1.5 1-2.9 2.1-4 2.1-2.4 5.4-2.3 7.4.1 1.4 1.6 2.1 3.6 2.4 5.6.5 1.8.6 3.7.8 5.5zm-4.1 0c0-2.1.1-4.3 0-6.4-.1-1.3-.2-2.6-.6-3.9-.3-1.1-1.1-1.5-2.2-1.5s-1.8.5-2.1 1.6c-.3.9-.5 1.8-.5 2.7v14.9c0 .9.2 1.9.5 2.8.3 1 1 1.6 2.1 1.6s1.9-.5 2.2-1.5c.3-.9.6-1.9.6-2.9v-7.4zM153 62.5v11.4c2.9.5 4.7 0 5.8-2.7.6-1.5.7-3.1 1.1-4.8h.6v8.7h-13v-.8c.1-.1.1-.1.2-.1 1.7-.1 1.9-.3 1.9-2.1V52.3c0-1.5-.3-1.8-1.8-1.8h-.3v-.9h13v8.7h-.7c-.2-1.3-.2-2.6-.5-3.8-.4-1.8-1.2-3.4-3.2-3.8-.9-.2-1.9 0-3 0v10.4c1.2.2 2-.1 2.4-1.2.3-.9.4-1.8.5-2.7v-.9h.8v11h-.7c-.2-1.1-.3-2.2-.5-3.2-.5-1.2-1.2-1.7-2.6-1.6zM120.9 19.6v8.7c-.2 0-.5 0-.7.1 0-.1-.1-.2-.1-.3-.2-1.4-.3-2.8-.6-4.2-.6-2.3-2-3.2-4.3-3.2h-1.7v10.5c1.2.2 1.9-.1 2.3-1.2.3-.9.4-1.8.5-2.7.1-.3 0-.6.1-.9h.8v11c-.7.3-.8 0-.9-.6-.1-1-.2-2-.5-3-.4-1.1-1.1-1.4-2.3-1.2V44c3.3.5 5.4-.3 6.3-4.5.2-1 .2-1.9.4-3 .2 0 .4 0 .7-.1v8.7h-13v-.7c.1-.1.1-.1.2-.1 1.7-.2 1.9-.3 1.9-2.1V22.9c0-2 0-2.1-2-2.4v-.8c4.1-.1 8.5-.1 12.9-.1zM139 61.2c1.4.2 2.1-.3 2.5-1.6.3-1 .4-2.1.6-3.3h.7v11h-.7c-.1-1-.2-2-.4-2.9-.3-1.6-1.2-2.1-2.6-2v11.4c2.9.5 4.8 0 5.9-3 .5-1.4.6-2.9 1-4.5h.6V75h-13v-.8c.1-.1.1-.1.2-.1 1.7-.1 1.9-.3 1.9-2.1V52.5c0-1.8-.2-2-2-2.1v-.9h13v8.7h-.7c0-.1 0-.2-.1-.3-.2-1.4-.2-2.8-.6-4.1-.6-2.3-1.9-3.2-4.4-3.2h-1.6c-.3 3.6-.3 7.1-.3 10.6z"/><path class="st0" d="M118.1 80.5v-.9h5.3v.8c-1.8.3-2.1.6-2.1 2.5V105c-.8.3-1.3.1-1.6-.8-2.4-6.2-4.9-12.4-7.4-18.6-.1-.1-.1-.3-.3-.6 0 .4-.1.6-.1.7v16.1c0 1.7.3 2.1 2 2.3v.8h-5.3v-.8h.6c.9 0 1.4-.4 1.6-1.3.1-.3.1-.6.1-1V82.4v-.8c-.1-.8-.5-1.2-1.4-1.2h-.8v-.9h4.7c.2 0 .4.4.5.7 1.9 4.7 3.7 9.4 5.6 14.2.2.4.3.8.6 1.2v-.7-12.4c0-1.5-.3-1.8-2-2zM89.6 19.6v8.7h-.7c-.2-1.1-.2-2.3-.5-3.3-.3-1.2-.8-2.3-1.4-3.4-.5-.9-1.3-1.2-2.4-1v20.9c0 2.2 0 2.2 2.2 2.6v.8H79V44h.7c.9-.1 1.3-.5 1.3-1.4v-22l-.1-.1c-1-.3-1.7.2-2.3.9-1.1 1.5-1.4 3.2-1.6 4.9-.1.6-.1 1.1-.1 1.7h-.8v-8.7c4.6.3 9 .3 13.5.3zM172.2 74.3v.9h-7.8v-.8c.1 0 .1-.1.1-.1 1.8-.1 2-.3 2-2.1V51.8v-1c-1.1-.3-1.8.2-2.4 1-.9 1.3-1.3 2.8-1.5 4.3-.1.8-.1 1.5-.2 2.3h-.7v-8.7h13.4v8.7h-.6c-.3-1.5-.4-2.9-.8-4.3-.2-.9-.7-1.7-1.2-2.5s-1.3-1.1-2.3-.9v21.2c-.2 2.1-.1 2.2 2 2.4zM106.2 75.1v-.8c.1 0 .1-.1.2-.1 1.7-.1 2-.3 2-2.1V51.5v-.8c-1.2-.3-1.9.3-2.5 1.1-1.1 1.6-1.4 3.5-1.6 5.5v1c-.3 0-.5.1-.8.1v-8.8h13.3v8.7c-.2 0-.4 0-.7.1 0-.2-.1-.3-.1-.4-.3-1.6-.5-3.2-.9-4.7-.2-.6-.6-1.2-1-1.8-.5-.7-1.3-.9-2.2-.7V71.9c0 2.1.1 2.1 2.1 2.4v.8h-7.8zM100.7 50.8c.5-.3.3-1.3 1.3-1.1v8.7h-.7c-.2-1.3-.2-2.7-.5-4-.3-1-.8-2-1.4-2.9-.8-1-2.1-1.3-3.3-.9-1.3.4-1.7 1.4-1.8 2.5-.2 1.6.3 3.1 1.5 4.2.8.8 1.8 1.6 2.7 2.3 2 1.6 3.8 3.3 4.5 5.8.6 1.9.7 3.9.1 5.8-.7 2.3-2.5 3.8-5 3.9-1.9.1-3.6-.3-5.1-1.4-.6.3-.3 1.4-1.3 1.2v-8.7c.2 0 .5 0 .7-.1 0 .3.1.5.1.7.1 1.8.3 3.5 1.3 5 .9 1.4 2.1 2.2 3.8 2.1 1.6-.1 2.6-1 2.9-2.5.5-2.6-.3-4.8-2.1-6.6-.8-.8-1.7-1.6-2.7-2.3-1.9-1.5-3.7-3.3-4.1-5.8-.2-1.3-.2-2.6.1-3.9.9-3.5 5.1-4.8 8.2-2.8.3.4.5.6.8.8zM57.4 80.5v-.9H65v.8c-.1.1-.1.1-.2.1-1.8.2-1.9.3-1.9 2.1v17c0 .7 0 1.3-.2 2-.5 2.2-2 3.3-4.2 3.7-3.8.6-6.8-2.7-5.8-6.4.3-1.1 1.2-1.8 2.2-1.8.9.1 1.4.6 1.6 1.5.2 1.3-.3 2.2-1.4 2.6-.2.1-.4.1-.6.2 0 1.8 1.5 3.1 3.3 2.8.8-.2 1.4-.7 1.5-1.7.1-.7.2-1.4.2-2.1V82.8c-.1-1.9-.3-2.1-2.1-2.3zM77.3 74c.8 0 1.5.1 2.3 0 1.4-.1 2.3-1 2.9-2.2.8-1.5.9-3.1 1-4.7v-.7c.2 0 .5 0 .8-.1V75H71.5v-.8c.1 0 .2-.1.2-.1 1.8-.1 2.1-.3 2.1-2.1V52.2c0-1.4-.3-1.7-1.7-1.8h-.4v-.8h7.6v.8h-.5c-1 0-1.4.4-1.4 1.3v22c-.2.2-.2.2-.1.3zM152.2 105.4c-.8 0-1.5-.9-1.4-1.8 0-.9.7-1.7 1.5-1.6.8 0 1.4.8 1.4 1.7 0 .9-.7 1.7-1.5 1.7z"/></svg>