<?xml version="1.0" encoding="utf-8"?>
<!-- Generator: Adobe Illustrator 21.1.0, SVG Export Plug-In . SVG Version: 6.00 Build 0)  -->
<svg version="1.1" id="Layer_1" xmlns="http://www.w3.org/2000/svg" xmlns:xlink="http://www.w3.org/1999/xlink" x="0px" y="0px"
	 viewBox="0 0 300 100" style="enable-background:new 0 0 300 100;" xml:space="preserve">
<style type="text/css">
	.st0{fill:#FFFFFF;}
	.st1{fill:#FFFFFF;stroke:#FFFFFF;stroke-width:0.25;stroke-miterlimit:10;}
</style>
<g>
	<g>
		<g>
			<path d="M71.7,51.3c0.1,7.4,0.2,15.2,0.3,23c0,2.4,0.1,4.8,0.1,7.2c0,1.1-0.3,1.5-1.4,1.5c-0.2,0-0.3,0-0.5,0
				c-4.4,0-8.9,0-13.3,0c-0.2,0-0.4,0-0.6,0c-0.9,0.1-1.4-0.4-1.4-1.2c0-0.5,0-1,0-1.6c0-2.7,0.1-5.4,0.1-8.1c0-0.9-0.3-1.3-1.2-1.3
				c-3.1,0-6.1,0-9.2,0c-3.4,0-6.8,0-10.1,0c-0.9,0-1.4,0.5-1.8,1.1c-0.8,1-1.6,2-2.4,3c-0.8,0.9-1.5,1.9-2.3,2.8
				c-0.8,1.1-1.7,2.1-2.5,3.2c-0.5,0.6-0.9,1.1-1.4,1.6c-0.3,0.4-0.8,0.5-1.3,0.5c-5.9,0-11.9,0.1-17.8,0.1c-0.5,0-1,0-1.5,0
				c-0.7,0-0.8-0.4-0.7-1c0.2-0.9,1-1.4,1.5-2.1c0.8-1,1.6-2,2.5-3c0.8-0.9,1.6-1.9,2.4-2.8c1.5-1.8,3-3.7,4.5-5.5
				c1.1-1.3,2.2-2.5,3.2-3.8c0.4-0.4,0.7-0.9,1.1-1.4c0.9-1.1,1.9-2.3,2.8-3.4c1-1.3,2-2.5,3.1-3.8c0.8-1,1.7-2,2.5-3
				c0.4-0.5,0.7-1,1.1-1.4c0.9-1.1,1.8-2.2,2.7-3.3c1.3-1.5,2.6-3,3.8-4.6c0.8-0.9,1.5-1.9,2.2-2.9c0.4-0.4,0.7-0.9,1.1-1.3
				c1.4-1.7,2.8-3.4,4.2-5.1c1.1-1.4,2.2-2.7,3.3-4.1c0.7-0.9,1.4-1.7,2.1-2.5c0.8-1,1.6-2,2.4-3c0.7-0.9,1.4-1.8,2.1-2.7
				c0.8-1,1.7-2,2.5-3c0.3-0.4,0.7-0.6,1.1-0.6c5.3,0,10.5,0,15.8,0c0.8,0,1.1,0.3,1.1,1.2c0,1.6,0,3.1-0.1,4.7
				C71.9,33.6,71.8,42.2,71.7,51.3z M55.2,49.9C55.2,49.9,55.2,49.9,55.2,49.9c0-1.4,0-2.8,0-4.2c0-0.2,0-0.5-0.1-0.7
				c-0.1-0.3-0.4-0.4-0.7-0.3c-0.2,0.1-0.3,0.2-0.4,0.3c-0.8,1-1.7,2-2.5,3.1c-1.1,1.4-2.2,2.8-3.3,4.2c-0.4,0.5-0.8,1-1.3,1.5
				c-0.3,0.3-0.5,0.5-0.4,0.9c0.1,0.4,0.5,0.4,0.9,0.5c0.1,0,0.2,0,0.3,0c0.7,0,1.3,0,2,0c1.4,0,2.8,0,4.3,0c1,0,1.3-0.3,1.2-1.2
				C55.2,52.6,55.2,51.2,55.2,49.9z"/>
		</g>
		<g>
			<path class="st0" d="M4,83.5c-0.2,0-0.3,0-0.5,0c-0.4,0-0.6-0.1-0.7-0.3c-0.1-0.2-0.2-0.5-0.1-0.9c0.2-0.7,0.6-1.1,1-1.6
				c0.2-0.2,0.3-0.4,0.5-0.6c0.6-0.8,1.3-1.6,1.9-2.3c0.2-0.2,0.4-0.5,0.6-0.7c0.3-0.4,0.7-0.8,1-1.2c0.4-0.5,0.9-1,1.3-1.6
				c0.6-0.7,1.2-1.5,1.8-2.2c0.9-1.1,1.8-2.2,2.7-3.3c0.6-0.8,1.3-1.5,2-2.3c0.4-0.5,0.9-1,1.3-1.5c0.2-0.3,0.5-0.6,0.7-0.8
				c0.1-0.2,0.3-0.4,0.4-0.5c0.4-0.5,0.8-1,1.2-1.5c0.5-0.7,1.1-1.3,1.6-2c0.4-0.5,0.8-1,1.2-1.5c0.6-0.8,1.2-1.5,1.9-2.3
				c0.4-0.5,0.9-1.1,1.3-1.6c0.4-0.5,0.8-0.9,1.2-1.4c0.2-0.3,0.4-0.5,0.6-0.8c0.2-0.2,0.3-0.4,0.5-0.7c1.1-1.3,1.9-2.4,2.7-3.3
				c0.5-0.6,1-1.2,1.5-1.8c0.8-0.9,1.6-1.9,2.3-2.8c0.4-0.5,0.9-1.1,1.3-1.7c0.3-0.4,0.6-0.8,0.9-1.2c0.2-0.3,0.4-0.5,0.6-0.8
				c0.2-0.2,0.3-0.4,0.5-0.5l0.9-1.1c1.1-1.3,2.2-2.6,3.3-4c0.6-0.7,1.2-1.5,1.8-2.2c0.5-0.6,1-1.3,1.5-1.9c0.4-0.5,0.8-0.9,1.2-1.4
				c0.3-0.4,0.6-0.8,1-1.1c0.8-1,1.6-2,2.4-3c0.3-0.4,0.6-0.7,0.9-1.1c0.4-0.5,0.8-1.1,1.3-1.6c0.3-0.4,0.7-0.8,1-1.3
				c0.5-0.6,1-1.2,1.4-1.8c0.3-0.4,0.7-0.6,1.2-0.6c0,0,0,0,0,0l4.8,0c3.7,0,7.3,0,11,0c0.4,0,0.7,0.1,0.9,0.3
				c0.2,0.2,0.3,0.5,0.3,1c0,1,0,2,0,3l0,1.7l-0.3,26.3l0.1,5.9c0.1,5.6,0.1,11.4,0.2,17.1c0,1.1,0,2.2,0,3.3c0,1.3,0,2.6,0.1,4
				c0,1.2-0.4,1.6-1.5,1.6l-0.1,0c-0.1,0-0.3,0-0.4,0l-13.3,0c-0.1,0-0.3,0-0.4,0l-0.2,0c-0.5,0-0.9-0.1-1.1-0.3
				c-0.3-0.2-0.4-0.6-0.4-1c0-0.4,0-0.8,0-1.2l0-0.4l0.1-8.1c0-0.5-0.1-0.7-0.2-0.9c-0.2-0.2-0.4-0.2-0.9-0.2c-2.4,0-4.7,0-7.1,0
				l-4.9,0c-2.4,0-4.8,0-7.2,0c0,0,0,0,0,0c-0.8,0-1.2,0.5-1.7,1.1c-0.8,1-1.6,2-2.4,3c-0.5,0.6-1,1.2-1.5,1.9l-1.4,1.8
				c-0.6,0.8-1.2,1.5-1.8,2.3c-0.5,0.6-1,1.2-1.4,1.7c-0.3,0.4-0.8,0.5-1.3,0.5c-5.9,0-11.8,0.1-17.8,0.1c-0.2,0-0.3,0-0.5,0
				C4.4,83.5,4.2,83.5,4,83.5z M55.2,19.2c-0.4,0-0.7,0.2-1,0.5c-0.5,0.6-1,1.2-1.4,1.8c-0.3,0.4-0.7,0.8-1,1.2
				c-0.4,0.5-0.8,1.1-1.3,1.6c-0.3,0.4-0.6,0.8-0.9,1.1c-0.8,1-1.6,2-2.4,3c-0.3,0.4-0.6,0.8-1,1.1c-0.4,0.5-0.8,0.9-1.2,1.4
				c-0.5,0.6-1,1.3-1.5,1.9c-0.6,0.7-1.2,1.5-1.8,2.2c-1.1,1.3-2.2,2.7-3.3,4l-0.9,1.1c-0.1,0.2-0.3,0.4-0.5,0.5
				c-0.2,0.2-0.4,0.5-0.6,0.8c-0.3,0.4-0.6,0.8-0.9,1.2c-0.4,0.6-0.9,1.1-1.3,1.7c-0.8,0.9-1.6,1.9-2.3,2.8c-0.5,0.6-1,1.2-1.5,1.8
				c-0.8,1-1.7,2-2.7,3.3c-0.2,0.2-0.3,0.4-0.5,0.7c-0.2,0.3-0.4,0.5-0.6,0.8c-0.4,0.5-0.8,0.9-1.2,1.4c-0.5,0.5-0.9,1.1-1.3,1.6
				c-0.6,0.8-1.2,1.5-1.9,2.3c-0.4,0.5-0.8,1-1.2,1.5c-0.5,0.7-1.1,1.3-1.6,2c-0.4,0.5-0.8,1-1.2,1.5c-0.1,0.2-0.3,0.3-0.4,0.5
				c-0.2,0.3-0.4,0.6-0.7,0.8c-0.4,0.5-0.8,1-1.3,1.5c-0.6,0.7-1.3,1.5-2,2.3c-0.9,1.1-1.8,2.2-2.7,3.3c-0.6,0.7-1.2,1.5-1.8,2.2
				C8.9,75,8.4,75.5,8,76c-0.4,0.4-0.7,0.8-1,1.2c-0.2,0.2-0.4,0.5-0.6,0.7c-0.6,0.7-1.3,1.5-1.9,2.3c-0.2,0.2-0.3,0.4-0.5,0.6
				c-0.4,0.4-0.8,0.9-1,1.5c-0.1,0.3-0.1,0.5,0,0.6c0.1,0.1,0.3,0.2,0.5,0.2c0.3,0,0.7,0,1,0c0.2,0,0.3,0,0.5,0
				c5.9,0,11.9-0.1,17.8-0.1c0.5,0,0.9-0.2,1.2-0.5c0.4-0.5,1-1,1.4-1.6c0.6-0.8,1.2-1.5,1.8-2.3l1.4-1.8c0.5-0.6,1-1.3,1.5-1.9
				c0.8-1,1.6-2,2.4-3c0.5-0.6,1-1.2,1.9-1.2c0,0,0,0,0,0c2.4,0,4.9,0,7.2,0l4.9,0c2.4,0,4.7,0,7.1,0c0.5,0,0.8,0.1,1,0.3
				c0.2,0.2,0.3,0.5,0.3,1.1L55,80.7c0,0.4,0,0.8,0,1.2c0,0.4,0.1,0.7,0.3,0.9c0.2,0.2,0.5,0.3,0.9,0.3l0.2,0c0.1,0,0.3,0,0.4,0
				l13.3,0c0.1,0,0.2,0,0.4,0l0.1,0c1-0.1,1.3-0.4,1.3-1.4c0-1.3,0-2.6-0.1-4c0-1.1,0-2.2,0-3.3c-0.1-5.8-0.1-11.5-0.2-17.1
				l-0.1-5.9l0.4-28c0-1,0-2,0-3c0-0.4-0.1-0.7-0.2-0.8c-0.1-0.2-0.4-0.2-0.8-0.2c-3.7,0-7.3,0-11,0L55.2,19.2
				C55.2,19.2,55.2,19.2,55.2,19.2z M47.6,55.3c0,0-0.1,0-0.1,0l-0.1,0c-0.3,0-0.8-0.1-0.9-0.5c-0.2-0.5,0.1-0.7,0.4-1l0,0
				c0.4-0.5,0.9-1,1.2-1.5c0.5-0.7,1.1-1.4,1.6-2c0.6-0.7,1.1-1.4,1.7-2.1c0.8-1,1.6-2,2.4-2.9l0.1-0.2c0.1-0.2,0.3-0.3,0.4-0.4
				c0.2-0.1,0.4-0.1,0.6-0.1c0.2,0.1,0.3,0.2,0.3,0.4c0.1,0.2,0.1,0.4,0.1,0.7c0,1,0,2.1,0,3.1l0,2.3c0,0.9,0,1.9,0,2.8
				c0,1-0.4,1.3-1.4,1.4c-0.9,0-1.8,0-2.7,0c-0.5,0-1,0-1.6,0c-0.4,0-0.8,0-1.3,0l-0.7,0C47.6,55.3,47.6,55.3,47.6,55.3z M54.7,44.8
				c-0.1,0-0.1,0-0.2,0.1c-0.1,0.1-0.2,0.2-0.4,0.3l-0.1,0.2c-0.8,1-1.6,1.9-2.4,2.9c-0.6,0.7-1.1,1.4-1.7,2.1
				c-0.5,0.7-1.1,1.4-1.6,2c-0.4,0.5-0.8,1-1.3,1.5l0,0c-0.3,0.3-0.4,0.5-0.3,0.8c0.1,0.3,0.4,0.3,0.7,0.4l0.1,0c0.1,0,0.1,0,0.2,0
				l0.7,0c0.4,0,0.8,0,1.3,0c0.5,0,1.1,0,1.6,0c0.9,0,1.8,0,2.7,0c0.9,0,1.1-0.3,1.1-1.1c0-1,0-1.9,0-2.8l0-2.3c0-1,0-2.1,0-3.1
				c0-0.3,0-0.5-0.1-0.7c0-0.1-0.1-0.2-0.2-0.2C54.8,44.8,54.7,44.8,54.7,44.8z"/>
		</g>
	</g>
	<g>
		<g>
			<path d="M233.5,84.5c-1.4-0.1-2.8-0.2-4.2-0.3c-0.4,0-0.7-0.1-1.1-0.2c-0.8-0.2-1.7-0.4-2.5-0.6c-0.3-0.1-0.6-0.2-1-0.3
				c-0.4-0.2-0.8-0.3-1.2-0.5c-0.4-0.2-0.8-0.4-1.2-0.6c-0.1-0.1-0.2-0.2-0.3-0.2c-0.8-0.4-1.6-0.8-2.4-1.2
				c-0.6-0.4-1.2-0.9-1.8-1.3c-1.6-1.4-3.1-2.8-4.5-4.5c-0.6-0.8-1.1-1.6-1.6-2.5c-0.5-0.8-0.9-1.6-1.4-2.5
				c-0.1-0.2-0.2-0.3-0.2-0.5c-0.4-1.5-1.1-3-1.3-4.6c-0.2-1.8-0.7-3.6-0.5-5.4c0.1-1,0.2-2,0.4-2.9c0.1-0.9,0.3-1.7,0.4-2.6
				c0,0,0,0,0,0c0.6-1.3,0.8-2.7,1.5-3.9c0.4-0.7,0.7-1.5,1.1-2.2c1.2-2.1,2.6-3.9,4.3-5.5c1-0.9,2.1-1.7,3.3-2.4
				c0.7-0.5,1.5-1,2.3-1.5c0,0,0,0,0,0c1-0.4,2-0.9,3-1.2c0.9-0.3,1.8-0.6,2.8-0.8c0.9-0.2,1.8-0.4,2.8-0.5c1.1-0.1,2.3-0.2,3.4-0.2
				c1,0,1.9,0.1,2.9,0.2c0.1,0,0.1,0,0.2,0c1.7,0.6,3.5,0.6,5.2,1.2c1,0.4,2.1,0.9,3.1,1.4c1.7,0.9,3.4,1.8,4.7,3.2
				c0.6,0.6,1.4,1.2,2,1.8c1,1.1,2,2.1,2.7,3.4c0.4,0.7,0.9,1.4,1.4,2.1c0,0,0,0,0,0.1c0.4,1,0.8,2,1.2,3.1c0.2,0.4,0.2,0.9,0.4,1.3
				c0.4,1.1,0.5,2.3,0.6,3.4c0.1,1.1,0.2,2.2,0.3,3.3c0.1,2-0.2,4-0.6,6c-0.2,1.3-0.6,2.6-1.3,3.8c-0.1,0.1-0.1,0.2-0.2,0.3
				c-0.8,2.2-2.2,4-3.6,5.8c-1.1,1.3-2.3,2.4-3.6,3.5c-0.7,0.5-1.5,1-2.2,1.5c-0.8,0.5-1.6,0.9-2.4,1.4c-0.1,0-0.1,0.1-0.2,0.1
				c-1.4,0.3-2.5,1.2-4,1.3c-0.4,0-0.7,0.1-1.1,0.3c-1.3,0.5-2.7,0.5-4.1,0.6C234.6,84.5,234,84.4,233.5,84.5
				C233.5,84.4,233.5,84.5,233.5,84.5z M233.2,71.3c1.1-0.1,1.9-0.1,2.8-0.2c1,0,1.8-0.5,2.6-0.9c0.8-0.4,1.6-0.8,2.2-1.4
				c0.9-0.8,1.9-1.6,2.5-2.8c0.5-1,0.9-1.9,1.4-2.9c0.1-0.2,0.1-0.4,0.1-0.6c0.2-1.5,0.3-2.9,0.1-4.4c-0.1-1.4-0.8-2.7-1.4-3.9
				c-0.5-1.1-1.4-1.9-2.3-2.7c-0.9-0.9-1.9-1.7-3.1-2.1c-1.1-0.4-2.3-0.9-3.5-0.9c-0.7,0-1.3-0.1-2,0c-0.4,0-0.8,0.1-1.2,0.1
				c-0.5,0.1-0.9,0.2-1.3,0.3c-0.4,0.1-0.8,0.2-1.1,0.4c-0.9,0.4-1.7,0.9-2.6,1.4c-0.5,0.3-0.9,0.7-1.3,1.1
				c-0.6,0.6-1.1,1.2-1.5,1.9c-0.5,0.9-1,1.8-1.3,2.7c-0.4,1.3-0.4,2.7-0.3,4c0,1.5,0,3,0.9,4.4c0,0.1,0.1,0.1,0.1,0.2
				c0.3,0.9,0.9,1.7,1.6,2.4c0.8,0.9,1.7,1.7,2.8,2.3c1,0.5,1.9,1,2.9,1.3C231.3,71.2,232.4,71.2,233.2,71.3z"/>
		</g>
		<g>
			<path class="st0" d="M233.6,84.6l-1.3-0.1c-1-0.1-2.1-0.1-3.1-0.2c-0.3,0-0.5-0.1-0.8-0.2c-0.1,0-0.2-0.1-0.3-0.1l-0.5-0.1
				c-0.7-0.1-1.3-0.3-2-0.5c-0.3-0.1-0.5-0.2-0.8-0.3l-0.4-0.1c-0.3-0.1-0.7-0.3-1-0.4c-0.3-0.2-0.7-0.3-1-0.5l-0.2-0.1
				c-0.1,0-0.1-0.1-0.2-0.1c-0.1,0-0.1-0.1-0.2-0.1c-0.3-0.1-0.5-0.3-0.8-0.4c-0.5-0.3-1.1-0.5-1.6-0.9c-0.7-0.4-1.3-0.9-1.8-1.3
				c-1.8-1.5-3.2-3-4.5-4.5c-0.5-0.7-1-1.5-1.4-2.2l-0.2-0.3c-0.4-0.6-0.7-1.2-1-1.8c-0.1-0.2-0.2-0.4-0.4-0.6l0,0
				c-0.1-0.2-0.2-0.3-0.2-0.5c-0.1-0.6-0.3-1.1-0.5-1.6c-0.3-1-0.6-1.9-0.8-3c-0.1-0.5-0.1-1.1-0.2-1.6c-0.2-1.2-0.4-2.5-0.3-3.8
				c0.1-1,0.2-2,0.3-2.9c0.1-0.6,0.2-1.2,0.3-1.8c0-0.3,0.1-0.5,0.1-0.8c0,0,0,0,0-0.1c0.2-0.5,0.4-1,0.5-1.6c0.2-0.8,0.5-1.6,1-2.3
				c0.2-0.4,0.4-0.8,0.6-1.2c0.2-0.3,0.3-0.7,0.5-1c1.2-2.1,2.7-4,4.4-5.5c0.8-0.8,1.8-1.4,2.7-2.1l0.5-0.4c0.5-0.4,1.1-0.7,1.6-1
				c0.2-0.1,0.5-0.3,0.7-0.4c0,0,0,0,0.1,0c0.3-0.1,0.6-0.2,0.9-0.4c0.7-0.3,1.4-0.6,2.1-0.8c0.9-0.3,1.8-0.6,2.8-0.9
				c1.1-0.3,2-0.5,2.8-0.5c1.1-0.1,2.3-0.2,3.4-0.2c0.7,0,1.4,0,2,0.1c0.3,0,0.6,0,0.9,0.1c0,0,0,0,0.1,0c0,0,0.1,0,0.2,0
				c0.8,0.3,1.6,0.4,2.4,0.5c0.9,0.2,1.9,0.3,2.8,0.7c0.9,0.4,2.1,0.8,3.1,1.4c1.9,1,3.4,1.9,4.7,3.2c0.3,0.3,0.6,0.6,0.9,0.8
				c0.4,0.3,0.8,0.6,1.1,1l0.3,0.3c0.9,1,1.8,2,2.5,3.2c0.3,0.5,0.6,1,0.9,1.4c0.1,0.2,0.3,0.4,0.4,0.6c0,0,0,0.1,0.1,0.1l0.3,0.8
				c0.3,0.7,0.6,1.5,0.9,2.3c0.1,0.2,0.1,0.4,0.2,0.6c0.1,0.2,0.1,0.4,0.2,0.6c0.4,1,0.5,2.1,0.6,3.2l0,0.3c0.1,1.3,0.2,2.3,0.3,3.3
				c0.1,2.1-0.2,4.1-0.6,6c-0.3,1.5-0.7,2.8-1.3,3.9c-0.1,0.1-0.1,0.2-0.1,0.3c-0.8,2.2-2.1,3.9-3.7,5.8c-1,1.2-2.2,2.3-3.6,3.5
				c-0.7,0.6-1.5,1-2.2,1.5c-0.5,0.3-1.1,0.7-1.6,1c-0.2,0.1-0.5,0.3-0.7,0.4c0,0,0,0,0,0c0,0-0.1,0.1-0.2,0.1
				c-0.6,0.1-1.2,0.4-1.7,0.6c-0.7,0.3-1.4,0.6-2.3,0.7c-0.4,0-0.7,0.1-1,0.3c-1.1,0.4-2.3,0.5-3.4,0.5c-0.2,0-0.5,0-0.7,0
				c-0.4,0-0.8,0-1.2,0C233.9,84.6,233.7,84.5,233.6,84.6L233.6,84.6z M233.7,35.5c0,0-0.1,0-0.1,0c-1.1,0-2.3,0.1-3.4,0.2
				c-0.8,0.1-1.6,0.3-2.7,0.5c-1,0.2-1.9,0.5-2.8,0.8c-0.7,0.3-1.4,0.6-2.1,0.8c-0.3,0.1-0.6,0.3-0.9,0.4c-0.3,0.2-0.5,0.3-0.7,0.5
				c-0.5,0.3-1.1,0.7-1.6,1l-0.5,0.4c-0.9,0.6-1.9,1.3-2.7,2c-1.7,1.5-3.1,3.3-4.3,5.5c-0.2,0.3-0.3,0.6-0.5,1
				c-0.2,0.4-0.4,0.8-0.6,1.2c-0.4,0.7-0.7,1.5-0.9,2.3c-0.2,0.5-0.3,1.1-0.6,1.6c0,0.3-0.1,0.5-0.1,0.8c-0.1,0.6-0.2,1.2-0.3,1.8
				c-0.1,1-0.3,1.9-0.3,2.9c-0.1,1.3,0.1,2.5,0.3,3.8c0.1,0.5,0.2,1.1,0.2,1.6c0.1,1,0.4,2,0.7,2.9c0.2,0.5,0.4,1.1,0.5,1.7
				c0,0.1,0.1,0.3,0.2,0.4l0,0c0.1,0.2,0.2,0.4,0.4,0.6c0.3,0.6,0.7,1.2,1,1.8l0.2,0.3c0.4,0.7,0.9,1.5,1.4,2.2
				c1.2,1.5,2.7,3,4.4,4.5c0.5,0.5,1.1,0.9,1.8,1.3c0.5,0.3,1.1,0.6,1.6,0.9c0.3,0.1,0.5,0.3,0.8,0.4c0.1,0,0.1,0.1,0.2,0.1
				c0.1,0,0.1,0.1,0.2,0.1l0.2,0.1c0.3,0.2,0.6,0.3,1,0.5c0.3,0.1,0.7,0.3,1,0.4l0.4,0.1c0.2,0.1,0.5,0.2,0.8,0.3
				c0.7,0.2,1.3,0.3,2,0.5l0.5,0.1c0.1,0,0.2,0.1,0.3,0.1c0.3,0.1,0.5,0.1,0.8,0.2c1,0.1,2.1,0.1,3.1,0.2l1,0.1l0-0.1h0.1
				c0.2,0,0.4,0,0.5,0c0.4,0,0.8,0,1.2,0c0.2,0,0.5,0,0.7,0c1.1-0.1,2.3-0.1,3.3-0.5c0.4-0.1,0.7-0.3,1.1-0.3c0.8,0,1.5-0.4,2.2-0.7
				c0.6-0.3,1.2-0.5,1.8-0.6c0,0,0,0,0.1,0c0,0,0,0,0.1,0c0.2-0.1,0.5-0.3,0.7-0.4c0.5-0.3,1.1-0.6,1.6-1c0.7-0.5,1.5-0.9,2.2-1.5
				c1.5-1.1,2.6-2.3,3.6-3.4c1.5-1.9,2.9-3.6,3.6-5.7c0-0.1,0.1-0.2,0.2-0.3c0.6-1,1-2.3,1.3-3.8c0.4-1.9,0.7-3.9,0.6-6
				c0-0.9-0.1-1.9-0.3-3.2l0-0.3c-0.1-1-0.2-2.1-0.6-3.1c-0.1-0.2-0.1-0.5-0.2-0.7c-0.1-0.2-0.1-0.4-0.2-0.6
				c-0.3-0.8-0.6-1.5-0.9-2.3l-0.3-0.8c0,0,0,0,0-0.1c-0.1-0.2-0.3-0.4-0.4-0.6c-0.3-0.5-0.7-1-0.9-1.5c-0.6-1.2-1.6-2.2-2.4-3.1
				l-0.3-0.3c-0.3-0.4-0.7-0.7-1.1-1c-0.3-0.3-0.6-0.5-0.9-0.8c-1.3-1.3-2.8-2.2-4.7-3.2c-1-0.5-2.1-1-3.1-1.4
				c-0.9-0.4-1.9-0.5-2.8-0.7c-0.8-0.1-1.6-0.3-2.4-0.6c0,0,0,0-0.1,0c0,0,0,0-0.1,0c-0.3,0-0.6,0-0.9-0.1
				C235,35.6,234.3,35.5,233.7,35.5z M233.2,71.4L233.2,71.4c-0.3,0-0.5,0-0.8-0.1c-0.7,0-1.5-0.1-2.2-0.3c-0.8-0.2-1.6-0.6-2.4-1
				c-0.2-0.1-0.4-0.2-0.5-0.3c-1.1-0.6-2-1.4-2.8-2.3c-0.6-0.7-1.3-1.4-1.6-2.4l0,0c0-0.1,0-0.1-0.1-0.1c-0.9-1.2-0.9-2.7-0.9-4
				l0-0.4c0-1.3-0.1-2.7,0.4-4.1c0.3-0.8,0.7-1.7,1.3-2.7c0.4-0.7,1-1.4,1.5-2c0.4-0.4,0.8-0.8,1.3-1.1c0.9-0.5,1.7-1,2.6-1.4
				c0.4-0.2,0.8-0.3,1.1-0.4c0.5-0.1,1-0.2,1.4-0.3c0.5-0.1,0.9-0.1,1.2-0.1c0.3,0,0.7,0,1,0c0.3,0,0.6,0,1,0c0,0,0,0,0,0
				c1,0,2,0.4,2.9,0.7c0.2,0.1,0.4,0.2,0.6,0.2c1.3,0.5,2.4,1.4,3.2,2.1c0.9,0.8,1.8,1.7,2.3,2.8c0.6,1.2,1.2,2.5,1.4,3.9
				c0.1,1.4,0.1,2.8-0.1,4.4c0,0,0,0.1,0,0.1c0,0.2,0,0.3-0.1,0.5c-0.5,1.1-1,2-1.4,2.9c-0.5,1-1.4,1.8-2.2,2.6l-0.3,0.2
				c-0.6,0.6-1.4,1-2.2,1.4l-0.2,0.1c-0.8,0.4-1.6,0.8-2.5,0.9c-0.6,0-1.1,0.1-1.8,0.1C234,71.4,233.6,71.4,233.2,71.4L233.2,71.4z
				 M232.8,48.6c0,0-0.1,0-0.1,0c-0.3,0-0.7,0-1.2,0.1c-0.4,0.1-0.9,0.2-1.3,0.3c-0.4,0.1-0.8,0.2-1.1,0.4c-0.8,0.4-1.7,0.9-2.6,1.4
				c-0.5,0.3-0.9,0.7-1.3,1.1c-0.5,0.6-1.1,1.2-1.5,1.9c-0.6,1-1,1.9-1.3,2.7c-0.4,1.3-0.4,2.7-0.3,4l0,0.4c0,1.4,0.1,2.7,0.9,3.9
				c0,0.1,0.1,0.1,0.1,0.2c0.3,1,0.9,1.7,1.6,2.3c0.8,0.8,1.6,1.7,2.7,2.2c0.2,0.1,0.4,0.2,0.5,0.3c0.8,0.4,1.5,0.8,2.4,1
				c0.7,0.2,1.5,0.2,2.2,0.3c0.3,0,0.5,0,0.8,0.1c0.4,0,0.7,0,1-0.1c0.6,0,1.2-0.1,1.8-0.1c0.9,0,1.6-0.4,2.4-0.8l0.2-0.1
				c0.8-0.4,1.6-0.8,2.2-1.4l0.3-0.2c0.8-0.7,1.7-1.5,2.2-2.5c0.4-0.9,0.9-1.8,1.4-2.9c0.1-0.1,0.1-0.2,0.1-0.4c0,0,0-0.1,0-0.1
				c0.2-1.6,0.3-3,0.1-4.3c-0.1-1.4-0.7-2.6-1.4-3.8c-0.5-1.1-1.4-1.9-2.3-2.7c-0.8-0.7-1.8-1.6-3.1-2.1c-0.2-0.1-0.4-0.2-0.6-0.2
				c-0.9-0.3-1.8-0.7-2.8-0.7c0,0-0.1,0-0.1,0c-0.3,0-0.6,0-0.9,0C233.4,48.6,233.1,48.6,232.8,48.6z"/>
		</g>
	</g>
	<g>
		<g>
			<path d="M75.6,59.6c0-7,0-14,0-21c0-0.4,0-0.9-0.1-1.3c0-0.8,0.3-1.2,1.1-1.2c1.8,0,3.6,0,5.4,0c2.3,0,4.7-0.1,7,0
				c1.8,0,3.5,0.3,5.3,0.3c1.7,0,3.3,0.6,4.9,0.8c0.4,0.1,0.9,0.3,1.3,0.4c0.4,0.1,0.9,0.3,1.3,0.4c0.4,0.2,0.8,0.3,1.2,0.5
				c0.7,0.4,1.3,0.8,2,1.2c1.2,0.7,2.1,1.6,3,2.5c0.8,0.9,1.6,1.7,2.3,2.7c0.6,0.8,1,1.6,1.5,2.4c0.5,1,1,2,1.4,3
				c0.1,0.2,0.2,0.4,0.2,0.5c0.8,2.8,1.3,5.7,1.2,8.6c-0.1,1.9,0,3.9-0.4,5.8c-0.2,1.2-0.4,2.4-0.9,3.5c-0.7,1.6-1.2,3.2-2.3,4.6
				c-0.3,0.4-0.6,0.9-0.9,1.4c-1.4,1.8-3,3.3-4.9,4.6c-0.8,0.5-1.7,0.9-2.5,1.3c-0.1,0-0.2,0.1-0.2,0.1c-2,1.1-4.2,1.4-6.4,1.6
				c-5.8,0.5-11.7,0.2-17.5,0.2c-0.6,0-1.3,0-1.9,0c-1,0-1.4-0.5-1.4-1.5c0-1,0-1.9,0-2.9C75.5,72.1,75.6,65.9,75.6,59.6
				C75.7,59.6,75.6,59.6,75.6,59.6z M88.8,59.3C88.8,59.3,88.8,59.3,88.8,59.3c0,1.6,0,3.1,0,4.7c0,1.5,0,3,0.1,4.5
				c0,0.8,0.5,1.3,1.2,1.3c1.5-0.1,3,0.1,4.4-0.4c0.3-0.1,0.6,0,0.9-0.1c0.4-0.1,0.9-0.2,1.3-0.4c0.4-0.1,0.7-0.4,1-0.6
				c0.3-0.2,0.5-0.4,0.8-0.6c1.4-1.3,2.1-3,2.6-4.8c0.4-1.6,0.4-3.2,0.3-4.8c-0.1-1.4-0.7-2.7-1.1-4.1c0-0.1-0.1-0.2-0.2-0.3
				c-0.7-1-1.4-2.1-2.4-2.8c-1-0.7-2-1.2-3.2-1.5c-0.8-0.2-1.6-0.3-2.4-0.4c-0.7-0.1-1.4-0.2-2.2-0.3c-0.7,0-1,0.3-1.2,1
				c0,0.2-0.1,0.5-0.1,0.7C88.8,53.4,88.8,56.3,88.8,59.3z"/>
		</g>
		<g>
			<path class="st0" d="M87.6,82.8c-1.2,0-2.4,0-3.6,0c-1.7,0-3.6,0-5.3,0l-0.5,0c-0.5,0-1,0-1.5,0c-0.5,0-0.9-0.1-1.2-0.4
				c-0.2-0.3-0.4-0.6-0.3-1.2c0-0.6,0-1.2,0-1.8c0-0.3,0-0.7,0-1l0.3-18.6h-0.1v-3.6c0-5.8,0-11.7,0-17.5c0-0.3,0-0.6,0-0.9
				c0-0.2,0-0.3,0-0.5c0-0.4,0.1-0.8,0.3-1c0.2-0.2,0.5-0.3,0.9-0.3c1.4,0,2.9,0,4.3,0l1.1,0c0.7,0,1.3,0,2,0c1.7,0,3.4,0,5.1,0
				c0.9,0,1.9,0.1,2.8,0.2c0.8,0.1,1.7,0.1,2.5,0.2c1.1,0,2.1,0.3,3.1,0.5c0.6,0.1,1.2,0.3,1.8,0.4c0.3,0,0.6,0.2,0.9,0.3
				c0.1,0.1,0.3,0.1,0.4,0.2c0.1,0,0.3,0.1,0.4,0.1c0.3,0.1,0.6,0.2,0.9,0.3c0.4,0.1,0.8,0.3,1.2,0.5c0.4,0.2,0.7,0.4,1.1,0.6
				c0.3,0.2,0.6,0.4,0.9,0.6c1.1,0.6,2,1.5,3,2.6c0.8,0.8,1.6,1.7,2.3,2.7c0.6,0.8,1.1,1.7,1.5,2.5c0.4,0.7,0.7,1.5,1.1,2.2
				c0.1,0.3,0.3,0.5,0.4,0.8c0.1,0.2,0.2,0.4,0.2,0.6c0.9,3.3,1.3,6.1,1.2,8.6c0,0.4,0,0.8,0,1.1c0,1.5-0.1,3.1-0.4,4.7l-0.1,0.3
				c-0.2,1.1-0.4,2.2-0.9,3.2c-0.1,0.3-0.3,0.7-0.4,1c-0.5,1.2-1,2.5-1.9,3.6c-0.2,0.2-0.3,0.4-0.5,0.7c-0.1,0.2-0.3,0.5-0.5,0.7
				c-1.5,1.9-3.1,3.4-4.9,4.6c-0.6,0.4-1.2,0.7-1.7,1c-0.3,0.1-0.5,0.3-0.8,0.4c0,0-0.1,0-0.1,0.1c0,0-0.1,0-0.1,0
				c-2.2,1.2-4.5,1.5-6.5,1.6C93.3,82.8,90.4,82.8,87.6,82.8z M80.4,82.6c1.2,0,2.4,0,3.6,0c4,0,8.1,0.1,12.2-0.3
				c2-0.2,4.2-0.5,6.4-1.6c0,0,0.1,0,0.1-0.1c0,0,0.1,0,0.1,0c0.3-0.1,0.5-0.3,0.8-0.4c0.6-0.3,1.2-0.6,1.7-0.9
				c1.8-1.2,3.4-2.7,4.9-4.5c0.2-0.2,0.3-0.4,0.4-0.7c0.1-0.2,0.3-0.5,0.5-0.7c0.8-1.1,1.4-2.3,1.9-3.5c0.1-0.3,0.3-0.7,0.4-1
				c0.4-1,0.6-2.1,0.8-3.1l0.1-0.3c0.3-1.5,0.3-3.1,0.4-4.7c0-0.4,0-0.8,0-1.1c0.1-2.6-0.3-5.3-1.2-8.6c0-0.2-0.1-0.3-0.2-0.5
				c-0.1-0.3-0.3-0.5-0.4-0.8c-0.3-0.7-0.7-1.5-1.1-2.2c-0.4-0.8-0.9-1.6-1.5-2.4c-0.7-0.9-1.5-1.8-2.3-2.7c-1-1.1-1.9-1.9-3-2.5
				c-0.3-0.2-0.6-0.4-0.9-0.6c-0.4-0.2-0.7-0.4-1.1-0.6c-0.4-0.2-0.8-0.4-1.2-0.5c-0.3-0.1-0.6-0.2-0.9-0.3c-0.1,0-0.3-0.1-0.4-0.1
				c-0.1,0-0.3-0.1-0.4-0.2c-0.3-0.1-0.6-0.2-0.9-0.3c-0.6-0.1-1.2-0.2-1.8-0.4c-1-0.2-2-0.5-3.1-0.5c-0.9,0-1.7-0.1-2.6-0.2
				c-0.9-0.1-1.8-0.1-2.8-0.2c-1.7,0-3.4,0-5,0c-0.7,0-1.3,0-2,0l-1.1,0c-1.4,0-2.9,0-4.3,0c-0.4,0-0.6,0.1-0.8,0.3
				c-0.2,0.2-0.2,0.4-0.2,0.8c0,0.2,0,0.3,0,0.5c0,0.3,0,0.6,0,0.9c0,5.8,0,11.7,0,17.5v3.4h0.1l0,0.1l-0.3,18.7c0,0.3,0,0.7,0,1
				c0,0.6,0,1.2,0,1.8c0,0.5,0.1,0.8,0.3,1c0.2,0.2,0.5,0.3,1,0.3c0.5,0,1,0,1.5,0l0.5,0C79.2,82.6,79.8,82.6,80.4,82.6z M90,69.9
				c-0.3,0-0.6-0.1-0.8-0.3c-0.3-0.2-0.4-0.6-0.4-1.1c0-1.6-0.1-3.2-0.1-4.5c0-1.1,0-2.2,0-3.3l0-1.3h0v-1.9c0-2.4,0-4.7,0-7.1
				c0-0.3,0-0.5,0.1-0.7c0.2-0.7,0.6-1.1,1.3-1.1c0.6,0,1.2,0.1,1.7,0.2l0.4,0.1c0.2,0,0.4,0.1,0.6,0.1c0.6,0.1,1.2,0.1,1.8,0.3
				c1.3,0.4,2.3,0.9,3.2,1.5c0.9,0.7,1.6,1.6,2.2,2.5c0.1,0.1,0.2,0.3,0.3,0.4c0.1,0.1,0.1,0.2,0.2,0.4c0.1,0.4,0.3,0.8,0.4,1.2
				c0.3,0.9,0.6,1.9,0.7,2.9c0.1,1.4,0.1,3.1-0.3,4.8c-0.5,2-1.4,3.6-2.6,4.8c-0.2,0.2-0.5,0.4-0.8,0.6l-0.1,0.1
				c-0.3,0.2-0.6,0.4-0.9,0.5c-0.4,0.2-0.9,0.3-1.3,0.4c-0.1,0-0.3,0-0.5,0.1c-0.2,0-0.3,0-0.5,0.1c-1,0.3-2.1,0.3-3.1,0.3
				c-0.4,0-0.9,0-1.3,0C90.1,69.9,90.1,69.9,90,69.9z M88.9,59.2L88.9,59.2l0,1.6c0,1.1,0,2.2,0,3.3c0,1.3,0,2.9,0.1,4.5
				c0,0.4,0.1,0.7,0.3,0.9c0.2,0.2,0.5,0.3,0.8,0.2c0.4,0,0.9,0,1.3,0c1,0,2,0,3-0.3c0.2-0.1,0.4-0.1,0.5-0.1c0.1,0,0.3,0,0.4,0
				c0.4-0.1,0.9-0.2,1.3-0.4c0.3-0.1,0.6-0.3,0.8-0.5l0.1-0.1c0.2-0.2,0.5-0.4,0.8-0.6c1.2-1.2,2-2.7,2.5-4.7
				c0.4-1.6,0.4-3.3,0.3-4.7c-0.1-1-0.4-1.9-0.7-2.8c-0.1-0.4-0.3-0.8-0.4-1.2c0-0.1-0.1-0.2-0.1-0.3c-0.1-0.1-0.2-0.3-0.3-0.4
				c-0.6-0.9-1.2-1.7-2.1-2.4c-0.9-0.6-1.9-1.1-3.1-1.5c-0.6-0.2-1.1-0.2-1.7-0.3c-0.2,0-0.4-0.1-0.6-0.1l-0.4-0.1
				c-0.6-0.1-1.1-0.2-1.7-0.2c-0.6,0-0.9,0.2-1,0.9c0,0.2-0.1,0.4-0.1,0.7c0,2.4,0,4.7,0,7.1V59.2z"/>
		</g>
	</g>
	<g>
		<g>
			<path d="M287.7,82.8c-2,0-4.1,0-6.1,0c-0.3,0-0.6,0-0.9-0.1c-0.5-0.1-0.8-0.4-1-0.8c-0.5-1-1-1.9-1.5-2.8
				c-0.5-0.9-0.9-1.8-1.4-2.7c0-0.1-0.1-0.2-0.1-0.3c-0.7-0.9-1.1-2.1-1.6-3.1c-0.1-0.2-0.3-0.3-0.5-0.5c-0.1,0.2-0.4,0.4-0.4,0.6
				c-0.1,0.4,0,0.9,0,1.3c0,2.4,0.1,4.8,0.1,7.3c0,0.7-0.4,1.1-1.1,1c-3.7,0-7.5,0-11.2,0c-1,0-1.4-0.4-1.4-1.4
				c0-3.2,0.1-6.5,0.1-9.7c0.1-5.4,0.1-10.8,0.1-16.2c0-5.8-0.1-11.6-0.1-17.5c0-0.2,0-0.4,0-0.6c-0.1-1,0.3-1.4,1.2-1.4
				c3.4,0,6.7,0,10.1,0c2.1,0,4.1,0.2,6.2,0.3c1,0,2,0.4,2.9,0.5c1.3,0.2,2.6,0.7,3.7,1.4c1.3,0.8,2.6,1.7,3.5,2.9
				c0.5,0.7,1,1.4,1.5,2.1c0.2,0.2,0.3,0.5,0.4,0.8c0.2,0.4,0.4,0.8,0.6,1.2c0.1,0.3,0.3,0.5,0.3,0.8c0.1,0.9,0.2,1.8,0.4,2.7
				c0,0.2,0,0.3,0.1,0.5c0.3,0.7,0.2,1.4,0.1,2.2c-0.2,1-0.3,2-0.5,3c-0.3,1.4-0.8,2.7-1.6,3.9c-0.7,1.1-1.5,2-2.5,2.8
				c-0.6,0.5-1.3,0.9-1.9,1.4c-0.7,0.4-0.7,0.8-0.2,1.4c0.1,0.1,0.1,0.2,0.2,0.2c0.4,0.8,0.9,1.6,1.3,2.4c0.3,0.6,0.6,1.2,1,1.8
				c0.4,0.8,0.9,1.5,1.4,2.3c0.5,0.9,1,1.8,1.5,2.7c0.1,0.2,0.2,0.4,0.4,0.6c0.1,0.1,0.2,0.2,0.3,0.4c0.4,0.8,0.8,1.6,1.2,2.3
				c0.4,0.8,0.9,1.6,1.4,2.3c0.1,0.2,0.2,0.5,0.4,0.7c0.2,0.4,0.4,0.8,0.7,1.1c0.3,0.4,0.5,0.8,0.5,1.4c0,0.5-0.2,0.8-0.7,0.8
				c-0.4,0-0.8,0-1.3,0c-1.8,0-3.7,0-5.5,0C287.7,82.9,287.7,82.8,287.7,82.8z M275.3,52.3c0.5-0.1,1.2-0.2,1.9-0.3
				c0.5-0.1,1.1-0.8,1-1.3c0-0.6-0.5-1.3-1.1-1.4c-0.6-0.1-1.1-0.3-1.7-0.4c-0.8-0.2-1.3,0.1-1.4,1c0,0.5-0.1,1-0.1,1.4
				C274,52,274.3,52.3,275.3,52.3z"/>
		</g>
		<g>
			<path class="st0" d="M294,83c-0.1,0-0.3,0-0.4,0c-0.1,0-0.3,0-0.4,0l-5.6,0v-0.1h-1.3c-1.6,0-3.1,0-4.7,0c-0.3,0-0.6,0-0.9-0.1
				c-0.5-0.1-0.8-0.4-1.1-0.9c-0.3-0.6-0.6-1.1-0.9-1.6c-0.2-0.4-0.4-0.8-0.6-1.2c-0.3-0.6-0.7-1.3-1-1.9l-0.4-0.8c0,0,0-0.1,0-0.1
				c0-0.1,0-0.1-0.1-0.1c-0.5-0.6-0.8-1.3-1.1-2c-0.2-0.4-0.3-0.8-0.5-1.1c-0.1-0.1-0.2-0.2-0.3-0.3c0,0-0.1,0-0.1-0.1
				c0,0,0,0.1-0.1,0.1c-0.1,0.1-0.2,0.2-0.2,0.4c0,0.3,0,0.6,0,0.9c0,0.1,0,0.2,0,0.3c0,0.8,0,1.6,0,2.4c0,1.6,0,3.3,0,4.9
				c0,0.4-0.1,0.7-0.3,0.9s-0.5,0.3-0.9,0.3c0,0,0,0,0,0c-3.7,0-7.5,0-11.2,0c-0.6,0-0.9-0.1-1.2-0.4c-0.2-0.2-0.3-0.6-0.3-1.2
				l0-1.7c0-2.6,0.1-5.3,0.1-8l0-3.3c0-4.2,0.1-8.6,0.1-12.9c0-4.2,0-8.4-0.1-12.5c0-1.6,0-3.3,0-4.9c0-0.2,0-0.3,0-0.6
				c-0.1-0.5,0-0.9,0.3-1.2c0.2-0.3,0.6-0.4,1.1-0.4c1,0,2,0,3,0c2.3,0,4.7,0,7.1,0c1.1,0,2.2,0.1,3.3,0.1c1,0.1,2,0.1,3,0.1
				c0.6,0,1.2,0.2,1.8,0.3c0.4,0.1,0.7,0.2,1.1,0.2c1.2,0.2,2.4,0.6,3.8,1.4c1.6,0.9,2.7,1.9,3.5,3c0.5,0.8,1,1.4,1.5,2.1
				c0.1,0.2,0.2,0.4,0.3,0.6c0,0.1,0.1,0.1,0.1,0.2l0,0.1c0.2,0.4,0.4,0.8,0.5,1.2l0.1,0.2c0.1,0.2,0.2,0.5,0.2,0.7
				c0.1,0.6,0.2,1.3,0.2,1.9c0,0.3,0.1,0.6,0.1,0.8l0,0.1c0,0.1,0,0.2,0.1,0.3c0.3,0.8,0.2,1.6,0.1,2.2c-0.1,0.5-0.1,0.9-0.2,1.4
				c-0.1,0.5-0.1,1.1-0.3,1.6c-0.3,1.4-0.8,2.7-1.6,3.9c-0.8,1.2-1.7,2.2-2.5,2.9c-0.4,0.4-0.9,0.7-1.4,1c-0.2,0.1-0.4,0.2-0.5,0.3
				c-0.3,0.2-0.5,0.4-0.5,0.6c0,0.2,0.1,0.4,0.3,0.7l0,0c0.1,0.1,0.1,0.1,0.2,0.2c0.2,0.4,0.5,0.8,0.7,1.3c0.2,0.4,0.4,0.8,0.6,1.1
				l0.2,0.3c0.3,0.5,0.5,0.9,0.8,1.4c0.2,0.3,0.4,0.7,0.6,1c0.3,0.4,0.5,0.8,0.8,1.3c0.3,0.6,0.6,1.1,0.9,1.7c0.2,0.3,0.4,0.7,0.5,1
				c0.1,0.2,0.2,0.4,0.4,0.6c0,0.1,0.1,0.1,0.1,0.2c0.1,0.1,0.1,0.2,0.2,0.2c0.2,0.3,0.3,0.6,0.5,0.9c0.2,0.5,0.5,0.9,0.8,1.4
				c0.3,0.5,0.6,1,0.9,1.5c0.2,0.3,0.3,0.6,0.5,0.9c0.1,0.1,0.1,0.2,0.2,0.4c0.1,0.1,0.1,0.2,0.2,0.3c0.1,0.1,0.1,0.2,0.2,0.3
				c0.2,0.3,0.3,0.6,0.5,0.8c0.4,0.5,0.5,0.9,0.5,1.4c0,0.6-0.3,0.9-0.8,0.9C294.3,83,294.2,83,294,83z M287.8,82.8l5.4,0
				c0.1,0,0.3,0,0.4,0c0.3,0,0.6,0,0.8,0c0.4,0,0.6-0.2,0.6-0.7c0-0.5-0.1-0.9-0.5-1.3c-0.2-0.3-0.4-0.6-0.5-0.9
				c-0.1-0.1-0.1-0.2-0.2-0.3c-0.1-0.1-0.1-0.2-0.2-0.3c-0.1-0.1-0.1-0.2-0.2-0.3c-0.2-0.3-0.3-0.6-0.5-0.9c-0.3-0.5-0.6-1-0.9-1.5
				c-0.3-0.5-0.5-0.9-0.8-1.4c-0.2-0.3-0.3-0.6-0.5-0.9c0-0.1-0.1-0.1-0.2-0.2c0-0.1-0.1-0.1-0.1-0.2c-0.1-0.2-0.3-0.4-0.4-0.6
				c-0.2-0.3-0.4-0.7-0.5-1c-0.3-0.6-0.6-1.1-0.9-1.7c-0.2-0.4-0.5-0.9-0.8-1.3c-0.2-0.3-0.4-0.7-0.6-1c-0.3-0.5-0.5-0.9-0.8-1.4
				l-0.2-0.3c-0.2-0.4-0.4-0.8-0.6-1.1c-0.2-0.4-0.5-0.8-0.7-1.3c0-0.1-0.1-0.1-0.1-0.2l0-0.1c-0.3-0.3-0.4-0.6-0.4-0.9
				c0-0.3,0.2-0.5,0.6-0.8c0.2-0.1,0.4-0.2,0.5-0.4c0.5-0.3,1-0.6,1.4-1c0.7-0.7,1.7-1.6,2.4-2.8c0.8-1.2,1.3-2.5,1.6-3.9
				c0.1-0.5,0.2-1.1,0.2-1.6c0.1-0.5,0.1-0.9,0.2-1.4c0.2-0.8,0.2-1.4-0.1-2.1c-0.1-0.1-0.1-0.3-0.1-0.4l0-0.1
				c0-0.3-0.1-0.6-0.1-0.8c-0.1-0.6-0.2-1.2-0.2-1.9c0-0.2-0.1-0.4-0.2-0.6l-0.1-0.2c-0.2-0.4-0.3-0.8-0.5-1.1l0-0.1
				c0-0.1-0.1-0.1-0.1-0.2c-0.1-0.2-0.2-0.4-0.3-0.6c-0.5-0.7-0.9-1.4-1.5-2.1c-0.8-1.1-1.9-2-3.4-2.9c-1.3-0.7-2.5-1.2-3.7-1.4
				c-0.4-0.1-0.8-0.2-1.1-0.2c-0.6-0.1-1.2-0.3-1.8-0.3c-1,0-2-0.1-3-0.1c-1.1-0.1-2.2-0.1-3.2-0.1c-2.4,0-4.7,0-7.1,0c-1,0-2,0-3,0
				c-0.4,0-0.7,0.1-0.9,0.3c-0.2,0.2-0.2,0.5-0.2,1c0,0.2,0,0.4,0,0.6c0,1.6,0,3.3,0,4.9c0,4.1,0.1,8.3,0.1,12.5
				c0,4.3,0,8.7-0.1,12.9l0,3.3c0,2.7-0.1,5.4-0.1,8l0,1.7c0,0.5,0.1,0.8,0.3,1c0.2,0.2,0.5,0.3,1,0.3c3.7,0,7.5,0,11.2,0
				c0,0,0,0,0,0c0.3,0,0.5-0.1,0.7-0.2c0.2-0.2,0.2-0.4,0.2-0.7c0-1.6,0-3.3,0-4.9c0-0.8,0-1.6,0-2.4c0-0.1,0-0.2,0-0.3
				c0-0.3,0-0.7,0-1c0-0.2,0.2-0.3,0.3-0.5c0-0.1,0.1-0.1,0.1-0.2l0.1-0.1l0.1,0.1c0.1,0,0.1,0.1,0.2,0.1c0.1,0.1,0.3,0.2,0.4,0.4
				c0.2,0.4,0.4,0.8,0.6,1.1c0.3,0.7,0.6,1.3,1.1,1.9c0.1,0.1,0.1,0.1,0.1,0.2c0,0,0,0.1,0,0.1l0.4,0.8c0.3,0.6,0.7,1.3,1,1.9
				c0.2,0.4,0.4,0.8,0.6,1.2c0.3,0.5,0.6,1.1,0.9,1.6c0.2,0.4,0.5,0.7,0.9,0.7c0.3,0.1,0.6,0.1,0.9,0.1c1.6,0,3.1,0,4.7,0h1.5V82.8z
				 M275.2,52.4c-0.5,0-0.8-0.1-1-0.3c-0.2-0.2-0.3-0.5-0.3-0.9c0-0.5,0-0.9,0.1-1.4c0-0.5,0.2-0.8,0.5-1c0.3-0.2,0.6-0.2,1.1-0.1
				c0.6,0.1,1.1,0.3,1.7,0.4c0.6,0.2,1.1,0.8,1.2,1.5c0,0.6-0.6,1.3-1.1,1.4c-0.5,0.1-1,0.2-1.4,0.2c-0.2,0-0.3,0.1-0.5,0.1l0,0
				C275.2,52.4,275.2,52.4,275.2,52.4z M275,48.9c-0.2,0-0.4,0-0.5,0.1c-0.2,0.1-0.3,0.4-0.4,0.8c0,0.5-0.1,1-0.1,1.4
				c0,0.3,0.1,0.6,0.2,0.7c0.2,0.2,0.5,0.3,0.9,0.2c0.1,0,0.3,0,0.5-0.1c0.4-0.1,0.9-0.1,1.4-0.2c0.5-0.1,1-0.8,0.9-1.2
				c0-0.6-0.5-1.1-1-1.3c-0.6-0.1-1.1-0.3-1.7-0.4C275.3,48.9,275.1,48.9,275,48.9z"/>
		</g>
	</g>
	<g>
		<g>
			<path d="M118.2,35.9c1.8,0,3.6,0,5.4,0c1.3,0,1.9,0.5,2.3,1.7c0.2,0.7,0.5,1.3,0.7,1.9c0.1,0.2,0.1,0.5,0.2,0.7
				c0.2,0.6,0.4,1.2,0.6,1.8c0.1,0.4,0.3,0.7,0.4,1.1c0.1,0.3,0.2,0.6,0.3,0.9c0.3,0.8,0.6,1.6,0.9,2.4c0.1,0.2,0.1,0.4,0.2,0.5
				c0.1,0.1,0.2,0.3,0.2,0.4c0.4,1.1,0.8,2.2,1.2,3.3c0.2,0.5,0.4,1,0.6,1.6c0,0.1,0.1,0.2,0.2,0.3c0.4,1.2,0.9,2.4,1.3,3.5
				c0.3,1,0.7,2,1,3c0.2,0.6,0.6,0.7,0.9,0.2c0.3-0.5,0.6-1,0.8-1.5c0.2-0.5,0.4-1.1,0.6-1.6c0.2-0.5,0.3-1,0.5-1.4
				c0.2-0.5,0.4-0.9,0.6-1.4c0-0.1,0.1-0.1,0.1-0.2c0.4-1,0.7-2.1,1.1-3.1c0.2-0.4,0.3-0.8,0.4-1.3c0.2-0.6,0.4-1.2,0.6-1.8
				c0-0.1,0-0.1,0.1-0.2c0.4-1.1,0.9-2.2,1.3-3.3c0-0.1,0.1-0.1,0.1-0.2c0.4-1.3,0.9-2.5,1.3-3.8c0.2-0.4,0.4-0.9,0.5-1.3
				c0.1-0.4,0.3-0.7,0.4-1.1c0.2-0.8,0.5-1,1.3-1.1c0.6,0,1.3,0,1.9,0c3.3,0,6.7,0,10,0c0.9,0,1.2,0.3,1,1.2c0,0.1-0.1,0.3-0.1,0.4
				c-0.5,1.2-1,2.4-1.5,3.6c-0.2,0.4-0.3,0.8-0.4,1.2c0,0.1,0,0.1-0.1,0.2c-0.5,1.2-0.9,2.3-1.4,3.5c0,0.1-0.1,0.2-0.1,0.3
				c-0.4,1.3-0.9,2.6-1.3,3.9c-0.1,0.2-0.2,0.5-0.3,0.7c-0.1,0.1-0.2,0.3-0.2,0.4c-0.4,1.1-0.8,2.2-1.2,3.3
				c-0.2,0.6-0.5,1.2-0.7,1.8c-0.5,1.3-0.9,2.6-1.4,3.9c-0.4,1.2-0.9,2.3-1.4,3.5c-0.1,0.3-0.2,0.6-0.3,0.9c-0.2,0.5-0.4,1-0.6,1.5
				c0,0.1-0.1,0.1-0.1,0.2c-0.4,1.2-0.8,2.4-1.2,3.5c-0.1,0.4-0.3,0.8-0.4,1.1c0,0.1-0.1,0.2-0.2,0.4c-0.4,1.2-0.8,2.3-1.2,3.5
				c-0.2,0.4-0.3,0.9-0.5,1.3c-0.1,0.3-0.2,0.7-0.4,1.1c-0.2,0.5-0.4,1-0.6,1.5c-0.1,0.2-0.2,0.4-0.2,0.6c-0.3,0.9-0.7,1.8-1,2.7
				c-0.2,0.5-0.6,0.7-1.1,0.7c-0.8,0-1.5,0-2.3,0c-2.4,0-4.7,0-7.1,0c-0.2,0-0.4,0-0.7,0c-0.9-0.1-1.2-0.4-1.5-1.3
				c-0.1-0.4-0.3-0.8-0.5-1.2c-0.1-0.1-0.1-0.3-0.2-0.4c-0.4-1.2-0.8-2.5-1.2-3.7c-0.5-1.3-1-2.6-1.5-3.8c-0.1-0.3-0.2-0.6-0.3-0.8
				c-0.2-0.5-0.4-1.1-0.6-1.6c0-0.1-0.1-0.2-0.1-0.2c-0.4-1.2-0.8-2.4-1.2-3.7c0,0,0-0.1,0-0.1c-0.5-1.2-0.9-2.5-1.4-3.7
				c-0.1-0.3-0.2-0.6-0.3-0.9c-0.2-0.6-0.4-1.2-0.6-1.8c-0.2-0.5-0.3-0.9-0.5-1.4c-0.4-1.2-0.9-2.3-1.3-3.4c0-0.1-0.1-0.2-0.1-0.3
				c-0.4-1.2-0.8-2.4-1.2-3.5c-0.2-0.5-0.4-0.9-0.5-1.4c0-0.1-0.1-0.2-0.1-0.3c-0.4-1.3-0.9-2.5-1.3-3.8c-0.4-1.1-0.8-2.2-1.3-3.3
				c-0.2-0.6-0.4-1.1-0.6-1.7c0-0.1-0.1-0.2-0.1-0.3c-0.4-0.9-0.8-1.9-1.2-2.8c-0.3-0.7-0.1-1.1,0.7-1.2c0.2,0,0.4,0,0.7,0
				C114.6,35.9,116.4,35.9,118.2,35.9C118.2,35.9,118.2,35.9,118.2,35.9z"/>
		</g>
		<g>
			<path class="st0" d="M129.8,82.9c-0.2,0-0.5,0-0.7,0c-1-0.1-1.3-0.4-1.6-1.4c-0.1-0.3-0.2-0.6-0.3-0.9c0-0.1-0.1-0.2-0.1-0.3
				c0-0.1-0.1-0.1-0.1-0.2c0-0.1-0.1-0.2-0.1-0.2c-0.1-0.4-0.3-0.9-0.4-1.3c-0.3-0.8-0.5-1.6-0.8-2.4c-0.3-0.8-0.6-1.7-0.9-2.5
				c-0.2-0.4-0.3-0.9-0.5-1.3c-0.1-0.2-0.1-0.3-0.2-0.5c0-0.1-0.1-0.3-0.1-0.4c-0.2-0.5-0.4-1.1-0.6-1.6c0,0,0-0.1,0-0.1
				c0,0-0.1-0.1-0.1-0.2c-0.3-1-0.6-1.9-1-2.9l-0.3-0.8c0,0,0,0,0-0.1l-1.5-3.9c-0.1-0.3-0.2-0.5-0.3-0.8c-0.2-0.6-0.4-1.2-0.6-1.8
				c-0.1-0.2-0.1-0.3-0.2-0.5c-0.1-0.3-0.2-0.6-0.3-0.9c-0.4-1-0.8-2-1.1-2.9l-0.2-0.5c0,0,0-0.1-0.1-0.1c0-0.1-0.1-0.1-0.1-0.2
				c-0.2-0.5-0.3-1-0.5-1.5c-0.2-0.7-0.5-1.4-0.7-2.1c-0.1-0.4-0.3-0.7-0.4-1.1l-0.1-0.3c0,0,0-0.1-0.1-0.1c0-0.1-0.1-0.1-0.1-0.2
				c-0.2-0.4-0.3-0.9-0.5-1.3c-0.3-0.8-0.6-1.6-0.9-2.4c-0.3-0.8-0.6-1.5-0.9-2.3c-0.1-0.3-0.3-0.7-0.4-1l-0.1-0.3
				c-0.2-0.5-0.4-0.9-0.5-1.4c0-0.1,0-0.1-0.1-0.2c0-0.1,0-0.1,0-0.2l-0.3-0.7c-0.3-0.7-0.6-1.4-0.9-2.1c-0.2-0.4-0.2-0.7,0-1
				c0.1-0.2,0.4-0.4,0.8-0.4c0.2,0,0.3,0,0.5,0l0.2,0l7.1,0c1.3,0,2.5,0,3.8,0c0,0,0,0,0,0c1.3,0,2,0.5,2.4,1.8
				c0.1,0.4,0.3,0.8,0.4,1.2c0.1,0.2,0.2,0.4,0.3,0.7c0,0.1,0.1,0.3,0.1,0.4c0,0.1,0.1,0.2,0.1,0.3c0.2,0.6,0.4,1.1,0.6,1.7l0,0.1
				c0,0.1,0.1,0.3,0.1,0.4c0.1,0.2,0.2,0.4,0.2,0.7c0,0.1,0.1,0.3,0.1,0.4c0,0.2,0.1,0.3,0.1,0.5c0.3,0.8,0.6,1.6,0.9,2.4
				c0.1,0.2,0.1,0.4,0.2,0.5c0,0.1,0.1,0.1,0.1,0.2c0.1,0.1,0.1,0.2,0.1,0.3c0.3,0.9,0.7,1.9,1,2.8l0.2,0.5c0.1,0.2,0.1,0.4,0.2,0.6
				c0.1,0.3,0.2,0.6,0.3,0.9c0,0,0,0.1,0.1,0.1c0,0.1,0.1,0.1,0.1,0.2l0.2,0.6c0.4,1,0.7,2,1.1,3c0.2,0.4,0.3,0.9,0.4,1.3
				c0.2,0.6,0.4,1.1,0.6,1.7c0.1,0.2,0.2,0.4,0.3,0.4c0.1,0,0.3-0.1,0.4-0.3c0.3-0.4,0.5-0.9,0.8-1.5c0.2-0.4,0.3-0.7,0.4-1.1
				c0.1-0.2,0.1-0.4,0.2-0.5l0.1-0.3c0.1-0.4,0.3-0.8,0.4-1.2c0.1-0.4,0.3-0.7,0.4-1.1l0.1-0.3c0,0,0-0.1,0.1-0.1c0,0,0,0,0-0.1
				c0.3-0.7,0.5-1.4,0.8-2.1l1-2.7c0.2-0.5,0.3-0.9,0.5-1.4c0,0,0-0.1,0-0.1c0,0,0-0.1,0-0.1c0.4-1.1,0.9-2.2,1.3-3.3
				c0,0,0-0.1,0-0.1c0,0,0,0,0-0.1l0.4-1.2c0.3-0.8,0.6-1.7,0.9-2.5c0.1-0.2,0.2-0.5,0.3-0.7c0.1-0.2,0.2-0.4,0.2-0.6
				c0.1-0.3,0.3-0.7,0.4-1.1c0.2-0.8,0.6-1.1,1.4-1.2c0.5,0,1.1,0,1.6,0l0.4,0c2.9,0,5.7,0,8.6,0l1.4,0c0,0,0,0,0,0
				c0.5,0,0.8,0.1,1,0.3c0.2,0.2,0.2,0.5,0.2,1c0,0.2-0.1,0.3-0.1,0.5c-0.2,0.5-0.4,1-0.6,1.4c-0.3,0.7-0.6,1.4-0.9,2.1
				c-0.1,0.3-0.2,0.6-0.3,0.8c0,0.1-0.1,0.2-0.1,0.3c0,0,0,0.1,0,0.1c0,0,0,0.1,0,0.1c-0.5,1.2-0.9,2.3-1.4,3.5c0,0,0,0.1-0.1,0.1
				c0,0,0,0.1-0.1,0.1c-0.2,0.5-0.4,1-0.5,1.6c-0.3,0.8-0.5,1.5-0.8,2.3c-0.1,0.2-0.2,0.4-0.2,0.6l-0.1,0.1c0,0.1-0.1,0.1-0.1,0.2
				c0,0.1-0.1,0.1-0.1,0.2c-0.2,0.5-0.4,1-0.5,1.5c-0.2,0.6-0.4,1.2-0.6,1.8c-0.1,0.3-0.2,0.6-0.3,0.9c-0.1,0.3-0.2,0.6-0.4,0.9
				c-0.2,0.5-0.4,1.1-0.6,1.6c-0.3,0.8-0.5,1.5-0.8,2.3c-0.3,0.7-0.6,1.5-0.9,2.2c-0.2,0.4-0.4,0.9-0.5,1.3
				c-0.1,0.2-0.1,0.3-0.2,0.5c0,0.1-0.1,0.3-0.1,0.4c-0.2,0.4-0.3,0.8-0.5,1.2l-0.1,0.3c0,0,0,0.1-0.1,0.1c0,0,0,0.1,0,0.1
				c-0.2,0.5-0.3,1-0.5,1.5c-0.2,0.7-0.5,1.4-0.7,2.1c-0.1,0.4-0.3,0.7-0.4,1.1c0,0.1-0.1,0.1-0.1,0.2c0,0.1-0.1,0.1-0.1,0.2
				c-0.2,0.6-0.4,1.2-0.6,1.7c-0.2,0.6-0.4,1.2-0.6,1.7c-0.1,0.3-0.2,0.5-0.3,0.8c-0.1,0.2-0.1,0.4-0.2,0.6
				c-0.1,0.2-0.1,0.4-0.2,0.6c-0.1,0.2-0.1,0.3-0.2,0.5c-0.2,0.5-0.4,1-0.6,1.5c0,0.1-0.1,0.2-0.1,0.3c0,0.1-0.1,0.2-0.1,0.3
				c-0.1,0.3-0.2,0.6-0.3,0.9c-0.2,0.6-0.4,1.2-0.7,1.8c-0.2,0.5-0.6,0.8-1.2,0.8c-0.7,0-1.5,0-2.3,0
				C134.5,82.9,132.2,82.9,129.8,82.9z M112.4,36.1c-0.1,0-0.2,0-0.3,0c-0.3,0-0.6,0.1-0.7,0.3c-0.1,0.2,0,0.5,0.1,0.7
				c0.3,0.7,0.6,1.4,0.9,2.1l0.3,0.7c0,0.1,0,0.1,0.1,0.2c0,0.1,0,0.1,0,0.1c0.2,0.5,0.3,0.9,0.5,1.4l0.1,0.3c0.1,0.4,0.3,0.7,0.4,1
				c0.3,0.7,0.6,1.5,0.9,2.3c0.3,0.8,0.6,1.6,0.9,2.5c0.2,0.4,0.3,0.9,0.5,1.3c0,0,0,0.1,0.1,0.1c0,0,0.1,0.1,0.1,0.1l0.1,0.3
				c0.1,0.4,0.3,0.7,0.4,1.1c0.2,0.7,0.5,1.4,0.7,2.1c0.2,0.5,0.3,1,0.5,1.5c0,0,0,0.1,0.1,0.1c0,0,0.1,0.1,0.1,0.2l0.2,0.5
				c0.4,1,0.8,1.9,1.1,2.9c0.1,0.3,0.2,0.6,0.3,0.9c0.1,0.2,0.1,0.3,0.2,0.5c0.2,0.6,0.4,1.2,0.6,1.8c0.1,0.3,0.2,0.5,0.3,0.8
				l1.5,3.9c0,0,0,0.1,0,0.1l0,0l0.2,0.7c0.3,1,0.6,1.9,1,2.9c0,0,0,0.1,0.1,0.1c0,0,0,0.1,0.1,0.1c0.2,0.5,0.4,1.1,0.6,1.6
				c0,0.1,0.1,0.3,0.1,0.4c0,0.1,0.1,0.3,0.2,0.4c0.2,0.4,0.3,0.9,0.5,1.3c0.3,0.8,0.6,1.7,0.9,2.5c0.3,0.8,0.6,1.6,0.8,2.4
				c0.1,0.4,0.3,0.9,0.4,1.3c0,0.1,0.1,0.1,0.1,0.2c0,0.1,0.1,0.1,0.1,0.2c0,0.1,0.1,0.2,0.1,0.3c0.1,0.3,0.2,0.6,0.3,0.9
				c0.2,0.9,0.5,1.1,1.3,1.2c0.2,0,0.4,0,0.7,0c2.4,0,4.7,0,7.1,0c0.8,0,1.6,0,2.3,0c0.3,0,0.7-0.1,0.9-0.6c0.2-0.6,0.5-1.2,0.7-1.8
				c0.1-0.3,0.2-0.6,0.3-0.9c0-0.1,0.1-0.2,0.1-0.3c0-0.1,0.1-0.2,0.1-0.3c0.2-0.5,0.4-1,0.6-1.5c0.1-0.2,0.1-0.3,0.2-0.5
				c0.1-0.2,0.1-0.4,0.2-0.6c0.1-0.2,0.1-0.4,0.2-0.6c0.1-0.3,0.2-0.5,0.3-0.8c0.2-0.6,0.4-1.2,0.6-1.7c0.2-0.6,0.4-1.2,0.6-1.7
				c0-0.1,0.1-0.1,0.1-0.2c0-0.1,0.1-0.1,0.1-0.2c0.2-0.4,0.3-0.8,0.4-1.1c0.2-0.7,0.5-1.4,0.7-2.1c0.2-0.5,0.3-1,0.5-1.5
				c0,0,0-0.1,0.1-0.1c0,0,0-0.1,0-0.1l0.1-0.3c0.2-0.4,0.3-0.8,0.5-1.2c0-0.1,0.1-0.3,0.1-0.4c0.1-0.2,0.1-0.3,0.2-0.5
				c0.2-0.4,0.4-0.9,0.5-1.3c0.3-0.7,0.6-1.4,0.9-2.2c0.3-0.8,0.6-1.5,0.8-2.3c0.2-0.5,0.4-1.1,0.6-1.6c0.1-0.3,0.2-0.6,0.4-0.9
				c0.1-0.3,0.2-0.6,0.3-0.9c0.2-0.6,0.4-1.2,0.6-1.8c0.2-0.5,0.4-1,0.5-1.5c0-0.1,0.1-0.2,0.1-0.3c0,0,0.1-0.1,0.1-0.2l0.1-0.1
				c0.1-0.2,0.2-0.4,0.2-0.5c0.3-0.8,0.5-1.5,0.8-2.3c0.2-0.5,0.4-1,0.5-1.6c0-0.1,0.1-0.1,0.1-0.2c0,0,0-0.1,0.1-0.1
				c0.5-1.2,0.9-2.3,1.4-3.5c0,0,0-0.1,0-0.1c0,0,0-0.1,0-0.1c0-0.1,0.1-0.2,0.1-0.3c0.1-0.3,0.2-0.6,0.3-0.8
				c0.3-0.7,0.6-1.4,0.9-2.1c0.2-0.5,0.4-1,0.6-1.4c0.1-0.1,0.1-0.3,0.1-0.4c0.1-0.4,0-0.7-0.1-0.8c-0.1-0.2-0.4-0.2-0.8-0.2
				c0,0,0,0,0,0l-1.4,0c-2.9,0-5.7,0-8.6,0l-0.4,0c-0.5,0-1,0-1.6,0c-0.7,0-1,0.3-1.1,1c-0.1,0.4-0.2,0.8-0.4,1.1
				c-0.1,0.2-0.2,0.4-0.2,0.6c-0.1,0.2-0.2,0.5-0.3,0.7c-0.3,0.8-0.6,1.7-0.9,2.5l-0.4,1.2c0,0,0,0.1-0.1,0.1c0,0,0,0,0,0.1
				c-0.4,1.1-0.9,2.2-1.3,3.3c0,0,0,0.1,0,0.1c0,0,0,0.1,0,0.1c-0.2,0.5-0.3,0.9-0.5,1.4l-1,2.7c-0.3,0.7-0.5,1.4-0.8,2.1
				c0,0,0,0.1-0.1,0.1c0,0,0,0,0,0.1l-0.1,0.3c-0.1,0.4-0.3,0.7-0.4,1.1c-0.1,0.4-0.3,0.8-0.4,1.2l-0.1,0.3
				c-0.1,0.2-0.1,0.4-0.2,0.5c-0.1,0.4-0.3,0.8-0.4,1.1c-0.3,0.6-0.5,1.1-0.8,1.5c-0.3,0.4-0.5,0.4-0.6,0.4c-0.2,0-0.4-0.1-0.5-0.6
				c-0.2-0.6-0.4-1.1-0.6-1.7c-0.1-0.4-0.3-0.9-0.4-1.3c-0.3-1-0.7-2-1.1-3l-0.2-0.6c0,0,0-0.1-0.1-0.1c0-0.1-0.1-0.1-0.1-0.2
				c-0.1-0.3-0.2-0.6-0.3-0.9c-0.1-0.2-0.1-0.4-0.2-0.6l-0.2-0.5c-0.3-0.9-0.7-1.9-1-2.8c0-0.1-0.1-0.1-0.1-0.2
				c0-0.1-0.1-0.1-0.1-0.2c-0.1-0.2-0.2-0.3-0.2-0.5c-0.3-0.8-0.6-1.6-0.9-2.4c-0.1-0.2-0.1-0.3-0.1-0.5c0-0.1-0.1-0.3-0.1-0.4
				c-0.1-0.2-0.2-0.4-0.2-0.7c0-0.1-0.1-0.3-0.1-0.4l0-0.1c-0.2-0.6-0.4-1.1-0.6-1.7c0-0.1-0.1-0.2-0.1-0.3c0-0.1-0.1-0.3-0.1-0.4
				c-0.1-0.2-0.2-0.4-0.2-0.7c-0.2-0.4-0.3-0.8-0.4-1.3c-0.3-1.2-0.9-1.6-2.1-1.6c0,0,0,0,0,0c-1.3,0-2.5,0-3.8,0l-1.5,0v0l-5.7,0
				C112.5,36.1,112.5,36.1,112.4,36.1z"/>
		</g>
	</g>
	<g>
		<g>
			<path d="M191.7,83.6c-1.7,0.2-3.5,0.1-5.1-0.4c-1.2-0.3-2.4-0.6-3.4-1.4c-0.5-0.4-1.1-0.6-1.6-1c-1.8-1.1-3.1-2.7-4.4-4.3
				c-0.6-0.7-0.9-1.5-1.4-2.3c-0.4-0.7-0.8-1.5-1.3-2.3c-0.2-0.4-0.3-0.8,0.1-1.1c0.3-0.3,0.7-0.6,1-0.8c0.9-0.5,1.8-1,2.7-1.5
				c0.1-0.1,0.2-0.1,0.3-0.2c1.1-0.6,2.2-1.2,3.3-1.8c1-0.5,2-1.1,2.9-1.6c0.5-0.3,1.1-0.1,1.3,0.4c0.5,1.2,1.3,2.3,2.1,3.3
				c0.7,0.9,1.5,1.6,2.5,2.1c0.9,0.5,2.4,0.2,3.1-0.6c0.4-0.4,0.4-1.1-0.1-1.6c-1.1-1.1-2.2-2.2-3.4-3.2c-1.1-0.8-2.1-1.7-3.1-2.5
				c-0.9-0.8-1.9-1.5-2.8-2.3c-0.8-0.7-1.5-1.4-2.2-2.2c-1-1.1-2.1-2.3-2.9-3.5c-0.6-0.9-1.3-1.8-1.4-3c0-0.2-0.1-0.4-0.2-0.6
				c-0.5-1-0.6-2-0.5-3.1c0-0.5,0-1,0-1.4c0-0.6,0.1-1.2,0.3-1.8c0.1-0.3,0.3-0.7,0.3-1c0.2-1.1,0.8-2,1.4-2.9
				c0.6-0.9,1.4-1.8,2.3-2.5c0.7-0.6,1.5-1.1,2.2-1.6c0.9-0.7,2-1,3.1-1.3c1.2-0.3,2.5-0.5,3.7-0.6c1.6-0.1,3.2,0,4.7,0.3
				c0.5,0.1,0.9,0.2,1.3,0.4c0.4,0.1,0.8,0.2,1.2,0.4c1,0.5,1.9,0.9,2.8,1.5c1.1,0.7,2,1.5,3,2.3c0.6,0.5,1.2,1.2,1.8,1.8
				c0.5,0.6,1.1,1.2,1.6,1.7c0.8,0.8,0.7,1.3-0.2,2c-1.9,1.5-3.7,3.1-5.5,4.6c-0.8,0.6-1.6,1.3-2.4,1.9c-0.5,0.4-0.9,0.3-1.4-0.1
				c-1.2-1.1-2.4-2.1-3.7-3.1c-0.6-0.4-1.2-0.7-1.9-1c-0.3-0.1-0.7-0.2-0.9,0.2c-0.1,0.2-0.1,0.6,0.1,0.8c0.4,0.5,0.8,1,1.3,1.4
				c1.5,1.3,2.9,2.5,4.4,3.7c0.9,0.7,1.8,1.4,2.6,2.1c1.7,1.4,3.4,2.9,4.8,4.7c1.1,1.3,1.8,2.8,2.4,4.4c0.3,0.8,0.4,1.7,0.5,2.5
				c0.1,1.2,0.1,2.4,0.1,3.5c-0.1,1.2-0.1,2.5-0.8,3.6c-0.4,0.8-0.7,1.6-1.2,2.4c-0.6,1-1.3,2-2.3,2.7c-0.5,0.4-0.9,0.8-1.4,1.2
				c-1,0.8-2.1,1.4-3.3,1.7c0,0-0.1,0-0.1,0c-1.1,0.7-2.3,0.8-3.5,0.9C193.6,83.7,192.7,83.6,191.7,83.6z"/>
		</g>
		<g>
			<path class="st0" d="M190,83.8c-1.3,0-2.4-0.2-3.5-0.5l-0.4-0.1c-1-0.3-2.1-0.6-3-1.3c-0.3-0.2-0.6-0.4-0.9-0.6
				c-0.2-0.1-0.5-0.3-0.7-0.4c-1.8-1.2-3.2-2.9-4.4-4.4c-0.4-0.5-0.7-1.1-1-1.6c-0.1-0.2-0.2-0.4-0.4-0.7c-0.2-0.3-0.4-0.7-0.6-1
				c-0.2-0.4-0.5-0.8-0.7-1.2c-0.3-0.5-0.3-0.9,0.1-1.2c0.3-0.3,0.7-0.6,1-0.8c0.6-0.4,1.3-0.7,1.9-1.1c0.3-0.2,0.5-0.3,0.8-0.5
				c0,0,0.1-0.1,0.1-0.1c0.1,0,0.1-0.1,0.2-0.1l0.5-0.3c0.9-0.5,1.9-1.1,2.8-1.6l0.2-0.1c0.9-0.5,1.9-1,2.8-1.5
				c0.3-0.2,0.6-0.2,0.9-0.1c0.3,0.1,0.5,0.3,0.6,0.6c0.5,1.2,1.3,2.3,2,3.3c0.6,0.8,1.4,1.5,2.5,2c0.8,0.4,2.3,0.2,2.9-0.6
				c0.4-0.4,0.3-1-0.1-1.4l-0.1-0.1c-1-1.1-2.1-2.1-3.3-3c-0.7-0.6-1.5-1.2-2.2-1.7c-0.3-0.3-0.6-0.5-0.9-0.8
				c-0.3-0.2-0.6-0.5-0.8-0.7c-0.7-0.5-1.3-1.1-2-1.7c-0.9-0.8-1.6-1.5-2.2-2.2c-0.2-0.2-0.4-0.4-0.5-0.6c-0.9-0.9-1.7-1.9-2.4-3
				l-0.2-0.3c-0.5-0.8-1.1-1.7-1.2-2.7c0-0.1,0-0.3-0.1-0.5c-0.5-0.9-0.6-1.9-0.5-3.2c0-0.4,0-0.9,0-1.4c0-0.6,0.1-1.2,0.4-1.8
				c0.2-0.4,0.3-0.7,0.3-1c0.1-1.1,0.7-1.9,1.3-2.7l0.1-0.2c0.6-0.8,1.3-1.6,2.3-2.5c0.4-0.4,0.8-0.7,1.3-0.9c0.3-0.2,0.7-0.4,1-0.7
				c0.9-0.7,1.9-1,2.9-1.3l0.2,0c1.3-0.4,2.6-0.5,3.7-0.6c1.4-0.1,3,0,4.8,0.3c0.4,0.1,0.8,0.2,1.2,0.3l0.4,0.1
				c0.4,0.1,0.7,0.2,1,0.4c0.2,0.1,0.3,0.2,0.5,0.3c0.8,0.4,1.6,0.8,2.3,1.3c1.1,0.8,2.2,1.6,3,2.3c0.5,0.4,1,0.9,1.4,1.4
				c0.1,0.1,0.3,0.3,0.4,0.4c0.3,0.3,0.7,0.7,1,1c0.2,0.2,0.4,0.5,0.6,0.7c0.4,0.4,0.6,0.8,0.6,1.1c0,0.3-0.2,0.7-0.7,1.1
				c-1.2,1-2.4,2-3.6,3c-0.6,0.5-1.3,1.1-1.9,1.6c-0.8,0.6-1.6,1.3-2.4,1.9c-0.5,0.4-1,0.4-1.5-0.1l-0.7-0.6c-1-0.8-2-1.7-3-2.5
				c-0.5-0.4-1-0.6-1.5-0.9l-0.3-0.1c-0.2-0.1-0.6-0.2-0.7,0.1c-0.1,0.2,0,0.5,0.1,0.7c0.4,0.5,0.8,1,1.3,1.4
				c1.3,1.1,2.6,2.2,4.4,3.7c0.4,0.3,0.8,0.7,1.3,1c0.5,0.4,0.9,0.7,1.4,1.1c1.6,1.4,3.3,2.9,4.8,4.7c1,1.2,1.8,2.7,2.4,4.4
				c0.3,0.8,0.4,1.7,0.5,2.5c0.1,1.4,0.1,2.5,0.1,3.6l0,0.2c-0.1,1.2-0.2,2.4-0.8,3.5c-0.2,0.3-0.4,0.7-0.5,1.1
				c-0.2,0.4-0.4,0.9-0.7,1.3c-0.7,1.1-1.3,2-2.3,2.7c-0.2,0.2-0.5,0.4-0.7,0.6c-0.2,0.2-0.5,0.4-0.7,0.6c-0.9,0.7-2,1.4-3.4,1.8
				l0,0c0,0,0,0,0,0c-1,0.7-2.2,0.8-3.4,0.9l-0.2,0c-0.7,0.1-1.4,0.1-2,0c-0.3,0-0.6,0-0.9,0C191.1,83.8,190.5,83.8,190,83.8z
				 M185.3,64.9c-0.1,0-0.3,0-0.5,0.1c-0.9,0.5-1.9,1-2.8,1.5l-0.2,0.1c-0.9,0.5-1.9,1.1-2.8,1.6l-0.5,0.3c-0.1,0-0.1,0.1-0.2,0.1
				c0,0-0.1,0.1-0.1,0.1c-0.3,0.2-0.5,0.3-0.8,0.5c-0.6,0.4-1.2,0.7-1.9,1.1c-0.4,0.2-0.7,0.5-1,0.8c-0.2,0.2-0.3,0.5,0,0.9
				c0.2,0.4,0.5,0.8,0.7,1.3c0.2,0.3,0.4,0.7,0.6,1c0.1,0.2,0.2,0.4,0.4,0.7c0.3,0.6,0.6,1.1,1,1.6c1.2,1.5,2.5,3.1,4.3,4.3
				c0.2,0.1,0.5,0.3,0.7,0.4c0.3,0.2,0.6,0.4,0.9,0.6c0.9,0.6,2,0.9,3,1.2l0.4,0.1c1.5,0.4,3.1,0.6,5.1,0.4l0,0c0.3,0,0.6,0,0.9,0
				c0.7,0,1.3,0,2,0l0.2,0c1.1-0.1,2.3-0.3,3.3-0.9c0,0,0.1,0,0.1,0l0,0c1.3-0.3,2.4-1.1,3.3-1.7c0.2-0.2,0.5-0.4,0.7-0.6
				c0.2-0.2,0.5-0.4,0.7-0.6c0.9-0.7,1.6-1.6,2.3-2.7c0.3-0.4,0.5-0.8,0.7-1.3c0.2-0.4,0.3-0.8,0.5-1.1c0.6-1.1,0.7-2.2,0.8-3.4
				l0-0.2c0.1-1,0-2.1-0.1-3.5c-0.1-0.8-0.2-1.7-0.5-2.5c-0.7-1.7-1.5-3.2-2.4-4.4c-1.4-1.8-3.1-3.3-4.7-4.6
				c-0.4-0.4-0.9-0.7-1.4-1.1c-0.4-0.3-0.9-0.7-1.3-1c-1.8-1.5-3.2-2.6-4.4-3.7c-0.5-0.4-0.9-0.9-1.3-1.4c-0.2-0.2-0.2-0.7-0.1-0.9
				c0.2-0.4,0.7-0.4,1.1-0.2l0.3,0.1c0.5,0.3,1.1,0.5,1.6,0.9c1,0.8,2,1.7,3,2.5l0.7,0.6c0.4,0.4,0.8,0.4,1.2,0.1
				c0.8-0.6,1.6-1.3,2.4-1.9c0.6-0.5,1.3-1.1,1.9-1.6c1.2-1,2.4-2,3.6-3c0.4-0.3,0.6-0.6,0.6-0.9c0-0.3-0.1-0.5-0.5-0.9
				c-0.2-0.2-0.4-0.5-0.6-0.7c-0.3-0.4-0.6-0.7-1-1c-0.1-0.1-0.3-0.3-0.4-0.4c-0.4-0.5-0.9-0.9-1.4-1.3c-0.8-0.7-1.9-1.5-3-2.3
				c-0.7-0.5-1.5-0.9-2.3-1.3c-0.2-0.1-0.3-0.2-0.5-0.3c-0.3-0.2-0.7-0.3-1-0.4l-0.4-0.1c-0.4-0.1-0.7-0.2-1.1-0.3
				c-1.7-0.3-3.3-0.4-4.7-0.3c-1.1,0.1-2.4,0.2-3.7,0.6l-0.2,0c-1,0.3-2,0.6-2.8,1.3c-0.3,0.3-0.7,0.5-1,0.7
				c-0.4,0.3-0.9,0.6-1.2,0.9c-1,0.9-1.7,1.7-2.3,2.5l-0.1,0.2c-0.6,0.8-1.1,1.6-1.3,2.6c0,0.3-0.2,0.7-0.3,1.1
				c-0.3,0.6-0.4,1.1-0.3,1.7c0,0.5,0,1,0,1.4c-0.1,1.2,0,2.1,0.5,3c0.1,0.2,0.2,0.4,0.2,0.6c0.1,1,0.6,1.8,1.2,2.6l0.2,0.3
				c0.7,1.1,1.5,2,2.4,2.9c0.2,0.2,0.4,0.4,0.5,0.6c0.6,0.7,1.3,1.4,2.2,2.2c0.6,0.6,1.3,1.1,2,1.7c0.3,0.2,0.6,0.5,0.8,0.7
				c0.3,0.3,0.6,0.5,0.9,0.8c0.7,0.6,1.4,1.2,2.1,1.7c1.2,0.9,2.3,2,3.3,3.1l0.1,0.1c0.5,0.5,0.5,1.3,0.1,1.8
				c-0.7,0.8-2.3,1.1-3.2,0.6c-1.1-0.5-1.9-1.2-2.5-2.1c-0.7-1-1.5-2.1-2.1-3.3c-0.1-0.2-0.3-0.4-0.5-0.5
				C185.4,65,185.3,64.9,185.3,64.9z"/>
		</g>
	</g>
	<g>
		<g>
			<path d="M172.3,59.3c0.1,6.7,0.1,13.5,0.2,20.2c0,0.6,0.1,1.3,0.1,1.9c0,1-0.4,1.4-1.4,1.4c-3.7,0-7.4,0-11.1,0
				c-0.8,0-1.2-0.3-1.2-1.1c0-1.2,0-2.3,0-3.5c0-13.2,0.1-26.4,0.1-39.7c0-0.5,0-1,0-1.5c0-0.9,0.3-1.1,1.2-1.1c3.6,0,7.3,0,10.9,0
				c0.1,0,0.2,0,0.3,0c0.8,0,1.1,0.3,1.1,1.2c0,1.8-0.1,3.6-0.1,5.5C172.3,48.1,172.3,53.7,172.3,59.3
				C172.3,59.3,172.3,59.3,172.3,59.3z"/>
		</g>
		<g>
			<path class="st0" d="M160,82.9c-0.9,0-1.3-0.3-1.3-1.2c0-0.7,0-1.5,0-2.2c0-0.4,0-0.8,0-1.3c0-13.2,0.1-26.4,0.1-39.7
				c0-0.2,0-0.5,0-0.7c0-0.3,0-0.5,0-0.8c0-0.9,0.4-1.3,1.3-1.3c0,0,0,0,0,0c2.7,0,5.5,0,8.2,0l2.7,0l0.1,0c0.1,0,0.1,0,0.2,0
				c0.9,0,1.3,0.4,1.3,1.3c0,0.8,0,1.6,0,2.3c0,1,0,2.1,0,3.1c0,4.1,0,8.1,0,12.2l0,4.7h0c0.1,6.7,0.1,13.4,0.2,20.1
				c0,0.3,0,0.7,0,1c0,0.3,0,0.6,0,0.9c0,0.5-0.1,0.9-0.3,1.2c-0.2,0.2-0.6,0.4-1.1,0.4L160,82.9C160,82.9,160,82.9,160,82.9z
				 M160.1,36c-0.8,0-1,0.2-1,1c0,0.3,0,0.5,0,0.8c0,0.2,0,0.5,0,0.7c0,13.2-0.1,26.4-0.1,39.7c0,0.4,0,0.8,0,1.3c0,0.7,0,1.5,0,2.2
				c0,0.7,0.3,1,1.1,1c0,0,0,0,0,0l11.1,0c0.5,0,0.8-0.1,1-0.3c0.2-0.2,0.3-0.5,0.3-1c0-0.3,0-0.6,0-0.9c0-0.3,0-0.7,0-1
				c-0.1-6.7-0.1-13.5-0.2-20.2l0-0.1h0l0-4.4c0-4.1,0-8.1,0-12.2c0-1.1,0-2.1,0-3.1c0-0.8,0-1.6,0-2.3c0-0.7-0.3-1-1-1
				c-0.1,0-0.1,0-0.2,0l-0.1,0l-2.7,0C165.5,36.1,162.8,36.1,160.1,36C160.1,36,160.1,36,160.1,36z"/>
		</g>
	</g>
	<g>
		<g>
			<path d="M136.3,25.9c0-1.8,0-3.6,0-5.4c0-1,0.3-1.3,1.3-1.4c0.9,0,1.9,0,2.8,0c1.1,0,1.5,0.3,1.7,1.4c0,0.1,0,0.2,0.1,0.3
				c0.5,1.3,1,2.6,1.4,3.9c0.2,0.4,0.3,0.9,0.4,1.4c0,0.1,0,0.2,0.1,0.3c0.1,0.1,0.2,0.4,0.3,0.4c0.1,0,0.4-0.1,0.4-0.3
				c0.3-0.7,0.6-1.3,0.9-2c0.2-0.6,0.4-1.2,0.6-1.8c0.1-0.4,0.2-0.8,0.4-1.2c0.2-0.6,0.4-1.1,0.7-1.7c0.2-0.5,0.7-0.7,1.2-0.7
				c1,0,1.9,0,2.9,0c0.9,0,1.3,0.4,1.3,1.2c0,2.4,0,4.8-0.1,7.2c0,1.2,0,2.4,0,3.6c0,0.2,0,0.5,0,0.7c-0.1,0.8-0.5,1.1-1.2,1.1
				c-0.3,0-0.6,0-0.9,0c-0.5,0-0.8-0.2-0.9-0.7c-0.1-0.3-0.1-0.7-0.1-1.1c0-1.7,0-3.5,0-5.2c0-0.3-0.1-0.7-0.1-1
				c0-0.1-0.2-0.2-0.3-0.3c-0.1,0.1-0.2,0.2-0.3,0.3c-0.3,1-0.7,2-1,3c-0.4,1.2-0.8,2.5-1.2,3.7c-0.3,0.8-1.1,1.3-1.9,1.3
				c-0.1,0-0.2,0-0.4,0c-1,0-1.1-0.2-1.6-1.1c-0.8-1.6-1.1-3.4-1.8-5c-0.1-0.3-0.3-0.6-0.5-0.9c-0.3-0.4-0.6-0.3-0.6,0.2
				c-0.1,0.5-0.1,1-0.1,1.6c0,1.2,0,2.4,0,3.6c0,1.2-0.5,1.7-1.7,1.6c-0.2,0-0.4,0-0.7-0.1c-0.5-0.1-0.8-0.4-0.9-0.8
				c-0.1-0.3-0.1-0.6-0.1-0.9C136.4,29.4,136.4,27.7,136.3,25.9C136.4,25.9,136.3,25.9,136.3,25.9z"/>
		</g>
		<g>
			<path class="st0" d="M150.7,33.1c-0.1,0-0.1,0-0.2,0c-0.6,0-0.9-0.2-1-0.8c-0.1-0.3-0.1-0.7-0.1-1.1c0-0.8,0-1.7,0-2.5
				c0-0.9,0-1.8,0-2.8c0-0.3,0-0.6-0.1-1c0,0-0.1-0.1-0.2-0.2c0,0,0,0,0,0c0,0,0,0,0,0c-0.1,0.1-0.1,0.1-0.1,0.2c-0.3,1-0.7,2-1,3
				c-0.2,0.6-0.4,1.2-0.5,1.7c-0.2,0.7-0.4,1.4-0.6,2c-0.3,0.8-1.1,1.4-2,1.4c-0.1,0-0.2,0-0.2,0c-0.1,0-0.1,0-0.2,0
				c-1.1,0-1.2-0.2-1.7-1.1c-0.5-0.9-0.8-2-1.1-2.9c-0.2-0.7-0.4-1.4-0.7-2.1c-0.1-0.3-0.2-0.6-0.4-0.8c-0.1-0.2-0.2-0.2-0.3-0.2
				c-0.1,0-0.1,0.1-0.2,0.3c-0.1,0.5-0.1,1-0.1,1.5c0,0.6,0,1.3,0,1.9c0,0.5,0,1.1,0,1.6c0,0.6-0.1,1.1-0.4,1.4
				c-0.3,0.3-0.8,0.4-1.4,0.4c-0.2,0-0.5,0-0.7-0.1c-0.5-0.1-0.9-0.4-1-0.9c-0.1-0.3-0.1-0.6-0.1-0.9c0-1.3,0-2.7,0-4l0-1.2h-0.1
				l0-1.7c0-1.3,0-2.6,0-3.8c0-1.1,0.3-1.5,1.4-1.5c0.9,0,1.9,0,2.8,0c1.1,0,1.6,0.4,1.8,1.5l0,0.1c0,0.1,0,0.1,0,0.2
				c0.2,0.4,0.3,0.9,0.5,1.3c0.3,0.9,0.6,1.7,0.9,2.6c0.1,0.3,0.2,0.7,0.3,1c0,0.1,0.1,0.3,0.1,0.4c0,0,0,0.1,0,0.1
				c0,0.1,0,0.1,0,0.2l0,0c0,0.1,0.1,0.2,0.2,0.3c0.1,0,0.2-0.1,0.3-0.2c0.3-0.7,0.6-1.4,0.9-2c0.2-0.4,0.3-0.9,0.5-1.4l0.1-0.4
				c0.1-0.2,0.1-0.3,0.1-0.5c0.1-0.2,0.1-0.5,0.2-0.7c0.2-0.6,0.4-1.1,0.7-1.7c0.2-0.5,0.7-0.8,1.3-0.8c0.9,0,1.9,0,2.9,0
				c1,0,1.4,0.4,1.4,1.4c0,1.6,0,3.3,0,4.9c0,0.8,0,1.6,0,2.4c0,0.7,0,1.3,0,2c0,0.5,0,1.1,0,1.6v0.1c0,0.2,0,0.4,0,0.7
				c-0.1,0.8-0.5,1.2-1.4,1.2l-0.2,0C151,33.1,150.8,33.1,150.7,33.1z M149,24.4L149,24.4c0.1,0.1,0.2,0.2,0.2,0.2
				c0.1,0.1,0.2,0.2,0.2,0.3c0.1,0.4,0.1,0.7,0.1,1c0,0.9,0,1.8,0,2.8c0,0.8,0,1.7,0,2.5c0,0.4,0,0.7,0.1,1c0.1,0.4,0.3,0.6,0.8,0.6
				c0.2,0,0.4,0,0.7,0l0.2,0c0.7,0,1-0.3,1.1-1c0-0.2,0-0.4,0-0.6v-0.1c0-0.5,0-1.1,0-1.6c0-0.7,0-1.3,0-2c0-0.8,0-1.6,0-2.4
				c0-1.6,0-3.2,0-4.8c0-0.8-0.3-1.1-1.1-1.1c-1,0-2,0-2.9,0c-0.5,0-0.9,0.2-1.1,0.6c-0.3,0.6-0.5,1.1-0.7,1.7
				c-0.1,0.2-0.2,0.5-0.2,0.7c0,0.2-0.1,0.3-0.1,0.5l-0.1,0.4c-0.1,0.5-0.3,0.9-0.5,1.4c-0.3,0.7-0.5,1.3-0.9,2
				c-0.1,0.2-0.3,0.3-0.5,0.3c0,0,0,0,0,0c-0.2,0-0.3-0.2-0.4-0.4l0,0c0-0.1-0.1-0.2-0.1-0.3c0,0,0-0.1,0-0.1c0-0.1-0.1-0.3-0.1-0.4
				c-0.1-0.3-0.2-0.7-0.3-1c-0.3-0.9-0.6-1.7-0.9-2.6c-0.2-0.4-0.3-0.9-0.5-1.3c0-0.1,0-0.1-0.1-0.2l0-0.1c-0.2-1-0.5-1.3-1.6-1.3
				c-0.9,0-1.8,0-2.8,0c-0.9,0-1.2,0.3-1.2,1.2c0,1.3,0,2.6,0,3.8l0,1.4h0.1l0,1.4c0,1.3,0,2.7,0,4c0,0.3,0,0.6,0.1,0.9
				c0.1,0.4,0.3,0.6,0.7,0.7c0.2,0,0.4,0.1,0.7,0.1c0.6,0,1-0.1,1.2-0.3c0.2-0.2,0.4-0.6,0.4-1.2c0-0.5,0-1.1,0-1.6
				c0-0.6,0-1.3,0-1.9c0-0.5,0.1-1.1,0.1-1.6c0.1-0.4,0.2-0.5,0.3-0.5c0.1,0,0.3,0,0.5,0.3c0.2,0.3,0.4,0.6,0.5,0.9
				c0.3,0.7,0.5,1.4,0.7,2.1c0.3,1,0.6,2,1.1,2.9c0.4,0.9,0.5,1,1.5,1c0.1,0,0.1,0,0.2,0c0.1,0,0.1,0,0.2,0c0.8,0,1.5-0.5,1.7-1.2
				c0.2-0.7,0.4-1.3,0.6-2c0.2-0.6,0.4-1.2,0.6-1.7c0.3-1,0.7-2,1-3c0-0.1,0.1-0.2,0.2-0.3C148.9,24.6,148.9,24.6,149,24.4L149,24.4
				z"/>
		</g>
	</g>
	<g>
		<g>
			<path d="M230.7,26c0,1.8,0,3.6,0,5.3c0,0.1,0,0.3,0,0.4c-0.1,0.9-0.4,1.2-1.3,1.2c-0.4,0-0.8,0-1.3,0c-0.6,0-1-0.1-1.3-0.5
				c-0.3-0.5-0.7-0.9-1-1.4c-0.4-0.6-0.8-1.2-1.1-1.9c-0.5-0.9-1.1-1.8-1.6-2.6c-0.1-0.1-0.2-0.3-0.3-0.4c-0.3-0.3-0.6-0.2-0.7,0.1
				c-0.1,0.3-0.1,0.6-0.1,0.8c0,1.4,0,2.8,0,4.2c0,0.2,0,0.5-0.1,0.7c-0.1,0.5-0.4,0.8-0.9,0.9c-0.5,0-1,0-1.6,0c-0.6-0.1-1-0.4-1-1
				c0-0.6,0-1.3,0-1.9c0-3-0.1-6.1-0.1-9.1c0-1.5,0.2-1.8,1.8-1.8c0.5,0,1,0,1.6,0c0.7,0,1.1,0.3,1.5,0.9c0.8,1.4,1.7,2.8,2.5,4.2
				c0.2,0.3,0.2,0.6,0.4,0.8c0.1,0.2,0.3,0.3,0.5,0.4c0.1-0.2,0.3-0.4,0.4-0.5c0.1-0.4,0-0.8,0-1.2c0-1.1-0.1-2.2-0.1-3.4
				c0-0.8,0.3-1.1,1.1-1.2c0.5,0,1.1-0.1,1.6-0.1c0.8,0,1.2,0.3,1.2,1.1c0,1.3,0,2.7,0,4C230.8,24.8,230.8,25.4,230.7,26
				C230.8,26,230.8,26,230.7,26z"/>
		</g>
		<g>
			<path class="st0" d="M228,33.1c-0.5,0-0.9-0.2-1.2-0.6c-0.3-0.4-0.6-0.9-1-1.4c-0.3-0.4-0.5-0.8-0.8-1.2
				c-0.1-0.2-0.3-0.4-0.4-0.6c-0.5-0.9-1.1-1.8-1.6-2.6l0-0.1c-0.1-0.1-0.1-0.2-0.2-0.3c-0.1-0.1-0.2-0.2-0.3-0.1
				c-0.1,0-0.1,0.1-0.2,0.2c-0.1,0.3-0.1,0.5-0.1,0.8c0,0.7,0,1.5,0,2.2c0,0.7,0,1.3,0,2c0,0.3,0,0.5-0.1,0.7
				c-0.1,0.6-0.5,0.9-1.1,1c-0.5,0-1.1,0-1.6,0c-0.7-0.1-1.1-0.5-1.1-1.1c0-0.5,0-1,0-1.5l0-2.1c0-2.5-0.1-4.9-0.1-7.4
				c0-1.6,0.3-1.9,1.9-1.9c0.4,0,1,0,1.6,0c0.7,0,1.2,0.3,1.6,1c0.5,0.9,1,1.7,1.5,2.5c0.3,0.5,0.7,1.1,1,1.6
				c0.1,0.1,0.1,0.3,0.2,0.4c0.1,0.2,0.1,0.3,0.2,0.4c0.1,0.1,0.2,0.2,0.3,0.2c0,0,0,0,0.1,0c0,0,0-0.1,0.1-0.1
				c0.1-0.1,0.2-0.2,0.2-0.3c0-0.3,0-0.6,0-0.9c0-0.1,0-0.2,0-0.3c0-0.4,0-0.8,0-1.1c0-0.7,0-1.5,0-2.2c0-0.9,0.3-1.2,1.2-1.3
				c0.5,0,1.1-0.1,1.6-0.1c0,0,0,0,0,0c0.9,0,1.2,0.4,1.3,1.3c0,0.9,0,1.9,0,2.8c0,0.4,0,0.8,0,1.2v1.9h-0.1l0,5.2
				c0,0.2,0,0.3,0,0.5c-0.1,1-0.4,1.3-1.4,1.3l-0.1,0c-0.4,0-0.8,0-1.1,0C228.1,33.1,228,33.1,228,33.1z M222.5,25.8
				c0.1,0,0.3,0.1,0.4,0.2c0.1,0.1,0.2,0.2,0.2,0.3l0,0.1c0.5,0.9,1.1,1.8,1.6,2.6c0.1,0.2,0.3,0.4,0.4,0.6c0.2,0.4,0.5,0.8,0.8,1.2
				c0.3,0.5,0.6,1,0.9,1.4c0.3,0.4,0.7,0.5,1.2,0.5c0.4,0,0.8,0,1.2,0l0.1,0c0.9,0,1.1-0.2,1.2-1.1c0-0.1,0-0.3,0-0.4l0-5.5h0.1
				v-1.6c0-0.4,0-0.8,0-1.2c0-0.9,0-1.9,0-2.8c0-0.7-0.3-1-1-1c0,0,0,0,0,0c-0.5,0-1.1,0-1.6,0.1c-0.8,0.1-1,0.3-1,1
				c0,0.7,0,1.5,0,2.2c0,0.4,0,0.8,0,1.1c0,0.1,0,0.2,0,0.3c0,0.3,0,0.6,0,0.9c0,0.2-0.1,0.3-0.3,0.4c0,0.1-0.1,0.1-0.1,0.2
				l-0.1,0.1l-0.1-0.1c0,0-0.1-0.1-0.2-0.1c-0.1-0.1-0.3-0.2-0.4-0.3c-0.1-0.1-0.2-0.3-0.2-0.5c-0.1-0.1-0.1-0.2-0.2-0.3
				c-0.3-0.5-0.7-1.1-1-1.6c-0.5-0.8-1-1.7-1.5-2.5c-0.3-0.6-0.8-0.8-1.4-0.8c-0.6,0-1.1,0-1.6,0c-1.5,0-1.7,0.2-1.6,1.6
				c0,2.5,0.1,4.9,0.1,7.4l0,2.1c0,0.5,0,1,0,1.5c0,0.5,0.3,0.9,0.9,0.9c0.5,0,1,0,1.5,0c0.5,0,0.7-0.3,0.8-0.8
				c0-0.2,0.1-0.4,0.1-0.7c0-0.7,0-1.3,0-2c0-0.7,0-1.5,0-2.2c0-0.3,0-0.6,0.1-0.9C222.1,26,222.2,25.9,222.5,25.8
				C222.4,25.8,222.5,25.8,222.5,25.8z"/>
		</g>
	</g>
	<g>
		<g>
			<path d="M167.5,25.9c0-1.8,0-3.6,0-5.5c0-1,0.3-1.3,1.2-1.3c0.8,0,1.6,0,2.4,0c0.5,0,0.8,0.3,1.1,0.7c0.5,0.9,1,1.7,1.5,2.5
				c0.4,0.7,0.9,1.5,1.3,2.3c0.1,0.3,0.2,0.7,0.6,0.6c0.4-0.1,0.4-0.5,0.4-0.8c0-1-0.1-2-0.1-3c0-0.5,0-1,0.1-1.5
				c0-0.5,0.3-0.8,0.8-0.8c0.8-0.1,1.5-0.1,2.3-0.1c0.5,0,0.7,0.3,0.8,0.9c0,1.2,0,2.4,0,3.6c0,2.5,0,5,0,7.4c0,0.4,0,0.7-0.1,1.1
				c-0.1,0.6-0.4,0.8-1,0.8c-0.6,0-1.2,0-1.8,0c-0.3,0-0.6-0.2-0.8-0.4c-0.4-0.5-0.8-1.1-1.2-1.6c-0.5-0.8-1.1-1.6-1.6-2.4
				c-0.4-0.7-0.8-1.4-1.2-2.1c-0.2-0.3-0.3-0.6-0.7-0.6c-0.4,0.1-0.4,0.5-0.4,0.8c0,1.5,0,3,0,4.4c0,0,0,0.1,0,0.1
				c0,1.3-0.3,1.7-1.6,1.7c-0.3,0-0.5,0-0.8,0c-0.7-0.1-1-0.4-1.1-1.1c0-0.3,0-0.5,0-0.8C167.5,29.3,167.6,27.6,167.5,25.9
				C167.5,25.9,167.5,25.9,167.5,25.9z"/>
		</g>
		<g>
			<path class="st0" d="M177.7,33.1c-0.3,0-0.5,0-0.8,0c-0.3,0-0.7-0.2-0.9-0.4c-0.4-0.5-0.8-1.1-1.2-1.6c-0.6-0.9-1.1-1.7-1.6-2.4
				c-0.3-0.5-0.6-1-0.8-1.4c-0.1-0.2-0.2-0.4-0.3-0.6c0,0,0-0.1-0.1-0.1c-0.2-0.3-0.2-0.4-0.5-0.4c-0.3,0.1-0.3,0.3-0.3,0.7v0
				c0,1.1,0,2.3,0,3.4l0,1.1c0,0.7-0.1,1.2-0.4,1.4c-0.3,0.3-0.7,0.4-1.4,0.4c-0.3,0-0.5,0-0.8,0c-0.8-0.1-1.2-0.4-1.2-1.2
				c0-0.2,0-0.5,0-0.7V31c0-1.3,0-2.5,0-3.8v-1.1h-0.1l0-1.7c0-1.3,0-2.6,0-3.9c0-1,0.3-1.4,1.4-1.4c0.8,0,1.7,0,2.4,0
				c0.5,0,0.9,0.3,1.2,0.8c0.3,0.5,0.6,0.9,0.9,1.4c0.2,0.4,0.5,0.7,0.7,1.1c0.3,0.5,0.6,1,0.9,1.5c0.1,0.2,0.3,0.5,0.4,0.7
				c0,0.1,0.1,0.1,0.1,0.2c0.1,0.3,0.2,0.4,0.4,0.3c0.3-0.1,0.3-0.3,0.3-0.6l0-0.1c0-0.5,0-1.1-0.1-1.6c0-0.5,0-0.9,0-1.4
				c0-0.5,0-1,0.1-1.5c0-0.5,0.4-0.9,0.9-0.9c0.9-0.1,1.6-0.1,2.3-0.1c0.5,0,0.9,0.4,0.9,1c0,1.2,0,2.5,0,3.6c0,2.5,0,5,0,7.4
				c0,0.3,0,0.7-0.1,1.1c-0.1,0.6-0.5,0.9-1.1,0.9c-0.2,0-0.3,0-0.5,0C178.1,33.1,177.9,33.1,177.7,33.1z M171.6,25.8
				c0.3,0,0.5,0.3,0.6,0.5c0,0,0,0.1,0.1,0.1c0.1,0.2,0.2,0.4,0.3,0.6c0.3,0.5,0.5,1,0.8,1.4c0.5,0.8,1,1.6,1.6,2.4
				c0.4,0.5,0.7,1.1,1.2,1.6c0.1,0.2,0.4,0.3,0.7,0.3c0.4,0,0.9,0,1.4,0c0.2,0,0.3,0,0.5,0c0.5,0,0.8-0.2,0.9-0.7
				c0.1-0.4,0.1-0.7,0.1-1.1c0-2.5,0-5,0-7.4c0-1.2,0-2.4,0-3.6c0-0.5-0.2-0.7-0.6-0.7c-0.7,0-1.4,0-2.3,0.1c-0.4,0-0.6,0.3-0.7,0.7
				c0,0.5-0.1,1-0.1,1.5c0,0.5,0,0.9,0,1.4c0,0.5,0,1.1,0.1,1.6l0,0.1c0,0.3,0,0.8-0.5,0.9c-0.4,0.1-0.6-0.3-0.7-0.5
				c0-0.1-0.1-0.1-0.1-0.2c-0.1-0.2-0.3-0.5-0.4-0.7c-0.3-0.5-0.6-1-0.9-1.5c-0.2-0.4-0.5-0.7-0.7-1.1c-0.3-0.5-0.6-0.9-0.9-1.4
				c-0.3-0.5-0.6-0.7-1-0.7c-0.7,0-1.6-0.1-2.4,0c-0.9,0-1.1,0.3-1.1,1.2c0,1.3,0,2.6,0,3.9l0,1.5h0.1v1.4c0,1.3,0,2.5,0,3.8v0.1
				c0,0.2,0,0.5,0,0.7c0.1,0.7,0.3,0.9,1,1c0.3,0,0.5,0,0.8,0c0.7,0,1-0.1,1.2-0.3c0.2-0.2,0.3-0.6,0.3-1.3l0-1.1c0-1.1,0-2.3,0-3.4
				v0c0-0.3,0-0.8,0.5-0.9C171.5,25.8,171.6,25.8,171.6,25.8z"/>
		</g>
	</g>
	<g>
		<g>
			<path d="M259,26.1c0,1.8,0,3.6,0,5.3c0,0.2,0,0.3,0,0.5c-0.1,0.8-0.4,1.1-1.2,1.1c-0.5,0-1,0-1.5,0c-0.3-0.1-0.7-0.2-1-0.4
				c-0.4-0.4-0.7-0.9-1-1.3c-0.8-1.2-1.5-2.5-2.3-3.7c-0.3-0.4-0.5-0.9-0.7-1.3c-0.1-0.1-0.3-0.4-0.4-0.3c-0.2,0.1-0.3,0.3-0.4,0.4
				c-0.1,0.2-0.1,0.4-0.1,0.6c0,1.5,0,3,0,4.5c0,0.3,0,0.5-0.1,0.8c-0.1,0.6-0.4,0.8-1,0.8c-0.5,0-1,0-1.5,0c-0.7-0.1-1-0.3-1-1
				c-0.1-0.6-0.1-1.1-0.1-1.7c0-3.1-0.1-6.1-0.1-9.2c0,0,0,0,0,0c0-1.6,0.2-1.8,1.8-1.8c0.6,0,1.1,0,1.7,0c0.6,0,1,0.2,1.3,0.8
				c0.8,1.3,1.6,2.6,2.4,3.9c0.2,0.3,0.3,0.5,0.4,0.8c0.1,0.1,0.1,0.3,0.2,0.4c0.2,0.2,0.5,0.3,0.7,0.4c0.1-0.2,0.2-0.5,0.2-0.7
				c0-1.2-0.1-2.5-0.1-3.7c0-0.3,0-0.6,0-0.9c0.1-0.6,0.4-0.9,0.9-1c0.6-0.1,1.2-0.1,1.8-0.1c0.5,0,0.8,0.3,0.8,0.8
				c0.1,0.4,0.1,0.7,0.1,1.1C259.1,22.7,259.1,24.4,259,26.1C259.1,26.1,259.1,26.1,259,26.1z"/>
		</g>
		<g>
			<path class="st0" d="M257,33.1c-0.2,0-0.5,0-0.7,0c-0.2,0-0.7-0.1-1-0.5c-0.4-0.4-0.7-0.9-1-1.3c-0.8-1.3-1.6-2.5-2.3-3.7
				c-0.1-0.2-0.2-0.4-0.4-0.7c-0.1-0.2-0.2-0.5-0.4-0.7c-0.1-0.1-0.2-0.3-0.3-0.3c-0.1,0-0.2,0.2-0.3,0.4c-0.1,0.1-0.1,0.3-0.1,0.5
				l0,0.1c0,0.7,0,1.4,0,2.1c0,0.8,0,1.6,0,2.4c0,0.3,0,0.5-0.1,0.8c-0.1,0.6-0.5,0.9-1.1,0.9c0,0,0,0,0,0l-0.2,0
				c-0.4,0-0.9,0-1.4,0c-0.7-0.1-1.1-0.4-1.2-1.1c-0.1-0.6-0.1-1.1-0.1-1.7c0-2.3,0-4.6-0.1-6.9l0-2.3c0-1.7,0.2-1.9,1.9-1.9
				c0.4,0,0.7,0,1.1,0c0.2,0,0.4,0,0.6,0c0,0,0,0,0,0c0.7,0,1.1,0.3,1.5,0.8c0.5,0.9,1,1.7,1.5,2.5c0.3,0.5,0.6,0.9,0.8,1.4
				c0.1,0.2,0.2,0.3,0.3,0.5c0.1,0.1,0.1,0.2,0.2,0.3c0,0,0,0.1,0.1,0.1c0,0.1,0.1,0.2,0.1,0.2c0.1,0.1,0.3,0.2,0.5,0.3
				c0,0,0.1,0,0.1,0c0,0,0-0.1,0-0.1c0.1-0.1,0.1-0.3,0.1-0.4c0-0.8,0-1.6,0-2.4c0-0.4,0-0.8,0-1.2c0-0.3,0-0.6,0-0.9
				c0.1-0.6,0.4-1,1-1.1c0.6-0.1,1.2-0.1,1.9-0.1c0.5,0,0.9,0.3,0.9,0.9c0.1,0.4,0.1,0.8,0.1,1.1c0,1.2,0,2.5,0,3.7l0,1.5l-0.1,0
				v1.2c0,1.3,0,2.7,0,4c0,0.1,0,0.3,0,0.5c-0.1,0.9-0.5,1.2-1.3,1.2c-0.2,0-0.3,0-0.5,0C257.2,33.1,257.1,33.1,257,33.1z M251,25.7
				c0.2,0,0.4,0.3,0.5,0.4c0.1,0.2,0.3,0.5,0.4,0.7c0.1,0.2,0.2,0.4,0.4,0.6c0.7,1.2,1.5,2.4,2.3,3.7c0.3,0.5,0.6,0.9,1,1.3
				c0.2,0.2,0.5,0.3,0.9,0.4c0.3,0,0.7,0,1,0c0.2,0,0.3,0,0.5,0c0,0,0,0,0.1,0c0.7,0,0.9-0.2,1-0.9c0-0.2,0-0.3,0-0.5
				c0-1.3,0-2.7,0-4v-1.5h0.1l0-1.2c0-1.2,0-2.5,0-3.7c0-0.3,0-0.7-0.1-1.1c-0.1-0.5-0.3-0.7-0.7-0.7c-0.6,0-1.2,0-1.8,0.1
				c-0.5,0.1-0.7,0.3-0.8,0.8c0,0.3,0,0.6,0,0.8c0,0.4,0,0.8,0,1.2c0,0.8,0,1.6,0,2.4c0,0.2-0.1,0.4-0.2,0.5c0,0.1-0.1,0.1-0.1,0.2
				l0,0.1l-0.1-0.1c-0.1,0-0.1-0.1-0.2-0.1c-0.2-0.1-0.4-0.2-0.5-0.3c-0.1-0.1-0.2-0.2-0.2-0.3c0,0,0-0.1,0-0.1
				c-0.1-0.1-0.1-0.2-0.2-0.3c-0.1-0.2-0.2-0.3-0.3-0.5c-0.3-0.5-0.6-0.9-0.8-1.4c-0.5-0.8-1-1.7-1.5-2.5c-0.3-0.5-0.7-0.7-1.2-0.7
				c0,0,0,0,0,0c-0.2,0-0.4,0-0.6,0c-0.4,0-0.7,0-1.1,0c-1.5,0-1.6,0.2-1.6,1.7l-0.1,0l0.1,0l0,2.3c0,2.3,0,4.6,0.1,6.9
				c0,0.6,0,1.1,0.1,1.7c0.1,0.6,0.3,0.8,0.9,0.9c0.4,0,0.9,0,1.3,0l0.2,0c0,0,0,0,0,0c0.5,0,0.8-0.2,0.9-0.7c0-0.2,0.1-0.5,0.1-0.7
				c0-0.8,0-1.6,0-2.4c0-0.7,0-1.4,0-2.1l0-0.1c0-0.2,0-0.4,0.1-0.6C250.5,26,250.7,25.8,251,25.7C250.9,25.7,251,25.7,251,25.7z"/>
		</g>
	</g>
	<g>
		<g>
			<path d="M87.3,26.5c0-1.2,0-2.3,0-3.5c0-0.5,0.2-0.9,0.4-1.4c0.9-1.9,2.5-2.7,4.6-2.6c1.1,0,2.3,0,3.3,0.2c2,0.3,3.6,2.2,3.6,4.2
				c0,1.8,0,3.6,0,5.4c0,0.4-0.2,0.8-0.3,1.2c-0.3,0.9-0.1,1.2,0.8,1.4c0.6,0.2,0.9,0.5,0.8,1.2c-0.1,0.8-0.5,1.2-1.1,1.2
				c-0.9,0-1.7-0.4-2.5-0.8c-0.5-0.3-0.9-0.3-1.5-0.1c-1.7,0.5-3.4,0.3-5.1-0.2c-1.1-0.4-2-1.1-2.5-2.1c-0.2-0.4-0.3-0.9-0.4-1.4
				C87.3,28.3,87.3,27.4,87.3,26.5C87.3,26.5,87.3,26.5,87.3,26.5z M91.1,26c0,1-0.1,1.9,0,2.9c0.1,0.9,0.8,1.5,1.7,1.5
				c0.2,0,0.5-0.1,0.7-0.3c0.1-0.1-0.1-0.5-0.2-0.6c-0.4-0.4-0.5-0.9-0.4-1.4c0.1-0.9,0.4-1.2,1.2-0.8c0.1,0,0.1,0,0.2,0.1
				c0.6,0.1,1-0.1,1-0.8c0-0.4,0-0.8,0-1.3c0-0.7,0-1.5-0.1-2.2c-0.1-0.8-0.5-1.2-1.3-1.2c-0.3,0-0.6,0-0.9,0c-1,0-1.7,0.7-1.7,1.7
				C91.1,24.4,91.1,25.2,91.1,26z"/>
		</g>
		<g>
			<path class="st0" d="M99.3,34c-0.9,0-1.7-0.4-2.5-0.8c-0.5-0.2-0.9-0.3-1.4-0.1c-1.6,0.5-3.3,0.4-5.1-0.2c-1.2-0.4-2-1.1-2.6-2.2
				c-0.2-0.4-0.4-1-0.4-1.4c0-0.6,0-1.3,0-1.9c0-0.2,0-0.4,0-0.7h-0.1v-0.1c0-0.3,0-0.7,0-1c0-0.8,0-1.6,0-2.5c0-0.5,0.2-1,0.4-1.4
				c0.9-1.8,2.5-2.7,4.6-2.7c0,0,0.1,0,0.1,0l0.4,0c1,0,2,0,3,0.2c2.1,0.3,3.7,2.2,3.7,4.3c0,1.8,0,3.6,0,5.4c0,0.4-0.1,0.7-0.2,1.1
				L99,30.1c-0.1,0.4-0.1,0.7-0.1,0.9c0.1,0.2,0.3,0.3,0.7,0.4c0.7,0.2,1,0.6,0.9,1.3C100.4,33.5,100,34,99.3,34
				C99.3,34,99.3,34,99.3,34z M95.9,32.7c0.3,0,0.6,0.1,0.9,0.2c0.8,0.4,1.6,0.8,2.4,0.8c0,0,0,0,0,0c0.6,0,0.9-0.3,1-1.1
				c0.1-0.6-0.1-0.9-0.7-1.1c-0.5-0.1-0.7-0.3-0.9-0.5c-0.1-0.2-0.1-0.6,0-1l0.1-0.2c0.1-0.3,0.2-0.7,0.2-1c0-1.8,0.1-3.6,0-5.4
				c0-2-1.5-3.8-3.5-4.1c-1-0.1-2-0.2-2.9-0.2l-0.4,0c0,0-0.1,0-0.1,0c-2,0-3.5,0.9-4.4,2.6c-0.2,0.4-0.3,0.9-0.3,1.3
				c0,0.8,0,1.6,0,2.5c0,0.3,0,0.6,0,0.9h0.1v0.1c0,0.3,0,0.5,0,0.8c0,0.6,0,1.3,0,1.9c0,0.5,0.2,0.9,0.4,1.3c0.5,1,1.3,1.7,2.4,2.1
				c1.8,0.6,3.4,0.7,5,0.2C95.5,32.7,95.7,32.7,95.9,32.7z M92.7,30.6c-0.9,0-1.6-0.7-1.7-1.6c-0.1-0.7,0-1.4,0-2c0-0.3,0-0.6,0-0.9
				l0,0c0-0.3,0-0.5,0-0.8c0-0.6,0-1.1,0-1.7c0-1.1,0.7-1.8,1.8-1.8c0.3,0,0.5,0,0.8,0l0.2,0c0.9,0,1.4,0.5,1.5,1.3
				c0,0.5,0.1,1,0.1,1.6c0,0.2,0,0.5,0,0.7l0,0.4c0,0.3,0,0.6,0,0.9c0,0.4-0.1,0.6-0.3,0.8c-0.2,0.2-0.5,0.2-0.8,0.1
				c-0.1,0-0.1,0-0.2-0.1c-0.3-0.2-0.5-0.2-0.7-0.1c-0.2,0.1-0.3,0.4-0.4,0.8c-0.1,0.5,0,0.9,0.4,1.3c0.1,0.1,0.4,0.6,0.2,0.8
				C93.4,30.4,93.1,30.6,92.7,30.6C92.7,30.6,92.7,30.6,92.7,30.6z M91.2,26c0,0.3,0,0.6,0,0.9c0,0.7,0,1.3,0,2
				c0.1,0.8,0.7,1.4,1.4,1.4c0,0,0,0,0.1,0c0.2,0,0.5-0.1,0.6-0.3c0-0.1-0.1-0.3-0.2-0.4c-0.4-0.4-0.5-0.9-0.4-1.5
				c0.1-0.5,0.2-0.9,0.5-1c0.2-0.1,0.5-0.1,0.9,0.1c0,0,0.1,0,0.1,0c0.3,0.1,0.5,0,0.6-0.1s0.2-0.3,0.2-0.6c0-0.3,0-0.6,0-0.9l0-0.4
				c0-0.2,0-0.5,0-0.7c0-0.5,0-1-0.1-1.5c-0.1-0.7-0.5-1.1-1.2-1.1l-0.2,0c-0.2,0-0.5,0-0.7,0c-1,0-1.5,0.6-1.6,1.6
				c0,0.6,0,1.1,0,1.7C91.2,25.5,91.2,25.8,91.2,26L91.2,26z"/>
		</g>
	</g>
	<g>
		<g>
			<path d="M101.3,24.8c0-1.4,0-2.9,0-4.3c0-1.1,0.4-1.4,1.5-1.3c0.4,0,0.8,0,1.2,0c0.9-0.1,1.3,0.3,1.3,1.2c0,2.6,0,5.3-0.1,7.9
				c0,0.7,0,1.3,0.6,1.8c0.2,0.2,0.5,0.4,0.7,0.4c0.7,0,1.3,0.1,2,0c0.6-0.1,1.2-1,1.2-1.8c0-2.4-0.1-4.9-0.1-7.3
				c0-0.4,0-0.9,0.1-1.3c0.1-0.4,0.3-0.7,0.8-0.8c0.9,0,1.7,0,2.6,0.1c0.4,0,0.6,0.4,0.6,0.7c0,0.4,0.1,0.7,0.1,1.1
				c0,2.7-0.1,5.3-0.1,8c0,1.5-1.1,2.9-2.5,3.4c-1.8,0.7-3.5,0.9-5.4,0.5c-0.9-0.2-1.8-0.4-2.5-0.8c-1.1-0.6-1.8-1.7-1.8-3
				C101.3,27.8,101.4,26.3,101.3,24.8C101.3,24.8,101.3,24.8,101.3,24.8z"/>
		</g>
		<g>
			<path class="st0" d="M107.4,33.3c-0.6,0-1.2-0.1-1.7-0.2c-0.7-0.1-1.7-0.3-2.5-0.8c-1.2-0.7-1.9-1.8-1.9-3.1c0-1,0-2.1,0-3.1
				c0-0.4,0-0.8,0-1.2h-0.1l0-1.4c0-1,0-2,0-3c0-0.6,0.1-1,0.4-1.2c0.2-0.2,0.6-0.3,1.2-0.3c0.4,0,0.8,0,1.2,0
				c0.5,0,0.9,0.1,1.1,0.3c0.2,0.2,0.3,0.5,0.3,1c0,2.7,0,5.4-0.1,7.9l0,0c0,0.6,0,1.3,0.5,1.7c0.2,0.2,0.4,0.3,0.6,0.3
				c0.6,0,1.3,0.1,2,0c0.5-0.1,1.1-0.9,1.1-1.6c0-1,0-2.1-0.1-3.1c0-1.4,0-2.8-0.1-4.2c0-0.5,0-0.9,0.1-1.4c0.1-0.5,0.4-0.9,0.9-0.9
				c0.8,0,1.7,0,2.6,0.1c0.4,0,0.7,0.3,0.7,0.8c0,0.4,0.1,0.8,0.1,1.1c0,1.7,0,3.4-0.1,5.2l0,2.8c0,1.5-1.1,3-2.6,3.6
				C109.9,33.1,108.6,33.3,107.4,33.3z M101.4,24.6L101.4,24.6l0.1,0.1c0,0.5,0,0.9,0,1.4c0,1,0,2.1,0,3.1c0,1.5,1,2.4,1.8,2.9
				c0.8,0.5,1.8,0.7,2.5,0.8c1.8,0.3,3.5,0.1,5.3-0.5c1.4-0.5,2.4-1.9,2.4-3.3l0-2.8c0-1.7,0-3.4,0.1-5.2c0-0.4,0-0.7-0.1-1.1
				c0-0.1-0.1-0.6-0.5-0.6c-0.9-0.1-1.7-0.1-2.6-0.1c-0.3,0-0.6,0.3-0.6,0.6c-0.1,0.4-0.1,0.9-0.1,1.3c0,1.4,0,2.8,0.1,4.2
				c0,1,0,2.1,0.1,3.1c0,0.8-0.6,1.8-1.3,1.9c-0.7,0.1-1.4,0.1-2,0c-0.3,0-0.5-0.2-0.8-0.4c-0.6-0.5-0.6-1.2-0.6-1.9l0,0
				c0-2.5,0.1-5.2,0.1-7.9c0-0.4-0.1-0.7-0.3-0.9c-0.2-0.2-0.5-0.2-0.9-0.2c-0.4,0-0.8,0-1.2,0c-0.5,0-0.9,0-1.1,0.2
				c-0.2,0.2-0.3,0.5-0.3,1c0,1,0,2,0,3L101.4,24.6z"/>
		</g>
	</g>
	<g>
		<g>
			<path d="M243.6,32.9c-1.1,0.3-1.7-0.3-2.1-1.3c-0.4-1.2-1.1-1.8-2.4-1.5c-0.5,0.1-1,0-1.5,0c-0.8,0-1.1,0.3-1.3,1
				c-0.2,0.6-0.3,1.2-0.9,1.5c-0.2,0.1-0.5,0.3-0.8,0.3c-0.5,0-1,0-1.5,0c-0.6,0-0.9-0.3-0.8-0.9c0.1-0.7,0.3-1.4,0.5-2.1
				c0.2-0.7,0.4-1.3,0.6-1.9c0.4-1.3,0.9-2.7,1.3-4c0.1-0.2,0.2-0.4,0.3-0.6c0.1-1.2,0.7-2.3,1.1-3.4c0.2-0.6,0.5-0.9,1.2-0.9
				c0.9,0,1.8,0,2.6,0c0.9,0,1.4,0.4,1.8,1.3c0.1,0.3,0.2,0.7,0.3,1.1c0.1,0.5,0.3,1,0.5,1.5c0.1,0.4,0.2,0.8,0.4,1.1
				c0.2,0.7,0.4,1.3,0.7,2c0,0,0,0.1,0.1,0.1c0.4,1.3,0.8,2.6,1.2,3.9c0.1,0.4,0.2,0.7,0.3,1.1c0.1,0.2,0.1,0.4,0.2,0.6
				c0.1,0.6-0.2,0.9-0.7,1C244.3,32.9,244,32.9,243.6,32.9z M238.9,27.6C238.9,27.6,238.9,27.6,238.9,27.6c0.2,0,0.3,0,0.4,0
				c0.6,0,0.9-0.4,0.7-1c-0.3-0.8-0.6-1.6-0.9-2.3c-0.1-0.2-0.3-0.3-0.4-0.4c-0.1,0.2-0.3,0.3-0.3,0.5c-0.2,0.7-0.3,1.5-0.7,2.1
				c-0.3,0.5-0.1,0.9,0.5,1C238.4,27.6,238.6,27.6,238.9,27.6z"/>
		</g>
		<g>
			<path class="st0" d="M243.1,33.1c-0.8,0-1.3-0.5-1.6-1.5c-0.4-1.2-1.1-1.7-2.3-1.4c-0.3,0.1-0.7,0-1,0c-0.2,0-0.4,0-0.5,0
				c-0.7,0-1,0.2-1.2,0.9c-0.1,0.6-0.3,1.2-0.9,1.6c-0.3,0.2-0.6,0.3-0.8,0.3c-0.5,0-1,0-1.5,0c-0.4,0-0.6-0.1-0.8-0.3
				c-0.1-0.2-0.2-0.4-0.2-0.7c0.1-0.7,0.3-1.3,0.5-1.9l0-0.2c0.1-0.5,0.3-1,0.5-1.5l0.1-0.4c0.4-1.3,0.9-2.7,1.3-4
				c0-0.1,0.1-0.2,0.1-0.3c0.1-0.1,0.1-0.2,0.1-0.3c0.1-0.9,0.4-1.7,0.7-2.5c0.1-0.3,0.3-0.6,0.4-1c0.2-0.7,0.6-0.9,1.3-0.9
				c0.8,0,1.7,0,2.6,0c0.9,0,1.5,0.4,1.9,1.4c0.1,0.2,0.1,0.4,0.2,0.7c0,0.1,0.1,0.3,0.1,0.4c0.1,0.5,0.3,1,0.4,1.5l0,0.1
				c0.1,0.3,0.2,0.6,0.3,0.9l0.1,0.2c0.2,0.7,0.4,1.3,0.7,2c0,0,0,0,0,0c0,0,0,0.1,0,0.1l1.2,3.9c0.1,0.2,0.1,0.4,0.2,0.6l0.1,0.4
				c0,0.1,0,0.1,0.1,0.2c0,0.1,0.1,0.3,0.1,0.4c0.1,0.3,0,0.6-0.1,0.8c-0.1,0.2-0.4,0.3-0.7,0.3c-0.2,0-0.5,0-0.7,0
				c-0.1,0-0.2,0-0.3,0C243.5,33.1,243.3,33.1,243.1,33.1z M239.7,29.9c1,0,1.6,0.5,2,1.7c0.4,1.1,1,1.5,1.9,1.2l0,0
				c0.1,0,0.2,0,0.3,0c0.2,0,0.5,0,0.7,0c0.2,0,0.4-0.1,0.5-0.2c0.1-0.1,0.1-0.3,0.1-0.6c0-0.1-0.1-0.3-0.1-0.4c0-0.1,0-0.1-0.1-0.2
				l-0.1-0.4c-0.1-0.2-0.1-0.4-0.2-0.6l-1.2-3.9c0,0,0,0,0,0c0,0,0,0,0-0.1c-0.2-0.7-0.4-1.3-0.7-2l-0.1-0.2
				c-0.1-0.3-0.2-0.6-0.3-0.9l0-0.1c-0.2-0.5-0.3-1-0.4-1.5c0-0.1-0.1-0.3-0.1-0.5c0-0.2-0.1-0.4-0.2-0.6c-0.3-0.9-0.8-1.3-1.6-1.3
				c-0.9,0-1.8,0-2.6,0c-0.6,0-0.9,0.2-1.1,0.8c-0.1,0.3-0.2,0.7-0.4,1c-0.3,0.8-0.6,1.6-0.7,2.4c0,0.1-0.1,0.3-0.2,0.4
				c0,0.1-0.1,0.2-0.1,0.2c-0.5,1.3-0.9,2.7-1.3,4l-0.1,0.4c-0.2,0.5-0.3,1-0.5,1.5l0,0.2c-0.2,0.6-0.4,1.3-0.5,1.9
				c0,0.2,0,0.4,0.1,0.5c0.1,0.1,0.3,0.2,0.6,0.2c0.5,0,1,0,1.5,0c0.2,0,0.5-0.1,0.7-0.3c0.5-0.3,0.7-0.9,0.8-1.4
				c0.2-0.8,0.6-1.1,1.4-1.1c0.2,0,0.4,0,0.5,0c0.3,0,0.7,0,1,0C239.4,29.9,239.5,29.9,239.7,29.9z M238.9,27.8c-0.1,0-0.2,0-0.2,0
				c-0.2,0-0.4,0-0.5-0.1c-0.3-0.1-0.6-0.2-0.7-0.5c-0.1-0.2-0.1-0.4,0.1-0.7c0.4-0.7,0.6-1.4,0.7-2.1c0-0.2,0.1-0.3,0.2-0.4
				c0,0,0.1-0.1,0.1-0.1l0.1-0.1l0.1,0.1c0,0,0.1,0.1,0.1,0.1c0.1,0.1,0.3,0.2,0.3,0.3c0.4,0.9,0.7,1.6,0.9,2.3
				c0.1,0.3,0.1,0.6-0.1,0.8c-0.1,0.2-0.4,0.3-0.8,0.4c-0.1,0-0.2,0-0.3,0L238.9,27.8z M238.8,27.5l0.3,0c0.1,0,0.2,0,0.3,0
				c0.3,0,0.5-0.1,0.6-0.3c0.1-0.1,0.1-0.3,0-0.6c-0.2-0.7-0.5-1.5-0.9-2.3c0-0.1-0.1-0.2-0.2-0.2c0,0,0,0-0.1,0c0,0,0,0-0.1,0.1
				c-0.1,0.1-0.2,0.2-0.2,0.3c-0.2,0.7-0.3,1.5-0.8,2.2c-0.1,0.2-0.1,0.4-0.1,0.5c0.1,0.2,0.2,0.3,0.5,0.3c0.2,0,0.3,0,0.5,0.1
				C238.7,27.5,238.7,27.5,238.8,27.5L238.8,27.5z"/>
		</g>
	</g>
	<g>
		<g>
			<path d="M275,26c0-1.6,0-3.1,0-4.7c0-0.3,0-0.5,0-0.8c0-1.1,0.3-1.4,1.4-1.5c2.5,0,4.9,0,7.4-0.1c0.2,0,0.5,0,0.7,0.1
				c0.5,0.1,0.8,0.5,0.9,1c0,0.1,0,0.1,0,0.2c0.1,1.3-0.3,1.7-1.6,1.7c-1.1,0-2.3,0-3.4,0c-0.4,0-0.9,0-1,0.5
				c-0.2,0.5-0.1,1.1,0.2,1.5c0.2,0.2,0.5,0.3,0.8,0.3c0.7,0,1.4,0,2.1,0c1,0,1.3,0.3,1.4,1.2c0,0.2,0,0.4,0,0.6
				c-0.1,1.1-0.4,1.4-1.6,1.3c-0.7,0-1.3-0.1-2,0c-0.7,0-0.9,0.3-1,1c0,0.4,0,0.8,0,1.3c0,0.4,0.2,0.6,0.6,0.7
				c0.4,0,0.7,0.1,1.1,0.1c1.1,0,2.2,0,3.3,0c1,0,1.4,0.3,1.4,1.1c0,1.1-0.4,1.6-1.4,1.6c-1.6,0-3.2,0-4.8-0.1c-0.9,0-1.8,0-2.7,0
				c-1.1,0-1.5-0.4-1.5-1.5c0-0.9,0-1.8,0-2.7C275.1,27.8,275.1,26.9,275,26C275,26,275,26,275,26z"/>
		</g>
		<g>
			<path class="st0" d="M284.1,33.2C284.1,33.2,284.1,33.2,284.1,33.2c-1,0-2,0-3,0c-0.6,0-1.2,0-1.8,0c-0.4,0-0.8,0-1.2,0
				c-0.5,0-1,0-1.5,0c-1.1,0-1.6-0.5-1.6-1.6c0-0.4,0-0.8,0-1.2c0-0.5,0-1,0-1.6c0-0.6,0-1.3,0-1.9l0-0.7h-0.1l0-5.1
				c0-0.2,0-0.3,0-0.5c0-1.2,0.4-1.6,1.5-1.6c2.2,0,4.4,0,6.6-0.1l0.8,0c0,0,0,0,0,0c0.2,0,0.5,0,0.7,0.1c0.6,0.1,0.9,0.5,1,1.1
				c0,0.1,0,0.2,0,0.2c0,0.7-0.1,1.2-0.4,1.5c-0.3,0.3-0.7,0.4-1.4,0.4c-0.7,0-1.5,0-2.2,0c-0.4,0-0.8,0-1.2,0c0,0,0,0,0,0
				c-0.5,0-0.8,0.1-0.9,0.4c-0.2,0.5-0.1,1,0.2,1.4c0.1,0.1,0.4,0.2,0.7,0.2c0.6,0,1.3,0,2,0l0.1,0c1,0,1.4,0.3,1.5,1.3
				c0,0.2,0,0.4,0,0.6c-0.1,1.2-0.5,1.5-1.7,1.4c-0.7,0-1.4,0-2,0c-0.6,0-0.8,0.2-0.9,0.8c0,0.4,0,0.8,0,1.2c0,0.4,0.3,0.5,0.5,0.5
				c0.3,0,0.7,0.1,1,0.1c0,0,0,0,0,0c0.5,0,1,0,1.5,0c0.6,0,1.2,0,1.8,0c1,0,1.5,0.4,1.5,1.2c0,0.6-0.1,1.1-0.4,1.4
				C284.9,33,284.6,33.2,284.1,33.2z M278.5,32.9c0.3,0,0.6,0,0.8,0c0.6,0,1.2,0,1.8,0c1,0,2,0,2.9,0c0,0,0,0,0,0
				c0.4,0,0.7-0.1,0.9-0.3c0.2-0.2,0.3-0.6,0.3-1.2c0-0.6-0.2-1-1.2-1c-0.6,0-1.2,0-1.8,0c-0.5,0-1,0-1.5,0c0,0,0,0,0,0
				c-0.4,0-0.7,0-1.1-0.1c-0.4-0.1-0.7-0.3-0.7-0.8c0-0.4,0-0.8,0-1.3c0.1-0.7,0.4-1,1.1-1.1c0.6,0,1.3,0,2,0
				c1.1,0.1,1.3-0.1,1.4-1.2c0-0.2,0-0.4,0-0.6c-0.1-0.9-0.4-1.2-1.3-1.1l-0.1,0c-0.6,0-1.3,0.1-2,0c-0.3,0-0.7-0.1-0.9-0.3
				c-0.4-0.4-0.4-1-0.2-1.6c0.2-0.6,0.8-0.6,1.2-0.6c0.4,0,0.8,0,1.2,0c0.7,0,1.5,0,2.2,0c0.6,0,1-0.1,1.2-0.3
				c0.2-0.2,0.3-0.6,0.3-1.3c0-0.1,0-0.1,0-0.2c0-0.5-0.3-0.8-0.8-0.9c-0.2-0.1-0.5-0.1-0.7-0.1c0,0,0,0,0,0l-0.8,0
				c-2.1,0-4.4,0-6.6,0.1c-1,0-1.3,0.3-1.3,1.3c0,0.2,0,0.3,0,0.5l0,0.3v4.6h0.1l0,0.9c0,0.6,0,1.3,0,1.9c0,0.5,0,1,0,1.6
				c0,0.4,0,0.8,0,1.2c0,1,0.4,1.3,1.3,1.4c0.5,0,1,0,1.5,0C278.2,32.9,278.3,32.9,278.5,32.9z"/>
		</g>
	</g>
	<g>
		<g>
			<path d="M261.2,25.8c-0.1-1.3,0-2.5,0.3-3.7c0.2-0.9,0.8-1.5,1.5-2.1c0.9-0.7,2-1.1,3.2-1c1.1,0,2.3,0,3.4,0.1
				c1.5,0.2,2.7,1.1,3.4,2.5c0.2,0.5,0.3,1.1,0.3,1.6c0,0.5-0.3,0.8-0.8,0.8c-0.8,0-1.6,0-2.4,0c-0.5,0-0.7-0.3-0.9-0.8
				c-0.2-0.9-0.5-1.2-1.5-1.2c-0.4,0-0.8,0-1.3,0c-0.5,0-0.9,0.3-1,0.8c-0.1,0.4-0.2,0.8-0.2,1.2c0,1.4-0.1,2.9-0.1,4.3
				c0,0.3,0,0.6,0.1,0.8c0.3,1,0.6,1.2,1.7,1.2c0.3,0,0.7,0,1,0c0.7-0.1,1.2-0.6,1.3-1.3c0.2-1.4,0.2-1.4,1.6-1.4c0.4,0,0.7,0,1.1,0
				c0.8,0,1.1,0.2,1.2,1c0,0.2,0,0.4,0,0.6c-0.3,1.6-1.1,2.9-2.8,3.4c-1,0.3-2,0.6-3.1,0.6c-1.3,0-2.5-0.2-3.6-0.7
				c-1.1-0.5-1.9-1.3-2.2-2.5C261.2,28.6,261.1,27.2,261.2,25.8z"/>
		</g>
		<g>
			<path class="st0" d="M267.3,33.4c-1.3,0-2.5-0.2-3.5-0.7c-1.2-0.6-1.9-1.4-2.3-2.6c-0.3-1.3-0.5-2.8-0.4-4.2
				c-0.1-1.3,0-2.5,0.3-3.7c0.3-1,0.9-1.7,1.5-2.1c0.9-0.8,2-1.1,3.2-1.1c0.4,0,0.8,0,1.2,0c0.7,0,1.5,0,2.2,0.1
				c1.6,0.2,2.8,1.1,3.5,2.5c0.3,0.5,0.3,1.1,0.4,1.6c0,0.3-0.1,0.5-0.2,0.7c-0.2,0.2-0.4,0.3-0.7,0.3c-0.8,0-1.5,0-2.4,0
				c-0.5,0-0.8-0.3-1-0.9c-0.2-0.9-0.5-1.1-1.4-1.1c-0.4,0-0.9,0-1.2,0c-0.5,0-0.8,0.3-0.9,0.7c-0.1,0.4-0.2,0.8-0.2,1.2
				c0,1.5-0.1,2.9-0.1,4.3c0,0.3,0,0.5,0.1,0.8c0.3,0.9,0.5,1.1,1.5,1.1c0.3,0,0.6,0,1,0c0.6-0.1,1.1-0.6,1.2-1.2
				c0.2-1.5,0.3-1.5,1.8-1.5c0.4,0,0.8,0,1.1,0c0.8,0,1.2,0.3,1.3,1.1c0,0.2,0,0.4,0,0.6c-0.4,1.9-1.3,3-2.8,3.5
				c-0.8,0.3-1.9,0.6-3.1,0.6C267.4,33.4,267.3,33.4,267.3,33.4z M265.9,19.1c-1.1,0-2,0.3-2.9,1c-0.6,0.5-1.2,1.1-1.4,2
				c-0.3,1.1-0.4,2.3-0.3,3.6v0c-0.1,1.5,0.1,2.9,0.4,4.2c0.3,1.1,1,1.9,2.1,2.5c1,0.5,2.1,0.7,3.4,0.7c0.1,0,0.1,0,0.2,0
				c0.9,0,1.8-0.2,3-0.6c1.5-0.5,2.3-1.6,2.7-3.3c0-0.2,0-0.4,0-0.5c-0.1-0.7-0.4-0.9-1.1-0.8c-0.4,0-0.8,0-1.1,0
				c-1.3,0-1.3,0-1.5,1.3c-0.1,0.7-0.7,1.3-1.4,1.4c-0.3,0-0.7,0-1,0c-1.1,0-1.4-0.3-1.8-1.3c-0.1-0.3-0.1-0.6-0.1-0.9
				c0-1.4,0-2.8,0.1-4.3c0-0.4,0.1-0.8,0.2-1.3c0.1-0.5,0.5-0.9,1.1-0.9c0.4,0,0.8,0,1.3,0c1,0.1,1.3,0.4,1.6,1.3
				c0.1,0.5,0.3,0.7,0.7,0.7c0.8,0,1.6,0,2.4,0c0.2,0,0.4-0.1,0.6-0.2c0.1-0.1,0.2-0.3,0.1-0.5c0-0.5-0.1-1.1-0.3-1.6
				c-0.7-1.4-1.9-2.2-3.3-2.4c-0.7-0.1-1.5-0.1-2.2-0.1c-0.4,0-0.8,0-1.2,0C266.1,19.1,266,19.1,265.9,19.1z"/>
		</g>
	</g>
	<g>
		<g>
			<path d="M122.7,25.9c0-1.7,0-3.4,0-5.2c0-0.1,0-0.3,0-0.4c0.1-0.8,0.4-1.2,1.2-1.2c0.9,0,1.8,0,2.7,0c1.1,0,2.3-0.1,3.4,0.1
				c1.6,0.3,3.1,0.9,4,2.3c0,0,0,0,0,0c0.6,0.9,0.5,3.3-0.3,4.1c-1.2,1.3-2.6,1.9-4.4,2c-0.7,0-1.4,0.1-2.1,0.2
				c-0.5,0.1-0.7,0.3-0.7,0.9c0,1,0,2,0,3c0,0.9-0.4,1.2-1.2,1.2c-0.5,0-1.1,0-1.6,0c-0.6,0-0.9-0.3-1-0.9c0-0.2-0.1-0.5-0.1-0.8
				C122.8,29.5,122.8,27.7,122.7,25.9C122.8,25.9,122.8,25.9,122.7,25.9z M126.8,23.5c0,0.2,0,0.4,0,0.6c0,0.9,0.6,1.3,1.4,1.1
				c0.5-0.1,1-0.3,1.5-0.4c0.6-0.2,0.9-0.5,0.8-1.2c0-0.8-0.3-1.2-0.9-1.4c-0.4-0.1-0.8-0.1-1.2-0.1C127,21.9,126.8,22.1,126.8,23.5
				z"/>
		</g>
		<g>
			<path class="st0" d="M124.5,33.1c-0.2,0-0.4,0-0.6,0c-0.6,0-1-0.4-1.1-1c-0.1-0.3-0.1-0.5-0.1-0.8c0-1.4,0-2.7,0-4.1l0-1.2h-0.1
				l0-5.3c0-0.2,0-0.3,0-0.5c0.1-0.9,0.5-1.3,1.4-1.3c0.8,0,1.7,0,2.5,0l0.2,0c0.3,0,0.7,0,1,0c0.8,0,1.6,0,2.4,0.1
				c1.2,0.2,3,0.7,4.1,2.4l-0.1,0.1l0.1-0.1c0.7,1,0.5,3.4-0.3,4.2c-1.2,1.3-2.7,2-4.5,2c-0.6,0-1.2,0.1-1.8,0.1l-0.3,0
				c-0.4,0-0.6,0.3-0.6,0.8c0,0.4,0,0.7,0,1c0,0.6,0,1.3,0,2c0,0.9-0.4,1.3-1.3,1.4C125.2,33.1,124.9,33.1,124.5,33.1z M122.9,25.8
				L122.9,25.8l0.1,1.4c0,1.4,0,2.7,0,4.1c0,0.2,0,0.5,0.1,0.7c0.1,0.5,0.4,0.8,0.9,0.8c0.6,0,1.1,0,1.6,0c0.8-0.1,1.1-0.3,1.1-1.1
				c0-0.6,0-1.3,0-1.9c0-0.4,0-0.7,0-1.1c0-0.6,0.3-1,0.8-1l0.3,0c0.6-0.1,1.2-0.1,1.8-0.1c1.8,0,3.2-0.7,4.3-1.9
				c0.7-0.8,0.9-3.1,0.3-3.9c0,0,0,0,0,0c-0.8-1.2-2-1.9-4-2.2c-0.8-0.1-1.6-0.1-2.4-0.1c-0.3,0-0.7,0-1,0l-0.2,0
				c-0.8,0-1.7,0-2.5,0c-0.8,0-1.1,0.3-1.1,1.1c0,0.1,0,0.3,0,0.4L122.9,25.8z M127.8,25.3c-0.3,0-0.5-0.1-0.7-0.2
				c-0.3-0.2-0.4-0.6-0.5-1c0-0.1,0-0.3,0-0.4l0-0.2c0-0.8,0-1.2,0.3-1.4c0.3-0.2,0.7-0.3,1.4-0.2c0.4,0,0.8,0.1,1.2,0.1
				c0.7,0.1,1,0.6,1,1.5c0,0.8-0.2,1.2-0.9,1.4c-0.5,0.2-1,0.3-1.5,0.4C128.1,25.3,128,25.3,127.8,25.3z M127.9,22.1
				c-0.4,0-0.6,0-0.7,0.2c-0.2,0.2-0.2,0.6-0.2,1.2l0,0.2c0,0.1,0,0.3,0,0.4c0,0.4,0.1,0.7,0.4,0.8c0.2,0.2,0.5,0.2,0.9,0.1
				c0.5-0.1,0.9-0.2,1.5-0.4c0.6-0.2,0.8-0.5,0.7-1.1c0-0.8-0.2-1.1-0.8-1.3c-0.4-0.1-0.8-0.1-1.2-0.1
				C128.2,22.1,128.1,22.1,127.9,22.1z"/>
		</g>
	</g>
	<g>
		<g>
			<path d="M155.2,26c0-1.8,0-3.5,0-5.3c0-1.3,0.2-1.6,1.5-1.6c2,0,4,0,6,0c0.5,0,1,0,1.4,0c0.8,0.1,1.1,0.5,1.1,1.3
				c0,0.9-0.3,1.4-1.1,1.5c-0.4,0.1-0.9,0-1.3,0c-0.9,0-1.9,0-2.8-0.1c-0.7,0-1,0.3-1,1c0,0,0,0.1,0,0.1c0,1.4,0.3,1.7,1.6,1.5
				c0.7-0.1,1.4,0,2.2,0c0.6,0,0.9,0.2,1,0.8c0.1,0.4,0,0.9-0.1,1.3c-0.1,0.6-0.5,0.8-1.2,0.7c-0.8-0.1-1.7-0.1-2.6-0.1
				c-0.5,0-0.8,0.3-0.9,0.8c-0.1,0.6-0.1,1.1-0.1,1.7c0,0.5,0.4,0.8,1.1,0.8c1.3,0,2.6,0,3.9,0c0.3,0,0.5,0,0.8,0.1
				c0.5,0.1,0.7,0.4,0.7,0.8c0,1.3-0.4,1.6-1.4,1.6c-2.5,0-5,0-7.5,0c-0.9,0-1.3-0.4-1.3-1.3C155.3,29.7,155.3,27.9,155.2,26
				C155.2,26,155.2,26,155.2,26z"/>
		</g>
		<g>
			<path class="st0" d="M159.1,33.1c-0.8,0-1.7,0-2.5,0c-1,0-1.5-0.5-1.5-1.5c0-1.3,0-2.6,0-4l0-1.5h-0.1l0-1.7c0-1.2,0-2.5,0-3.7
				c0-1.4,0.3-1.7,1.7-1.7c1.5,0,2.9,0,4.4,0c0.6,0,1.1,0,1.7,0c0.1,0,0.2,0,0.4,0c0.4,0,0.7,0,1.1,0c0.9,0.1,1.2,0.5,1.3,1.4
				c0,1-0.4,1.5-1.2,1.6c-0.4,0.1-0.7,0-1.1,0l-0.2,0c-0.9,0-1.9,0-2.8-0.1c-0.3,0-0.5,0.1-0.7,0.2c-0.1,0.1-0.2,0.4-0.2,0.7V23
				c0,0.7,0.1,1.1,0.3,1.3c0.2,0.2,0.5,0.2,1.2,0.1c0.6-0.1,1.1-0.1,1.7,0c0.2,0,0.3,0,0.5,0c0.6,0,1,0.3,1.1,0.9
				c0.1,0.4,0,0.9-0.1,1.4c-0.2,0.8-0.8,0.9-1.3,0.8c-0.8,0-1.6-0.1-2.5-0.1c0,0,0,0,0,0c-0.4,0-0.7,0.2-0.7,0.7
				c-0.1,0.6-0.1,1.1-0.1,1.7c0,0.3,0.1,0.6,0.9,0.6c0,0,0,0,0,0c1.3,0,2.6,0,4,0c0.3,0,0.5,0,0.8,0.1c0.5,0.1,0.8,0.4,0.8,1
				c0,0.7-0.1,1.1-0.4,1.4c-0.2,0.2-0.6,0.4-1.2,0.4c0,0,0,0,0,0c-1,0-1.9,0-2.9,0C160.5,33.1,159.8,33.1,159.1,33.1z M155.3,25.9
				L155.3,25.9l0.1,1.7c0,1.3,0,2.6,0,3.9c0,0.9,0.3,1.2,1.2,1.2c1.5,0,3,0,4.6,0c1,0,1.9,0,2.9,0c0,0,0,0,0,0c0.5,0,0.8-0.1,1-0.3
				c0.2-0.2,0.3-0.6,0.3-1.2c0-0.4-0.2-0.6-0.6-0.7c-0.2,0-0.5-0.1-0.7-0.1c-1.3,0-2.6,0-3.9,0c0,0,0,0,0,0c-0.8,0-1.1-0.3-1.1-0.9
				c0-0.5,0-1.1,0.1-1.7c0.1-0.5,0.4-0.9,1-0.9c0,0,0,0,0,0c0.9,0,1.8,0.1,2.6,0.1c0.6,0,0.9-0.1,1-0.6c0.1-0.4,0.1-0.9,0.1-1.3
				c-0.1-0.5-0.3-0.7-0.8-0.7c-0.2,0-0.3,0-0.5,0c-0.5,0-1.1,0-1.6,0c-0.6,0.1-1.1,0.1-1.4-0.2c-0.3-0.3-0.4-0.7-0.4-1.4v-0.1
				c0-0.4,0.1-0.7,0.3-0.9s0.5-0.3,0.9-0.2c0.9,0,1.9,0,2.8,0.1l0.2,0c0.4,0,0.7,0,1.1,0c0.8-0.1,1-0.5,1-1.4c0-0.7-0.3-1.1-1-1.2
				c-0.3,0-0.7,0-1,0c-0.1,0-0.2,0-0.4,0c-0.6,0-1.1,0-1.7,0c-1.4,0-2.9,0-4.4,0c-1.2,0-1.4,0.2-1.4,1.5c0,1.2,0,2.5,0,3.7
				L155.3,25.9z"/>
		</g>
	</g>
	<g>
		<g>
			<path d="M75.3,26c0-1.8,0-3.5,0-5.3c0-1.1,0.4-1.5,1.5-1.5c2.5,0,5.1,0,7.6,0c0.6,0,0.9,0.3,1,0.9c0,0.3,0,0.6,0,0.9
				c-0.1,0.7-0.4,1-1,1c-1.1,0-2.3,0-3.4-0.1c0,0-0.1,0-0.1,0c-1.8-0.1-1.8,0.8-1.5,2c0.1,0.5,0.5,0.7,1,0.7c0.6,0,1.3,0,1.9,0
				c0.5,0,1,0,1.3,0.5c0.3,0.6,0.2,1.1,0,1.7c-0.2,0.4-0.5,0.6-0.9,0.6c-0.6,0-1.2,0-1.8,0c-1,0-1.4,0.3-1.5,1.3
				c0,0.3,0,0.6-0.1,0.9c0,0.6,0.3,0.9,0.8,1c0.4,0,0.9,0,1.3,0c1,0,2.1,0,3.1,0c0.8,0,1.2,0.3,1.2,1c0,0.9-0.5,1.5-1.2,1.5
				c-2.6,0-5.1,0-7.7-0.1c-0.8,0-1.3-0.5-1.3-1.3c0-1.8,0-3.7,0-5.5C75.4,26,75.4,26,75.3,26z"/>
		</g>
		<g>
			<path class="st0" d="M84.4,33C84.4,33,84.4,33,84.4,33c-2.8,0-5.3,0-7.7-0.1c-0.9,0-1.4-0.5-1.4-1.5c0-1.3,0-2.6,0-3.9l0-1.5
				h-0.1l0-1.7c0-1.3,0-2.5,0-3.8c0-1.1,0.4-1.6,1.6-1.6c2.5,0,5.1,0,7.6,0c0,0,0,0,0,0c0.7,0,1.1,0.3,1.1,1c0,0.3,0,0.6,0,0.9
				c-0.1,0.7-0.4,1.1-1.2,1.1c0,0,0,0,0,0c-0.8,0-1.6,0-2.4,0l-1,0c0,0-0.1,0-0.1,0c-0.7,0-1.1,0.1-1.3,0.3c-0.3,0.3-0.2,1-0.1,1.5
				c0.1,0.5,0.5,0.6,0.9,0.6c0.5,0,1,0,1.5,0l0.4,0c0.5,0,1.1,0,1.4,0.6c0.3,0.5,0.3,1.1,0,1.8c-0.2,0.4-0.6,0.6-1.1,0.6
				c-0.6,0-1.2,0-1.8,0c-1,0-1.3,0.3-1.4,1.2c0,0.3,0,0.6-0.1,0.8c0,0.5,0.2,0.8,0.7,0.9c0.3,0,0.6,0,0.9,0c0.1,0,0.2,0,0.3,0
				c0,0,0,0,0,0c0.6,0,1.1,0,1.7,0l1.4,0c0.8,0,1.3,0.4,1.3,1.1c0,0.5-0.1,0.9-0.4,1.2C85.1,32.9,84.8,33,84.4,33z M75.6,25.9l0,1.7
				c0,1.3,0,2.6,0,3.9c0,0.8,0.4,1.2,1.2,1.2c2.4,0,4.9,0.1,7.7,0.1c0.3,0,0.5-0.1,0.7-0.3c0.2-0.2,0.4-0.6,0.4-1.1
				c0-0.6-0.4-0.8-1.1-0.8l-1.4,0c-0.6,0-1.1,0-1.7,0c-0.1,0-0.2,0-0.3,0c-0.3,0-0.6,0-1,0c-0.6-0.1-1-0.5-1-1.1
				c0-0.2,0-0.5,0.1-0.9c0.1-1.1,0.5-1.5,1.6-1.5c0.6,0,1.2,0,1.8,0c0.4,0,0.7-0.1,0.8-0.5c0.3-0.6,0.3-1.1,0-1.6
				c-0.3-0.4-0.7-0.4-1.2-0.4l-0.4,0c-0.5,0-1,0-1.5,0c-0.6,0-1-0.3-1.1-0.8c-0.2-0.7-0.2-1.3,0.1-1.8c0.3-0.3,0.8-0.5,1.5-0.4
				c0,0,0.1,0,0.1,0l1,0c0.8,0,1.6,0,2.4,0c0,0,0,0,0,0c0.6,0,0.9-0.3,0.9-0.9c0-0.3,0-0.6,0-0.9c0-0.6-0.3-0.8-0.9-0.8c0,0,0,0,0,0
				c-2.5,0-5.1,0-7.6,0c-1,0-1.3,0.4-1.3,1.4c0,1.3,0,2.5,0,3.8l0,1.4L75.6,25.9z"/>
		</g>
	</g>
	<g>
		<g>
			<path d="M201,25.9c0-1.7,0-3.3,0-5c0-0.2,0-0.3,0-0.5c0-1,0.4-1.4,1.4-1.3c1.7,0,3.4,0,5.1,0c0.6,0,1.2,0,1.8,0
				c0.9,0.1,1.2,0.4,1.2,1.4c0,1-0.3,1.4-1.2,1.5c-0.9,0-1.8,0-2.7,0c-0.3,0-0.6,0-0.9,0c-0.6,0.1-0.9,0.5-0.9,1.1
				c0,0.2,0,0.3,0.1,0.5c0.1,0.6,0.4,0.9,1,0.9c0.7,0,1.3,0,2,0c0.9,0,1.4,0.4,1.4,1.3c0,1.1-0.5,1.6-1.4,1.6c-0.5,0-1,0-1.6-0.1
				c-1.1-0.1-1.6,0.4-1.6,1.4c0,0.9,0,1.7,0,2.6c0,1.1-0.5,1.6-1.6,1.6c-0.3,0-0.7,0-1,0c-0.6,0-0.9-0.3-1.1-0.9
				c-0.1-0.3-0.1-0.6-0.1-0.8c0-1.8,0-3.5,0-5.3C201.1,25.9,201.1,25.9,201,25.9z"/>
		</g>
		<g>
			<path class="st0" d="M202.6,33.1c-0.1,0-0.2,0-0.4,0c-0.7,0-1-0.4-1.2-1c-0.1-0.3-0.1-0.6-0.1-0.9c0-1.3,0-2.6,0-4l0-1.2h-0.1
				l0-5.1c0-0.2,0-0.3,0-0.5c0-1.1,0.5-1.5,1.5-1.5c0,0,0,0,0,0c1.3,0,2.7,0,4,0l1.1,0c0.2,0,0.4,0,0.6,0c0.4,0,0.8,0,1.2,0
				c1,0.1,1.3,0.5,1.3,1.5c0,1.1-0.4,1.6-1.3,1.6c-0.6,0-1.3,0-1.9,0c-0.4,0-0.7,0-1.1,0c-0.2,0-0.4,0-0.6,0c-0.6,0.1-0.8,0.4-0.8,1
				c0,0.2,0,0.3,0.1,0.5c0.1,0.6,0.3,0.8,0.9,0.8c0.4,0,0.8,0,1.2,0c0.3,0,0.6,0,0.8,0c0,0,0,0,0,0c0.5,0,0.9,0.1,1.1,0.4
				c0.2,0.2,0.4,0.6,0.4,1.1c0,1.4-0.8,1.7-1.5,1.7c0,0,0,0,0,0c-0.5,0-1,0-1.6-0.1c-0.5,0-0.9,0.1-1.1,0.3
				c-0.2,0.2-0.3,0.6-0.3,1.1l0,0.7c0,0.6,0,1.2,0,1.9c0,1.2-0.5,1.7-1.7,1.7l-0.2,0C202.9,33.1,202.8,33.1,202.6,33.1z M201.3,25.8
				l0,1.5c0,1.3,0,2.6,0,4c0,0.3,0,0.6,0.1,0.8c0.1,0.5,0.4,0.8,0.9,0.8c0.2,0,0.5,0,0.7,0l0.2,0c1.1,0,1.5-0.4,1.5-1.5
				c0-0.6,0-1.2,0-1.9l0-0.7c0-0.6,0.1-1,0.4-1.2c0.3-0.3,0.7-0.4,1.3-0.3c0.6,0,1.1,0.1,1.6,0.1c0,0,0,0,0,0c0.8,0,1.2-0.5,1.2-1.5
				c0-0.4-0.1-0.7-0.3-0.9c-0.2-0.2-0.5-0.3-1-0.3c0,0,0,0,0,0c-0.3,0-0.6,0-0.8,0c-0.4,0-0.8,0-1.2,0c-0.7,0-1-0.3-1.1-1
				c0-0.1,0-0.3-0.1-0.5c-0.1-0.7,0.3-1.2,1-1.2c0.2,0,0.4,0,0.6,0c0.4,0,0.7,0,1.1,0c0.6,0,1.2,0,1.9,0c0.8,0,1.1-0.4,1.1-1.3
				c0-0.9-0.3-1.2-1.1-1.3c-0.4,0-0.8,0-1.2,0c-0.2,0-0.4,0-0.6,0l-1.1,0c-1.3,0-2.7,0-4,0c0,0,0,0,0,0c-0.9,0-1.2,0.3-1.3,1.2
				c0,0.2,0,0.3,0,0.5l0,4.9L201.3,25.8z"/>
		</g>
	</g>
	<g>
		<g>
			<path d="M187.3,19.1c1.5,0,3.1,0,4.6,0c0.5,0,1.1,0.1,1.3,0.6c0.2,0.7,0.3,1.4-0.2,2c-0.2,0.2-0.6,0.3-0.9,0.3
				c-0.6,0-1.2,0-1.8,0c-0.8,0-1.1,0.3-1.1,1.1c0,2.8,0,5.6-0.1,8.4c0,1-0.4,1.4-1.4,1.4c-0.4,0-0.9,0-1.3,0c-0.5,0-0.8-0.2-0.9-0.7
				c-0.1-0.3-0.1-0.6-0.1-0.8c0-2.8,0-5.6,0-8.4c0-0.9-0.3-1.1-1.2-1c-0.6,0-1.2,0.1-1.8,0c-0.6,0-0.9-0.4-1-0.9c0-0.1,0-0.2,0-0.3
				c-0.1-1.2,0.3-1.6,1.6-1.6C184.3,19.1,185.8,19.1,187.3,19.1C187.3,19.1,187.3,19.1,187.3,19.1z"/>
		</g>
		<g>
			<path class="st0" d="M186.5,33.1c0,0-0.1,0-0.1,0c-0.6,0-0.9-0.2-1.1-0.8c-0.1-0.3-0.1-0.5-0.1-0.9c0-2.2,0-4.3,0-6.5l0-1.9
				c0-0.4-0.1-0.6-0.2-0.8c-0.2-0.1-0.4-0.2-0.9-0.2c-0.6,0-1.2,0.1-1.8,0c-0.6,0-1-0.4-1.1-1.1c0-0.1,0-0.2,0-0.3
				c0-0.7,0.1-1.1,0.3-1.4c0.3-0.3,0.7-0.4,1.4-0.4c1,0,2.1,0,3.1,0c0.4,0,0.8,0,1.2,0l0.1,0h1.3c1.1,0,2.2,0,3.3,0
				c0.6,0,1.2,0.1,1.4,0.7c0.3,0.9,0.2,1.6-0.2,2.1c-0.3,0.3-0.8,0.4-1,0.4c-0.5,0-0.9,0-1.4,0c-0.1,0-0.3,0-0.4,0
				c-0.4,0-0.6,0-0.8,0.2c-0.2,0.1-0.2,0.4-0.2,0.8c0,2.8,0,5.6-0.1,8.4c0,1.1-0.4,1.5-1.5,1.6l-0.3,0
				C187.1,33.1,186.8,33.1,186.5,33.1z M184.3,21.8c0.4,0,0.6,0.1,0.8,0.2c0.2,0.2,0.3,0.5,0.3,1l0,1.9c0,2.2,0,4.3,0,6.5
				c0,0.3,0,0.6,0.1,0.8c0.1,0.5,0.3,0.6,0.8,0.6c0.3,0,0.7,0,1,0l0.3,0c1,0,1.3-0.4,1.3-1.3c0-2.8,0-5.6,0.1-8.4
				c0-0.5,0.1-0.8,0.3-1c0.2-0.2,0.5-0.3,1-0.3c0.1,0,0.3,0,0.4,0c0.4,0,0.9,0,1.4,0c0.3,0,0.7-0.1,0.8-0.3c0.4-0.5,0.5-1,0.2-1.8
				c-0.2-0.5-0.5-0.5-1.2-0.5c-1.1,0-2.2,0-3.3,0l-1.3,0c-0.5,0-0.9,0-1.4,0c-1,0-2.1,0-3.1,0c-0.6,0-1,0.1-1.2,0.3
				c-0.2,0.2-0.3,0.6-0.2,1.2c0,0.1,0,0.2,0,0.3c0.1,0.6,0.4,0.8,0.9,0.8c0.6,0,1.2,0,1.8,0C184.2,21.8,184.2,21.8,184.3,21.8z"/>
		</g>
	</g>
	<g>
		<g>
			<path d="M211.8,25.9c0-1.8,0-3.6,0-5.4c0-1.1,0.3-1.4,1.4-1.4c0.5,0,0.9,0,1.4,0c0.9,0,1.3,0.4,1.3,1.3c0,1.2,0,2.5,0,3.7
				c0,2.4,0,4.8-0.1,7.2c0,0.2,0,0.4,0,0.6c-0.1,0.7-0.5,1.1-1.2,1.1c-0.5,0-1,0-1.5,0c-0.9-0.1-1.2-0.4-1.2-1.3
				C211.9,29.7,211.9,27.8,211.8,25.9C211.9,25.9,211.8,25.9,211.8,25.9z"/>
		</g>
		<g>
			<path class="st0" d="M214.3,33.1c-0.4,0-0.8,0-1.2,0c-0.9-0.1-1.3-0.5-1.3-1.5c0-1.3,0-2.7,0-4l0-1.5h-0.1l0-1.7
				c0-1.3,0-2.5,0-3.8c0-1.2,0.3-1.5,1.6-1.6l0.4,0c0.3,0,0.7,0,1,0c1,0,1.4,0.4,1.4,1.4c0,0.8,0,1.7,0,2.5c0,0.4,0,0.8,0,1.2l0,1.8
				c0,1.8,0,3.6,0,5.4c0,0.2,0,0.4,0,0.6c-0.1,0.8-0.5,1.2-1.3,1.2C214.5,33.1,214.4,33.1,214.3,33.1z M211.9,25.8L211.9,25.8
				l0.1,1.7c0,1.3,0,2.7,0,4c0,0.8,0.3,1.1,1.1,1.2c0.5,0,1,0.1,1.5,0c0.6,0,1-0.3,1.1-1c0-0.2,0-0.4,0-0.6c0-1.8,0-3.6,0-5.4l0-1.8
				c0-0.4,0-0.8,0-1.2c0-0.8,0-1.7,0-2.5c0-0.8-0.3-1.1-1.2-1.2c-0.3,0-0.6,0-1,0l-0.4,0c-1.1,0-1.3,0.3-1.3,1.3c0,1.3,0,2.5,0,3.8
				L211.9,25.8z"/>
		</g>
	</g>
	<g>
		<g>
			<path d="M120.2,25.9c0,1.7,0,3.4,0,5.1c0,0.2,0,0.3,0,0.5c0,1.1-0.4,1.4-1.5,1.4c-0.4,0-0.9,0-1.3,0c-0.6,0-0.9-0.3-1.1-0.9
				c-0.1-0.2-0.1-0.4-0.1-0.7c0-3.5-0.1-6.9-0.1-10.4c0-0.3,0-0.6,0-0.9c0.1-0.7,0.4-1,1.1-1c0.6,0,1.3,0,1.9,0
				c0.8,0.1,1.1,0.4,1.1,1.2c0,1.3,0,2.6,0,3.9C120.2,24.8,120.2,25.4,120.2,25.9C120.2,25.9,120.2,25.9,120.2,25.9z"/>
		</g>
		<g>
			<path class="st0" d="M117.7,33.1c-0.1,0-0.3,0-0.4,0c-0.6,0-1-0.3-1.2-0.9c0-0.2-0.1-0.4-0.1-0.7c0-3.5-0.1-6.9-0.1-10.4l0,0
				c0-0.3,0-0.6,0-0.9c0.1-0.8,0.5-1.1,1.2-1.2c0.6,0,1.3,0,1.9,0c0.8,0.1,1.2,0.4,1.2,1.3c0,0.9,0,1.8,0,2.7c0,0.4,0,0.8,0,1.2
				c0,0.4,0,0.8,0,1.1l0,0.7h-0.1l0,5.1c0,0.1,0,0.2,0,0.3c0,1.1-0.5,1.6-1.6,1.6l-0.3,0C118.2,33.1,117.9,33.1,117.7,33.1z
				 M117.9,19.2c-0.2,0-0.4,0-0.6,0c-0.6,0-0.9,0.3-1,0.9c0,0.3,0,0.6,0,0.8l0,0c0,3.5,0.1,6.9,0.1,10.4c0,0.2,0,0.4,0.1,0.6
				c0.1,0.5,0.4,0.7,0.9,0.8c0.3,0,0.7,0,1,0l0.3,0c1,0,1.3-0.3,1.4-1.3c0-0.1,0-0.2,0-0.3l0-0.2v-5.2h0.1l0-0.4c0-0.4,0-0.8,0-1.1
				c0-0.4,0-0.8,0-1.2c0-0.9,0-1.8,0-2.7c0-0.7-0.2-1-1-1C118.7,19.3,118.3,19.2,117.9,19.2z"/>
		</g>
	</g>
	<g>
		<g>
			<path class="st0" d="M55.2,49.9C55.2,49.9,55.2,49.9,55.2,49.9"/>
		</g>
		<g>
			<polygon class="st0" points="55.2,50 55.2,50 55.2,49.7 			"/>
		</g>
	</g>
	<g>
		<g>
			<path class="st1" d="M54,55.2"/>
		</g>
	</g>
</g>
<g>
	<g>
		<path class="st0" d="M273.7,53.8v-6.3c0,0,5.7-0.5,5.7,3.2S273.7,53.8,273.7,53.8z"/>
	</g>
	<g>
		<path class="st0" d="M274.3,53.9c-0.4,0-0.6,0-0.6,0l-0.1,0v-6.6l0.1,0c0.1,0,3.4-0.3,5,1.2c0.6,0.5,0.9,1.2,0.9,2.1
			s-0.3,1.5-0.9,2.1C277.4,53.8,275.3,53.9,274.3,53.9z M273.8,53.7c0.6,0,3.3,0.1,4.7-1.2c0.5-0.5,0.8-1.1,0.8-1.9
			c0-0.8-0.3-1.4-0.8-1.9c-1.4-1.3-4.1-1.2-4.7-1.2V53.7z"/>
	</g>
</g>
</svg>
