<?xml version="1.0" encoding="utf-8"?>
<!-- Generator: Adobe Illustrator 22.0.1, SVG Export Plug-In . SVG Version: 6.00 Build 0)  -->
<svg version="1.1" id="Layer_1" xmlns="http://www.w3.org/2000/svg" xmlns:xlink="http://www.w3.org/1999/xlink" x="0px" y="0px"
	 viewBox="0 0 864 120.8" style="enable-background:new 0 0 864 120.8;" xml:space="preserve">
<style type="text/css">
	.st0{fill:#373A36;}
	.st1{fill:#F18A00;}
</style>
<g>
	<g>
		<path class="st0" d="M123.5,79.6h5.3V41.3h-5.3V30.4h50.8v17.8h-14.1v-6.9h-14.9v12.4h22.8V66h-22.8v13.5h15.1v-7.2h14v18.2h-50.9
			V79.6z"/>
		<path class="st0" d="M203,96h6.8V86l-4.5,4.5H188l-8.4-8.5V54.2l8.4-8.4h19l5.8,5.8l0.8-5.8h16.2v10.1h-4.2V96h4.2v10H203V96z
			 M205.8,80.3l4-4V59.4l-3.7-3.7h-8.6l-2.2,2.2v20.2l2.2,2.2H205.8z"/>
		<path class="st0" d="M237.2,82.1V55.9h-3.8V45.8H253v30.8l2.2,2.2h6.9l3.8-3.8v-19h-5.4V45.8h21.2v34.8h4.1v10h-16.1l-0.8-6.1
			l-6.1,6.1h-17.2L237.2,82.1z"/>
		<path class="st0" d="M289.4,80.6h4.9V55.9h-4.9V45.8h20.8v34.8h4.5v10h-25.2V80.6z M293.7,30.4h16.4v11.3h-16.4V30.4z"/>
		<path class="st0" d="M315.8,96h4.2V55.9h-4.2V45.8h16.2l0.7,5.8l5.9-5.8h18.9l8.5,8.4v27.9l-8.5,8.5h-17.9l-3.9-3.9V96h6.8v10
			h-26.8V96z M348,80.3l2.2-2.2V57.9l-2.2-2.2h-8.6l-3.7,3.7v17.5l3.4,3.4H348z"/>
		<path class="st0" d="M370.5,80.6h4.2V55.9h-4.2V45.8h16.2l0.8,6.1l6.1-6.1h16.7l5.5,5.5l5.6-5.5h17.1l8.4,8.4v26.4h3.8v10h-23.8
			v-10h4.3V59.8l-2.2-2.2h-6.4l-3.8,3.8v19.2h4.3v10h-24.4v-10h4.3V59.8l-2.2-2.2h-6.4l-3.8,3.8v19.2h4.3v10h-24.3V80.6z"/>
		<path class="st0" d="M455.2,82.1V54.2l8.4-8.4h27.8l8.4,8.4v17.5h-29.2v7.5l1.8,1.8h11l0.7-0.8v-3.3h15.7v6.5l-7.1,7.2h-29.1
			L455.2,82.1z M484.5,63.3v-6.5l-1.7-1.6h-10.7l-1.7,1.6v6.5H484.5z"/>
		<path class="st0" d="M504,80.6h4.2V55.9H504V45.8h16.2l0.8,6.1l6.1-6.1h17.2l8.4,8.4v26.4h3.8v10h-23.8v-10h4.3V59.8l-2.2-2.2
			h-6.9l-3.8,3.8v19.2h4.3v10H504V80.6z"/>
		<path class="st0" d="M564.2,83.2V55.9H558V45.8h6.2v-11H580v11h12.4v10.1H580v23l1.7,1.7h10.6v10h-20.9L564.2,83.2z"/>
		<path class="st0" d="M597,82.1V71.8h16.5v5l1.9,1.8h13.3l1.7-1.7v-8.7l-1.3-1.3h-24.4l-7.4-7.5V39.1l8.7-8.7h32.4l8.5,8.5v10.3
			h-16.5v-5l-1.9-1.9h-12.8l-1.7,1.8v8.4l1.3,1.4h24.4l7.4,7.4v20.6l-8.7,8.7h-32.8L597,82.1z"/>
		<path class="st0" d="M651.7,80.6h4.2V40.5h-4.2V30.4h20v20.4l5.1-5H692l8.4,8.4v26.4h3.8v10h-23.8v-10h4.3V59.8l-2.2-2.2h-6.9
			l-3.8,3.8v19.2h4.3v10h-24.3V80.6z"/>
		<path class="st0" d="M708.2,83.1V71l7.5-7.5h21.7v-6.8l-1.6-1.5h-9.4l-0.7,0.7V59h-16.2v-5.8l7.2-7.3h27.9l8.5,8.4v26.4h3.8v10
			h-15.8l-0.8-5.8l-5.8,5.8h-18.8L708.2,83.1z M734.3,80.7l3.1-3.1v-6.3h-12l-1.2,1.2v6.9l1.2,1.2H734.3z"/>
		<path class="st0" d="M760.5,80.6h4.2V55.9h-4.2V45.8h16.2l0.8,6.1l6.1-6.1h11.2v13.1h-10.7l-3.6,3.6v18.2h6.9v10h-26.9V80.6z"/>
		<path class="st0" d="M799.2,82.1V54.2l8.4-8.4h27.8l8.4,8.4v17.5h-29.2v7.5l1.8,1.8h11l0.7-0.8v-3.3h15.7v6.5l-7.1,7.2h-29.1
			L799.2,82.1z M828.5,63.3v-6.5l-1.7-1.6h-10.7l-1.7,1.6v6.5H828.5z"/>
	</g>
	<g>
		<g>
			<path class="st1" d="M31,86.8L17,62.5h7.5c0-1,0.1-2,0.1-3c0.1-1.1,0.2-2.2,0.4-3.2l-5.3-4.8c0.3-1.2,0.7-2.4,1.1-3.6
				c0.4-1.2,0.9-2.4,1.5-3.5c0.5-1.1,1.1-2.3,1.8-3.4c0.6-1.1,1.3-2.2,2-3.2c0.7-1,1.5-2,2.3-3l7,1.6c0.8-0.8,1.6-1.5,2.4-2.2
				c0.8-0.7,1.7-1.4,2.6-2L40,25.1c1.1-0.6,2.2-1.2,3.4-1.8c1.1-0.5,2.3-1,3.5-1.5c1.2-0.4,2.4-0.8,3.6-1.1c1.2-0.3,2.5-0.6,3.7-0.8
				c1.2-0.2,2.5-0.4,3.8-0.5l3.8,6c1.1,0,2.2,0,3.2,0.1c1.1,0.1,2.2,0.2,3.2,0.4l4.8-5.3c1.2,0.3,2.4,0.7,3.6,1.1
				c1.2,0.4,2.4,0.9,3.5,1.5c1.1,0.5,2.3,1.1,3.4,1.8c1.1,0.6,2.2,1.3,3.2,2c0.8,0.6,1.6,1.2,2.4,1.8l-9.5,16.5
				c-0.1-0.1-0.2-0.2-0.3-0.3c-0.5-0.5-1-1-1.6-1.5c-0.6-0.5-1.1-0.9-1.7-1.3c-0.6-0.4-1.2-0.8-1.8-1.2c-0.6-0.4-1.3-0.7-1.9-1
				c-0.7-0.3-1.3-0.6-2-0.8c-0.7-0.2-1.4-0.5-2.1-0.7c-0.7-0.2-1.4-0.3-2.1-0.5c-0.7-0.1-1.4-0.2-2.2-0.3c-0.7-0.1-1.4-0.1-2.2-0.1
				c-0.7,0-1.5,0-2.2,0.1c-0.7,0.1-1.4,0.2-2.1,0.3c-0.7,0.1-1.4,0.3-2.1,0.5v0c-0.7,0.2-1.4,0.4-2.1,0.6c-0.7,0.2-1.3,0.5-2,0.8
				c-0.7,0.3-1.3,0.6-1.9,1c-0.6,0.4-1.2,0.8-1.8,1.2c-0.6,0.4-1.2,0.9-1.7,1.3c-0.6,0.5-1.1,1-1.6,1.5c-0.5,0.5-1,1-1.5,1.6
				c-0.5,0.6-0.9,1.1-1.3,1.7c-0.4,0.6-0.8,1.2-1.2,1.8c-0.4,0.6-0.7,1.3-1,1.9c-0.3,0.7-0.6,1.3-0.8,2c-0.2,0.7-0.5,1.4-0.6,2.1
				c-0.2,0.7-0.3,1.4-0.5,2.1c-0.1,0.7-0.2,1.4-0.3,2.1c-0.1,0.6-0.1,1.3-0.1,1.9H45L31,86.8z"/>
		</g>
		<g>
			<path class="st0" d="M78.9,62.5h7.7c0,0.7,0,1.6-0.1,2.2c-0.1,0.7-0.2,1.4-0.3,2.2c-0.1,0.7-0.3,1.4-0.5,2.1
				c-0.2,0.7-0.4,1.4-0.6,2.1c-0.2,0.7-0.5,1.3-0.8,2c-0.3,0.7-0.6,1.3-1,1.9c-0.4,0.6-0.7,1.2-1.2,1.8c-0.4,0.6-0.9,1.2-1.3,1.7
				c-0.5,0.6-1,1.1-1.5,1.6c-0.5,0.5-1,1-1.6,1.5c-0.6,0.5-1.1,0.9-1.7,1.3c-0.6,0.4-1.2,0.8-1.8,1.2c-0.6,0.4-1.3,0.7-1.9,1
				c-0.7,0.3-1.3,0.6-2,0.8c-0.7,0.2-1.4,0.5-2.1,0.6v0c-0.7,0.2-1.4,0.3-2.1,0.5c-0.7,0.1-1.4,0.2-2.1,0.3
				c-0.7,0.1-1.4,0.1-2.2,0.1c-0.7,0-1.4,0-2.2-0.1c-0.7-0.1-1.4-0.2-2.2-0.3c-0.7-0.1-1.4-0.3-2.1-0.5c-0.7-0.2-1.4-0.4-2.1-0.7
				c-0.7-0.2-1.3-0.5-2-0.8c-0.7-0.3-1.3-0.6-1.9-1c-0.6-0.4-1.2-0.7-1.8-1.2c-0.6-0.4-1.2-0.9-1.7-1.3c-0.6-0.5-1.1-1-1.6-1.5
				c0,0-0.1-0.1-0.1-0.1l-9.5,16.5c0.7,0.6,1.5,1.1,2.2,1.7c1,0.7,2.1,1.4,3.2,2c1.1,0.6,2.2,1.2,3.4,1.8c1.1,0.5,2.3,1,3.5,1.5
				c1.2,0.4,2.4,0.8,3.6,1.1l4.8-5.3c1.1,0.2,2.1,0.3,3.2,0.4c1.1,0.1,2.2,0.1,3.2,0.1l3.8,6c1.3-0.1,2.5-0.3,3.8-0.5
				c1.3-0.2,2.5-0.5,3.7-0.8c1.2-0.3,2.4-0.7,3.6-1.1c1.2-0.4,2.4-0.9,3.5-1.5c1.1-0.5,2.3-1.1,3.4-1.8l-0.4-7.1
				c0.9-0.6,1.7-1.3,2.6-2c0.8-0.7,1.6-1.4,2.4-2.2l7,1.6c0.8-1,1.6-2,2.3-3c0.7-1,1.4-2.1,2-3.2c0.6-1.1,1.2-2.2,1.8-3.4
				c0.5-1.1,1-2.3,1.5-3.5c0.4-1.2,0.8-2.4,1.1-3.6l-5.3-4.8c0.2-1.1,0.3-2.1,0.4-3.2c0.1-1,0.1-2.3,0.1-3.3h7.9l-14-24.3L78.9,62.5
				z"/>
		</g>
	</g>
	<g>
	</g>
</g>
</svg>
