<svg id="Layer_1" xmlns="http://www.w3.org/2000/svg" viewBox="0 0 200 125"><style>.st0{fill:#282829}</style><path class="st0" d="M36.6 45.1c-.7-.5-1.4-.7-2.7-.8h-1.4c-.1 0-.2.1-.2.2v7.8c0 2.2.1 2.7 1.1 3.2.9.4 1.6.4 2.4.4 1.5 0 4-.8 4-4.2 0-2.1-.7-4.9-3.2-6.6zm-4.3-2.7c0 .3.1.3.2.4.3.1.8.1 1.5.1 1.1 0 1.8-.1 2.4-.6.9-.7 1.3-1.9 1.3-3.5 0-2.2-1.3-5.1-4.1-5.1-.5 0-.8 0-1.1.1-.2.1-.3.2-.3.6l.1 8zm-4-.5c0-5 0-5.9-.1-7-.1-1.1-.3-1.6-1.4-1.9-.3-.1-.8-.1-1.3-.1-.4 0-.6-.1-.6-.3s.2-.3.7-.3c1.7 0 3.8.1 4.5.1 1.6 0 2.9-.1 4-.1 5.9 0 7 3.2 7 4.9 0 2.7-1.5 4.3-3.4 5.8 2.7.9 6 3.3 6 7.1 0 3.5-2.7 7.2-8.8 7.2-.4 0-1.3-.1-2.3-.1-1-.1-2-.1-2.5-.1h-1.9c-.8 0-1.6.1-2.3.1-.4 0-.7-.1-.7-.3 0-.2.1-.3.5-.3.5 0 .9-.1 1.2-.1.7-.1.8-.9 1-1.8.2-1.4.2-4 .2-7l.2-5.8m20 2.2v-5.9c-.1-1-.3-1.2-1.2-1.5-.2-.1-.7-.1-1.1-.1-.3 0-.5-.1-.5-.3 0-.2.2-.3.6-.3 1.5 0 3.5.1 4.3.1.7 0 2.7-.1 3.7-.1.4 0 .6.1.6.3 0 .2-.2.3-.5.3s-.5 0-.9.1c-.8.1-1 .5-1.1 1.5-.1.9-.1 1.7-.1 5.9V48c0 4.1.8 5.7 2.2 6.8 1.3 1 2.7 1.1 3.6 1.1 1.2 0 2.7-.4 3.9-1.5 1.6-1.5 1.7-3.9 1.7-6.8v-3.5c0-4.2 0-5-.1-5.9-.1-1-.3-1.2-1.2-1.5-.2-.1-.7-.1-1.1-.1-.3 0-.5-.1-.5-.3 0-.2.2-.3.6-.3 1.5 0 3.4.1 3.5.1.3 0 2.3-.1 3.4-.1.4 0 .6.1.6.3 0 .2-.2.3-.5.3s-.5 0-.9.1c-.8.1-1 .5-1.1 1.5 0 .9-.1 1.7-.1 5.9v3c0 3.1-.3 6.4-2.8 8.4-2 1.7-4.2 2-6.1 2-1.5 0-4.5-.1-6.6-1.9-1.5-1.3-2.6-3.4-2.6-7.4l.3-4.1m23.2 12.7c-.5-.2-.6-.3-.6-1 0-1.5.1-3.3.2-3.7 0-.4.1-.7.4-.7.3 0 .3.3.3.5 0 .4.1 1 .3 1.4.6 2.1 2.8 2.8 4.6 2.8 2.5 0 4-1.6 4-3.5 0-1.2-.3-2.4-2.9-3.9l-1.7-1c-3.4-2-4.5-3.9-4.5-6.3 0-3.4 3.3-5.6 7.3-5.6 1.9 0 3.4.3 4.1.5.3.1.4.2.4.4 0 .4-.1 1.2-.1 3.4 0 .6-.1.9-.4.9-.2 0-.3-.2-.3-.5s-.1-1.1-.8-1.8c-.4-.5-1.3-1.3-3.2-1.3-2.1 0-3.9 1.1-3.9 3 0 1.2.5 2.2 3.1 3.7l1.2.7c3.8 2.1 5 4.2 5 6.8 0 2.1-.8 3.7-2.9 5.2-1.4 1-3.3 1.1-4.8 1.1-1.7-.3-3.5-.5-4.8-1.1m17.3-12.7v-5.9c-.1-1-.4-1.3-1-1.5-.3-.1-.7-.1-1.1-.1-.3 0-.5-.1-.5-.3 0-.2.2-.2.7-.2 1.1 0 3.1.1 3.9.1.7 0 2.6-.1 3.7-.1.4 0 .6.1.6.2 0 .3-.2.3-.5.3s-.5 0-.9.1c-.8.1-1 .5-1.1 1.5-.1.9-.1 1.7-.1 5.9V49c0 2.7 0 4.9.1 6.1.1.8.3 1.2 1.2 1.3.4.1 1.1.1 1.5.1.3 0 .5.2.5.3 0 .2-.2.3-.6.3-1.9 0-3.9-.1-4.7-.1-.7 0-2.6.1-3.8.1-.4 0-.6-.1-.6-.3 0-.1.1-.3.5-.3s.8 0 1-.1c.6-.1.8-.5.9-1.3.1-1.2.1-3.4.1-6.1l.2-4.9m13.8 9.3c.1 2.2.4 2.8 1 3 .5.2 1.1.2 1.5.2.3 0 .5.1.5.3 0 .2-.3.3-.7.3-1.9 0-3.2-.1-3.7-.1-.3 0-1.6.1-3.1.1-.4 0-.7 0-.7-.3 0-.2.2-.3.5-.3.4 0 .9 0 1.3-.1.8-.2.9-1 .9-3.4l.3-16.6c0-.6.2-1 .5-1 .4 0 .8.4 1.2.9.4.4 4.7 4.8 8.9 8.9 2 1.9 5.8 5.9 6.2 6.3h.1l-.3-12.4c0-1.7-.3-2.2-1-2.5-.4-.2-1.1-.2-1.5-.2-.4 0-.5-.1-.5-.3 0-.2.3-.3.7-.3 1.5 0 3.1.1 3.7.1.3 0 1.4-.1 2.8-.1.4 0 .7 0 .7.3 0 .2-.2.3-.5.3s-.5 0-.9.1c-.8.2-1 .7-1.1 2.3l-.3 17.6c0 .6-.2.9-.5.9-.5 0-.9-.3-1.2-.6-1.8-1.7-5.4-5.1-8.4-8.1-3.2-3-6.2-6.4-6.8-6.9h-.1l.5 11.6m24.5-9.3v-5.9c-.1-1-.3-1.2-1.2-1.5-.2-.1-.7-.1-1.1-.1-.3 0-.5-.1-.5-.3 0-.2.2-.3.7-.3 1.5 0 3.4.1 4.2.1h7.9c.5 0 1-.1 1.2-.2.2 0 .3-.1.5-.1s.2.1.2.3c0 .2-.2.5-.2 1.8 0 .3-.1 1.5-.2 1.8 0 .1-.1.5-.3.5-.2 0-.2-.1-.2-.4 0-.2 0-.7-.2-1-.2-.5-.5-.9-1.9-1-.5-.1-3.9-.1-4.5-.1-.1 0-.2.1-.2.3v6.9c0 .2 0 .3.2.3.7 0 4.4 0 5.1-.1.7-.1 1.1-.1 1.4-.4.2-.2.3-.4.5-.4.1 0 .2.1.2.3 0 .2-.1.6-.2 2-.1.6-.1 1.7-.1 1.9 0 .2 0 .6-.3.6-.2 0-.3-.1-.3-.2 0-.3 0-.7-.1-1-.2-.6-.5-1-1.6-1.1-.5-.1-3.8-.1-4.5-.1-.1 0-.2.1-.2.3v6.3c.1 1.9 1 2.3 3.9 2.3.8 0 2 0 2.7-.4.7-.3 1.1-.9 1.2-2.1.1-.3.1-.4.3-.4.2 0 .3.4.3.7 0 .6-.2 2.5-.4 3.1-.2.7-.5.7-1.5.7-2.2 0-3.9 0-5.3-.1-1.4 0-2.5-.1-3.4-.1h-1.6c-.7 0-1.4.1-2 .1-.4 0-.6-.1-.6-.3 0-.1.1-.3.5-.3s.8 0 1-.1c.6-.1.8-.7.9-1.5.1-1.2.1-3.4.1-5.9l-.4-4.9M143 56.8c-.5-.2-.6-.3-.6-1 0-1.5.1-3.3.2-3.7 0-.4.1-.7.4-.7.3 0 .3.3.3.5 0 .4.1 1 .3 1.4.6 2.1 2.8 2.8 4.6 2.8 2.5 0 4-1.6 4-3.5 0-1.2-.3-2.4-2.9-3.9l-1.7-1c-3.4-2-4.5-3.9-4.5-6.3 0-3.4 3.3-5.6 7.3-5.6 1.9 0 3.4.3 4.1.5.3.1.4.2.4.4 0 .4-.1 1.2-.1 3.4 0 .6-.1.9-.4.9-.2 0-.3-.2-.3-.5s-.1-1.1-.8-1.8c-.4-.5-1.3-1.3-3.2-1.3-2.1 0-3.9 1.1-3.9 3 0 1.2.5 2.2 3.1 3.7l1.2.7c3.8 2.1 5 4.2 5 6.8 0 2.1-.8 3.7-2.9 5.2-1.4 1-3.3 1.1-4.8 1.1-1.7-.3-3.5-.5-4.8-1.1m16.4 0c-.5-.2-.6-.3-.6-1 0-1.5.1-3.3.2-3.7 0-.4.1-.7.4-.7.3 0 .3.3.3.5 0 .4.1 1 .3 1.4.6 2.1 2.8 2.8 4.6 2.8 2.5 0 4-1.6 4-3.5 0-1.2-.3-2.4-2.9-3.9l-1.7-1c-3.4-2-4.5-3.9-4.5-6.3 0-3.4 3.3-5.6 7.3-5.6 1.9 0 3.4.3 4.1.5.3.1.4.2.4.4 0 .4-.1 1.2-.1 3.4 0 .6-.1.9-.4.9-.2 0-.3-.2-.3-.5s-.1-1.1-.8-1.8c-.4-.5-1.3-1.3-3.2-1.3-2.1 0-3.9 1.1-3.9 3 0 1.2.5 2.2 3.1 3.7l1.2.7c3.8 2.1 5 4.2 5 6.8 0 2.1-.8 3.7-2.9 5.2-1.4 1-3.3 1.1-4.8 1.1-1.8-.3-3.6-.5-4.8-1.1M29.7 77c0-5 0-5.9-.1-7-.1-1.1-.4-1.7-1.1-1.8-.4-.1-.8-.1-1.2-.1-.3 0-.5-.1-.5-.3 0-.2.3-.3.8-.3 1.2 0 3.3.1 4.3.1.8 0 2.8-.1 4-.1.4 0 .7.1.7.3 0 .3-.2.3-.5.3s-.6 0-1 .1c-.9.2-1.2.7-1.2 1.9-.1 1.1-.1 2-.1 7v5.8c0 3.2 0 5.8.1 7.2.1.9.3 1.5 1.3 1.6.5.1 1.2.1 1.7.1.4 0 .5.1.5.3 0 .2-.3.3-.6.3-2.2 0-4.2-.1-5.1-.1-.8 0-2.8.1-4.1.1-.4 0-.7-.1-.7-.3 0-.2.1-.3.5-.3.5 0 .9-.1 1.2-.1.7-.1.9-.7 1-1.6.2-1.4.2-4 .2-7.2l-.1-5.9m16.7 11.5c.1 2.2.4 2.8 1 3 .5.2 1.1.2 1.5.2.3 0 .5.1.5.3 0 .2-.3.3-.7.3-1.9 0-3.2-.1-3.7-.1-.3 0-1.6.1-3.1.1-.4 0-.7 0-.7-.3 0-.2.2-.3.5-.3.4 0 .9 0 1.3-.1.8-.2.9-1 .9-3.4l.3-16.6c0-.6.2-1 .5-1 .4 0 .8.4 1.2.9.4.4 4.7 4.8 8.9 8.9 2 1.9 5.8 5.9 6.2 6.3h.1l-.3-12.4c0-1.7-.3-2.2-1-2.5-.4-.2-1.1-.2-1.5-.2-.4 0-.5-.1-.5-.3 0-.2.3-.3.7-.3 1.5 0 3.1.1 3.7.1.3 0 1.4-.1 2.8-.1.4 0 .7 0 .7.3 0 .2-.2.3-.5.3s-.5 0-.9.1c-.8.2-1 .7-1.1 2.3L63 91.7c0 .6-.2.9-.5.9-.5 0-.9-.3-1.2-.6-1.8-1.7-5.4-5.1-8.4-8.1-3.2-3-6.2-6.4-6.8-6.9H46l.4 11.5M72 91.9c-.5-.2-.6-.3-.6-1 0-1.5.1-3.3.2-3.7 0-.4.1-.7.4-.7.3 0 .3.3.3.5 0 .4.1 1 .3 1.4.6 2.1 2.8 2.8 4.6 2.8 2.5 0 4-1.6 4-3.5 0-1.2-.3-2.4-2.9-3.9l-1.7-1c-3.4-2-4.5-3.9-4.5-6.3 0-3.4 3.3-5.6 7.3-5.6 1.9 0 3.4.3 4.1.5.3.1.4.2.4.4 0 .4-.1 1.1-.1 3.4 0 .6-.1.9-.4.9-.2 0-.3-.2-.3-.5s-.1-1.1-.8-1.8c-.4-.5-1.3-1.3-3.2-1.3-2.1 0-3.9 1.1-3.9 3 0 1.2.5 2.2 3.1 3.7l1.2.7c3.8 2.1 5 4.2 5 6.8 0 2.1-.8 3.7-2.9 5.2-1.4 1-3.3 1.2-4.8 1.2-1.8-.4-3.5-.6-4.8-1.2m20.1-12.7v-5.9c-.1-1-.4-1.3-1-1.5-.3-.1-.7-.1-1.1-.1-.3 0-.5-.1-.5-.3 0-.2.2-.2.7-.2 1.1 0 3.1.1 3.9.1.7 0 2.6-.1 3.7-.1.4 0 .6.1.6.2 0 .3-.2.3-.5.3s-.5 0-.9.1c-.8.1-1 .5-1.1 1.5-.1.9-.1 1.7-.1 5.9v4.9c0 2.7 0 4.9.1 6.1.1.8.3 1.2 1.2 1.3.4.1 1.1.1 1.5.1.3 0 .5.2.5.3 0 .2-.2.3-.6.3-1.9 0-3.9-.1-4.7-.1-.7 0-2.6.1-3.8.1-.4 0-.6-.1-.6-.3 0-.1.1-.3.5-.3s.8 0 1-.1c.6-.1.8-.5.9-1.3.1-1.1.1-3.4.1-6.1l.2-4.9m18.6 3.1c0 3 0 5.1.1 5.7 0 .7.1 1.7.3 2 .4.5 1.5 1.1 3.8 1.1 2.6 0 4.6-.5 6.3-1.9 1.9-1.5 2.5-4 2.5-6.9 0-3.5-1.4-5.8-2.7-7-2.7-2.4-5.8-2.7-8.1-2.7-.6 0-1.5.1-1.8.2-.3.1-.4.2-.4.6v8.9zm-3.9-3.1v-5.9c-.1-1-.3-1.2-1.2-1.5-.2-.1-.7-.1-1.2-.1-.3 0-.5-.1-.5-.3 0-.2.2-.3.7-.3 1.5 0 3.4.1 4.2.1.9 0 3-.1 4.7-.1 3.6 0 8.5 0 11.6 3.2 1.4 1.4 2.7 3.8 2.7 7.1 0 3.5-1.5 6.2-3.2 7.8-1.3 1.3-4.4 3.3-9.7 3.3-1.1 0-2.3-.1-3.4-.2-1.2-.1-2.2-.2-2.9-.2H107c-.7 0-1.4.1-2 .1-.4 0-.6-.1-.6-.3 0-.1.1-.3.5-.3s.8 0 1-.1c.6-.1.8-.7.9-1.5.1-1.2.1-3.4.1-5.9l-.1-4.9m28.4 0v-5.9c-.1-1-.3-1.2-1.2-1.5-.2-.1-.7-.1-1.2-.1-.3 0-.5-.1-.5-.3 0-.2.2-.3.7-.3 1.5 0 3.4.1 4.2.1h7.9c.5 0 1-.1 1.2-.2.2 0 .3-.1.5-.1s.2.1.2.3c0 .2-.2.5-.2 1.8 0 .3-.1 1.5-.2 1.8 0 .1-.1.5-.3.5-.2 0-.2-.1-.2-.4 0-.2 0-.7-.2-1-.2-.5-.5-.9-1.9-1-.5-.1-3.9-.1-4.5-.1-.1 0-.2.1-.2.3V80c0 .2 0 .3.2.3.7 0 4.4 0 5.1-.1.7-.1 1.1-.1 1.4-.4.2-.2.3-.4.5-.4.1 0 .2.1.2.3 0 .2-.1.6-.2 2-.1.6-.1 1.7-.1 1.9 0 .2 0 .6-.3.6-.2 0-.3-.1-.3-.2 0-.3 0-.7-.1-1-.2-.6-.5-1-1.6-1.1-.5-.1-3.8-.1-4.5-.1-.1 0-.2.1-.2.3v6.3c.1 1.9 1 2.3 3.9 2.3.8 0 2 0 2.7-.4.7-.3 1.1-.9 1.2-2.1.1-.3.1-.4.3-.4.2 0 .3.4.3.7 0 .6-.2 2.5-.4 3.1-.2.7-.5.7-1.5.7-2.2 0-3.9 0-5.3-.1-1.4 0-2.5-.1-3.4-.1h-1.6c-.7 0-1.4.1-2 .1-.4 0-.6-.1-.6-.3 0-.1.1-.3.5-.3s.8 0 1-.1c.6-.1.8-.7.9-1.5.1-1.2.1-3.4.1-5.9l-.3-4.9m23.3 2.2c0 .3.1.4.3.5.6.2 1.5.3 2.2.3 1.1 0 1.5-.1 2-.5.9-.6 1.9-1.8 1.9-4.1 0-3.9-2.7-5-4.4-5-.7 0-1.4 0-1.7.1-.2.1-.3.2-.3.4v8.3zm-3.7-2.2v-5.9c-.1-1-.3-1.2-1.2-1.5-.2-.1-.7-.1-1.1-.1-.3 0-.5-.1-.5-.3 0-.2.2-.3.7-.3 1.5 0 3.4.1 3.9.1 1 0 3.6-.1 4.5-.1 1.8 0 3.9.2 5.5 1.2.8.6 2 2 2 3.8 0 2.1-1.2 3.9-4 6.2 2.6 3.2 4.6 5.7 6.3 7.4 1.6 1.6 2.6 1.7 3.1 1.8.3.1.5.1.7.1s.4.2.4.3c0 .2-.2.3-.6.3h-2.8c-1.6 0-2.4-.2-3.2-.6-1.2-.6-2.3-1.9-3.9-4.1-1.2-1.5-2.4-3.4-2.7-3.8-.2-.2-.3-.2-.5-.2l-2.6-.1c-.1 0-.2.1-.2.2v.4c0 2.6 0 4.8.2 5.9.1.8.2 1.3 1.1 1.5.4.1 1.1.1 1.4.1.2 0 .4.2.4.3 0 .2-.2.3-.6.3-1.7 0-4.1-.1-4.5-.1-.6 0-2.4.1-3.5.1-.4 0-.6-.1-.6-.3 0-.1.1-.3.5-.3s.8 0 1-.1c.6-.1.8-.7.9-1.5.1-1.2.1-3.4.1-5.9l-.2-4.8"/></svg>